<?xml version="1.0" encoding="UTF-8" standalone="no"?>
<!-- Created with Inkscape (http://www.inkscape.org/) -->

<svg
   width="230.13985mm"
   height="113.83357mm"
   viewBox="0 0 230.13985 113.83357"
   version="1.1"
   id="svg2905"
   inkscape:version="1.2.1 (9c6d41e410, 2022-07-14)"
   sodipodi:docname="git_decentralise_4.svg"
   xmlns:inkscape="http://www.inkscape.org/namespaces/inkscape"
   xmlns:sodipodi="http://sodipodi.sourceforge.net/DTD/sodipodi-0.dtd"
   xmlns="http://www.w3.org/2000/svg"
   xmlns:svg="http://www.w3.org/2000/svg">
  <sodipodi:namedview
     id="namedview2907"
     pagecolor="#ffffff"
     bordercolor="#666666"
     borderopacity="1.0"
     inkscape:showpageshadow="2"
     inkscape:pageopacity="0.0"
     inkscape:pagecheckerboard="0"
     inkscape:deskcolor="#d1d1d1"
     inkscape:document-units="mm"
     showgrid="false"
     inkscape:zoom="0.74564394"
     inkscape:cx="692.0193"
     inkscape:cy="-79.126238"
     inkscape:window-width="1920"
     inkscape:window-height="1017"
     inkscape:window-x="-8"
     inkscape:window-y="-8"
     inkscape:window-maximized="1"
     inkscape:current-layer="layer1" />
  <defs
     id="defs2902">
    <pattern
       id="EMFhbasepattern"
       patternUnits="userSpaceOnUse"
       width="6"
       height="6"
       x="0"
       y="0" />
  </defs>
  <g
     inkscape:label="Calque 1"
     inkscape:groupmode="layer"
     id="layer1"
     transform="translate(78.166694,-169.47031)">
    <path
       style="fill:#9bbb59;fill-opacity:1;fill-rule:evenodd;stroke:none;stroke-width:0.264583"
       d="m -77.797784,173.74767 v 0 c 0,-0.68797 0.179469,-1.36596 0.528438,-1.95422 0.338998,-0.59824 0.837525,-1.09676 1.425786,-1.43576 0.598232,-0.34897 1.276228,-0.52844 1.964195,-0.52844 l 50.909541,0.01 v 0 c 0.687967,0 1.365964,0.17947 1.954225,0.52844 0.598231,0.339 1.096756,0.83752 1.435757,1.42579 0.348966,0.59823 0.528436,1.27622 0.528436,1.96419 v 0 15.66371 0 c 0,0.68796 -0.17947,1.36596 -0.528436,1.95422 -0.339001,0.59823 -0.837526,1.09676 -1.425787,1.43576 -0.598231,0.34897 -1.276228,0.52844 -1.964195,0.52844 h -50.919511 v 0 c -0.687967,0 -1.365964,-0.17947 -1.954225,-0.52844 -0.598232,-0.339 -1.096759,-0.83753 -1.435757,-1.42579 -0.348968,-0.59823 -0.528438,-1.27623 -0.528438,-1.96419 z"
       id="path2912" />
    <path
       style="fill:#728a41;fill-opacity:1;fill-rule:evenodd;stroke:none;stroke-width:0.264583"
       d="m -77.438845,173.74767 c 0,0 0,0 0,0 h -0.358939 z"
       id="path2914" />
    <path
       style="fill:#728a41;fill-opacity:1;fill-rule:evenodd;stroke:none;stroke-width:0.264583"
       d="m -77.797784,173.74767 h -0.35894 c 0,-0.37888 0.04985,-0.74779 0.149558,-1.10673 l 0.348969,0.0897 0.338998,0.0997 c -0.07976,0.29912 -0.119646,0.6082 -0.119646,0.91729 z"
       id="path2916" />
    <path
       style="fill:#728a41;fill-opacity:1;fill-rule:evenodd;stroke:none;stroke-width:0.264583"
       d="m -77.658197,172.73068 -0.348969,-0.0897 c 0.09971,-0.35894 0.239293,-0.70791 0.428733,-1.02696 l 0.309087,0.17947 0.309086,0.17947 c -0.159528,0.2692 -0.279175,0.55835 -0.358939,0.85746 z"
       id="path2918" />
    <path
       style="fill:#728a41;fill-opacity:1;fill-rule:evenodd;stroke:none;stroke-width:0.264583"
       d="m -77.269346,171.79345 -0.309087,-0.17947 c 0.18944,-0.31906 0.408792,-0.61818 0.677997,-0.88738 l 0.249263,0.25923 0.259234,0.24927 c -0.219352,0.21935 -0.408792,0.46861 -0.568321,0.73782 z"
       id="path2920" />
    <path
       style="fill:#728a41;fill-opacity:1;fill-rule:evenodd;stroke:none;stroke-width:0.264583"
       d="m -76.651173,170.98583 -0.249263,-0.25923 c 0.259233,-0.25923 0.548379,-0.48856 0.877406,-0.678 l 0.17947,0.30909 0.17947,0.30909 c -0.269205,0.15952 -0.518468,0.34896 -0.727849,0.56832 z"
       id="path2922" />
    <path
       style="fill:#728a41;fill-opacity:1;fill-rule:evenodd;stroke:none;stroke-width:0.264583"
       d="m -75.84356,170.35769 -0.17947,-0.30909 c 0.319057,-0.18944 0.668026,-0.32902 1.036936,-0.42873 l 0.08973,0.34897 0.08974,0.339 c -0.299117,0.0798 -0.588262,0.19941 -0.857466,0.35894 z"
       id="path2924" />
    <path
       style="fill:#728a41;fill-opacity:1;fill-rule:evenodd;stroke:none;stroke-width:0.264583"
       d="m -74.896359,169.96884 -0.08973,-0.34897 c 0.358939,-0.0997 0.727849,-0.14956 1.106729,-0.14956 v 0.35894 0.35894 c -0.309086,0 -0.628144,0.0399 -0.927259,0.11965 z"
       id="path2926" />
    <path
       style="fill:#728a41;fill-opacity:1;fill-rule:evenodd;stroke:none;stroke-width:0.264583"
       d="m -73.879365,169.47031 c 0,0 0,0 0,0 v 0.35894 z"
       id="path2928" />
    <path
       style="fill:#728a41;fill-opacity:1;fill-rule:evenodd;stroke:none;stroke-width:0.264583"
       d="m -73.879365,170.18819 v -0.35894 -0.35894 l 50.909541,0.01 v 0.35894 0.35894 z"
       id="path2930" />
    <path
       style="fill:#728a41;fill-opacity:1;fill-rule:evenodd;stroke:none;stroke-width:0.264583"
       d="m -22.969824,170.19816 c 0,0 0,0 0,0 v -0.35894 z"
       id="path2932" />
    <path
       style="fill:#728a41;fill-opacity:1;fill-rule:evenodd;stroke:none;stroke-width:0.264583"
       d="m -22.969824,169.83922 v -0.35894 c 0.37888,0 0.747789,0.0499 1.106728,0.14956 l -0.08973,0.34897 -0.09971,0.339 c -0.299116,-0.0798 -0.608202,-0.11965 -0.917288,-0.11965 z"
       id="path2934" />
    <path
       style="fill:#728a41;fill-opacity:1;fill-rule:evenodd;stroke:none;stroke-width:0.264583"
       d="m -21.95283,169.97881 0.08973,-0.34897 c 0.358939,0.0997 0.707908,0.23929 1.026967,0.42873 l -0.179466,0.30909 -0.179469,0.30909 c -0.269206,-0.15953 -0.55835,-0.27918 -0.857467,-0.35894 z"
       id="path2936" />
    <path
       style="fill:#728a41;fill-opacity:1;fill-rule:evenodd;stroke:none;stroke-width:0.264583"
       d="m -21.015599,170.36766 0.17947,-0.30909 c 0.319056,0.18944 0.618172,0.4088 0.887375,0.678 l -0.259233,0.24926 -0.249264,0.25924 c -0.21935,-0.21936 -0.468614,-0.4088 -0.737817,-0.56832 z"
       id="path2938" />
    <path
       style="fill:#728a41;fill-opacity:1;fill-rule:evenodd;stroke:none;stroke-width:0.264583"
       d="m -20.207987,170.98583 0.259233,-0.24926 c 0.259234,0.25923 0.488556,0.54838 0.677998,0.87741 l -0.309086,0.17947 -0.309087,0.17947 c -0.15953,-0.26921 -0.348969,-0.51847 -0.568322,-0.72785 z"
       id="path2940" />
    <path
       style="fill:#728a41;fill-opacity:1;fill-rule:evenodd;stroke:none;stroke-width:0.264583"
       d="m -19.579842,171.79345 0.309086,-0.17947 c 0.189439,0.31905 0.329028,0.66802 0.428733,1.03693 l -0.348969,0.0897 -0.338998,0.0897 c -0.07976,-0.29911 -0.199411,-0.58826 -0.358939,-0.85746 z"
       id="path2942" />
    <path
       style="fill:#728a41;fill-opacity:1;fill-rule:evenodd;stroke:none;stroke-width:0.264583"
       d="m -19.190992,172.74065 0.348969,-0.0897 c 0.09971,0.35894 0.149556,0.72785 0.149556,1.10673 h -0.358939 -0.358939 c 0,-0.30909 -0.03988,-0.62814 -0.119645,-0.92726 z"
       id="path2944" />
    <path
       style="fill:#728a41;fill-opacity:1;fill-rule:evenodd;stroke:none;stroke-width:0.264583"
       d="m -19.410345,173.75764 h 0.358939 0.358939 v 15.66371 h -0.358939 -0.358939 z"
       id="path2946" />
    <path
       style="fill:#728a41;fill-opacity:1;fill-rule:evenodd;stroke:none;stroke-width:0.264583"
       d="m -19.051406,189.42135 h 0.358939 c 0,0.37888 -0.04985,0.74779 -0.149556,1.10673 l -0.348969,-0.0897 -0.338998,-0.0997 c 0.07976,-0.29912 0.119645,-0.60821 0.119645,-0.91729 z"
       id="path2948" />
    <path
       style="fill:#728a41;fill-opacity:1;fill-rule:evenodd;stroke:none;stroke-width:0.264583"
       d="m -19.190992,190.43834 0.348969,0.0897 c -0.09971,0.35894 -0.239294,0.70791 -0.428733,1.02697 l -0.309086,-0.17947 -0.309087,-0.17947 c 0.159528,-0.26921 0.279175,-0.55835 0.358939,-0.85747 z"
       id="path2950" />
    <path
       style="fill:#728a41;fill-opacity:1;fill-rule:evenodd;stroke:none;stroke-width:0.264583"
       d="m -19.579842,191.37557 0.309086,0.17947 c -0.189442,0.31906 -0.408792,0.61817 -0.677998,0.88738 l -0.249261,-0.25923 -0.259236,-0.24927 c 0.219353,-0.21935 0.408792,-0.46861 0.568322,-0.73782 z"
       id="path2952" />
    <path
       style="fill:#728a41;fill-opacity:1;fill-rule:evenodd;stroke:none;stroke-width:0.264583"
       d="m -20.198015,192.18319 0.249261,0.25923 c -0.259233,0.25923 -0.548378,0.48856 -0.877406,0.678 l -0.179469,-0.30909 -0.17947,-0.30909 c 0.269203,-0.15953 0.518467,-0.34897 0.727848,-0.56832 z"
       id="path2954" />
    <path
       style="fill:#728a41;fill-opacity:1;fill-rule:evenodd;stroke:none;stroke-width:0.264583"
       d="m -21.005629,192.81133 0.179469,0.30909 c -0.319058,0.18944 -0.668025,0.32902 -1.036936,0.42873 l -0.08973,-0.34897 -0.08974,-0.339 c 0.299117,-0.0798 0.588262,-0.19941 0.857467,-0.35894 z"
       id="path2956" />
    <path
       style="fill:#728a41;fill-opacity:1;fill-rule:evenodd;stroke:none;stroke-width:0.264583"
       d="m -21.95283,193.20018 0.08973,0.34897 c -0.358939,0.0997 -0.727848,0.14956 -1.106728,0.14956 v -0.35894 -0.35894 c 0.309086,0 0.628144,-0.0399 0.927258,-0.11965 z"
       id="path2958" />
    <path
       style="fill:#728a41;fill-opacity:1;fill-rule:evenodd;stroke:none;stroke-width:0.264583"
       d="m -22.969824,192.98083 v 0.35894 0.35894 h -50.919511 v -0.35894 -0.35894 z"
       id="path2960" />
    <path
       style="fill:#728a41;fill-opacity:1;fill-rule:evenodd;stroke:none;stroke-width:0.264583"
       d="m -73.889335,193.33977 v 0.35894 c -0.378881,0 -0.74779,-0.0498 -1.10673,-0.14956 l 0.08974,-0.34897 0.09971,-0.339 c 0.299116,0.0798 0.608203,0.11965 0.917289,0.11965 z"
       id="path2962" />
    <path
       style="fill:#728a41;fill-opacity:1;fill-rule:evenodd;stroke:none;stroke-width:0.264583"
       d="m -74.90633,193.20018 -0.08974,0.34897 c -0.358939,-0.0997 -0.707908,-0.23929 -1.026965,-0.42873 l 0.17947,-0.30909 0.17947,-0.30909 c 0.269204,0.15953 0.558349,0.27918 0.857466,0.35894 z"
       id="path2964" />
    <path
       style="fill:#728a41;fill-opacity:1;fill-rule:evenodd;stroke:none;stroke-width:0.264583"
       d="m -75.84356,192.81133 -0.17947,0.30909 c -0.319057,-0.18944 -0.618173,-0.4088 -0.887377,-0.678 l 0.259234,-0.24926 0.249263,-0.25924 c 0.219352,0.21935 0.468615,0.40879 0.73782,0.56832 z"
       id="path2966" />
    <path
       style="fill:#728a41;fill-opacity:1;fill-rule:evenodd;stroke:none;stroke-width:0.264583"
       d="m -76.651173,192.19316 -0.259234,0.24926 c -0.259234,-0.25923 -0.488556,-0.54838 -0.677996,-0.87741 l 0.309086,-0.17947 0.309087,-0.17947 c 0.159528,0.26921 0.348968,0.51847 0.56832,0.72785 z"
       id="path2968" />
    <path
       style="fill:#728a41;fill-opacity:1;fill-rule:evenodd;stroke:none;stroke-width:0.264583"
       d="m -77.279317,191.38554 -0.309086,0.17947 c -0.18944,-0.31905 -0.329028,-0.66802 -0.428733,-1.03693 l 0.348968,-0.0897 0.338999,-0.0897 c 0.07976,0.29911 0.19941,0.58826 0.358939,0.85746 z"
       id="path2970" />
    <path
       style="fill:#728a41;fill-opacity:1;fill-rule:evenodd;stroke:none;stroke-width:0.264583"
       d="m -77.668168,190.43834 -0.348968,0.0897 c -0.09971,-0.35894 -0.149558,-0.72785 -0.149558,-1.10673 h 0.358939 0.358939 c 0,0.30908 0.03988,0.62814 0.119647,0.92726 z"
       id="path2972" />
    <path
       style="fill:#728a41;fill-opacity:1;fill-rule:evenodd;stroke:none;stroke-width:0.264583"
       d="m -78.166694,189.42135 c 0,0 0,0 0,0 h 0.358939 z"
       id="path2974" />
    <path
       style="fill:#728a41;fill-opacity:1;fill-rule:evenodd;stroke:none;stroke-width:0.264583"
       d="m -77.448816,189.42135 h -0.358939 -0.358939 l 0.01,-15.67368 h 0.35894 0.358939 z"
       id="path2976" />
    <text
       xml:space="preserve"
       style="font-style:normal;font-variant:normal;font-weight:400;font-size:6.33346px;line-height:125%;font-family:Calibri;text-align:start;letter-spacing:0px;word-spacing:0px;text-anchor:start;fill:#000000;fill-opacity:1;stroke:none;stroke-width:0.264583"
       x="-64.975677"
       y="184.11702"
       id="text2982"><tspan
         sodipodi:role="line"
         x="-64.975677"
         y="184.11702"
         id="tspan2980"
         style="stroke-width:0.264583"><tspan
           dx="0"
           dy="0"
           style="font-style:normal;font-variant:normal;font-weight:400;font-size:6.33346px;font-family:Calibri;fill:#ffffff;stroke-width:0.264583"
           id="tspan2978">Développeur</tspan></tspan></text>
    <path
       style="fill:#9bbb59;fill-opacity:1;fill-rule:evenodd;stroke:none;stroke-width:0.264583"
       d="m -77.70805,263.35285 v 0 c 0,-0.68797 0.17947,-1.36596 0.528439,-1.95423 0.338998,-0.59823 0.837524,-1.09675 1.425786,-1.43575 0.598232,-0.34897 1.276228,-0.52844 1.964195,-0.52844 l 50.929481,0.01 v 0 c 0.687967,0 1.365964,0.17947 1.954225,0.52844 0.598231,0.339 1.096759,0.83752 1.435757,1.42578 0.348969,0.59824 0.528439,1.27623 0.528439,1.9642 v 0 15.6637 0 c 0,0.68797 -0.17947,1.36597 -0.528439,1.95423 -0.338998,0.59823 -0.837526,1.09676 -1.425787,1.43576 -0.598231,0.34897 -1.276228,0.52843 -1.964195,0.52843 h -50.939452 v 0 c -0.687967,0 -1.365963,-0.17946 -1.954224,-0.52843 -0.598232,-0.339 -1.096759,-0.83753 -1.435757,-1.42579 -0.348969,-0.59823 -0.528438,-1.27623 -0.528438,-1.9642 z"
       id="path2984" />
    <path
       style="fill:#728a41;fill-opacity:1;fill-rule:evenodd;stroke:none;stroke-width:0.264583"
       d="m -77.349111,263.35285 c 0,0 0,0 0,0 h -0.358939 z"
       id="path2986" />
    <path
       style="fill:#728a41;fill-opacity:1;fill-rule:evenodd;stroke:none;stroke-width:0.264583"
       d="m -77.70805,263.35285 h -0.358939 c 0,-0.37888 0.04985,-0.74779 0.149558,-1.10673 l 0.348969,0.0897 0.338998,0.0997 c -0.07976,0.29911 -0.119647,0.6082 -0.119647,0.91729 z"
       id="path2988" />
    <path
       style="fill:#728a41;fill-opacity:1;fill-rule:evenodd;stroke:none;stroke-width:0.264583"
       d="m -77.568462,262.33585 -0.348969,-0.0897 c 0.09971,-0.35893 0.239293,-0.7079 0.428733,-1.02696 l 0.309087,0.17947 0.309086,0.17947 c -0.159528,0.2692 -0.279175,0.55835 -0.358939,0.85747 z"
       id="path2990" />
    <path
       style="fill:#728a41;fill-opacity:1;fill-rule:evenodd;stroke:none;stroke-width:0.264583"
       d="m -77.179611,261.39862 -0.309087,-0.17947 c 0.18944,-0.31905 0.408792,-0.61817 0.677996,-0.88737 l 0.249264,0.25923 0.259233,0.24926 c -0.219351,0.21936 -0.408791,0.46862 -0.56832,0.73782 z"
       id="path2992" />
    <path
       style="fill:#728a41;fill-opacity:1;fill-rule:evenodd;stroke:none;stroke-width:0.264583"
       d="m -76.561438,260.59101 -0.249264,-0.25923 c 0.259234,-0.25924 0.54838,-0.48856 0.877407,-0.678 l 0.17947,0.30909 0.179469,0.30908 c -0.269204,0.15953 -0.518467,0.34897 -0.727849,0.56832 z"
       id="path2994" />
    <path
       style="fill:#728a41;fill-opacity:1;fill-rule:evenodd;stroke:none;stroke-width:0.264583"
       d="m -75.753825,259.96287 -0.17947,-0.30909 c 0.319057,-0.18944 0.668026,-0.32903 1.036936,-0.42873 l 0.08974,0.34897 0.08974,0.33899 c -0.299116,0.0798 -0.588262,0.19942 -0.857466,0.35894 z"
       id="path2996" />
    <path
       style="fill:#728a41;fill-opacity:1;fill-rule:evenodd;stroke:none;stroke-width:0.264583"
       d="m -74.806624,259.57402 -0.08974,-0.34897 c 0.358939,-0.0997 0.727848,-0.14956 1.106729,-0.14956 v 0.35894 0.35894 c -0.309087,0 -0.628144,0.0399 -0.92726,0.11964 z"
       id="path2998" />
    <path
       style="fill:#728a41;fill-opacity:1;fill-rule:evenodd;stroke:none;stroke-width:0.264583"
       d="m -73.78963,259.07549 c 0,0 0,0 0,0 v 0.35894 z"
       id="path3000" />
    <path
       style="fill:#728a41;fill-opacity:1;fill-rule:evenodd;stroke:none;stroke-width:0.264583"
       d="m -73.78963,259.79337 v -0.35894 -0.35894 l 50.929481,0.01 v 0.35894 0.35894 z"
       id="path3002" />
    <path
       style="fill:#728a41;fill-opacity:1;fill-rule:evenodd;stroke:none;stroke-width:0.264583"
       d="m -22.860149,259.80334 c 0,0 0,0 0,0 v -0.35894 z"
       id="path3004" />
    <path
       style="fill:#728a41;fill-opacity:1;fill-rule:evenodd;stroke:none;stroke-width:0.264583"
       d="m -22.860149,259.4444 v -0.35894 c 0.37888,0 0.747792,0.0498 1.106731,0.14956 l -0.08974,0.34897 -0.09971,0.33899 c -0.299114,-0.0798 -0.608203,-0.11964 -0.917289,-0.11964 z"
       id="path3006" />
    <path
       style="fill:#728a41;fill-opacity:1;fill-rule:evenodd;stroke:none;stroke-width:0.264583"
       d="m -21.843154,259.58399 0.08974,-0.34897 c 0.358939,0.0997 0.707906,0.23929 1.026964,0.42873 l -0.17947,0.30909 -0.179469,0.30908 c -0.269206,-0.15952 -0.55835,-0.27917 -0.857467,-0.35894 z"
       id="path3008" />
    <path
       style="fill:#728a41;fill-opacity:1;fill-rule:evenodd;stroke:none;stroke-width:0.264583"
       d="m -20.905924,259.97284 0.17947,-0.30909 c 0.319056,0.18944 0.618172,0.40879 0.887378,0.678 l -0.259236,0.24926 -0.249261,0.25924 c -0.219353,-0.21936 -0.468617,-0.4088 -0.73782,-0.56833 z"
       id="path3010" />
    <path
       style="fill:#728a41;fill-opacity:1;fill-rule:evenodd;stroke:none;stroke-width:0.264583"
       d="m -20.098312,260.59101 0.259236,-0.24926 c 0.259234,0.25923 0.488556,0.54838 0.677995,0.8774 l -0.309086,0.17947 -0.309087,0.17947 c -0.159528,-0.2692 -0.348969,-0.51846 -0.568319,-0.72784 z"
       id="path3012" />
    <path
       style="fill:#728a41;fill-opacity:1;fill-rule:evenodd;stroke:none;stroke-width:0.264583"
       d="m -19.470167,261.39862 0.309086,-0.17947 c 0.189442,0.31906 0.329028,0.66803 0.428733,1.03694 l -0.348969,0.0897 -0.338998,0.0897 c -0.07976,-0.29912 -0.199411,-0.58826 -0.358939,-0.85747 z"
       id="path3014" />
    <path
       style="fill:#728a41;fill-opacity:1;fill-rule:evenodd;stroke:none;stroke-width:0.264583"
       d="m -19.081317,262.34582 0.348969,-0.0897 c 0.09971,0.35894 0.149559,0.72785 0.149559,1.10673 h -0.358939 -0.358939 c 0,-0.30908 -0.03988,-0.62814 -0.119648,-0.92726 z"
       id="path3016" />
    <path
       style="fill:#728a41;fill-opacity:1;fill-rule:evenodd;stroke:none;stroke-width:0.264583"
       d="m -19.300667,263.36282 h 0.358939 0.358939 v 15.6637 h -0.358939 -0.358939 z"
       id="path3018" />
    <path
       style="fill:#728a41;fill-opacity:1;fill-rule:evenodd;stroke:none;stroke-width:0.264583"
       d="m -18.941728,279.02652 h 0.358939 c 0,0.37888 -0.04985,0.7478 -0.149559,1.10673 l -0.348969,-0.0897 -0.338998,-0.0997 c 0.07976,-0.29911 0.119648,-0.6082 0.119648,-0.91729 z"
       id="path3020" />
    <path
       style="fill:#728a41;fill-opacity:1;fill-rule:evenodd;stroke:none;stroke-width:0.264583"
       d="m -19.081317,280.04352 0.348969,0.0897 c -0.09971,0.35894 -0.239291,0.70791 -0.428733,1.02697 l -0.309086,-0.17947 -0.309087,-0.17947 c 0.159528,-0.26921 0.279175,-0.55835 0.358939,-0.85747 z"
       id="path3022" />
    <path
       style="fill:#728a41;fill-opacity:1;fill-rule:evenodd;stroke:none;stroke-width:0.264583"
       d="m -19.470167,280.98075 0.309086,0.17947 c -0.189439,0.31905 -0.408792,0.61817 -0.677995,0.88738 l -0.249264,-0.25924 -0.259233,-0.24926 c 0.21935,-0.21935 0.408791,-0.46862 0.568319,-0.73782 z"
       id="path3024" />
    <path
       style="fill:#728a41;fill-opacity:1;fill-rule:evenodd;stroke:none;stroke-width:0.264583"
       d="m -20.08834,281.78836 0.249264,0.25924 c -0.259236,0.25923 -0.548381,0.48855 -0.877409,0.67799 l -0.179469,-0.30908 -0.17947,-0.30909 c 0.269206,-0.15953 0.518467,-0.34897 0.727851,-0.56832 z"
       id="path3026" />
    <path
       style="fill:#728a41;fill-opacity:1;fill-rule:evenodd;stroke:none;stroke-width:0.264583"
       d="m -20.895954,282.41651 0.179469,0.30908 c -0.319055,0.18944 -0.668025,0.32903 -1.036933,0.42874 l -0.08974,-0.34897 -0.08973,-0.339 c 0.299114,-0.0798 0.588261,-0.19941 0.857464,-0.35894 z"
       id="path3028" />
    <path
       style="fill:#728a41;fill-opacity:1;fill-rule:evenodd;stroke:none;stroke-width:0.264583"
       d="m -21.843154,282.80536 0.08974,0.34897 c -0.358939,0.0997 -0.727851,0.14955 -1.106731,0.14955 v -0.35894 -0.35893 c 0.309086,0 0.628144,-0.0399 0.927261,-0.11965 z"
       id="path3030" />
    <path
       style="fill:#728a41;fill-opacity:1;fill-rule:evenodd;stroke:none;stroke-width:0.264583"
       d="m -22.860149,282.58601 v 0.35893 0.35894 h -50.939452 v -0.35894 -0.35893 z"
       id="path3032" />
    <path
       style="fill:#728a41;fill-opacity:1;fill-rule:evenodd;stroke:none;stroke-width:0.264583"
       d="m -73.799601,282.94494 v 0.35894 c -0.37888,0 -0.74779,-0.0498 -1.106729,-0.14955 l 0.08973,-0.34897 0.09971,-0.339 c 0.299116,0.0798 0.608202,0.11965 0.917289,0.11965 z"
       id="path3034" />
    <path
       style="fill:#728a41;fill-opacity:1;fill-rule:evenodd;stroke:none;stroke-width:0.264583"
       d="m -74.816595,282.80536 -0.08973,0.34897 c -0.358939,-0.0997 -0.707908,-0.2393 -1.026965,-0.42874 l 0.17947,-0.30908 0.179469,-0.30909 c 0.269205,0.15953 0.55835,0.27917 0.857466,0.35894 z"
       id="path3036" />
    <path
       style="fill:#728a41;fill-opacity:1;fill-rule:evenodd;stroke:none;stroke-width:0.264583"
       d="m -75.753825,282.41651 -0.17947,0.30908 c -0.319057,-0.18944 -0.618173,-0.40879 -0.887377,-0.67799 l 0.259234,-0.24927 0.249263,-0.25923 c 0.219352,0.21935 0.468615,0.40879 0.737819,0.56832 z"
       id="path3038" />
    <path
       style="fill:#728a41;fill-opacity:1;fill-rule:evenodd;stroke:none;stroke-width:0.264583"
       d="m -76.561438,281.79833 -0.259234,0.24927 c -0.259234,-0.25924 -0.488556,-0.54838 -0.677997,-0.87741 l 0.309087,-0.17947 0.309087,-0.17947 c 0.159528,0.26921 0.348968,0.51847 0.56832,0.72785 z"
       id="path3040" />
    <path
       style="fill:#728a41;fill-opacity:1;fill-rule:evenodd;stroke:none;stroke-width:0.264583"
       d="m -77.189582,280.99072 -0.309087,0.17947 c -0.18944,-0.31906 -0.329027,-0.66803 -0.428732,-1.03694 l 0.348968,-0.0897 0.338998,-0.0897 c 0.07976,0.29911 0.199411,0.58826 0.35894,0.85746 z"
       id="path3042" />
    <path
       style="fill:#728a41;fill-opacity:1;fill-rule:evenodd;stroke:none;stroke-width:0.264583"
       d="m -77.578433,280.04352 -0.348968,0.0897 c -0.09971,-0.35893 -0.149558,-0.72785 -0.149558,-1.10673 h 0.358939 0.358939 c 0,0.30909 0.03988,0.62815 0.119646,0.92727 z"
       id="path3044" />
    <path
       style="fill:#728a41;fill-opacity:1;fill-rule:evenodd;stroke:none;stroke-width:0.264583"
       d="m -78.076959,279.02652 c 0,0 0,0 0,0 h 0.358939 z"
       id="path3046" />
    <path
       style="fill:#728a41;fill-opacity:1;fill-rule:evenodd;stroke:none;stroke-width:0.264583"
       d="m -77.359081,279.02652 h -0.358939 -0.358939 l 0.01,-15.67367 h 0.358939 0.358939 z"
       id="path3048" />
    <text
       xml:space="preserve"
       style="font-style:normal;font-variant:normal;font-weight:400;font-size:6.33346px;line-height:125%;font-family:Calibri;text-align:start;letter-spacing:0px;word-spacing:0px;text-anchor:start;fill:#000000;fill-opacity:1;stroke:none;stroke-width:0.264583"
       x="-64.875977"
       y="273.7222"
       id="text3054"><tspan
         sodipodi:role="line"
         x="-64.875977"
         y="273.7222"
         id="tspan3052"
         style="stroke-width:0.264583"><tspan
           dx="0"
           dy="0"
           style="font-style:normal;font-variant:normal;font-weight:400;font-size:6.33346px;font-family:Calibri;fill:#ffffff;stroke-width:0.264583"
           id="tspan3050">Développeur</tspan></tspan></text>
    <path
       style="fill:#9bbb59;fill-opacity:1;fill-rule:evenodd;stroke:none;stroke-width:0.264583"
       d="m 92.867826,173.74767 v 0 c 0,-0.68797 0.17947,-1.36596 0.52844,-1.95422 0.339,-0.59824 0.83752,-1.09676 1.42579,-1.43576 0.59823,-0.34897 1.27622,-0.52844 1.96419,-0.52844 l 50.909544,0.01 v 0 c 0.68797,0 1.36596,0.17947 1.95422,0.52844 0.59824,0.339 1.09676,0.83752 1.43576,1.42579 0.34897,0.59823 0.52844,1.27622 0.52844,1.96419 v 0 15.66371 0 c 0,0.68796 -0.17947,1.36596 -0.52844,1.95422 -0.339,0.59823 -0.83752,1.09676 -1.42578,1.43576 -0.59824,0.34897 -1.27623,0.52844 -1.9642,0.52844 H 96.776276 v 0 c -0.68797,0 -1.36596,-0.17947 -1.95422,-0.52844 -0.59824,-0.339 -1.09676,-0.83753 -1.43576,-1.42579 -0.34897,-0.59823 -0.52844,-1.27623 -0.52844,-1.96419 z"
       id="path3056" />
    <path
       style="fill:#728a41;fill-opacity:1;fill-rule:evenodd;stroke:none;stroke-width:0.264583"
       d="m 93.226766,173.74767 c 0,0 0,0 0,0 h -0.35894 z"
       id="path3058" />
    <path
       style="fill:#728a41;fill-opacity:1;fill-rule:evenodd;stroke:none;stroke-width:0.264583"
       d="m 92.867826,173.74767 h -0.35894 c 0,-0.37888 0.0498,-0.74779 0.14956,-1.10673 l 0.34897,0.0897 0.339,0.0997 c -0.0798,0.29912 -0.11965,0.6082 -0.11965,0.91729 z"
       id="path3060" />
    <path
       style="fill:#728a41;fill-opacity:1;fill-rule:evenodd;stroke:none;stroke-width:0.264583"
       d="m 93.007416,172.73068 -0.34897,-0.0897 c 0.0997,-0.35894 0.23929,-0.70791 0.42873,-1.02696 l 0.30909,0.17947 0.30908,0.17947 c -0.15952,0.2692 -0.27917,0.55835 -0.35893,0.85746 z"
       id="path3062" />
    <path
       style="fill:#728a41;fill-opacity:1;fill-rule:evenodd;stroke:none;stroke-width:0.264583"
       d="m 93.396266,171.79345 -0.30909,-0.17947 c 0.18944,-0.31906 0.40879,-0.61818 0.678,-0.88738 l 0.24926,0.25923 0.25923,0.24927 c -0.21935,0.21935 -0.40879,0.46861 -0.56832,0.73782 z"
       id="path3064" />
    <path
       style="fill:#728a41;fill-opacity:1;fill-rule:evenodd;stroke:none;stroke-width:0.264583"
       d="m 94.014436,170.98583 -0.24926,-0.25923 c 0.25923,-0.25923 0.54838,-0.48856 0.87741,-0.678 l 0.17947,0.30909 0.17946,0.30909 c -0.2692,0.15952 -0.51846,0.34896 -0.72785,0.56832 z"
       id="path3066" />
    <path
       style="fill:#728a41;fill-opacity:1;fill-rule:evenodd;stroke:none;stroke-width:0.264583"
       d="m 94.822056,170.35769 -0.17947,-0.30909 c 0.31905,-0.18944 0.66802,-0.32902 1.03693,-0.42873 l 0.0897,0.34897 0.0897,0.339 c -0.29912,0.0798 -0.58826,0.19941 -0.85747,0.35894 z"
       id="path3068" />
    <path
       style="fill:#728a41;fill-opacity:1;fill-rule:evenodd;stroke:none;stroke-width:0.264583"
       d="m 95.769256,169.96884 -0.0897,-0.34897 c 0.3589,-0.0997 0.72781,-0.14956 1.10669,-0.14956 v 0.35894 0.35894 c -0.30909,0 -0.62814,0.0399 -0.92726,0.11965 z"
       id="path3070" />
    <path
       style="fill:#728a41;fill-opacity:1;fill-rule:evenodd;stroke:none;stroke-width:0.264583"
       d="m 96.786246,169.47031 c 0,0 0,0 0,0 v 0.35894 z"
       id="path3072" />
    <path
       style="fill:#728a41;fill-opacity:1;fill-rule:evenodd;stroke:none;stroke-width:0.264583"
       d="m 96.786246,170.18819 v -0.35894 -0.35894 l 50.909544,0.01 v 0.35894 0.35894 z"
       id="path3074" />
    <path
       style="fill:#728a41;fill-opacity:1;fill-rule:evenodd;stroke:none;stroke-width:0.264583"
       d="m 147.69579,170.19816 c 0,0 0,0 0,0 v -0.35894 z"
       id="path3076" />
    <path
       style="fill:#728a41;fill-opacity:1;fill-rule:evenodd;stroke:none;stroke-width:0.264583"
       d="m 147.69579,169.83922 v -0.35894 c 0.37888,0 0.74779,0.0499 1.10673,0.14956 l -0.0897,0.34897 -0.0997,0.339 c -0.29912,-0.0798 -0.6082,-0.11965 -0.91729,-0.11965 z"
       id="path3078" />
    <path
       style="fill:#728a41;fill-opacity:1;fill-rule:evenodd;stroke:none;stroke-width:0.264583"
       d="m 148.71279,169.97881 0.0897,-0.34897 c 0.35894,0.0997 0.70791,0.23929 1.02696,0.42873 l -0.17947,0.30909 -0.17947,0.30909 c -0.2692,-0.15953 -0.55835,-0.27918 -0.85746,-0.35894 z"
       id="path3080" />
    <path
       style="fill:#728a41;fill-opacity:1;fill-rule:evenodd;stroke:none;stroke-width:0.264583"
       d="m 149.65001,170.36766 0.17947,-0.30909 c 0.31906,0.18944 0.61818,0.4088 0.88738,0.678 l -0.25923,0.24926 -0.24927,0.25924 c -0.21935,-0.21936 -0.46861,-0.4088 -0.73782,-0.56832 z"
       id="path3082" />
    <path
       style="fill:#728a41;fill-opacity:1;fill-rule:evenodd;stroke:none;stroke-width:0.264583"
       d="m 150.45763,170.98583 0.25923,-0.24926 c 0.25923,0.25923 0.48856,0.54838 0.678,0.87741 l -0.30909,0.17947 -0.30909,0.17947 c -0.15952,-0.26921 -0.34896,-0.51847 -0.56832,-0.72785 z"
       id="path3084" />
    <path
       style="fill:#728a41;fill-opacity:1;fill-rule:evenodd;stroke:none;stroke-width:0.264583"
       d="m 151.08577,171.79345 0.30909,-0.17947 c 0.18944,0.31905 0.32903,0.66802 0.42873,1.03693 l -0.34897,0.0897 -0.339,0.0897 c -0.0798,-0.29911 -0.19941,-0.58826 -0.35894,-0.85746 z"
       id="path3086" />
    <path
       style="fill:#728a41;fill-opacity:1;fill-rule:evenodd;stroke:none;stroke-width:0.264583"
       d="m 151.47462,172.74065 0.34897,-0.0897 c 0.0997,0.35894 0.14956,0.72785 0.14956,1.10673 h -0.35894 -0.35894 c 0,-0.30909 -0.0399,-0.62814 -0.11965,-0.92726 z"
       id="path3088" />
    <path
       style="fill:#728a41;fill-opacity:1;fill-rule:evenodd;stroke:none;stroke-width:0.264583"
       d="m 151.25527,173.75764 h 0.35894 0.35894 v 15.66371 h -0.35894 -0.35894 z"
       id="path3090" />
    <path
       style="fill:#728a41;fill-opacity:1;fill-rule:evenodd;stroke:none;stroke-width:0.264583"
       d="m 151.61421,189.42135 h 0.35894 c 0,0.37888 -0.0498,0.74779 -0.14956,1.10673 l -0.34897,-0.0897 -0.339,-0.0997 c 0.0798,-0.29912 0.11965,-0.60821 0.11965,-0.91729 z"
       id="path3092" />
    <path
       style="fill:#728a41;fill-opacity:1;fill-rule:evenodd;stroke:none;stroke-width:0.264583"
       d="m 151.47462,190.43834 0.34897,0.0897 c -0.0997,0.35894 -0.23929,0.70791 -0.42873,1.02697 l -0.30909,-0.17947 -0.30909,-0.17947 c 0.15953,-0.26921 0.27918,-0.55835 0.35894,-0.85747 z"
       id="path3094" />
    <path
       style="fill:#728a41;fill-opacity:1;fill-rule:evenodd;stroke:none;stroke-width:0.264583"
       d="m 151.08577,191.37557 0.30909,0.17947 c -0.18944,0.31906 -0.40879,0.61817 -0.678,0.88738 l -0.24926,-0.25923 -0.25924,-0.24927 c 0.21936,-0.21935 0.4088,-0.46861 0.56832,-0.73782 z"
       id="path3096" />
    <path
       style="fill:#728a41;fill-opacity:1;fill-rule:evenodd;stroke:none;stroke-width:0.264583"
       d="m 150.4676,192.18319 0.24926,0.25923 c -0.25923,0.25923 -0.54838,0.48856 -0.8774,0.678 l -0.17947,-0.30909 -0.17947,-0.30909 c 0.2692,-0.15953 0.51846,-0.34897 0.72784,-0.56832 z"
       id="path3098" />
    <path
       style="fill:#728a41;fill-opacity:1;fill-rule:evenodd;stroke:none;stroke-width:0.264583"
       d="m 149.65999,192.81133 0.17947,0.30909 c -0.31906,0.18944 -0.66803,0.32902 -1.03694,0.42873 l -0.0897,-0.34897 -0.0897,-0.339 c 0.29912,-0.0798 0.58826,-0.19941 0.85747,-0.35894 z"
       id="path3100" />
    <path
       style="fill:#728a41;fill-opacity:1;fill-rule:evenodd;stroke:none;stroke-width:0.264583"
       d="m 148.71279,193.20018 0.0897,0.34897 c -0.35894,0.0997 -0.72785,0.14956 -1.10673,0.14956 v -0.35894 -0.35894 c 0.30909,0 0.62814,-0.0399 0.92726,-0.11965 z"
       id="path3102" />
    <path
       style="fill:#728a41;fill-opacity:1;fill-rule:evenodd;stroke:none;stroke-width:0.264583"
       d="m 147.69579,192.98083 v 0.35894 0.35894 H 96.776276 v -0.35894 -0.35894 z"
       id="path3104" />
    <path
       style="fill:#728a41;fill-opacity:1;fill-rule:evenodd;stroke:none;stroke-width:0.264583"
       d="m 96.776276,193.33977 v 0.35894 c -0.37888,0 -0.74779,-0.0498 -1.10673,-0.14956 l 0.0897,-0.34897 0.0997,-0.339 c 0.29912,0.0798 0.6082,0.11965 0.91729,0.11965 z"
       id="path3106" />
    <path
       style="fill:#728a41;fill-opacity:1;fill-rule:evenodd;stroke:none;stroke-width:0.264583"
       d="m 95.759276,193.20018 -0.0897,0.34897 c -0.35894,-0.0997 -0.70791,-0.23929 -1.02696,-0.42873 l 0.17947,-0.30909 0.17946,-0.30909 c 0.26921,0.15953 0.55835,0.27918 0.85747,0.35894 z"
       id="path3108" />
    <path
       style="fill:#728a41;fill-opacity:1;fill-rule:evenodd;stroke:none;stroke-width:0.264583"
       d="m 94.822056,192.81133 -0.17947,0.30909 c -0.31906,-0.18944 -0.61818,-0.4088 -0.88738,-0.678 l 0.25923,-0.24926 0.24927,-0.25924 c 0.21935,0.21935 0.46861,0.40879 0.73781,0.56832 z"
       id="path3110" />
    <path
       style="fill:#728a41;fill-opacity:1;fill-rule:evenodd;stroke:none;stroke-width:0.264583"
       d="m 94.014436,192.19316 -0.25923,0.24926 c -0.25924,-0.25923 -0.48856,-0.54838 -0.678,-0.87741 l 0.30909,-0.17947 0.30909,-0.17947 c 0.15952,0.26921 0.34896,0.51847 0.56832,0.72785 z"
       id="path3112" />
    <path
       style="fill:#728a41;fill-opacity:1;fill-rule:evenodd;stroke:none;stroke-width:0.264583"
       d="m 93.386296,191.38554 -0.30909,0.17947 c -0.18944,-0.31905 -0.32903,-0.66802 -0.42873,-1.03693 l 0.34897,-0.0897 0.339,-0.0897 c 0.0798,0.29911 0.1994,0.58826 0.35894,0.85746 z"
       id="path3114" />
    <path
       style="fill:#728a41;fill-opacity:1;fill-rule:evenodd;stroke:none;stroke-width:0.264583"
       d="m 92.997446,190.43834 -0.34897,0.0897 c -0.0997,-0.35894 -0.14956,-0.72785 -0.14956,-1.10673 h 0.35894 0.35894 c 0,0.30909 0.0399,0.62815 0.11965,0.92726 z"
       id="path3116" />
    <path
       style="fill:#728a41;fill-opacity:1;fill-rule:evenodd;stroke:none;stroke-width:0.264583"
       d="m 92.498916,189.42135 c 0,0 0,0 0,0 h 0.35894 z"
       id="path3118" />
    <path
       style="fill:#728a41;fill-opacity:1;fill-rule:evenodd;stroke:none;stroke-width:0.264583"
       d="m 93.216796,189.42135 h -0.35894 -0.35894 l 0.01,-15.67368 h 0.35894 0.35894 z"
       id="path3120" />
    <text
       xml:space="preserve"
       style="font-style:normal;font-variant:normal;font-weight:400;font-size:6.33346px;line-height:125%;font-family:Calibri;text-align:start;letter-spacing:0px;word-spacing:0px;text-anchor:start;fill:#000000;fill-opacity:1;stroke:none;stroke-width:0.264583"
       x="105.68993"
       y="184.11702"
       id="text3126"><tspan
         sodipodi:role="line"
         x="105.68993"
         y="184.11702"
         id="tspan3124"
         style="stroke-width:0.264583"><tspan
           dx="0"
           dy="0"
           style="font-style:normal;font-variant:normal;font-weight:400;font-size:6.33346px;font-family:Calibri;fill:#ffffff;stroke-width:0.264583"
           id="tspan3122">Développeur</tspan></tspan></text>
    <path
       style="fill:#1f497d;fill-opacity:1;fill-rule:evenodd;stroke:none;stroke-width:0.264583"
       d="m -48.085596,196.6101 0.348967,-0.0698 c 0.388853,2.04396 1.056878,4.05801 2.004079,6.01223 l -0.329028,0.14956 -0.319059,0.15953 c -0.967139,-2.01405 -1.665078,-4.07795 -2.053928,-6.18173 z"
       id="path3128" />
    <path
       style="fill:#1f497d;fill-opacity:1;fill-rule:evenodd;stroke:none;stroke-width:0.264583"
       d="m -46.061578,202.7021 0.329028,-0.14956 c 0.937231,1.95422 2.153634,3.85859 3.599362,5.6832 l -0.289147,0.21935 -0.279172,0.21936 c -1.47564,-1.86449 -2.711988,-3.80875 -3.67913,-5.81282 z"
       id="path3130" />
    <path
       style="fill:#1f497d;fill-opacity:1;fill-rule:evenodd;stroke:none;stroke-width:0.264583"
       d="m -42.422335,208.45509 0.289147,-0.21935 c 2.901424,3.65919 6.76002,7.00929 11.346466,9.8808 l -0.189439,0.30909 -0.199411,0.29911 c -4.656241,-2.92136 -8.574659,-6.33129 -11.525935,-10.05029 z"
       id="path3132" />
    <path
       style="fill:#1f497d;fill-opacity:1;fill-rule:evenodd;stroke:none;stroke-width:0.264583"
       d="m -30.976161,218.42563 0.189439,-0.30909 c 4.596416,2.89146 9.920679,5.29435 15.74347,7.06911 l -0.09971,0.339 -0.0997,0.339 c -5.892584,-1.78473 -11.276672,-4.21754 -15.93291,-7.13891 z"
       id="path3134" />
    <path
       style="fill:#1f497d;fill-opacity:1;fill-rule:evenodd;stroke:none;stroke-width:0.264583"
       d="m -15.142957,225.52465 0.09971,-0.339 c 5.8327638,1.76478 12.1740218,2.89145 18.7844858,3.22048 l -0.01994,0.35894 -0.01994,0.35894 c -6.670286,-0.32903 -13.061397,-1.46567 -18.9440098,-3.26036 z"
       id="path3136" />
    <path
       style="fill:#1f497d;fill-opacity:1;fill-rule:evenodd;stroke:none;stroke-width:0.264583"
       d="m -48.394682,193.33977 2.113751,3.34012 -3.519596,0.35894 z"
       id="path3138" />
    <path
       style="fill:#1f497d;fill-opacity:1;fill-rule:evenodd;stroke:none;stroke-width:0.264583"
       d="m 6.9517428,228.84484 -3.58939,1.67504 0.09971,-3.53953 z"
       id="path3140" />
    <path
       style="fill:#1f497d;fill-opacity:1;fill-rule:evenodd;stroke:none;stroke-width:0.264583"
       d="m 68.998376,228.67534 -0.0199,-0.35894 c 6.76003,-0.32903 13.2309,-1.4557 19.20325,-3.23046 l 0.0997,0.339 0.0997,0.34897 c -6.0222,1.78473 -12.5529,2.93134 -19.36278,3.26036 z"
       id="path3142" />
    <path
       style="fill:#1f497d;fill-opacity:1;fill-rule:evenodd;stroke:none;stroke-width:0.264583"
       d="m 88.281386,225.42494 -0.0997,-0.339 c 5.95241,-1.77475 11.40629,-4.18762 16.112384,-7.07908 l 0.18944,0.30909 0.18944,0.29912 c -4.755944,2.92136 -10.269654,5.36414 -16.291854,7.15884 z"
       id="path3144" />
    <path
       style="fill:#1f497d;fill-opacity:1;fill-rule:evenodd;stroke:none;stroke-width:0.264583"
       d="m 104.4835,218.31595 -0.18944,-0.30909 c 4.68615,-2.88148 8.63448,-6.24155 11.6057,-9.91071 l 0.27918,0.22933 0.27917,0.21935 c -3.0111,3.72898 -7.01925,7.1389 -11.78517,10.07024 z"
       id="path3146" />
    <path
       style="fill:#1f497d;fill-opacity:1;fill-rule:evenodd;stroke:none;stroke-width:0.264583"
       d="m 116.17894,208.32548 -0.27918,-0.22933 c 1.47564,-1.8246 2.71199,-3.72897 3.66916,-5.69317 l 0.31905,0.15953 0.31906,0.15953 c -0.97711,2.00407 -2.24337,3.9583 -3.74892,5.82279 z"
       id="path3148" />
    <path
       style="fill:#1f497d;fill-opacity:1;fill-rule:evenodd;stroke:none;stroke-width:0.264583"
       d="m 119.88797,202.56251 -0.31905,-0.15953 c 0.95717,-1.95422 1.63517,-3.9583 2.02402,-6.01223 l 0.34897,0.0698 0.34896,0.0698 c -0.38885,2.10378 -1.09676,4.17765 -2.08384,6.1917 z"
       id="path3150" />
    <path
       style="fill:#1f497d;fill-opacity:1;fill-rule:evenodd;stroke:none;stroke-width:0.264583"
       d="m 65.688156,228.7551 3.48968,-1.86449 0.0897,3.53954 z"
       id="path3152" />
    <path
       style="fill:#1f497d;fill-opacity:1;fill-rule:evenodd;stroke:none;stroke-width:0.264583"
       d="m 122.24102,193.26 1.40584,3.69907 -3.51959,-0.35894 z"
       id="path3154" />
    <path
       style="fill:#1f497d;fill-opacity:1;fill-rule:evenodd;stroke:none;stroke-width:0.264583"
       d="m -15.631513,271.12986 -0.01994,-0.35894 c 6.6004918,-0.28914 12.8819268,-1.25628 18.6648348,-2.75186 l 0.08974,0.339 0.08973,0.34896 c -5.822791,1.51553 -12.164049,2.49264 -18.8044238,2.78178 z"
       id="path3156" />
    <path
       style="fill:#1f497d;fill-opacity:1;fill-rule:evenodd;stroke:none;stroke-width:0.264583"
       d="m 3.1031198,268.35806 -0.08974,-0.339 c 5.772939,-1.50555 11.0373802,-3.54951 15.5839432,-5.99229 l 0.179469,0.30908 0.1695,0.31906 c -4.596415,2.47269 -9.9206792,4.53659 -15.7534422,6.05211 z"
       id="path3158" />
    <path
       style="fill:#1f497d;fill-opacity:1;fill-rule:evenodd;stroke:none;stroke-width:0.264583"
       d="m 18.776795,262.33585 -0.179469,-0.30908 c 4.53659,-2.44278 8.36528,-5.28438 11.2667,-8.39519 l 0.25924,0.24926 0.25923,0.23929 c -2.94131,3.16066 -6.82982,6.05212 -11.436201,8.53478 z"
       id="path3160" />
    <path
       style="fill:#1f497d;fill-opacity:1;fill-rule:evenodd;stroke:none;stroke-width:0.264583"
       d="m 30.123266,253.88084 -0.25924,-0.24926 c 1.44573,-1.54543 2.66214,-3.16066 3.61931,-4.82574 l 0.30908,0.17947 0.30909,0.17947 c -0.98708,1.70496 -2.2334,3.37004 -3.71901,4.95535 z"
       id="path3162" />
    <path
       style="fill:#1f497d;fill-opacity:1;fill-rule:evenodd;stroke:none;stroke-width:0.264583"
       d="m 33.792416,248.98531 -0.30908,-0.17947 c 0.95717,-1.65511 1.6551,-3.36007 2.08384,-5.10491 l 0.34897,0.0897 0.34896,0.0897 c -0.4387,1.7947 -1.16655,3.56945 -2.1636,5.28438 z"
       id="path3164" />
    <path
       style="fill:#1f497d;fill-opacity:1;fill-rule:evenodd;stroke:none;stroke-width:0.264583"
       d="m -18.941728,271.19966 3.499657,-1.85452 0.07976,3.53954 z"
       id="path3166" />
    <path
       style="fill:#1f497d;fill-opacity:1;fill-rule:evenodd;stroke:none;stroke-width:0.264583"
       d="m 36.304996,240.60009 1.29617,3.73895 -3.50963,-0.45864 z"
       id="path3168" />
    <path
       style="fill:#4f6228;fill-opacity:1;fill-rule:evenodd;stroke:none;stroke-width:0.264583"
       d="m 36.564226,213.73948 -0.34897,-0.0698 c 0.39882,-2.10379 1.10673,-4.16769 2.09381,-6.18173 l 0.32903,0.15953 0.31906,0.15952 c -0.95717,1.95423 -1.65511,3.95831 -2.04396,6.00227 z"
       id="path3170" />
    <path
       style="fill:#4f6228;fill-opacity:1;fill-rule:evenodd;stroke:none;stroke-width:0.264583"
       d="m 38.638096,207.64748 -0.32903,-0.15953 c 0.99706,-2.00407 2.25334,-3.94833 3.77884,-5.81282 l 0.2692,0.21935 0.27918,0.22933 c -1.47564,1.8246 -2.71199,3.72897 -3.67913,5.6832 z"
       id="path3172" />
    <path
       style="fill:#4f6228;fill-opacity:1;fill-rule:evenodd;stroke:none;stroke-width:0.264583"
       d="m 42.357106,201.89448 -0.2692,-0.21935 c 3.0111,-3.72898 7.02922,-7.12893 11.79514,-10.06027 l 0.18944,0.30909 0.18944,0.30909 c -4.69612,2.87151 -8.64446,6.23158 -11.62564,9.89077 z"
       id="path3174" />
    <path
       style="fill:#4f6228;fill-opacity:1;fill-rule:evenodd;stroke:none;stroke-width:0.264583"
       d="m 54.072486,191.92395 -0.18944,-0.30909 c 4.75594,-2.91139 10.26965,-5.35417 16.30182,-7.1389 l 0.0997,0.34897 0.0997,0.339 c -5.96238,1.77475 -11.41626,4.17765 -16.12235,7.06911 z"
       id="path3176" />
    <path
       style="fill:#4f6228;fill-opacity:1;fill-rule:evenodd;stroke:none;stroke-width:0.264583"
       d="m 70.284566,184.82493 -0.0997,-0.34897 c 6.0222,-1.78472 12.56287,-2.92136 19.38271,-3.24042 l 0.0199,0.35894 0.0199,0.35894 c -6.76999,0.31906 -13.25084,1.44573 -19.22319,3.21051 z"
       id="path3178" />
    <path
       style="fill:#4f6228;fill-opacity:1;fill-rule:evenodd;stroke:none;stroke-width:0.264583"
       d="m 36.245166,217.00981 -1.39587,-3.69907 3.5196,0.35894 z"
       id="path3180" />
    <path
       style="fill:#4f6228;fill-opacity:1;fill-rule:evenodd;stroke:none;stroke-width:0.264583"
       d="m 92.817976,181.51472 -3.48969,1.85451 -0.0897,-3.52956 z"
       id="path3182" />
    <path
       style="fill:#4f6228;fill-opacity:1;fill-rule:evenodd;stroke:none;stroke-width:0.264583"
       d="m 35.995906,213.72951 -0.34897,0.0698 c -0.38885,-2.04396 -1.05687,-4.05801 -1.9941,-6.00226 l 0.31905,-0.15953 0.32903,-0.15953 c 0.96714,2.01405 1.65511,4.07795 2.04396,6.18173 z"
       id="path3184" />
    <path
       style="fill:#4f6228;fill-opacity:1;fill-rule:evenodd;stroke:none;stroke-width:0.264583"
       d="m 33.971886,207.63751 -0.31905,0.15953 c -0.9472,-1.96419 -2.15364,-3.8586 -3.59937,-5.6832 l 0.27918,-0.21936 0.28914,-0.22932 c 1.47564,1.86449 2.71199,3.81872 3.67913,5.81282 z"
       id="path3186" />
    <path
       style="fill:#4f6228;fill-opacity:1;fill-rule:evenodd;stroke:none;stroke-width:0.264583"
       d="m 30.332646,201.89448 -0.27918,0.21936 c -2.90142,-3.65919 -6.76002,-7.00929 -11.336493,-9.8808 l 0.189442,-0.30909 0.189439,-0.29911 c 4.656242,2.92136 8.574662,6.32131 11.525932,10.04032 z"
       id="path3188" />
    <path
       style="fill:#4f6228;fill-opacity:1;fill-rule:evenodd;stroke:none;stroke-width:0.264583"
       d="m 18.906415,191.92395 -0.189442,0.30909 c -4.596416,-2.89146 -9.9206792,-5.29436 -15.7434702,-7.06911 l 0.109675,-0.339 0.09971,-0.339 c 5.892586,1.78473 11.2667022,4.21754 15.9129712,7.13891 z"
       id="path3190" />
    <path
       style="fill:#4f6228;fill-opacity:1;fill-rule:evenodd;stroke:none;stroke-width:0.264583"
       d="m 3.0831778,184.82493 -0.109675,0.339 c -5.822791,-1.76478 -12.15408,-2.89145 -18.7645438,-3.22048 l 0.01994,-0.35894 0.01994,-0.35894 c 6.6603138,0.32903 13.0514278,1.46567 18.9340408,3.26036 z"
       id="path3192" />
    <path
       style="fill:#4f6228;fill-opacity:1;fill-rule:evenodd;stroke:none;stroke-width:0.264583"
       d="m 36.304996,216.99984 -2.11376,-3.34013 3.5196,-0.35894 z"
       id="path3194" />
    <path
       style="fill:#4f6228;fill-opacity:1;fill-rule:evenodd;stroke:none;stroke-width:0.264583"
       d="m -19.001553,181.50474 3.589393,-1.67504 -0.09971,3.53953 z"
       id="path3196" />
    <path
       style="fill:#c0504d;fill-opacity:1;fill-rule:evenodd;stroke:none;stroke-width:0.264583"
       d="m 89.796906,175.65204 v 0.35894 c -13.43031,-0.01 -26.60138,-0.0299 -36.42236,-0.0698 l 0.01,-0.35894 v -0.35894 c 9.81101,0.0399 22.99205,0.0698 36.41239,0.0698 z"
       id="path3198" />
    <path
       style="fill:#c0504d;fill-opacity:1;fill-rule:evenodd;stroke:none;stroke-width:0.264583"
       d="m 53.384516,175.58225 -0.01,0.35894 c -2.45275,-0.01 -4.69612,-0.0199 -6.68026,-0.0299 v -0.35894 -0.35894 c 1.99411,0.01 4.23748,0.0199 6.69023,0.0299 z"
       id="path3200" />
    <path
       style="fill:#c0504d;fill-opacity:1;fill-rule:evenodd;stroke:none;stroke-width:0.264583"
       d="m 46.694286,175.55234 v 0.35894 c -1.98413,-0.01 -3.71901,-0.0199 -5.13482,-0.0299 v -0.35893 -0.35894 c 1.42578,0.01 3.15069,0.0199 5.13482,0.0299 z"
       id="path3202" />
    <path
       style="fill:#c0504d;fill-opacity:1;fill-rule:evenodd;stroke:none;stroke-width:0.264583"
       d="m 41.559466,175.52243 v 0.35893 c -0.71788,0 -1.34602,-0.01 -1.8944,-0.0199 v -0.35894 -0.35894 c 0.55835,0.01 1.18649,0.0199 1.8944,0.0199 z"
       id="path3204" />
    <path
       style="fill:#c0504d;fill-opacity:1;fill-rule:evenodd;stroke:none;stroke-width:0.264583"
       d="m 39.665066,175.50248 v 0.35894 c -0.55835,0 -1.02697,-0.01 -1.40585,-0.01 l 0.01,-0.35894 v -0.35894 c 0.37888,0 0.8475,0.01 1.39588,0.01 z"
       id="path3206" />
    <path
       style="fill:#c0504d;fill-opacity:1;fill-rule:evenodd;stroke:none;stroke-width:0.264583"
       d="m 38.269186,175.49251 -0.01,0.35894 c -0.18944,-0.01 -0.35894,-0.01 -0.49852,-0.01 v -0.35894 l 0.01,-0.35894 c 0.13958,0 0.30908,0 0.49852,0.01 z"
       id="path3208" />
    <path
       style="fill:#c0504d;fill-opacity:1;fill-rule:evenodd;stroke:none;stroke-width:0.264583"
       d="m 37.760696,175.48254 v 0.35894 c -0.14956,-0.01 -0.26921,-0.01 -0.36892,-0.01 l 0.01,-0.35894 0.01,-0.35894 c 0.0997,0 0.21935,0 0.35894,0.01 z"
       id="path3210" />
    <path
       style="fill:#c0504d;fill-opacity:1;fill-rule:evenodd;stroke:none;stroke-width:0.264583"
       d="m 37.401756,175.47257 -0.01,0.35894 c -0.0499,0 -0.0997,0 -0.13958,-0.01 l 0.0199,-0.35894 0.01,-0.35894 c 0.0399,0.01 0.0798,0.01 0.12962,0.01 z"
       id="path3212" />
    <path
       style="fill:#c0504d;fill-opacity:1;fill-rule:evenodd;stroke:none;stroke-width:0.264583"
       d="m 37.272136,175.4626 -0.0199,0.35894 c -0.0399,0 -0.0698,0 -0.0997,0 l 0.0299,-0.35894 0.0199,-0.35894 c 0.0199,0 0.0499,0 0.0798,0 z"
       id="path3214" />
    <path
       style="fill:#c0504d;fill-opacity:1;fill-rule:evenodd;stroke:none;stroke-width:0.264583"
       d="m 37.182396,175.4626 -0.0299,0.35894 c -0.0299,0 -0.0598,-0.01 -0.0798,-0.01 l 0.0499,-0.35894 0.0399,-0.34897 c 0.01,0 0.0199,0 0.0399,0 z"
       id="path3216" />
    <path
       style="fill:#c0504d;fill-opacity:1;fill-rule:evenodd;stroke:none;stroke-width:0.264583"
       d="m 37.122576,175.45263 -0.0499,0.35894 c -0.30909,-0.0399 -0.32903,-0.31906 -0.32903,-0.35894 h 0.35894 0.0199 z"
       id="path3218" />
    <path
       style="fill:#c0504d;fill-opacity:1;fill-rule:evenodd;stroke:none;stroke-width:0.264583"
       d="m 37.102636,175.45263 h -0.0199 v 0 l 0.0498,-0.35894 c 0.30909,0.0399 0.32903,0.31906 0.32903,0.35894 z"
       id="path3220" />
    <path
       style="fill:#c0504d;fill-opacity:1;fill-rule:evenodd;stroke:none;stroke-width:0.264583"
       d="m 37.082696,175.45263 -0.0399,0.34897 c -0.01,0 -0.0199,0 -0.0399,0 l 0.02,-0.35894 0.0299,-0.35894 c 0.0299,0 0.0598,0.01 0.0798,0.01 z"
       id="path3222" />
    <path
       style="fill:#c0504d;fill-opacity:1;fill-rule:evenodd;stroke:none;stroke-width:0.264583"
       d="m 37.022876,175.44266 -0.02,0.35894 c -0.0199,0 -0.0498,0 -0.0798,0 l 0.01,-0.35894 0.0199,-0.35894 c 0.0399,0 0.0698,0 0.0997,0 z"
       id="path3224" />
    <path
       style="fill:#c0504d;fill-opacity:1;fill-rule:evenodd;stroke:none;stroke-width:0.264583"
       d="m 36.933136,175.44266 -0.01,0.35894 c -0.0399,-0.01 -0.0798,-0.01 -0.12962,-0.01 l 0.01,-0.35894 0.01,-0.35894 c 0.0499,0 0.0997,0 0.13958,0.01 z"
       id="path3226" />
    <path
       style="fill:#c0504d;fill-opacity:1;fill-rule:evenodd;stroke:none;stroke-width:0.264583"
       d="m 36.803516,175.43269 -0.01,0.35894 c -0.0997,0 -0.21935,-0.01 -0.35894,-0.01 l 0.01,-0.35894 v -0.35894 c 0.14956,0.01 0.26921,0.01 0.36892,0.01 z"
       id="path3228" />
    <path
       style="fill:#c0504d;fill-opacity:1;fill-rule:evenodd;stroke:none;stroke-width:0.264583"
       d="m 36.444576,175.42272 -0.01,0.35894 c -0.14955,0 -0.30908,0 -0.49852,-0.01 v -0.35894 l 0.01,-0.35894 c 0.18944,0.01 0.35894,0.01 0.49852,0.01 z"
       id="path3230" />
    <path
       style="fill:#c0504d;fill-opacity:1;fill-rule:evenodd;stroke:none;stroke-width:0.264583"
       d="m 35.936086,175.41275 v 0.35894 c -0.37888,0 -0.8475,-0.01 -1.40585,-0.0199 l 0.01,-0.35894 v -0.35894 c 0.55835,0.01 1.02697,0.0199 1.40585,0.0199 z"
       id="path3232" />
    <path
       style="fill:#c0504d;fill-opacity:1;fill-rule:evenodd;stroke:none;stroke-width:0.264583"
       d="m 34.540206,175.39281 -0.01,0.35894 c -0.54838,0 -1.18649,-0.01 -1.8944,-0.01 v -0.35894 l 0.01,-0.35894 c 0.70791,0 1.34602,0.01 1.8944,0.01 z"
       id="path3234" />
    <path
       style="fill:#c0504d;fill-opacity:1;fill-rule:evenodd;stroke:none;stroke-width:0.264583"
       d="m 32.635836,175.38284 v 0.35894 c -1.42579,-0.0199 -3.15069,-0.0299 -5.13482,-0.0399 v -0.35893 -0.35894 c 1.98413,0.01 3.71901,0.0199 5.14479,0.0399 z"
       id="path3236" />
    <path
       style="fill:#c0504d;fill-opacity:1;fill-rule:evenodd;stroke:none;stroke-width:0.264583"
       d="m 27.501016,175.34296 v 0.35893 c -1.99411,-0.01 -4.23748,-0.0199 -6.7002,-0.0299 l 0.01,-0.35894 v -0.35894 c 2.45275,0.01 4.69612,0.0199 6.69023,0.0299 z"
       id="path3238" />
    <path
       style="fill:#c0504d;fill-opacity:1;fill-rule:evenodd;stroke:none;stroke-width:0.264583"
       d="m 20.810785,175.31304 -0.01,0.35894 c -9.820946,-0.0399 -23.0119592,-0.0698 -36.452237,-0.0698 v -0.35894 -0.35894 c 13.4402778,0.01 26.631291,0.0299 36.462237,0.0698 z"
       id="path3240" />
    <path
       style="fill:#c0504d;fill-opacity:1;fill-rule:evenodd;stroke:none;stroke-width:0.264583"
       d="m 93.107116,175.65204 -3.53954,1.76479 v -3.53954 z"
       id="path3242" />
    <path
       style="fill:#c0504d;fill-opacity:1;fill-rule:evenodd;stroke:none;stroke-width:0.264583"
       d="m -18.911817,175.24325 3.539537,-1.76478 v 3.53954 z"
       id="path3244" />
    <path
       style="fill:#4f81bd;fill-opacity:1;fill-rule:evenodd;stroke:none;stroke-width:0.264583"
       d="m 6.9118628,220.99802 v 0 c 0,-0.68796 0.179469,-1.36596 0.528439,-1.95422 0.338997,-0.59823 0.837522,-1.09676 1.425784,-1.43576 0.598233,-0.34896 1.2762282,-0.52843 1.9641952,-0.52843 l 50.909545,0.01 v 0 c 0.68796,0 1.36596,0.17946 1.95422,0.52843 0.59823,0.339 1.09676,0.83753 1.43576,1.42579 0.34897,0.59823 0.52844,1.27623 0.52844,1.9642 v 0 15.6637 0 c 0,0.68797 -0.17947,1.36596 -0.52844,1.95423 -0.339,0.59823 -0.83753,1.09675 -1.42579,1.43575 -0.59823,0.34897 -1.27623,0.52844 -1.96419,0.52844 H 10.820312 v 0 c -0.687967,0 -1.3659652,-0.17947 -1.9542262,-0.52844 -0.598231,-0.339 -1.096756,-0.83752 -1.435756,-1.42578 -0.348967,-0.59824 -0.528437,-1.27623 -0.528437,-1.9642 z"
       id="path3246" />
    <path
       style="fill:#3a5f8b;fill-opacity:1;fill-rule:evenodd;stroke:none;stroke-width:0.264583"
       d="m 7.2708018,220.99802 c 0,0 0,0 0,0 h -0.358939 z"
       id="path3248" />
    <path
       style="fill:#3a5f8b;fill-opacity:1;fill-rule:evenodd;stroke:none;stroke-width:0.264583"
       d="m 6.9118628,220.99802 h -0.358939 c 0,-0.37887 0.04985,-0.74779 0.149558,-1.10672 l 0.348967,0.0897 0.339,0.0997 c -0.07976,0.29911 -0.119647,0.6082 -0.119647,0.91729 z"
       id="path3250" />
    <path
       style="fill:#3a5f8b;fill-opacity:1;fill-rule:evenodd;stroke:none;stroke-width:0.264583"
       d="m 7.0514488,219.98103 -0.348967,-0.0897 c 0.09971,-0.35894 0.239292,-0.70791 0.428734,-1.02696 l 0.309086,0.17947 0.309086,0.17947 c -0.15953,0.2692 -0.279175,0.55835 -0.358939,0.85746 z"
       id="path3252" />
    <path
       style="fill:#3a5f8b;fill-opacity:1;fill-rule:evenodd;stroke:none;stroke-width:0.264583"
       d="m 7.4403018,219.0438 -0.309086,-0.17947 c 0.189439,-0.31906 0.408791,-0.61817 0.677994,-0.88738 l 0.249264,0.25924 0.259234,0.24926 c -0.219353,0.21935 -0.408792,0.46861 -0.56832,0.73782 z"
       id="path3254" />
    <path
       style="fill:#3a5f8b;fill-opacity:1;fill-rule:evenodd;stroke:none;stroke-width:0.264583"
       d="m 8.0584738,218.23619 -0.249264,-0.25924 c 0.259234,-0.25923 0.548381,-0.48855 0.877406,-0.67799 l 0.17947,0.30908 0.179469,0.30909 c -0.269203,0.15953 -0.518467,0.34897 -0.727847,0.56832 z"
       id="path3256" />
    <path
       style="fill:#3a5f8b;fill-opacity:1;fill-rule:evenodd;stroke:none;stroke-width:0.264583"
       d="m 8.8660858,217.60804 -0.17947,-0.30908 c 0.319059,-0.18944 0.668028,-0.32903 1.036937,-0.42873 l 0.08974,0.34896 0.08973,0.339 c -0.299116,0.0798 -0.588261,0.19941 -0.857467,0.35894 z"
       id="path3258" />
    <path
       style="fill:#3a5f8b;fill-opacity:1;fill-rule:evenodd;stroke:none;stroke-width:0.264583"
       d="m 9.8132888,217.21919 -0.08974,-0.34896 c 0.3589392,-0.0997 0.7278502,-0.14956 1.1067282,-0.14956 v 0.35894 0.35893 c -0.309086,0 -0.628142,0.0399 -0.9272592,0.11965 z"
       id="path3260" />
    <path
       style="fill:#3a5f8b;fill-opacity:1;fill-rule:evenodd;stroke:none;stroke-width:0.264583"
       d="m 10.830281,216.72067 c 0,0 0,0 0,0 v 0.35894 z"
       id="path3262" />
    <path
       style="fill:#3a5f8b;fill-opacity:1;fill-rule:evenodd;stroke:none;stroke-width:0.264583"
       d="m 10.830281,217.43854 v -0.35893 -0.35894 l 50.909545,0.01 v 0.35894 0.35893 z"
       id="path3264" />
    <path
       style="fill:#3a5f8b;fill-opacity:1;fill-rule:evenodd;stroke:none;stroke-width:0.264583"
       d="m 61.739826,217.44851 c 0,0 0,0 0,0 v -0.35893 z"
       id="path3266" />
    <path
       style="fill:#3a5f8b;fill-opacity:1;fill-rule:evenodd;stroke:none;stroke-width:0.264583"
       d="m 61.739826,217.08958 v -0.35894 c 0.37888,0 0.74779,0.0498 1.10673,0.14955 l -0.0897,0.34897 -0.0997,0.339 c -0.29911,-0.0798 -0.6082,-0.11965 -0.91728,-0.11965 z"
       id="path3268" />
    <path
       style="fill:#3a5f8b;fill-opacity:1;fill-rule:evenodd;stroke:none;stroke-width:0.264583"
       d="m 62.756816,217.22916 0.0897,-0.34897 c 0.35894,0.0997 0.7079,0.2393 1.02696,0.42874 l -0.17947,0.30908 -0.17947,0.30909 c -0.2692,-0.15953 -0.55835,-0.27917 -0.85747,-0.35894 z"
       id="path3270" />
    <path
       style="fill:#3a5f8b;fill-opacity:1;fill-rule:evenodd;stroke:none;stroke-width:0.264583"
       d="m 63.694046,217.61801 0.17947,-0.30908 c 0.31906,0.18944 0.61817,0.40879 0.88738,0.67799 l -0.25923,0.24927 -0.24927,0.25923 c -0.21935,-0.21935 -0.46861,-0.40879 -0.73782,-0.56832 z"
       id="path3272" />
    <path
       style="fill:#3a5f8b;fill-opacity:1;fill-rule:evenodd;stroke:none;stroke-width:0.264583"
       d="m 64.501666,218.23619 0.25923,-0.24927 c 0.25923,0.25924 0.48855,0.54838 0.67799,0.87741 l -0.30908,0.17947 -0.30909,0.17947 c -0.15953,-0.26921 -0.34897,-0.51847 -0.56832,-0.72785 z"
       id="path3274" />
    <path
       style="fill:#3a5f8b;fill-opacity:1;fill-rule:evenodd;stroke:none;stroke-width:0.264583"
       d="m 65.129806,219.0438 0.30908,-0.17947 c 0.18945,0.31906 0.32903,0.66803 0.42874,1.03694 l -0.34897,0.0897 -0.339,0.0897 c -0.0798,-0.29912 -0.19941,-0.58827 -0.35894,-0.85747 z"
       id="path3276" />
    <path
       style="fill:#3a5f8b;fill-opacity:1;fill-rule:evenodd;stroke:none;stroke-width:0.264583"
       d="m 65.518656,219.991 0.34897,-0.0897 c 0.0997,0.35894 0.14956,0.72785 0.14956,1.10673 h -0.35894 -0.35894 c 0,-0.30908 -0.0399,-0.62814 -0.11965,-0.92726 z"
       id="path3278" />
    <path
       style="fill:#3a5f8b;fill-opacity:1;fill-rule:evenodd;stroke:none;stroke-width:0.264583"
       d="m 65.299306,221.008 h 0.35894 0.35894 v 15.6637 h -0.35894 -0.35894 z"
       id="path3280" />
    <path
       style="fill:#3a5f8b;fill-opacity:1;fill-rule:evenodd;stroke:none;stroke-width:0.264583"
       d="m 65.658246,236.6717 h 0.35894 c 0,0.37888 -0.0499,0.74779 -0.14956,1.10673 l -0.34897,-0.0897 -0.339,-0.0997 c 0.0798,-0.29912 0.11965,-0.6082 0.11965,-0.91729 z"
       id="path3282" />
    <path
       style="fill:#3a5f8b;fill-opacity:1;fill-rule:evenodd;stroke:none;stroke-width:0.264583"
       d="m 65.518656,237.6887 0.34897,0.0897 c -0.0997,0.35894 -0.23929,0.70791 -0.42874,1.02696 l -0.30908,-0.17946 -0.30909,-0.17947 c 0.15953,-0.26921 0.27918,-0.55835 0.35894,-0.85747 z"
       id="path3284" />
    <path
       style="fill:#3a5f8b;fill-opacity:1;fill-rule:evenodd;stroke:none;stroke-width:0.264583"
       d="m 65.129806,238.62593 0.30908,0.17947 c -0.18944,0.31905 -0.40879,0.61817 -0.67799,0.88737 l -0.24927,-0.25923 -0.25923,-0.24926 c 0.21935,-0.21935 0.40879,-0.46862 0.56832,-0.73782 z"
       id="path3286" />
    <path
       style="fill:#3a5f8b;fill-opacity:1;fill-rule:evenodd;stroke:none;stroke-width:0.264583"
       d="m 64.511626,239.43354 0.24927,0.25923 c -0.25923,0.25924 -0.54838,0.48856 -0.87741,0.678 l -0.17947,-0.30909 -0.17947,-0.30908 c 0.26921,-0.15953 0.51847,-0.34897 0.72785,-0.56832 z"
       id="path3288" />
    <path
       style="fill:#3a5f8b;fill-opacity:1;fill-rule:evenodd;stroke:none;stroke-width:0.264583"
       d="m 63.704016,240.06168 0.17947,0.30909 c -0.31906,0.18944 -0.66803,0.32903 -1.03693,0.42873 l -0.0897,-0.34897 -0.0897,-0.33899 c 0.29911,-0.0798 0.58826,-0.19941 0.85746,-0.35894 z"
       id="path3290" />
    <path
       style="fill:#3a5f8b;fill-opacity:1;fill-rule:evenodd;stroke:none;stroke-width:0.264583"
       d="m 62.756816,240.45053 0.0897,0.34897 c -0.35894,0.0997 -0.72785,0.14956 -1.10673,0.14956 v -0.35894 -0.35894 c 0.30908,0 0.62814,-0.0399 0.92726,-0.11964 z"
       id="path3292" />
    <path
       style="fill:#3a5f8b;fill-opacity:1;fill-rule:evenodd;stroke:none;stroke-width:0.264583"
       d="m 61.739826,240.23118 v 0.35894 0.35894 H 10.820312 v -0.35894 -0.35894 z"
       id="path3294" />
    <path
       style="fill:#3a5f8b;fill-opacity:1;fill-rule:evenodd;stroke:none;stroke-width:0.264583"
       d="m 10.820312,240.59012 v 0.35894 c -0.378881,0 -0.74779,-0.0498 -1.1067292,-0.14956 l 0.08973,-0.34897 0.09971,-0.33899 c 0.2991172,0.0798 0.6082032,0.11964 0.9172902,0.11964 z"
       id="path3296" />
    <path
       style="fill:#3a5f8b;fill-opacity:1;fill-rule:evenodd;stroke:none;stroke-width:0.264583"
       d="m 9.8033168,240.45053 -0.08973,0.34897 c -0.358939,-0.0997 -0.707908,-0.23929 -1.026967,-0.42873 l 0.17947,-0.30909 0.179469,-0.30908 c 0.269206,0.15953 0.558351,0.27917 0.857467,0.35894 z"
       id="path3298" />
    <path
       style="fill:#3a5f8b;fill-opacity:1;fill-rule:evenodd;stroke:none;stroke-width:0.264583"
       d="m 8.8660858,240.06168 -0.17947,0.30909 c -0.319055,-0.18944 -0.618172,-0.40879 -0.887375,-0.678 l 0.259233,-0.24926 0.249264,-0.25923 c 0.21935,0.21935 0.468614,0.40879 0.737817,0.56832 z"
       id="path3300" />
    <path
       style="fill:#3a5f8b;fill-opacity:1;fill-rule:evenodd;stroke:none;stroke-width:0.264583"
       d="m 8.0584738,239.44351 -0.259233,0.24926 c -0.259234,-0.25923 -0.488556,-0.54837 -0.677998,-0.8774 l 0.309087,-0.17947 0.309086,-0.17947 c 0.15953,0.2692 0.348969,0.51847 0.568322,0.72785 z"
       id="path3302" />
    <path
       style="fill:#3a5f8b;fill-opacity:1;fill-rule:evenodd;stroke:none;stroke-width:0.264583"
       d="m 7.4303298,238.6359 -0.309087,0.17947 c -0.189439,-0.31906 -0.329027,-0.66803 -0.428733,-1.03694 l 0.348969,-0.0897 0.338998,-0.0897 c 0.07976,0.29912 0.199411,0.58826 0.358939,0.85747 z"
       id="path3304" />
    <path
       style="fill:#3a5f8b;fill-opacity:1;fill-rule:evenodd;stroke:none;stroke-width:0.264583"
       d="m 7.0414788,237.6887 -0.348969,0.0897 c -0.09971,-0.35894 -0.149558,-0.72785 -0.149558,-1.10673 h 0.358941 0.358939 c 0,0.30909 0.03988,0.62814 0.119645,0.92726 z"
       id="path3306" />
    <path
       style="fill:#3a5f8b;fill-opacity:1;fill-rule:evenodd;stroke:none;stroke-width:0.264583"
       d="m 6.5429518,236.6717 c 0,0 0,0 0,0 h 0.358941 z"
       id="path3308" />
    <path
       style="fill:#3a5f8b;fill-opacity:1;fill-rule:evenodd;stroke:none;stroke-width:0.264583"
       d="m 7.2608318,236.6717 h -0.358939 -0.358941 l 0.01,-15.67368 h 0.358939 0.358939 z"
       id="path3310" />
    <text
       xml:space="preserve"
       style="font-style:normal;font-variant:normal;font-weight:400;font-size:6.33346px;line-height:125%;font-family:Calibri;text-align:start;letter-spacing:0px;word-spacing:0px;text-anchor:start;fill:#000000;fill-opacity:1;stroke:none;stroke-width:0.264583"
       x="17.161568"
       y="231.36739"
       id="text3316"><tspan
         sodipodi:role="line"
         x="17.161568"
         y="231.36739"
         id="tspan3314"
         style="stroke-width:0.264583"><tspan
           dx="0"
           dy="0"
           style="font-style:normal;font-variant:normal;font-weight:400;font-size:6.33346px;font-family:Calibri;fill:#ffffff;stroke-width:0.264583"
           id="tspan3312">Gitlab / Github</tspan></tspan></text>
  </g>
</svg>
