<?xml version="1.0" encoding="UTF-8" standalone="no"?>
<!-- Created with Inkscape (http://www.inkscape.org/) -->

<svg
   width="265.00391mm"
   height="115.98785mm"
   viewBox="0 0 265.00391 115.98785"
   version="1.1"
   id="svg1793"
   inkscape:version="1.2.1 (9c6d41e410, 2022-07-14)"
   sodipodi:docname="git_decentralise_3.svg"
   xmlns:inkscape="http://www.inkscape.org/namespaces/inkscape"
   xmlns:sodipodi="http://sodipodi.sourceforge.net/DTD/sodipodi-0.dtd"
   xmlns="http://www.w3.org/2000/svg"
   xmlns:svg="http://www.w3.org/2000/svg">
  <sodipodi:namedview
     id="namedview1795"
     pagecolor="#ffffff"
     bordercolor="#666666"
     borderopacity="1.0"
     inkscape:showpageshadow="2"
     inkscape:pageopacity="0.0"
     inkscape:pagecheckerboard="0"
     inkscape:deskcolor="#d1d1d1"
     inkscape:document-units="mm"
     showgrid="false"
     inkscape:zoom="0.74564394"
     inkscape:cx="991.08966"
     inkscape:cy="266.88341"
     inkscape:window-width="1920"
     inkscape:window-height="1017"
     inkscape:window-x="-8"
     inkscape:window-y="-8"
     inkscape:window-maximized="1"
     inkscape:current-layer="layer1" />
  <defs
     id="defs1790">
    <pattern
       id="EMFhbasepattern"
       patternUnits="userSpaceOnUse"
       width="6"
       height="6"
       x="0"
       y="0" />
  </defs>
  <g
     inkscape:label="Calque 1"
     inkscape:groupmode="layer"
     id="layer1"
     transform="translate(157.34066,-77.909306)">
    <path
       style="fill:#77933c;fill-opacity:1;fill-rule:evenodd;stroke:none;stroke-width:0.264583"
       d="m -156.98166,122.50543 v 0 c 0,-0.66815 0.1795,-1.32632 0.50859,-1.91468 0.33905,-0.5784 0.81772,-1.05707 1.40609,-1.39613 0.57839,-0.33905 1.23656,-0.50858 1.90471,-0.50858 h 49.71191 v 0 c 0.66814,0 1.32632,0.1795 1.91468,0.50858 0.5784,0.33906 1.05706,0.81773 1.39612,1.4061 0.33906,0.57839 0.508589,1.23656 0.508589,1.90471 v 0 l 0.01,15.28753 v 0 c 0,0.66815 -0.179501,1.32632 -0.508589,1.91468 -0.33905,0.5784 -0.81772,1.05707 -1.40609,1.39612 -0.57839,0.33906 -1.23657,0.50859 -1.90471,0.50859 l -49.72188,0.01 v 0 c -0.66815,0 -1.32632,-0.1795 -1.91468,-0.50859 -0.57843,-0.33908 -1.0571,-0.81775 -1.39615,-1.40612 -0.33906,-0.57839 -0.50859,-1.23656 -0.50859,-1.90471 z"
       id="path1800" />
    <path
       style="fill:#728a41;fill-opacity:1;fill-rule:evenodd;stroke:none;stroke-width:0.264583"
       d="m -156.98166,122.50543 h -0.359 c 0,-0.36898 0.0499,-0.72798 0.13961,-1.07701 l 0.34903,0.0897 0.34903,0.0897 c -0.0798,0.2892 -0.11967,0.59834 -0.11967,0.89751 z"
       id="path1802" />
    <path
       style="fill:#728a41;fill-opacity:1;fill-rule:evenodd;stroke:none;stroke-width:0.264583"
       d="m -156.85202,121.51817 -0.34903,-0.0897 c 0.0898,-0.359 0.22936,-0.69806 0.41883,-1.01718 l 0.30915,0.1795 0.30914,0.17951 c -0.14959,0.25928 -0.26926,0.54847 -0.33906,0.83767 z"
       id="path1804" />
    <path
       style="fill:#728a41;fill-opacity:1;fill-rule:evenodd;stroke:none;stroke-width:0.264583"
       d="m -156.47307,120.59075 -0.30915,-0.17951 c 0.17951,-0.31911 0.40887,-0.60831 0.66815,-0.86759 l 0.24931,0.25928 0.2493,0.24931 c -0.20942,0.21939 -0.39889,0.44876 -0.54847,0.71801 z"
       id="path1806" />
    <path
       style="fill:#728a41;fill-opacity:1;fill-rule:evenodd;stroke:none;stroke-width:0.264583"
       d="m -155.86476,119.80293 -0.24931,-0.25928 c 0.25928,-0.2493 0.54847,-0.47867 0.86759,-0.65817 l 0.1795,0.30914 0.1795,0.30915 c -0.26925,0.15955 -0.50859,0.33905 -0.72798,0.54847 z"
       id="path1808" />
    <path
       style="fill:#728a41;fill-opacity:1;fill-rule:evenodd;stroke:none;stroke-width:0.264583"
       d="m -155.06698,119.19462 -0.1795,-0.30914 c 0.31911,-0.18947 0.65817,-0.32908 1.0072,-0.41883 l 0.0898,0.34903 0.0997,0.34903 c -0.28919,0.0698 -0.56842,0.18947 -0.83767,0.33906 z"
       id="path1810" />
    <path
       style="fill:#728a41;fill-opacity:1;fill-rule:evenodd;stroke:none;stroke-width:0.264583"
       d="m -154.14953,118.81568 -0.0898,-0.34903 c 0.34903,-0.0897 0.70803,-0.13962 1.07701,-0.13962 v 0.35901 0.359 c -0.29917,0 -0.59834,0.0399 -0.88754,0.11967 z"
       id="path1812" />
    <path
       style="fill:#728a41;fill-opacity:1;fill-rule:evenodd;stroke:none;stroke-width:0.264583"
       d="m -153.16227,119.04504 v -0.359 -0.35901 h 49.71191 v 0.35901 0.359 z"
       id="path1814" />
    <path
       style="fill:#728a41;fill-opacity:1;fill-rule:evenodd;stroke:none;stroke-width:0.264583"
       d="m -103.45036,118.68604 v -0.35901 c 0.36897,0 0.72798,0.0499 1.07701,0.13962 l -0.0897,0.34903 -0.0898,0.34903 c -0.2892,-0.0798 -0.59834,-0.11967 -0.89751,-0.11967 z"
       id="path1816" />
    <path
       style="fill:#728a41;fill-opacity:1;fill-rule:evenodd;stroke:none;stroke-width:0.264583"
       d="m -102.4631,118.81568 0.0897,-0.34903 c 0.359,0.0897 0.69806,0.22936 1.01717,0.41883 l -0.1795,0.30914 -0.1795,0.30915 c -0.25928,-0.14959 -0.54848,-0.26926 -0.83767,-0.33906 z"
       id="path1818" />
    <path
       style="fill:#728a41;fill-opacity:1;fill-rule:evenodd;stroke:none;stroke-width:0.264583"
       d="m -101.53568,119.19462 0.1795,-0.30914 c 0.31912,0.1795 0.60831,0.40887 0.86759,0.66815 l -0.25928,0.2493 -0.24931,0.24931 c -0.21939,-0.20942 -0.44875,-0.39889 -0.718,-0.54847 z"
       id="path1820" />
    <path
       style="fill:#728a41;fill-opacity:1;fill-rule:evenodd;stroke:none;stroke-width:0.264583"
       d="m -100.74787,119.80293 0.25928,-0.2493 c 0.24931,0.25928 0.47867,0.54847 0.658174,0.86759 l -0.309144,0.1795 -0.30914,0.1795 c -0.15955,-0.26925 -0.33906,-0.50859 -0.54848,-0.72798 z"
       id="path1822" />
    <path
       style="fill:#728a41;fill-opacity:1;fill-rule:evenodd;stroke:none;stroke-width:0.264583"
       d="m -100.13956,120.60072 0.309144,-0.1795 c 0.189473,0.31911 0.329086,0.65817 0.418838,1.0072 l -0.349031,0.0897 -0.349031,0.0997 c -0.0698,-0.2892 -0.18947,-0.56842 -0.33906,-0.83767 z"
       id="path1824" />
    <path
       style="fill:#728a41;fill-opacity:1;fill-rule:evenodd;stroke:none;stroke-width:0.264583"
       d="m -99.760609,121.51817 0.349031,-0.0897 c 0.08975,0.34903 0.13961,0.70803 0.13961,1.07701 h -0.359003 -0.359002 c 0,-0.29917 -0.03989,-0.59834 -0.119667,-0.88754 z"
       id="path1826" />
    <path
       style="fill:#728a41;fill-opacity:1;fill-rule:evenodd;stroke:none;stroke-width:0.264583"
       d="m -99.989973,122.50543 c 0,0 0,0 0,0 h 0.359002 z"
       id="path1828" />
    <path
       style="fill:#728a41;fill-opacity:1;fill-rule:evenodd;stroke:none;stroke-width:0.264583"
       d="m -99.989973,122.50543 h 0.359002 0.359003 l 0.01,15.28753 h -0.359006 -0.359002 z"
       id="path1830" />
    <path
       style="fill:#728a41;fill-opacity:1;fill-rule:evenodd;stroke:none;stroke-width:0.264583"
       d="m -99.261993,137.79296 c 0,0 0,0 0,0 v 0 h -0.359006 z"
       id="path1832" />
    <path
       style="fill:#728a41;fill-opacity:1;fill-rule:evenodd;stroke:none;stroke-width:0.264583"
       d="m -99.620999,137.79296 h 0.359006 c 0,0.36898 -0.04986,0.72798 -0.139613,1.07701 l -0.34903,-0.0897 -0.349034,-0.0898 c 0.0798,-0.2892 0.119669,-0.59834 0.119669,-0.89751 z"
       id="path1834" />
    <path
       style="fill:#728a41;fill-opacity:1;fill-rule:evenodd;stroke:none;stroke-width:0.264583"
       d="m -99.750636,138.78022 0.34903,0.0897 c -0.08975,0.359 -0.229365,0.69806 -0.418838,1.01718 l -0.309146,-0.17951 -0.30913,-0.1795 c 0.14958,-0.25928 0.26925,-0.54847 0.33905,-0.83767 z"
       id="path1836" />
    <path
       style="fill:#728a41;fill-opacity:1;fill-rule:evenodd;stroke:none;stroke-width:0.264583"
       d="m -100.12959,139.70764 0.309146,0.1795 c -0.179501,0.31912 -0.408866,0.60832 -0.668146,0.86759 l -0.2493,-0.25927 -0.24931,-0.24931 c 0.20942,-0.21939 0.39889,-0.44875 0.54848,-0.71801 z"
       id="path1838" />
    <path
       style="fill:#728a41;fill-opacity:1;fill-rule:evenodd;stroke:none;stroke-width:0.264583"
       d="m -100.73789,140.49546 0.2493,0.25927 c -0.25928,0.24931 -0.54847,0.47868 -0.86759,0.65818 l -0.1795,-0.30915 -0.1795,-0.30914 c 0.26925,-0.15955 0.50859,-0.33906 0.72798,-0.54847 z"
       id="path1840" />
    <path
       style="fill:#728a41;fill-opacity:1;fill-rule:evenodd;stroke:none;stroke-width:0.264583"
       d="m -101.53568,141.10376 0.1795,0.30915 c -0.31911,0.18947 -0.65817,0.32908 -1.0072,0.41883 l -0.0897,-0.34903 -0.0997,-0.34903 c 0.2892,-0.0698 0.56842,-0.18947 0.83767,-0.33906 z"
       id="path1842" />
    <path
       style="fill:#728a41;fill-opacity:1;fill-rule:evenodd;stroke:none;stroke-width:0.264583"
       d="m -102.45313,141.48271 0.0897,0.34903 c -0.34903,0.0898 -0.70803,0.13961 -1.07701,0.13961 v -0.359 -0.359 c 0.29917,0 0.59834,-0.0399 0.88754,-0.11967 z"
       id="path1844" />
    <path
       style="fill:#728a41;fill-opacity:1;fill-rule:evenodd;stroke:none;stroke-width:0.264583"
       d="m -103.44039,141.25335 c 0,0 0,0 0,0 v 0.359 z"
       id="path1846" />
    <path
       style="fill:#728a41;fill-opacity:1;fill-rule:evenodd;stroke:none;stroke-width:0.264583"
       d="m -103.44039,141.25335 v 0.359 0.359 l -49.72188,0.01 v -0.359 -0.359 z"
       id="path1848" />
    <path
       style="fill:#728a41;fill-opacity:1;fill-rule:evenodd;stroke:none;stroke-width:0.264583"
       d="m -153.16227,141.98133 c 0,0 0,0 0,0 v -0.35901 z"
       id="path1850" />
    <path
       style="fill:#728a41;fill-opacity:1;fill-rule:evenodd;stroke:none;stroke-width:0.264583"
       d="m -153.16227,141.62232 v 0.35901 c -0.36898,0 -0.72798,-0.0499 -1.07701,-0.13961 l 0.0898,-0.34903 0.0898,-0.34904 c 0.2892,0.0798 0.59834,0.11967 0.89751,0.11967 z"
       id="path1852" />
    <path
       style="fill:#728a41;fill-opacity:1;fill-rule:evenodd;stroke:none;stroke-width:0.264583"
       d="m -154.14953,141.49269 -0.0898,0.34903 c -0.359,-0.0898 -0.69806,-0.22937 -1.01717,-0.41884 l 0.1795,-0.30914 0.1795,-0.30914 c 0.25928,0.14958 0.54848,0.26925 0.83767,0.33905 z"
       id="path1854" />
    <path
       style="fill:#728a41;fill-opacity:1;fill-rule:evenodd;stroke:none;stroke-width:0.264583"
       d="m -155.07695,141.11374 -0.1795,0.30914 c -0.31912,-0.1795 -0.60831,-0.40886 -0.86759,-0.66815 l 0.25928,-0.2493 0.2493,-0.24931 c 0.21939,0.20942 0.44876,0.39889 0.71801,0.54848 z"
       id="path1856" />
    <path
       style="fill:#728a41;fill-opacity:1;fill-rule:evenodd;stroke:none;stroke-width:0.264583"
       d="m -155.86476,140.50543 -0.25928,0.2493 c -0.24931,-0.25927 -0.47867,-0.54847 -0.65818,-0.86759 l 0.30915,-0.1795 0.30914,-0.1795 c 0.15955,0.26926 0.33905,0.50859 0.54847,0.72798 z"
       id="path1858" />
    <path
       style="fill:#728a41;fill-opacity:1;fill-rule:evenodd;stroke:none;stroke-width:0.264583"
       d="m -156.47307,139.70764 -0.30915,0.1795 c -0.18947,-0.31911 -0.32908,-0.65817 -0.41883,-1.0072 l 0.34903,-0.0898 0.34903,-0.0997 c 0.0698,0.2892 0.18947,0.56842 0.33906,0.83767 z"
       id="path1860" />
    <path
       style="fill:#728a41;fill-opacity:1;fill-rule:evenodd;stroke:none;stroke-width:0.264583"
       d="m -156.85202,138.79019 -0.34903,0.0898 c -0.0897,-0.34903 -0.13961,-0.70803 -0.13961,-1.07701 h 0.359 0.359 c 0,0.29917 0.0399,0.59834 0.11967,0.88754 z"
       id="path1862" />
    <path
       style="fill:#728a41;fill-opacity:1;fill-rule:evenodd;stroke:none;stroke-width:0.264583"
       d="m -156.62266,137.80293 h -0.359 -0.359 v -15.2975 h 0.359 0.359 z"
       id="path1864" />
    <text
       xml:space="preserve"
       style="font-style:normal;font-variant:normal;font-weight:400;font-size:6.33346px;line-height:125%;font-family:Calibri;text-align:start;letter-spacing:0px;word-spacing:0px;text-anchor:start;fill:#000000;fill-opacity:1;stroke:none;stroke-width:0.264583"
       x="-142.08305"
       y="132.68715"
       id="text1870"><tspan
         sodipodi:role="line"
         x="-142.08305"
         y="132.68715"
         id="tspan1868"
         style="stroke-width:0.264583"><tspan
           dx="0"
           dy="0"
           style="font-style:normal;font-variant:normal;font-weight:400;font-size:6.33346px;font-family:Calibri;fill:#ffffff;stroke-width:0.264583"
           id="tspan1866">Lieutenant</tspan></tspan></text>
    <path
       style="fill:#77933c;fill-opacity:1;fill-rule:evenodd;stroke:none;stroke-width:0.264583"
       d="m -79.905762,110.01014 v 0 c 0,-0.66815 0.179501,-1.32632 0.508587,-1.91469 0.339059,-0.57839 0.81773,-1.05706 1.406094,-1.39612 0.578393,-0.33906 1.236565,-0.50859 1.904709,-0.50859 h 49.711907 v 0 c 0.66815,0 1.32632,0.17951 1.91469,0.50859 0.57839,0.33906 1.05706,0.81773 1.39612,1.4061 0.33906,0.57839 0.50858,1.23656 0.50858,1.90471 v 0 l 0.01,15.28753 v 0 c 0,0.66814 -0.1795,1.32632 -0.50859,1.91468 -0.33906,0.5784 -0.81773,1.05707 -1.40609,1.39613 -0.5784,0.33905 -1.23657,0.50858 -1.90471,0.50858 l -49.721887,0.01 v 0 c -0.668144,0 -1.326316,-0.1795 -1.914681,-0.50858 -0.578392,-0.33906 -1.057063,-0.81773 -1.396122,-1.4061 -0.339058,-0.57839 -0.508587,-1.23657 -0.508587,-1.90471 z"
       id="path1872" />
    <path
       style="fill:#728a41;fill-opacity:1;fill-rule:evenodd;stroke:none;stroke-width:0.264583"
       d="m -79.905762,110.01014 h -0.359003 c 0,-0.36898 0.04986,-0.72798 0.139613,-1.07701 l 0.349031,0.0897 0.34903,0.0897 c -0.07978,0.2892 -0.119668,0.59834 -0.119668,0.89751 z"
       id="path1874" />
    <path
       style="fill:#728a41;fill-opacity:1;fill-rule:evenodd;stroke:none;stroke-width:0.264583"
       d="m -79.776121,109.02288 -0.349031,-0.0897 c 0.08975,-0.359 0.229362,-0.69806 0.418836,-1.01718 l 0.309141,0.17951 0.309142,0.1795 c -0.149585,0.25928 -0.269253,0.54848 -0.339058,0.83767 z"
       id="path1876" />
    <path
       style="fill:#728a41;fill-opacity:1;fill-rule:evenodd;stroke:none;stroke-width:0.264583"
       d="m -79.397175,108.09545 -0.309141,-0.1795 c 0.179501,-0.31911 0.408865,-0.60831 0.668144,-0.86759 l 0.249309,0.25928 0.249306,0.24931 c -0.209418,0.21939 -0.398891,0.44875 -0.548476,0.71801 z"
       id="path1878" />
    <path
       style="fill:#728a41;fill-opacity:1;fill-rule:evenodd;stroke:none;stroke-width:0.264583"
       d="m -78.788863,107.30764 -0.249309,-0.25928 c 0.259281,-0.2493 0.548476,-0.47867 0.86759,-0.65817 l 0.179501,0.30914 0.179501,0.30914 c -0.26925,0.15956 -0.508587,0.33906 -0.727977,0.54848 z"
       id="path1880" />
    <path
       style="fill:#728a41;fill-opacity:1;fill-rule:evenodd;stroke:none;stroke-width:0.264583"
       d="m -77.991081,106.69933 -0.179501,-0.30914 c 0.319114,-0.18947 0.658172,-0.32908 1.007202,-0.41883 l 0.08975,0.34903 0.09972,0.34903 c -0.289198,0.0698 -0.56842,0.18947 -0.837674,0.33905 z"
       id="path1882" />
    <path
       style="fill:#728a41;fill-opacity:1;fill-rule:evenodd;stroke:none;stroke-width:0.264583"
       d="m -77.07363,106.32039 -0.08975,-0.34903 c 0.349031,-0.0898 0.708033,-0.13962 1.077008,-0.13962 v 0.359 0.35901 c -0.29917,0 -0.598337,0.0399 -0.887534,0.11967 z"
       id="path1884" />
    <path
       style="fill:#728a41;fill-opacity:1;fill-rule:evenodd;stroke:none;stroke-width:0.264583"
       d="m -76.086372,106.54975 v -0.35901 -0.359 h 49.711907 v 0.359 0.35901 z"
       id="path1886" />
    <path
       style="fill:#728a41;fill-opacity:1;fill-rule:evenodd;stroke:none;stroke-width:0.264583"
       d="m -26.374465,106.19074 v -0.359 c 0.36898,0 0.72798,0.0499 1.07701,0.13962 l -0.0897,0.34903 -0.0898,0.34903 c -0.28919,-0.0798 -0.59834,-0.11967 -0.89751,-0.11967 z"
       id="path1888" />
    <path
       style="fill:#728a41;fill-opacity:1;fill-rule:evenodd;stroke:none;stroke-width:0.264583"
       d="m -25.387205,106.32039 0.0897,-0.34903 c 0.359,0.0897 0.69806,0.22936 1.01718,0.41883 l -0.1795,0.30914 -0.17951,0.30914 c -0.25927,-0.14958 -0.54847,-0.26925 -0.83767,-0.33905 z"
       id="path1890" />
    <path
       style="fill:#728a41;fill-opacity:1;fill-rule:evenodd;stroke:none;stroke-width:0.264583"
       d="m -24.459775,106.69933 0.1795,-0.30914 c 0.31911,0.1795 0.60831,0.40887 0.86759,0.66814 l -0.25928,0.24931 -0.24931,0.24931 c -0.21939,-0.20942 -0.44875,-0.39889 -0.71801,-0.54848 z"
       id="path1892" />
    <path
       style="fill:#728a41;fill-opacity:1;fill-rule:evenodd;stroke:none;stroke-width:0.264583"
       d="m -23.671965,107.30764 0.25928,-0.24931 c 0.24931,0.25929 0.47867,0.54848 0.65817,0.86759 l -0.30914,0.17951 -0.30914,0.1795 c -0.15956,-0.26925 -0.33906,-0.50859 -0.54848,-0.72798 z"
       id="path1894" />
    <path
       style="fill:#728a41;fill-opacity:1;fill-rule:evenodd;stroke:none;stroke-width:0.264583"
       d="m -23.063655,108.10543 0.30914,-0.17951 c 0.18947,0.31912 0.32909,0.65818 0.41884,1.00721 l -0.34903,0.0897 -0.34903,0.0997 c -0.0698,-0.2892 -0.18948,-0.56842 -0.33906,-0.83767 z"
       id="path1896" />
    <path
       style="fill:#728a41;fill-opacity:1;fill-rule:evenodd;stroke:none;stroke-width:0.264583"
       d="m -22.684705,109.02288 0.34903,-0.0897 c 0.0898,0.34903 0.13961,0.70803 0.13961,1.07701 h -0.35901 -0.359 c 0,-0.29917 -0.0399,-0.59834 -0.11966,-0.88754 z"
       id="path1898" />
    <path
       style="fill:#728a41;fill-opacity:1;fill-rule:evenodd;stroke:none;stroke-width:0.264583"
       d="m -22.914075,110.01014 c 0,0 0,0 0,0 h 0.359 z"
       id="path1900" />
    <path
       style="fill:#728a41;fill-opacity:1;fill-rule:evenodd;stroke:none;stroke-width:0.264583"
       d="m -22.914075,110.01014 h 0.359 0.35901 l 0.01,15.28753 h -0.359 -0.35901 z"
       id="path1902" />
    <path
       style="fill:#728a41;fill-opacity:1;fill-rule:evenodd;stroke:none;stroke-width:0.264583"
       d="m -22.186095,125.29767 c 0,0 0,0 0,0 v 0 h -0.359 z"
       id="path1904" />
    <path
       style="fill:#728a41;fill-opacity:1;fill-rule:evenodd;stroke:none;stroke-width:0.264583"
       d="m -22.545095,125.29767 h 0.359 c 0,0.36898 -0.0499,0.72798 -0.13961,1.07701 l -0.34903,-0.0897 -0.34903,-0.0898 c 0.0798,-0.2892 0.11966,-0.59834 0.11966,-0.89751 z"
       id="path1906" />
    <path
       style="fill:#728a41;fill-opacity:1;fill-rule:evenodd;stroke:none;stroke-width:0.264583"
       d="m -22.674735,126.28493 0.34903,0.0897 c -0.0898,0.359 -0.22937,0.69806 -0.41884,1.01717 l -0.30914,-0.1795 -0.30914,-0.1795 c 0.14958,-0.25928 0.26925,-0.54848 0.33906,-0.83767 z"
       id="path1908" />
    <path
       style="fill:#728a41;fill-opacity:1;fill-rule:evenodd;stroke:none;stroke-width:0.264583"
       d="m -23.053685,127.21235 0.30914,0.17951 c -0.1795,0.31911 -0.40886,0.6083 -0.66814,0.86759 l -0.24931,-0.25929 -0.24931,-0.2493 c 0.20942,-0.21939 0.3989,-0.44876 0.54848,-0.71801 z"
       id="path1910" />
    <path
       style="fill:#728a41;fill-opacity:1;fill-rule:evenodd;stroke:none;stroke-width:0.264583"
       d="m -23.661995,128.00016 0.24931,0.25929 c -0.25928,0.2493 -0.54848,0.47866 -0.86759,0.65816 l -0.1795,-0.30913 -0.17951,-0.30915 c 0.26926,-0.15955 0.50859,-0.33905 0.72798,-0.54847 z"
       id="path1912" />
    <path
       style="fill:#728a41;fill-opacity:1;fill-rule:evenodd;stroke:none;stroke-width:0.264583"
       d="m -24.459775,128.60848 0.1795,0.30913 c -0.31912,0.18948 -0.65818,0.32909 -1.00721,0.41884 l -0.0897,-0.34903 -0.0997,-0.34903 c 0.2892,-0.0698 0.56842,-0.18947 0.83767,-0.33906 z"
       id="path1914" />
    <path
       style="fill:#728a41;fill-opacity:1;fill-rule:evenodd;stroke:none;stroke-width:0.264583"
       d="m -25.377225,128.98742 0.0897,0.34903 c -0.34903,0.0897 -0.70803,0.13962 -1.077,0.13962 v -0.35901 -0.359 c 0.29917,0 0.59834,-0.0399 0.88753,-0.11967 z"
       id="path1916" />
    <path
       style="fill:#728a41;fill-opacity:1;fill-rule:evenodd;stroke:none;stroke-width:0.264583"
       d="m -26.364485,128.75806 c 0,0 0,0 0,0 v 0.359 z"
       id="path1918" />
    <path
       style="fill:#728a41;fill-opacity:1;fill-rule:evenodd;stroke:none;stroke-width:0.264583"
       d="m -26.364485,128.75806 v 0.359 0.35901 l -49.721887,0.01 v -0.35901 -0.359 z"
       id="path1920" />
    <path
       style="fill:#728a41;fill-opacity:1;fill-rule:evenodd;stroke:none;stroke-width:0.264583"
       d="m -76.086372,129.48604 c 0,0 0,0 0,0 v -0.35901 z"
       id="path1922" />
    <path
       style="fill:#728a41;fill-opacity:1;fill-rule:evenodd;stroke:none;stroke-width:0.264583"
       d="m -76.086372,129.12703 v 0.35901 c -0.368975,0 -0.727977,-0.0499 -1.077008,-0.13962 l 0.08975,-0.34903 0.08975,-0.34903 c 0.289197,0.0798 0.598336,0.11967 0.897506,0.11967 z"
       id="path1924" />
    <path
       style="fill:#728a41;fill-opacity:1;fill-rule:evenodd;stroke:none;stroke-width:0.264583"
       d="m -77.07363,128.99739 -0.08975,0.34903 c -0.359002,-0.0897 -0.69806,-0.22936 -1.017174,-0.41883 l 0.179501,-0.30914 0.179501,-0.30914 c 0.259281,0.14958 0.548476,0.26925 0.837674,0.33905 z"
       id="path1926" />
    <path
       style="fill:#728a41;fill-opacity:1;fill-rule:evenodd;stroke:none;stroke-width:0.264583"
       d="m -78.001053,128.61845 -0.179501,0.30914 c -0.319114,-0.1795 -0.608309,-0.40887 -0.86759,-0.66814 l 0.259281,-0.24931 0.249306,-0.24931 c 0.21939,0.20942 0.448755,0.39889 0.718005,0.54848 z"
       id="path1928" />
    <path
       style="fill:#728a41;fill-opacity:1;fill-rule:evenodd;stroke:none;stroke-width:0.264583"
       d="m -78.788863,128.01014 -0.259281,0.24931 c -0.249307,-0.25929 -0.478671,-0.54848 -0.658172,-0.86759 l 0.309141,-0.17951 0.309142,-0.1795 c 0.159557,0.26925 0.339058,0.50859 0.548476,0.72798 z"
       id="path1930" />
    <path
       style="fill:#728a41;fill-opacity:1;fill-rule:evenodd;stroke:none;stroke-width:0.264583"
       d="m -79.397175,127.21235 -0.309141,0.17951 c -0.189474,-0.31912 -0.329087,-0.65818 -0.418836,-1.00721 l 0.349031,-0.0897 0.34903,-0.0997 c 0.06981,0.2892 0.189473,0.56842 0.339058,0.83767 z"
       id="path1932" />
    <path
       style="fill:#728a41;fill-opacity:1;fill-rule:evenodd;stroke:none;stroke-width:0.264583"
       d="m -79.776121,126.2949 -0.349031,0.0897 c -0.08975,-0.34903 -0.139613,-0.70803 -0.139613,-1.07701 h 0.359003 0.359003 c 0,0.29917 0.03989,0.59834 0.119668,0.88754 z"
       id="path1934" />
    <path
       style="fill:#728a41;fill-opacity:1;fill-rule:evenodd;stroke:none;stroke-width:0.264583"
       d="m -79.546759,125.30764 h -0.359003 -0.359003 v -15.2975 h 0.359003 0.359003 z"
       id="path1936" />
    <text
       xml:space="preserve"
       style="font-style:normal;font-variant:normal;font-weight:400;font-size:6.33346px;line-height:125%;font-family:Calibri;text-align:start;letter-spacing:0px;word-spacing:0px;text-anchor:start;fill:#000000;fill-opacity:1;stroke:none;stroke-width:0.264583"
       x="-65.007149"
       y="120.19186"
       id="text1942"><tspan
         sodipodi:role="line"
         x="-65.007149"
         y="120.19186"
         id="tspan1940"
         style="stroke-width:0.264583"><tspan
           dx="0"
           dy="0"
           style="font-style:normal;font-variant:normal;font-weight:400;font-size:6.33346px;font-family:Calibri;fill:#ffffff;stroke-width:0.264583"
           id="tspan1938">Lieutenant</tspan></tspan></text>
    <path
       style="fill:#c3d69b;fill-opacity:1;fill-rule:evenodd;stroke:none;stroke-width:0.264583"
       d="m -156.98166,174.42122 v 0 c 0,-0.66815 0.1795,-1.32632 0.50859,-1.91468 0.33905,-0.5784 0.81772,-1.05707 1.40609,-1.39613 0.57839,-0.33905 1.23656,-0.50858 1.90471,-0.50858 h 49.71191 v 0 c 0.66814,0 1.32632,0.1795 1.91468,0.50858 0.5784,0.33906 1.05706,0.81773 1.39612,1.4061 0.33906,0.57839 0.508589,1.23656 0.508589,1.90471 v 0 l 0.01,15.28754 v 0 c 0,0.66814 -0.179501,1.32631 -0.508589,1.91468 -0.33905,0.57839 -0.81772,1.05706 -1.40609,1.39612 -0.57839,0.33906 -1.23657,0.50859 -1.90471,0.50859 l -49.72188,0.01 v 0 c -0.66815,0 -1.32632,-0.1795 -1.91468,-0.50859 -0.5784,-0.33906 -1.05707,-0.81773 -1.39613,-1.40609 -0.33905,-0.5784 -0.50858,-1.23657 -0.50858,-1.90471 z"
       id="path1944" />
    <path
       style="fill:#728a41;fill-opacity:1;fill-rule:evenodd;stroke:none;stroke-width:0.264583"
       d="m -156.98166,174.42122 h -0.359 c 0,-0.36898 0.0499,-0.72798 0.13961,-1.07701 l 0.34903,0.0898 0.34903,0.0897 c -0.0798,0.2892 -0.11967,0.59834 -0.11967,0.89751 z"
       id="path1946" />
    <path
       style="fill:#728a41;fill-opacity:1;fill-rule:evenodd;stroke:none;stroke-width:0.264583"
       d="m -156.85202,173.43396 -0.34903,-0.0898 c 0.0898,-0.359 0.22936,-0.69806 0.41883,-1.01718 l 0.30915,0.17951 0.30914,0.1795 c -0.14959,0.25928 -0.26926,0.54847 -0.33906,0.83767 z"
       id="path1948" />
    <path
       style="fill:#728a41;fill-opacity:1;fill-rule:evenodd;stroke:none;stroke-width:0.264583"
       d="m -156.47307,172.50654 -0.30915,-0.17951 c 0.17951,-0.31911 0.40887,-0.60831 0.66815,-0.86759 l 0.24931,0.25928 0.2493,0.24931 c -0.20942,0.21939 -0.39889,0.44875 -0.54847,0.71801 z"
       id="path1950" />
    <path
       style="fill:#728a41;fill-opacity:1;fill-rule:evenodd;stroke:none;stroke-width:0.264583"
       d="m -155.86476,171.71872 -0.24931,-0.25928 c 0.25928,-0.2493 0.54847,-0.47867 0.86759,-0.65817 l 0.1795,0.30914 0.1795,0.30914 c -0.26925,0.15956 -0.50859,0.33906 -0.72798,0.54848 z"
       id="path1952" />
    <path
       style="fill:#728a41;fill-opacity:1;fill-rule:evenodd;stroke:none;stroke-width:0.264583"
       d="m -155.06698,171.11041 -0.1795,-0.30914 c 0.31911,-0.18947 0.65817,-0.32908 1.0072,-0.41884 l 0.0898,0.34904 0.0997,0.34903 c -0.28919,0.0698 -0.56842,0.18947 -0.83767,0.33905 z"
       id="path1954" />
    <path
       style="fill:#728a41;fill-opacity:1;fill-rule:evenodd;stroke:none;stroke-width:0.264583"
       d="m -154.14953,170.73147 -0.0898,-0.34904 c 0.34903,-0.0898 0.70803,-0.13961 1.07701,-0.13961 v 0.35901 0.359 c -0.29917,0 -0.59834,0.0399 -0.88754,0.11967 z"
       id="path1956" />
    <path
       style="fill:#728a41;fill-opacity:1;fill-rule:evenodd;stroke:none;stroke-width:0.264583"
       d="m -153.16227,170.96083 v -0.359 -0.35901 h 49.71191 v 0.35901 0.359 z"
       id="path1958" />
    <path
       style="fill:#728a41;fill-opacity:1;fill-rule:evenodd;stroke:none;stroke-width:0.264583"
       d="m -103.45036,170.60183 v -0.35901 c 0.36897,0 0.72798,0.0499 1.07701,0.13961 l -0.0897,0.34904 -0.0898,0.34903 c -0.29917,-0.0798 -0.59834,-0.11967 -0.89751,-0.11967 z"
       id="path1960" />
    <path
       style="fill:#728a41;fill-opacity:1;fill-rule:evenodd;stroke:none;stroke-width:0.264583"
       d="m -102.4631,170.73147 0.0897,-0.34904 c 0.34903,0.0997 0.68809,0.23934 1.01717,0.41884 l -0.1795,0.30914 -0.1795,0.30914 c -0.25928,-0.14958 -0.54848,-0.25927 -0.83767,-0.33905 z"
       id="path1962" />
    <path
       style="fill:#728a41;fill-opacity:1;fill-rule:evenodd;stroke:none;stroke-width:0.264583"
       d="m -101.35618,170.80127 c 0,0 0,0 0,0 0,0 0,0 0,0 l -0.1795,0.30914 z"
       id="path1964" />
    <path
       style="fill:#728a41;fill-opacity:1;fill-rule:evenodd;stroke:none;stroke-width:0.264583"
       d="m -101.53568,171.11041 0.1795,-0.30914 c 0.31912,0.18948 0.60831,0.40887 0.86759,0.66815 l -0.25928,0.2493 -0.25928,0.25928 c -0.20942,-0.21939 -0.44875,-0.40886 -0.70803,-0.55845 z"
       id="path1966" />
    <path
       style="fill:#728a41;fill-opacity:1;fill-rule:evenodd;stroke:none;stroke-width:0.264583"
       d="m -100.74787,171.71872 0.25928,-0.2493 c 0.24931,0.25928 0.47867,0.54847 0.658174,0.86759 l -0.309144,0.1795 -0.30914,0.1795 c -0.15955,-0.25928 -0.33906,-0.50859 -0.55845,-0.71801 z"
       id="path1968" />
    <path
       style="fill:#728a41;fill-opacity:1;fill-rule:evenodd;stroke:none;stroke-width:0.264583"
       d="m -100.13956,172.51651 0.309144,-0.1795 c 0.189473,0.31911 0.329086,0.65817 0.418838,1.0072 l -0.349031,0.0898 -0.349031,0.0997 c -0.0698,-0.28919 -0.18947,-0.56842 -0.33906,-0.83767 z"
       id="path1970" />
    <path
       style="fill:#728a41;fill-opacity:1;fill-rule:evenodd;stroke:none;stroke-width:0.264583"
       d="m -99.760609,173.43396 0.349031,-0.0898 c 0.08975,0.34903 0.13961,0.70803 0.13961,1.07701 h -0.359003 -0.359002 c 0,-0.29917 -0.03989,-0.59834 -0.119667,-0.88754 z"
       id="path1972" />
    <path
       style="fill:#728a41;fill-opacity:1;fill-rule:evenodd;stroke:none;stroke-width:0.264583"
       d="m -99.989973,174.42122 c 0,0 0,0 0,0 h 0.359002 z"
       id="path1974" />
    <path
       style="fill:#728a41;fill-opacity:1;fill-rule:evenodd;stroke:none;stroke-width:0.264583"
       d="m -99.989973,174.42122 h 0.359002 0.359003 l 0.01,15.28754 h -0.359006 -0.359002 z"
       id="path1976" />
    <path
       style="fill:#728a41;fill-opacity:1;fill-rule:evenodd;stroke:none;stroke-width:0.264583"
       d="m -99.261993,189.70876 c 0,0 0,0 0,0 v 0 h -0.359006 z"
       id="path1978" />
    <path
       style="fill:#728a41;fill-opacity:1;fill-rule:evenodd;stroke:none;stroke-width:0.264583"
       d="m -99.620999,189.70876 h 0.359006 c 0,0.36897 -0.04986,0.72797 -0.139613,1.077 l -0.34903,-0.0898 -0.349034,-0.0897 c 0.0798,-0.28919 0.119669,-0.59834 0.119669,-0.8975 z"
       id="path1980" />
    <path
       style="fill:#728a41;fill-opacity:1;fill-rule:evenodd;stroke:none;stroke-width:0.264583"
       d="m -99.750636,190.69601 0.34903,0.0898 c -0.08975,0.35901 -0.229365,0.69807 -0.418838,1.01718 l -0.309146,-0.1795 -0.30913,-0.1795 c 0.14958,-0.25928 0.26925,-0.54848 0.33905,-0.83768 z"
       id="path1982" />
    <path
       style="fill:#728a41;fill-opacity:1;fill-rule:evenodd;stroke:none;stroke-width:0.264583"
       d="m -100.12959,191.62344 0.309146,0.1795 c -0.179501,0.31911 -0.408866,0.60831 -0.668146,0.86759 l -0.2493,-0.25928 -0.24931,-0.24931 c 0.20942,-0.21939 0.39889,-0.44875 0.54848,-0.718 z"
       id="path1984" />
    <path
       style="fill:#728a41;fill-opacity:1;fill-rule:evenodd;stroke:none;stroke-width:0.264583"
       d="m -100.73789,192.41125 0.2493,0.25928 c -0.25928,0.24931 -0.54847,0.47867 -0.86759,0.65817 l -0.1795,-0.30914 -0.1795,-0.30914 c 0.26925,-0.15956 0.50859,-0.33906 0.72798,-0.54848 z"
       id="path1986" />
    <path
       style="fill:#728a41;fill-opacity:1;fill-rule:evenodd;stroke:none;stroke-width:0.264583"
       d="m -101.53568,193.01956 0.1795,0.30914 c -0.31911,0.18947 -0.65817,0.32909 -1.0072,0.41884 l -0.0897,-0.34903 -0.0997,-0.34903 c 0.2892,-0.0698 0.56842,-0.18948 0.83767,-0.33906 z"
       id="path1988" />
    <path
       style="fill:#728a41;fill-opacity:1;fill-rule:evenodd;stroke:none;stroke-width:0.264583"
       d="m -102.45313,193.39851 0.0897,0.34903 c -0.34903,0.0898 -0.70803,0.13961 -1.07701,0.13961 v -0.359 -0.35901 c 0.29917,0 0.59834,-0.0399 0.88754,-0.11966 z"
       id="path1990" />
    <path
       style="fill:#728a41;fill-opacity:1;fill-rule:evenodd;stroke:none;stroke-width:0.264583"
       d="m -103.44039,193.16914 c 0,0 0,0 0,0 v 0.35901 z"
       id="path1992" />
    <path
       style="fill:#728a41;fill-opacity:1;fill-rule:evenodd;stroke:none;stroke-width:0.264583"
       d="m -103.44039,193.16914 v 0.35901 0.359 l -49.72188,0.01 v -0.359 -0.359 z"
       id="path1994" />
    <path
       style="fill:#728a41;fill-opacity:1;fill-rule:evenodd;stroke:none;stroke-width:0.264583"
       d="m -153.16227,193.89712 c 0,0 0,0 0,0 v -0.359 z"
       id="path1996" />
    <path
       style="fill:#728a41;fill-opacity:1;fill-rule:evenodd;stroke:none;stroke-width:0.264583"
       d="m -153.16227,193.53812 v 0.359 c -0.36898,0 -0.72798,-0.0499 -1.07701,-0.13961 l 0.0898,-0.34903 0.0898,-0.34903 c 0.2892,0.0798 0.59834,0.11967 0.89751,0.11967 z"
       id="path1998" />
    <path
       style="fill:#728a41;fill-opacity:1;fill-rule:evenodd;stroke:none;stroke-width:0.264583"
       d="m -154.14953,193.40848 -0.0898,0.34903 c -0.359,-0.0898 -0.69806,-0.22936 -1.01717,-0.41884 l 0.1795,-0.30914 0.1795,-0.30914 c 0.25928,0.14958 0.54847,0.26925 0.83767,0.33906 z"
       id="path2000" />
    <path
       style="fill:#728a41;fill-opacity:1;fill-rule:evenodd;stroke:none;stroke-width:0.264583"
       d="m -155.07695,193.02953 -0.1795,0.30914 c -0.31912,-0.1795 -0.60831,-0.40886 -0.86759,-0.66814 l 0.25928,-0.24931 0.2493,-0.24931 c 0.21939,0.20942 0.44876,0.39889 0.71801,0.54848 z"
       id="path2002" />
    <path
       style="fill:#728a41;fill-opacity:1;fill-rule:evenodd;stroke:none;stroke-width:0.264583"
       d="m -155.86476,192.42122 -0.25928,0.24931 c -0.24931,-0.25928 -0.47867,-0.54848 -0.65818,-0.86759 l 0.30915,-0.1795 0.30914,-0.1795 c 0.15955,0.26925 0.33905,0.50858 0.54847,0.72797 z"
       id="path2004" />
    <path
       style="fill:#728a41;fill-opacity:1;fill-rule:evenodd;stroke:none;stroke-width:0.264583"
       d="m -156.47307,191.62344 -0.30915,0.1795 c -0.18947,-0.31911 -0.32908,-0.65817 -0.41883,-1.0072 l 0.34903,-0.0898 0.34903,-0.0997 c 0.0698,0.2892 0.18947,0.56842 0.33906,0.83768 z"
       id="path2006" />
    <path
       style="fill:#728a41;fill-opacity:1;fill-rule:evenodd;stroke:none;stroke-width:0.264583"
       d="m -156.85202,190.70599 -0.34903,0.0898 c -0.0897,-0.34908 -0.13961,-0.70809 -0.13961,-1.07706 h 0.359 0.359 c 0,0.29917 0.0399,0.59834 0.11967,0.88753 z"
       id="path2008" />
    <path
       style="fill:#728a41;fill-opacity:1;fill-rule:evenodd;stroke:none;stroke-width:0.264583"
       d="m -156.62266,189.71873 h -0.359 -0.359 v -15.29751 h 0.359 0.359 z"
       id="path2010" />
    <text
       xml:space="preserve"
       style="font-style:normal;font-variant:normal;font-weight:400;font-size:6.33346px;line-height:125%;font-family:Calibri;text-align:start;letter-spacing:0px;word-spacing:0px;text-anchor:start;fill:#000000;fill-opacity:1;stroke:none;stroke-width:0.264583"
       x="-153.34177"
       y="184.60294"
       id="text2016"><tspan
         sodipodi:role="line"
         x="-153.34177"
         y="184.60294"
         id="tspan2014"
         style="stroke-width:0.264583"><tspan
           dx="0"
           dy="0"
           style="font-style:normal;font-variant:normal;font-weight:400;font-size:6.33346px;font-family:Calibri;fill:#ffffff;stroke-width:0.264583"
           id="tspan2012">Développeur public</tspan></tspan></text>
    <path
       style="fill:#c3d69b;fill-opacity:1;fill-rule:evenodd;stroke:none;stroke-width:0.264583"
       d="m -53.588865,174.42122 v 0 c 0,-0.66815 0.1795,-1.32632 0.50859,-1.91468 0.33906,-0.5784 0.81773,-1.05707 1.40609,-1.39613 0.57839,-0.33905 1.23657,-0.50858 1.90471,-0.50858 h 49.71191032 v 0 c 0.66815,0 1.32631998,0.1795 1.91467998,0.50858 0.5784,0.33906 1.05707,0.81773 1.39613,1.4061 0.33905,0.57839 0.50858,1.23656 0.50858,1.90471 v 0 l 0.01,15.28754 v 0 c 0,0.66814 -0.1795,1.32631 -0.50858,1.91468 -0.33906,0.57839 -0.81773,1.05706 -1.4061,1.39612 -0.57839,0.33906 -1.23655998,0.50859 -1.90470998,0.50859 l -49.72188032,0.01 v 0 c -0.66814,0 -1.32632,-0.1795 -1.91468,-0.50859 -0.57839,-0.33906 -1.05706,-0.81773 -1.39612,-1.40609 -0.33906,-0.5784 -0.50859,-1.23657 -0.50859,-1.90471 z"
       id="path2018" />
    <path
       style="fill:#728a41;fill-opacity:1;fill-rule:evenodd;stroke:none;stroke-width:0.264583"
       d="m -53.588865,174.42122 h -0.359 c 0,-0.36898 0.0499,-0.72798 0.13961,-1.07701 l 0.34903,0.0898 0.34903,0.0897 c -0.0798,0.28919 -0.11967,0.59834 -0.11967,0.89751 z"
       id="path2020" />
    <path
       style="fill:#728a41;fill-opacity:1;fill-rule:evenodd;stroke:none;stroke-width:0.264583"
       d="m -53.459225,173.43396 -0.34903,-0.0898 c 0.0897,-0.359 0.22936,-0.69806 0.41884,-1.01718 l 0.30914,0.17951 0.30914,0.1795 c -0.14958,0.25927 -0.26925,0.54847 -0.33906,0.83767 z"
       id="path2022" />
    <path
       style="fill:#728a41;fill-opacity:1;fill-rule:evenodd;stroke:none;stroke-width:0.264583"
       d="m -53.080275,172.50654 -0.30914,-0.17951 c 0.1795,-0.31911 0.40886,-0.60831 0.66814,-0.86759 l 0.24931,0.25928 0.24931,0.24931 c -0.20942,0.21939 -0.3989,0.44875 -0.54848,0.71801 z"
       id="path2024" />
    <path
       style="fill:#728a41;fill-opacity:1;fill-rule:evenodd;stroke:none;stroke-width:0.264583"
       d="m -52.471965,171.71872 -0.24931,-0.25928 c 0.25928,-0.2493 0.54848,-0.47867 0.86759,-0.65817 l 0.1795,0.30914 0.1795,0.30914 c -0.26925,0.15956 -0.50858,0.33906 -0.72797,0.54848 z"
       id="path2026" />
    <path
       style="fill:#728a41;fill-opacity:1;fill-rule:evenodd;stroke:none;stroke-width:0.264583"
       d="m -51.674185,171.11041 -0.1795,-0.30914 c 0.31911,-0.18947 0.65817,-0.32908 1.0072,-0.41884 l 0.0897,0.34904 0.0997,0.34903 c -0.2892,0.0698 -0.56842,0.18947 -0.83768,0.33905 z"
       id="path2028" />
    <path
       style="fill:#728a41;fill-opacity:1;fill-rule:evenodd;stroke:none;stroke-width:0.264583"
       d="m -50.756735,170.73147 -0.0897,-0.34904 c 0.34903,-0.0898 0.70804,-0.13961 1.07701,-0.13961 v 0.35901 0.359 c -0.29917,0 -0.59834,0.0399 -0.88753,0.11967 z"
       id="path2030" />
    <path
       style="fill:#728a41;fill-opacity:1;fill-rule:evenodd;stroke:none;stroke-width:0.264583"
       d="m -49.769475,170.96083 v -0.359 -0.35901 h 49.71191032 v 0.35901 0.359 z"
       id="path2032" />
    <path
       style="fill:#728a41;fill-opacity:1;fill-rule:evenodd;stroke:none;stroke-width:0.264583"
       d="m -0.05756468,170.60183 v -0.35901 c 0.36898,0 0.72798,0.0499 1.07700998,0.13961 l -0.0897,0.34904 -0.0898,0.34903 c -0.29917,-0.0798 -0.59834,-0.11967 -0.89751,-0.11967 z"
       id="path2034" />
    <path
       style="fill:#728a41;fill-opacity:1;fill-rule:evenodd;stroke:none;stroke-width:0.264583"
       d="m 0.92969532,170.73147 0.0897,-0.34904 c 0.34903,0.0997 0.68809,0.23934 1.01717,0.41884 l -0.1795,0.30914 -0.1795,0.30914 c -0.25923,-0.14958 -0.54842,-0.25927 -0.83761994,-0.33905 z"
       id="path2036" />
    <path
       style="fill:#728a41;fill-opacity:1;fill-rule:evenodd;stroke:none;stroke-width:0.264583"
       d="m 2.0366153,170.80127 c 0,0 0,0 0,0 0,0 0,0 0,0 l -0.1795,0.30914 z"
       id="path2038" />
    <path
       style="fill:#728a41;fill-opacity:1;fill-rule:evenodd;stroke:none;stroke-width:0.264583"
       d="m 1.8571153,171.11041 0.1795,-0.30914 c 0.31912,0.18948 0.60832,0.40887 0.86759,0.66815 l -0.25927,0.2493 -0.25928,0.25928 c -0.20942,-0.21939 -0.44876,-0.40886 -0.70804,-0.55845 z"
       id="path2040" />
    <path
       style="fill:#728a41;fill-opacity:1;fill-rule:evenodd;stroke:none;stroke-width:0.264583"
       d="m 2.6449353,171.71872 0.25927,-0.2493 c 0.24931,0.25928 0.47868,0.54847 0.65818,0.86759 l -0.30914,0.1795 -0.30915,0.1795 c -0.15955,-0.25928 -0.33905,-0.50859 -0.55844,-0.71801 z"
       id="path2042" />
    <path
       style="fill:#728a41;fill-opacity:1;fill-rule:evenodd;stroke:none;stroke-width:0.264583"
       d="m 3.2532453,172.51651 0.30914,-0.1795 c 0.18947,0.31911 0.32908,0.65817 0.41883,1.0072 l -0.34903,0.0898 -0.34903,0.0997 c -0.0698,-0.2892 -0.18947,-0.56842 -0.33906,-0.83767 z"
       id="path2044" />
    <path
       style="fill:#728a41;fill-opacity:1;fill-rule:evenodd;stroke:none;stroke-width:0.264583"
       d="m 3.6321853,173.43396 0.34903,-0.0898 c 0.0898,0.34903 0.13961,0.70803 0.13961,1.07701 h -0.359 -0.359 c 0,-0.29917 -0.0399,-0.59834 -0.11967,-0.88754 z"
       id="path2046" />
    <path
       style="fill:#728a41;fill-opacity:1;fill-rule:evenodd;stroke:none;stroke-width:0.264583"
       d="m 3.4028253,174.42122 c 0,0 0,0 0,0 h 0.359 z"
       id="path2048" />
    <path
       style="fill:#728a41;fill-opacity:1;fill-rule:evenodd;stroke:none;stroke-width:0.264583"
       d="m 3.4028253,174.42122 h 0.359 0.359 l 0.01,15.28754 h -0.35901 -0.359 z"
       id="path2050" />
    <path
       style="fill:#728a41;fill-opacity:1;fill-rule:evenodd;stroke:none;stroke-width:0.264583"
       d="m 4.1308053,189.70876 c 0,0 0,0 0,0 v 0 h -0.35901 z"
       id="path2052" />
    <path
       style="fill:#728a41;fill-opacity:1;fill-rule:evenodd;stroke:none;stroke-width:0.264583"
       d="m 3.7717953,189.70876 h 0.35901 c 0,0.36897 -0.0499,0.72797 -0.13961,1.077 l -0.34903,-0.0898 -0.34903,-0.0897 c 0.0798,-0.28919 0.11966,-0.59834 0.11966,-0.8975 z"
       id="path2054" />
    <path
       style="fill:#728a41;fill-opacity:1;fill-rule:evenodd;stroke:none;stroke-width:0.264583"
       d="m 3.6421653,190.69601 0.34903,0.0898 c -0.0898,0.35901 -0.22937,0.69807 -0.41884,1.01718 l -0.30914,-0.1795 -0.30914,-0.1795 c 0.14958,-0.25928 0.26925,-0.54848 0.33906,-0.83768 z"
       id="path2056" />
    <path
       style="fill:#728a41;fill-opacity:1;fill-rule:evenodd;stroke:none;stroke-width:0.264583"
       d="m 3.2632153,191.62344 0.30914,0.1795 c -0.1795,0.31911 -0.40886,0.60831 -0.66815,0.86759 l -0.2493,-0.25928 -0.24931,-0.24931 c 0.20942,-0.21939 0.39889,-0.44875 0.54848,-0.718 z"
       id="path2058" />
    <path
       style="fill:#728a41;fill-opacity:1;fill-rule:evenodd;stroke:none;stroke-width:0.264583"
       d="m 2.6549053,192.41125 0.2493,0.25928 c -0.25927,0.24931 -0.54847,0.47867 -0.86759,0.65817 l -0.1795,-0.30914 -0.1795,-0.30914 c 0.26926,-0.15956 0.50859,-0.33906 0.72798,-0.54848 z"
       id="path2060" />
    <path
       style="fill:#728a41;fill-opacity:1;fill-rule:evenodd;stroke:none;stroke-width:0.264583"
       d="m 1.8571153,193.01956 0.1795,0.30914 c -0.31911,0.18947 -0.65817,0.32909 -1.0072,0.41884 l -0.0898,-0.34903 -0.0997,-0.34903 c 0.2892,-0.0698 0.56842,-0.18948 0.83767,-0.33906 z"
       id="path2062" />
    <path
       style="fill:#728a41;fill-opacity:1;fill-rule:evenodd;stroke:none;stroke-width:0.264583"
       d="m 0.93966532,193.39851 0.0898,0.34903 c -0.34902994,0.0898 -0.70802994,0.13961 -1.07700994,0.13961 v -0.359 -0.35901 c 0.29917,0 0.59834,-0.0399 0.88754,-0.11966 z"
       id="path2064" />
    <path
       style="fill:#728a41;fill-opacity:1;fill-rule:evenodd;stroke:none;stroke-width:0.264583"
       d="m -0.04759468,193.16914 c 0,0 0,0 0,0 v 0.35901 z"
       id="path2066" />
    <path
       style="fill:#728a41;fill-opacity:1;fill-rule:evenodd;stroke:none;stroke-width:0.264583"
       d="m -0.04759468,193.16914 v 0.35901 0.359 l -49.72188032,0.01 v -0.359 -0.359 z"
       id="path2068" />
    <path
       style="fill:#728a41;fill-opacity:1;fill-rule:evenodd;stroke:none;stroke-width:0.264583"
       d="m -49.769475,193.89712 c 0,0 0,0 0,0 v -0.359 z"
       id="path2070" />
    <path
       style="fill:#728a41;fill-opacity:1;fill-rule:evenodd;stroke:none;stroke-width:0.264583"
       d="m -49.769475,193.53812 v 0.359 c -0.36897,0 -0.72798,-0.0499 -1.07701,-0.13961 l 0.0897,-0.34903 0.0898,-0.34903 c 0.2892,0.0798 0.59834,0.11967 0.89751,0.11967 z"
       id="path2072" />
    <path
       style="fill:#728a41;fill-opacity:1;fill-rule:evenodd;stroke:none;stroke-width:0.264583"
       d="m -50.756735,193.40848 -0.0897,0.34903 c -0.359,-0.0898 -0.69806,-0.22936 -1.01717,-0.41884 l 0.1795,-0.30914 0.1795,-0.30914 c 0.25928,0.14958 0.54848,0.26925 0.83767,0.33906 z"
       id="path2074" />
    <path
       style="fill:#728a41;fill-opacity:1;fill-rule:evenodd;stroke:none;stroke-width:0.264583"
       d="m -51.684155,193.02953 -0.1795,0.30914 c -0.31912,-0.1795 -0.60831,-0.40886 -0.86759,-0.66814 l 0.25928,-0.24931 0.24931,-0.24931 c 0.21939,0.20942 0.44875,0.39889 0.718,0.54848 z"
       id="path2076" />
    <path
       style="fill:#728a41;fill-opacity:1;fill-rule:evenodd;stroke:none;stroke-width:0.264583"
       d="m -52.471965,192.42122 -0.25928,0.24931 c -0.24931,-0.25928 -0.47867,-0.54848 -0.65817,-0.86759 l 0.30914,-0.1795 0.30914,-0.1795 c 0.15956,0.26925 0.33906,0.50858 0.54848,0.72797 z"
       id="path2078" />
    <path
       style="fill:#728a41;fill-opacity:1;fill-rule:evenodd;stroke:none;stroke-width:0.264583"
       d="m -53.080275,191.62344 -0.30914,0.1795 c -0.18948,-0.31911 -0.32909,-0.65817 -0.41884,-1.0072 l 0.34903,-0.0898 0.34903,-0.0997 c 0.0698,0.2892 0.18948,0.56842 0.33906,0.83768 z"
       id="path2080" />
    <path
       style="fill:#728a41;fill-opacity:1;fill-rule:evenodd;stroke:none;stroke-width:0.264583"
       d="m -53.459225,190.70599 -0.34903,0.0898 c -0.0897,-0.34903 -0.13961,-0.70804 -0.13961,-1.07701 h 0.359 0.359 c 0,0.29917 0.0399,0.59834 0.11967,0.88753 z"
       id="path2082" />
    <path
       style="fill:#728a41;fill-opacity:1;fill-rule:evenodd;stroke:none;stroke-width:0.264583"
       d="m -53.229865,189.71873 h -0.359 -0.359 v -15.29751 h 0.359 0.359 z"
       id="path2084" />
    <text
       xml:space="preserve"
       style="font-style:normal;font-variant:normal;font-weight:400;font-size:6.33346px;line-height:125%;font-family:Calibri;text-align:start;letter-spacing:0px;word-spacing:0px;text-anchor:start;fill:#000000;fill-opacity:1;stroke:none;stroke-width:0.264583"
       x="-49.948971"
       y="184.60294"
       id="text2090"><tspan
         sodipodi:role="line"
         x="-49.948971"
         y="184.60294"
         id="tspan2088"
         style="stroke-width:0.264583"><tspan
           dx="0"
           dy="0"
           style="font-style:normal;font-variant:normal;font-weight:400;font-size:6.33346px;font-family:Calibri;fill:#ffffff;stroke-width:0.264583"
           id="tspan2086">Développeur public</tspan></tspan></text>
    <path
       style="fill:#4f81bd;fill-opacity:1;fill-rule:evenodd;stroke:none;stroke-width:0.264583"
       d="m 49.803935,82.087699 v 0 c 0,-0.668144 0.1795,-1.326316 0.50859,-1.914681 0.33905,-0.578394 0.81773,-1.057064 1.40609,-1.396122 0.57839,-0.339058 1.23656,-0.508587 1.90471,-0.508587 h 49.711915 v 0 c 0.66814,0 1.32632,0.179501 1.91468,0.508587 0.57839,0.339058 1.05706,0.817728 1.39612,1.406094 0.33906,0.578393 0.50859,1.236565 0.50859,1.904709 v 0 l 0.01,15.287535 v 0 c 0,0.668144 -0.1795,1.326316 -0.50858,1.914682 -0.33906,0.578393 -0.81773,1.057064 -1.4061,1.396124 -0.57839,0.33905 -1.23656,0.50858 -1.90471,0.50858 l -49.721885,0.01 v 0 c -0.66815,0 -1.32632,-0.1795 -1.91468,-0.50858 -0.57839,-0.33906 -1.05707,-0.817731 -1.39612,-1.406096 -0.33906,-0.578394 -0.50859,-1.236566 -0.50859,-1.90471 z"
       id="path2092" />
    <path
       style="fill:#3a5f8b;fill-opacity:1;fill-rule:evenodd;stroke:none;stroke-width:0.264583"
       d="m 49.803935,82.087699 h -0.359 c 0,-0.368975 0.0499,-0.727978 0.13961,-1.077008 l 0.34903,0.08975 0.34903,0.08975 c -0.0798,0.289196 -0.11967,0.598338 -0.11967,0.897507 z"
       id="path2094" />
    <path
       style="fill:#3a5f8b;fill-opacity:1;fill-rule:evenodd;stroke:none;stroke-width:0.264583"
       d="m 49.933575,81.100441 -0.34903,-0.08975 c 0.0898,-0.359002 0.22936,-0.69806 0.41883,-1.017174 l 0.30915,0.179501 0.30914,0.179502 c -0.14959,0.25928 -0.26926,0.548476 -0.33906,0.837673 z"
       id="path2096" />
    <path
       style="fill:#3a5f8b;fill-opacity:1;fill-rule:evenodd;stroke:none;stroke-width:0.264583"
       d="m 50.312525,80.173018 -0.30915,-0.179502 c 0.17951,-0.319113 0.40887,-0.60831 0.66815,-0.86759 l 0.24931,0.25928 0.2493,0.249308 c -0.20941,0.21939 -0.39889,0.448753 -0.54847,0.718005 z"
       id="path2098" />
    <path
       style="fill:#3a5f8b;fill-opacity:1;fill-rule:evenodd;stroke:none;stroke-width:0.264583"
       d="m 50.920835,79.385206 -0.24931,-0.25928 c 0.25928,-0.249307 0.54847,-0.47867 0.86759,-0.658171 l 0.1795,0.309141 0.1795,0.309141 c -0.26925,0.159557 -0.50859,0.339058 -0.72798,0.548477 z"
       id="path2100" />
    <path
       style="fill:#3a5f8b;fill-opacity:1;fill-rule:evenodd;stroke:none;stroke-width:0.264583"
       d="m 51.718615,78.776896 -0.1795,-0.309141 c 0.31911,-0.189474 0.65817,-0.329086 1.0072,-0.418837 l 0.0898,0.34903 0.0997,0.349031 c -0.28919,0.06981 -0.56842,0.189474 -0.83767,0.339058 z"
       id="path2102" />
    <path
       style="fill:#3a5f8b;fill-opacity:1;fill-rule:evenodd;stroke:none;stroke-width:0.264583"
       d="m 52.636065,78.397948 -0.0898,-0.34903 c 0.34908,-0.08975 0.70808,-0.139612 1.07706,-0.139612 v 0.359003 0.359002 c -0.29917,0 -0.59834,0.03989 -0.88754,0.119668 z"
       id="path2104" />
    <path
       style="fill:#3a5f8b;fill-opacity:1;fill-rule:evenodd;stroke:none;stroke-width:0.264583"
       d="m 53.623325,78.627311 v -0.359002 -0.359003 h 49.711915 v 0.359003 0.359002 z"
       id="path2106" />
    <path
       style="fill:#3a5f8b;fill-opacity:1;fill-rule:evenodd;stroke:none;stroke-width:0.264583"
       d="m 103.33524,78.268309 v -0.359003 c 0.36898,0 0.72798,0.04986 1.07701,0.139612 l -0.0897,0.34903 -0.0897,0.349031 c -0.2892,-0.07978 -0.59834,-0.119668 -0.89751,-0.119668 z"
       id="path2108" />
    <path
       style="fill:#3a5f8b;fill-opacity:1;fill-rule:evenodd;stroke:none;stroke-width:0.264583"
       d="m 104.3225,78.397948 0.0897,-0.34903 c 0.359,0.08975 0.69806,0.229363 1.01717,0.418837 l -0.1795,0.309141 -0.1795,0.309141 c -0.25923,-0.149584 -0.54843,-0.269252 -0.83762,-0.339058 z"
       id="path2110" />
    <path
       style="fill:#3a5f8b;fill-opacity:1;fill-rule:evenodd;stroke:none;stroke-width:0.264583"
       d="m 105.24992,78.776896 0.1795,-0.309141 c 0.31912,0.179501 0.60831,0.408864 0.86759,0.668144 l -0.25928,0.249307 -0.2493,0.249308 c -0.21939,-0.209419 -0.44876,-0.398892 -0.71801,-0.548477 z"
       id="path2112" />
    <path
       style="fill:#3a5f8b;fill-opacity:1;fill-rule:evenodd;stroke:none;stroke-width:0.264583"
       d="m 106.03773,79.385206 0.25928,-0.249307 c 0.24931,0.259279 0.47867,0.548476 0.65818,0.86759 l -0.30915,0.179501 -0.30914,0.179501 c -0.15956,-0.269252 -0.33906,-0.508587 -0.54847,-0.727977 z"
       id="path2114" />
    <path
       style="fill:#3a5f8b;fill-opacity:1;fill-rule:evenodd;stroke:none;stroke-width:0.264583"
       d="m 106.64604,80.18299 0.30915,-0.179501 c 0.18947,0.319113 0.32908,0.658171 0.41882,1.007202 l -0.34902,0.08975 -0.34903,0.09972 c -0.0698,-0.289197 -0.18947,-0.568421 -0.33906,-0.837673 z"
       id="path2116" />
    <path
       style="fill:#3a5f8b;fill-opacity:1;fill-rule:evenodd;stroke:none;stroke-width:0.264583"
       d="m 107.02499,81.100441 0.34902,-0.08975 c 0.0897,0.349031 0.13962,0.708034 0.13962,1.077009 h -0.359 -0.359 c 0,-0.299169 -0.0399,-0.598338 -0.11967,-0.887535 z"
       id="path2118" />
    <path
       style="fill:#3a5f8b;fill-opacity:1;fill-rule:evenodd;stroke:none;stroke-width:0.264583"
       d="m 106.79563,82.087699 c 0,0 0,0 0,0 h 0.359 z"
       id="path2120" />
    <path
       style="fill:#3a5f8b;fill-opacity:1;fill-rule:evenodd;stroke:none;stroke-width:0.264583"
       d="m 106.79563,82.087699 h 0.359 0.359 l 0.01,15.287535 h -0.35901 -0.359 z"
       id="path2122" />
    <path
       style="fill:#3a5f8b;fill-opacity:1;fill-rule:evenodd;stroke:none;stroke-width:0.264583"
       d="m 107.52361,97.375234 c 0,0 0,0 0,0 v 0 h -0.35901 z"
       id="path2124" />
    <path
       style="fill:#3a5f8b;fill-opacity:1;fill-rule:evenodd;stroke:none;stroke-width:0.264583"
       d="m 107.1646,97.375234 h 0.35901 c 0,0.368975 -0.0499,0.727978 -0.13962,1.077008 l -0.34903,-0.08975 -0.34903,-0.08975 c 0.0798,-0.289197 0.11967,-0.598338 0.11967,-0.897507 z"
       id="path2126" />
    <path
       style="fill:#3a5f8b;fill-opacity:1;fill-rule:evenodd;stroke:none;stroke-width:0.264583"
       d="m 107.03496,98.362492 0.34903,0.08975 c -0.0897,0.359003 -0.22936,0.698061 -0.41883,1.017175 l -0.30914,-0.179501 -0.30915,-0.179502 c 0.14959,-0.25928 0.26926,-0.548476 0.33906,-0.837673 z"
       id="path2128" />
    <path
       style="fill:#3a5f8b;fill-opacity:1;fill-rule:evenodd;stroke:none;stroke-width:0.264583"
       d="m 106.65602,99.289916 0.30914,0.179501 c -0.1795,0.319114 -0.40887,0.608313 -0.66815,0.867593 l -0.2493,-0.25928 -0.24931,-0.24931 c 0.20942,-0.219391 0.39889,-0.448754 0.54847,-0.718006 z"
       id="path2130" />
    <path
       style="fill:#3a5f8b;fill-opacity:1;fill-rule:evenodd;stroke:none;stroke-width:0.264583"
       d="m 106.04771,100.07773 0.2493,0.25928 c -0.25928,0.2493 -0.54847,0.47867 -0.86759,0.65817 l -0.1795,-0.30914 -0.1795,-0.30914 c 0.26925,-0.15956 0.50859,-0.33906 0.72798,-0.54848 z"
       id="path2132" />
    <path
       style="fill:#3a5f8b;fill-opacity:1;fill-rule:evenodd;stroke:none;stroke-width:0.264583"
       d="m 105.24992,100.68604 0.1795,0.30914 c -0.31911,0.18947 -0.65817,0.32908 -1.0072,0.41883 l -0.0897,-0.34903 -0.0997,-0.34903 c 0.28919,-0.0698 0.56842,-0.18947 0.83767,-0.33905 z"
       id="path2134" />
    <path
       style="fill:#3a5f8b;fill-opacity:1;fill-rule:evenodd;stroke:none;stroke-width:0.264583"
       d="m 104.33247,101.06498 0.0897,0.34903 c -0.34903,0.0897 -0.70803,0.13962 -1.07701,0.13962 v -0.35901 -0.359 c 0.29917,0 0.59834,-0.0399 0.88754,-0.11967 z"
       id="path2136" />
    <path
       style="fill:#3a5f8b;fill-opacity:1;fill-rule:evenodd;stroke:none;stroke-width:0.264583"
       d="m 103.34521,100.83562 c 0,0 0,0 0,0 v 0.359 z"
       id="path2138" />
    <path
       style="fill:#3a5f8b;fill-opacity:1;fill-rule:evenodd;stroke:none;stroke-width:0.264583"
       d="m 103.34521,100.83562 v 0.359 0.35901 l -49.721885,0.01 v -0.35901 -0.359 z"
       id="path2140" />
    <path
       style="fill:#3a5f8b;fill-opacity:1;fill-rule:evenodd;stroke:none;stroke-width:0.264583"
       d="m 53.623325,101.5636 c 0,0 0,0 0,0 v -0.359 z"
       id="path2142" />
    <path
       style="fill:#3a5f8b;fill-opacity:1;fill-rule:evenodd;stroke:none;stroke-width:0.264583"
       d="m 53.623325,101.2046 v 0.359 c -0.36898,0 -0.72798,-0.0499 -1.07701,-0.13961 l 0.0898,-0.34903 0.0898,-0.34903 c 0.2892,0.0798 0.59834,0.11966 0.89751,0.11966 z"
       id="path2144" />
    <path
       style="fill:#3a5f8b;fill-opacity:1;fill-rule:evenodd;stroke:none;stroke-width:0.264583"
       d="m 52.636065,101.07496 -0.0898,0.34903 c -0.359,-0.0898 -0.69806,-0.22937 -1.01717,-0.41884 l 0.1795,-0.30914 0.1795,-0.30914 c 0.25928,0.14958 0.54848,0.26925 0.83767,0.33906 z"
       id="path2146" />
    <path
       style="fill:#3a5f8b;fill-opacity:1;fill-rule:evenodd;stroke:none;stroke-width:0.264583"
       d="m 51.708645,100.69601 -0.1795,0.30914 c -0.31912,-0.1795 -0.60831,-0.40886 -0.86759,-0.66814 l 0.25928,-0.24931 0.2493,-0.249308 c 0.21939,0.209418 0.44876,0.398888 0.71801,0.548478 z"
       id="path2148" />
    <path
       style="fill:#3a5f8b;fill-opacity:1;fill-rule:evenodd;stroke:none;stroke-width:0.264583"
       d="m 50.920835,100.0877 -0.25928,0.24931 c -0.24931,-0.25928 -0.47867,-0.548479 -0.65818,-0.867593 l 0.30915,-0.179501 0.30914,-0.179502 c 0.15955,0.269252 0.33906,0.508587 0.54847,0.727978 z"
       id="path2150" />
    <path
       style="fill:#3a5f8b;fill-opacity:1;fill-rule:evenodd;stroke:none;stroke-width:0.264583"
       d="m 50.312525,99.289916 -0.30915,0.179501 c -0.18947,-0.319114 -0.32908,-0.658172 -0.41883,-1.007203 l 0.34903,-0.08975 0.34903,-0.09972 c 0.0698,0.289197 0.18947,0.568421 0.33906,0.837673 z"
       id="path2152" />
    <path
       style="fill:#3a5f8b;fill-opacity:1;fill-rule:evenodd;stroke:none;stroke-width:0.264583"
       d="m 49.933575,98.372464 -0.34903,0.08975 c -0.0897,-0.34903 -0.13961,-0.708033 -0.13961,-1.077008 h 0.359 0.359 c 0,0.299169 0.0399,0.598338 0.11967,0.887535 z"
       id="path2154" />
    <path
       style="fill:#3a5f8b;fill-opacity:1;fill-rule:evenodd;stroke:none;stroke-width:0.264583"
       d="m 50.162935,97.385206 h -0.359 -0.359 V 82.087699 h 0.359 0.359 z"
       id="path2156" />
    <text
       xml:space="preserve"
       style="font-style:normal;font-variant:normal;font-weight:400;font-size:6.33346px;line-height:125%;font-family:Calibri;text-align:start;letter-spacing:0px;word-spacing:0px;text-anchor:start;fill:#000000;fill-opacity:1;stroke:none;stroke-width:0.264583"
       x="53.593403"
       y="92.269417"
       id="text2162"><tspan
         sodipodi:role="line"
         x="53.593403"
         y="92.269417"
         id="tspan2160"
         style="stroke-width:0.264583"><tspan
           dx="0"
           dy="0"
           style="font-style:normal;font-variant:normal;font-weight:400;font-size:6.33346px;font-family:Calibri;fill:#ffffff;stroke-width:0.264583"
           id="tspan2158">Dépôt de référence</tspan></tspan></text>
    <path
       style="fill:#c0504d;fill-opacity:1;fill-rule:evenodd;stroke:none;stroke-width:0.264583"
       d="m -156.98166,82.087699 v 0 c 0,-0.668144 0.1795,-1.326316 0.50859,-1.914681 0.33905,-0.578394 0.81772,-1.057064 1.40609,-1.396122 0.57839,-0.339058 1.23656,-0.508587 1.90471,-0.508587 h 49.71191 v 0 c 0.66814,0 1.32632,0.179501 1.91468,0.508587 0.5784,0.339058 1.05706,0.817728 1.39612,1.406094 0.33906,0.578393 0.508589,1.236565 0.508589,1.904709 v 0 l 0.01,15.287535 v 0 c 0,0.668144 -0.179501,1.326316 -0.508589,1.914682 -0.33905,0.578393 -0.81772,1.057064 -1.40609,1.396124 -0.57839,0.33905 -1.23657,0.50858 -1.90471,0.50858 l -49.72188,0.01 v 0 c -0.66815,0 -1.32632,-0.1795 -1.91468,-0.50858 -0.57843,-0.33909 -1.0571,-0.817759 -1.39615,-1.406124 -0.33906,-0.578394 -0.50859,-1.236566 -0.50859,-1.90471 z"
       id="path2164" />
    <path
       style="fill:#8e3b38;fill-opacity:1;fill-rule:evenodd;stroke:none;stroke-width:0.264583"
       d="m -156.98166,82.087699 h -0.359 c 0,-0.368975 0.0499,-0.727978 0.13961,-1.077008 l 0.34903,0.08975 0.34903,0.08975 c -0.0798,0.289196 -0.11967,0.598337 -0.11967,0.897506 z"
       id="path2166" />
    <path
       style="fill:#8e3b38;fill-opacity:1;fill-rule:evenodd;stroke:none;stroke-width:0.264583"
       d="m -156.85202,81.100441 -0.34903,-0.08975 c 0.0898,-0.359003 0.22936,-0.698061 0.41883,-1.017175 l 0.30915,0.179502 0.30914,0.179501 c -0.14959,0.25928 -0.26926,0.548477 -0.33906,0.837673 z"
       id="path2168" />
    <path
       style="fill:#8e3b38;fill-opacity:1;fill-rule:evenodd;stroke:none;stroke-width:0.264583"
       d="m -156.47307,80.173018 -0.30915,-0.179502 c 0.17951,-0.319113 0.40887,-0.60831 0.66815,-0.86759 l 0.24931,0.25928 0.2493,0.249308 c -0.20942,0.21939 -0.39889,0.448753 -0.54847,0.718005 z"
       id="path2170" />
    <path
       style="fill:#8e3b38;fill-opacity:1;fill-rule:evenodd;stroke:none;stroke-width:0.264583"
       d="m -155.86476,79.385206 -0.24931,-0.25928 c 0.25928,-0.249307 0.54847,-0.47867 0.86759,-0.658171 l 0.1795,0.309141 0.1795,0.309141 c -0.26925,0.159557 -0.50859,0.339058 -0.72798,0.548477 z"
       id="path2172" />
    <path
       style="fill:#8e3b38;fill-opacity:1;fill-rule:evenodd;stroke:none;stroke-width:0.264583"
       d="m -155.06698,78.776896 -0.1795,-0.309141 c 0.31911,-0.189474 0.65817,-0.329086 1.0072,-0.418837 l 0.0898,0.34903 0.0997,0.349031 c -0.28919,0.06981 -0.56842,0.189474 -0.83767,0.339058 z"
       id="path2174" />
    <path
       style="fill:#8e3b38;fill-opacity:1;fill-rule:evenodd;stroke:none;stroke-width:0.264583"
       d="m -154.14953,78.397948 -0.0898,-0.34903 c 0.34903,-0.08975 0.70803,-0.139612 1.07701,-0.139612 v 0.359003 0.359002 c -0.29917,0 -0.59834,0.03989 -0.88754,0.119668 z"
       id="path2176" />
    <path
       style="fill:#8e3b38;fill-opacity:1;fill-rule:evenodd;stroke:none;stroke-width:0.264583"
       d="m -153.16227,78.627311 v -0.359002 -0.359003 h 49.71191 v 0.359003 0.359002 z"
       id="path2178" />
    <path
       style="fill:#8e3b38;fill-opacity:1;fill-rule:evenodd;stroke:none;stroke-width:0.264583"
       d="m -103.45036,78.268309 v -0.359003 c 0.36897,0 0.72798,0.04986 1.07701,0.139612 l -0.0897,0.34903 -0.0898,0.349031 c -0.2892,-0.07978 -0.59834,-0.119668 -0.89751,-0.119668 z"
       id="path2180" />
    <path
       style="fill:#8e3b38;fill-opacity:1;fill-rule:evenodd;stroke:none;stroke-width:0.264583"
       d="m -102.4631,78.397948 0.0897,-0.34903 c 0.359,0.08975 0.69806,0.229363 1.01717,0.418837 l -0.1795,0.309141 -0.1795,0.309141 c -0.25928,-0.149584 -0.54848,-0.269252 -0.83767,-0.339058 z"
       id="path2182" />
    <path
       style="fill:#8e3b38;fill-opacity:1;fill-rule:evenodd;stroke:none;stroke-width:0.264583"
       d="m -101.53568,78.776896 0.1795,-0.309141 c 0.31912,0.179501 0.60831,0.408864 0.86759,0.668144 l -0.25928,0.249307 -0.24931,0.249308 c -0.21939,-0.209419 -0.44875,-0.398892 -0.718,-0.548477 z"
       id="path2184" />
    <path
       style="fill:#8e3b38;fill-opacity:1;fill-rule:evenodd;stroke:none;stroke-width:0.264583"
       d="m -100.74787,79.385206 0.25928,-0.249307 c 0.24931,0.259279 0.47867,0.548476 0.658174,0.86759 l -0.309144,0.179501 -0.30914,0.179501 c -0.15955,-0.269252 -0.33906,-0.508587 -0.54848,-0.727977 z"
       id="path2186" />
    <path
       style="fill:#8e3b38;fill-opacity:1;fill-rule:evenodd;stroke:none;stroke-width:0.264583"
       d="m -100.13956,80.18299 0.309144,-0.179501 c 0.189473,0.319113 0.329086,0.658171 0.418838,1.007202 l -0.349031,0.08975 -0.349031,0.09972 c -0.0698,-0.289197 -0.18947,-0.568422 -0.33906,-0.837674 z"
       id="path2188" />
    <path
       style="fill:#8e3b38;fill-opacity:1;fill-rule:evenodd;stroke:none;stroke-width:0.264583"
       d="m -99.760609,81.100441 0.349031,-0.08975 c 0.08975,0.349031 0.13961,0.708034 0.13961,1.077009 h -0.359003 -0.359002 c 0,-0.299169 -0.03989,-0.598338 -0.119667,-0.887535 z"
       id="path2190" />
    <path
       style="fill:#8e3b38;fill-opacity:1;fill-rule:evenodd;stroke:none;stroke-width:0.264583"
       d="m -99.989973,82.087699 c 0,0 0,0 0,0 h 0.359002 z"
       id="path2192" />
    <path
       style="fill:#8e3b38;fill-opacity:1;fill-rule:evenodd;stroke:none;stroke-width:0.264583"
       d="m -99.989973,82.087699 h 0.359002 0.359003 l 0.01,15.287535 h -0.359006 -0.359002 z"
       id="path2194" />
    <path
       style="fill:#8e3b38;fill-opacity:1;fill-rule:evenodd;stroke:none;stroke-width:0.264583"
       d="m -99.261993,97.375234 c 0,0 0,0 0,0 v 0 h -0.359006 z"
       id="path2196" />
    <path
       style="fill:#8e3b38;fill-opacity:1;fill-rule:evenodd;stroke:none;stroke-width:0.264583"
       d="m -99.620999,97.375234 h 0.359006 c 0,0.368975 -0.04986,0.727978 -0.139613,1.077008 l -0.34903,-0.08975 -0.349034,-0.08975 c 0.0798,-0.289197 0.119669,-0.598338 0.119669,-0.897507 z"
       id="path2198" />
    <path
       style="fill:#8e3b38;fill-opacity:1;fill-rule:evenodd;stroke:none;stroke-width:0.264583"
       d="m -99.750636,98.362492 0.34903,0.08975 c -0.08975,0.359003 -0.229365,0.698061 -0.418838,1.017175 l -0.309146,-0.179501 -0.30913,-0.179502 c 0.14958,-0.25928 0.26925,-0.548476 0.33905,-0.837673 z"
       id="path2200" />
    <path
       style="fill:#8e3b38;fill-opacity:1;fill-rule:evenodd;stroke:none;stroke-width:0.264583"
       d="m -100.12959,99.289916 0.309146,0.179501 c -0.179501,0.319114 -0.408866,0.608313 -0.668146,0.867593 l -0.2493,-0.25928 -0.24931,-0.24931 c 0.20942,-0.219391 0.39889,-0.448754 0.54848,-0.718006 z"
       id="path2202" />
    <path
       style="fill:#8e3b38;fill-opacity:1;fill-rule:evenodd;stroke:none;stroke-width:0.264583"
       d="m -100.73789,100.07773 0.2493,0.25928 c -0.25928,0.2493 -0.54847,0.47867 -0.86759,0.65817 l -0.1795,-0.30914 -0.1795,-0.30914 c 0.26925,-0.15956 0.50859,-0.33906 0.72798,-0.54848 z"
       id="path2204" />
    <path
       style="fill:#8e3b38;fill-opacity:1;fill-rule:evenodd;stroke:none;stroke-width:0.264583"
       d="m -101.53568,100.68604 0.1795,0.30914 c -0.31911,0.18947 -0.65817,0.32908 -1.0072,0.41883 l -0.0897,-0.34903 -0.0997,-0.34903 c 0.2892,-0.0698 0.56842,-0.18947 0.83767,-0.33905 z"
       id="path2206" />
    <path
       style="fill:#8e3b38;fill-opacity:1;fill-rule:evenodd;stroke:none;stroke-width:0.264583"
       d="m -102.45313,101.06498 0.0897,0.34903 c -0.34903,0.0897 -0.70803,0.13962 -1.07701,0.13962 v -0.35901 -0.359 c 0.29917,0 0.59834,-0.0399 0.88754,-0.11967 z"
       id="path2208" />
    <path
       style="fill:#8e3b38;fill-opacity:1;fill-rule:evenodd;stroke:none;stroke-width:0.264583"
       d="m -103.44039,100.83562 c 0,0 0,0 0,0 v 0.359 z"
       id="path2210" />
    <path
       style="fill:#8e3b38;fill-opacity:1;fill-rule:evenodd;stroke:none;stroke-width:0.264583"
       d="m -103.44039,100.83562 v 0.359 0.35901 l -49.72188,0.01 v -0.35901 -0.359 z"
       id="path2212" />
    <path
       style="fill:#8e3b38;fill-opacity:1;fill-rule:evenodd;stroke:none;stroke-width:0.264583"
       d="m -153.16227,101.5636 c 0,0 0,0 0,0 v -0.359 z"
       id="path2214" />
    <path
       style="fill:#8e3b38;fill-opacity:1;fill-rule:evenodd;stroke:none;stroke-width:0.264583"
       d="m -153.16227,101.2046 v 0.359 c -0.36898,0 -0.72798,-0.0499 -1.07701,-0.13961 l 0.0898,-0.34903 0.0898,-0.34903 c 0.2892,0.0798 0.59834,0.11966 0.89751,0.11966 z"
       id="path2216" />
    <path
       style="fill:#8e3b38;fill-opacity:1;fill-rule:evenodd;stroke:none;stroke-width:0.264583"
       d="m -154.14953,101.07496 -0.0898,0.34903 c -0.359,-0.0898 -0.69806,-0.22937 -1.01717,-0.41884 l 0.1795,-0.30914 0.1795,-0.30914 c 0.25928,0.14958 0.54848,0.26925 0.83767,0.33906 z"
       id="path2218" />
    <path
       style="fill:#8e3b38;fill-opacity:1;fill-rule:evenodd;stroke:none;stroke-width:0.264583"
       d="m -155.07695,100.69601 -0.1795,0.30914 c -0.31912,-0.1795 -0.60831,-0.40886 -0.86759,-0.66814 l 0.25928,-0.24931 0.2493,-0.249308 c 0.21939,0.209418 0.44876,0.398888 0.71801,0.548478 z"
       id="path2220" />
    <path
       style="fill:#8e3b38;fill-opacity:1;fill-rule:evenodd;stroke:none;stroke-width:0.264583"
       d="m -155.86476,100.0877 -0.25928,0.24931 c -0.24931,-0.25928 -0.47867,-0.548479 -0.65818,-0.867593 l 0.30915,-0.179501 0.30914,-0.179502 c 0.15955,0.269252 0.33905,0.508587 0.54847,0.727978 z"
       id="path2222" />
    <path
       style="fill:#8e3b38;fill-opacity:1;fill-rule:evenodd;stroke:none;stroke-width:0.264583"
       d="m -156.47307,99.289916 -0.30915,0.179501 c -0.18947,-0.319114 -0.32908,-0.658172 -0.41883,-1.007203 l 0.34903,-0.08975 0.34903,-0.09972 c 0.0698,0.289197 0.18947,0.568421 0.33906,0.837673 z"
       id="path2224" />
    <path
       style="fill:#8e3b38;fill-opacity:1;fill-rule:evenodd;stroke:none;stroke-width:0.264583"
       d="m -156.85202,98.372464 -0.34903,0.08975 c -0.0897,-0.34903 -0.13961,-0.708033 -0.13961,-1.077008 h 0.359 0.359 c 0,0.299169 0.0399,0.598338 0.11967,0.887535 z"
       id="path2226" />
    <path
       style="fill:#8e3b38;fill-opacity:1;fill-rule:evenodd;stroke:none;stroke-width:0.264583"
       d="m -156.62266,97.385206 h -0.359 -0.359 V 82.087699 h 0.359 0.359 z"
       id="path2228" />
    <text
       xml:space="preserve"
       style="font-style:normal;font-variant:normal;font-weight:400;font-size:6.33346px;line-height:125%;font-family:Calibri;text-align:start;letter-spacing:0px;word-spacing:0px;text-anchor:start;fill:#000000;fill-opacity:1;stroke:none;stroke-width:0.264583"
       x="-140.16837"
       y="92.269417"
       id="text2234"><tspan
         sodipodi:role="line"
         x="-140.16837"
         y="92.269417"
         id="tspan2232"
         style="stroke-width:0.264583"><tspan
           dx="0"
           dy="0"
           style="font-style:normal;font-variant:normal;font-weight:400;font-size:6.33346px;font-family:Calibri;fill:#ffffff;stroke-width:0.264583"
           id="tspan2230">Dictateur</tspan></tspan></text>
    <path
       style="fill:#808080;fill-opacity:1;fill-rule:evenodd;stroke:none;stroke-width:0.264583"
       d="m 78.125265,102.98964 h 0.359 0.359 l 0.0199,62.35678 h -0.359 -0.35901 z"
       id="path2236" />
    <path
       style="fill:#808080;fill-opacity:1;fill-rule:evenodd;stroke:none;stroke-width:0.264583"
       d="m 78.504215,168.64725 -1.77507,-3.54016 h 3.54016 z"
       id="path2238" />
    <path
       style="fill:#000000;fill-opacity:1;fill-rule:evenodd;stroke:none;stroke-width:0.264583"
       d="M -99.640943,90.095456 V 89.736453 89.37745 l 146.124098,0.01994 v 0.359002 0.359003 z"
       id="path2240" />
    <path
       style="fill:#000000;fill-opacity:1;fill-rule:evenodd;stroke:none;stroke-width:0.264583"
       d="m 49.783985,89.756397 -3.54016,1.765097 v -3.540166 z"
       id="path2242" />
    <path
       style="fill:#c3d69b;fill-opacity:1;fill-rule:evenodd;stroke:none;stroke-width:0.264583"
       d="m 49.943545,174.42122 v 0 c 0,-0.66815 0.1795,-1.32632 0.50859,-1.91468 0.33906,-0.5784 0.81773,-1.05707 1.40609,-1.39613 0.5784,-0.33905 1.23657,-0.50858 1.90471,-0.50858 h 49.711915 v 0 c 0.66815,0 1.32632,0.1795 1.91468,0.50858 0.5784,0.33906 1.05707,0.81773 1.39613,1.4061 0.33905,0.57839 0.50858,1.23656 0.50858,1.90471 v 0 l 0.01,15.28754 v 0 c 0,0.66814 -0.17951,1.32631 -0.50859,1.91468 -0.33906,0.57839 -0.81773,1.05706 -1.4061,1.39612 -0.57839,0.33906 -1.23656,0.50859 -1.9047,0.50859 l -49.721895,0.01 v 0 c -0.66814,0 -1.32631,-0.1795 -1.91468,-0.50859 -0.57839,-0.33906 -1.05706,-0.81773 -1.39612,-1.40609 -0.33906,-0.5784 -0.50859,-1.23657 -0.50859,-1.90471 z"
       id="path2244" />
    <path
       style="fill:#728a41;fill-opacity:1;fill-rule:evenodd;stroke:none;stroke-width:0.264583"
       d="m 49.943545,174.42122 h -0.359 c 0,-0.36898 0.0499,-0.72798 0.13961,-1.07701 l 0.34903,0.0898 0.34903,0.0897 c -0.0798,0.28919 -0.11967,0.59834 -0.11967,0.89751 z"
       id="path2246" />
    <path
       style="fill:#728a41;fill-opacity:1;fill-rule:evenodd;stroke:none;stroke-width:0.264583"
       d="m 50.073185,173.43396 -0.34903,-0.0898 c 0.0898,-0.359 0.22936,-0.69806 0.41884,-1.01718 l 0.30914,0.17951 0.30914,0.1795 c -0.14958,0.25927 -0.26925,0.54847 -0.33906,0.83767 z"
       id="path2248" />
    <path
       style="fill:#728a41;fill-opacity:1;fill-rule:evenodd;stroke:none;stroke-width:0.264583"
       d="m 50.452135,172.50654 -0.30914,-0.17951 c 0.1795,-0.31911 0.40886,-0.60831 0.66814,-0.86759 l 0.24931,0.25928 0.24931,0.24931 c -0.20942,0.21939 -0.3989,0.44875 -0.54848,0.71801 z"
       id="path2250" />
    <path
       style="fill:#728a41;fill-opacity:1;fill-rule:evenodd;stroke:none;stroke-width:0.264583"
       d="m 51.060445,171.71872 -0.24931,-0.25928 c 0.25928,-0.2493 0.54848,-0.47867 0.86759,-0.65817 l 0.1795,0.30914 0.1795,0.30914 c -0.26925,0.15956 -0.50858,0.33906 -0.72797,0.54848 z"
       id="path2252" />
    <path
       style="fill:#728a41;fill-opacity:1;fill-rule:evenodd;stroke:none;stroke-width:0.264583"
       d="m 51.858225,171.11041 -0.1795,-0.30914 c 0.31912,-0.18947 0.65817,-0.32908 1.0072,-0.41884 l 0.0898,0.34904 0.0997,0.34903 c -0.2892,0.0698 -0.56843,0.18947 -0.83768,0.33905 z"
       id="path2254" />
    <path
       style="fill:#728a41;fill-opacity:1;fill-rule:evenodd;stroke:none;stroke-width:0.264583"
       d="m 52.775675,170.73147 -0.0898,-0.34904 c 0.34903,-0.0898 0.70804,-0.13961 1.07701,-0.13961 v 0.35901 0.359 c -0.29917,0 -0.59834,0.0399 -0.88753,0.11967 z"
       id="path2256" />
    <path
       style="fill:#728a41;fill-opacity:1;fill-rule:evenodd;stroke:none;stroke-width:0.264583"
       d="m 53.762935,170.96083 v -0.359 -0.35901 h 49.711915 v 0.35901 0.359 z"
       id="path2258" />
    <path
       style="fill:#728a41;fill-opacity:1;fill-rule:evenodd;stroke:none;stroke-width:0.264583"
       d="m 103.47485,170.60183 v -0.35901 c 0.36898,0 0.72798,0.0499 1.07701,0.13961 l -0.0897,0.34904 -0.0898,0.34903 c -0.29917,-0.0798 -0.59834,-0.11967 -0.89751,-0.11967 z"
       id="path2260" />
    <path
       style="fill:#728a41;fill-opacity:1;fill-rule:evenodd;stroke:none;stroke-width:0.264583"
       d="m 104.46211,170.73147 0.0897,-0.34904 c 0.34903,0.0997 0.68809,0.23934 1.01718,0.41884 l -0.17951,0.30914 -0.1795,0.30914 c -0.25928,-0.14958 -0.54847,-0.25927 -0.83767,-0.33905 z"
       id="path2262" />
    <path
       style="fill:#728a41;fill-opacity:1;fill-rule:evenodd;stroke:none;stroke-width:0.264583"
       d="m 105.56904,170.80127 c 0,0 0,0 0,0 0,0 0,0 0,0 l -0.17951,0.30914 z"
       id="path2264" />
    <path
       style="fill:#728a41;fill-opacity:1;fill-rule:evenodd;stroke:none;stroke-width:0.264583"
       d="m 105.38953,171.11041 0.17951,-0.30914 c 0.31911,0.18948 0.6083,0.40887 0.86759,0.66815 l -0.25929,0.2493 -0.25927,0.25928 c -0.20942,-0.21939 -0.44876,-0.40886 -0.70804,-0.55845 z"
       id="path2266" />
    <path
       style="fill:#728a41;fill-opacity:1;fill-rule:evenodd;stroke:none;stroke-width:0.264583"
       d="m 106.17734,171.71872 0.25929,-0.2493 c 0.2493,0.25928 0.47867,0.54847 0.65817,0.86759 l -0.30914,0.1795 -0.30915,0.1795 c -0.15955,-0.25928 -0.33905,-0.50859 -0.55844,-0.71801 z"
       id="path2268" />
    <path
       style="fill:#728a41;fill-opacity:1;fill-rule:evenodd;stroke:none;stroke-width:0.264583"
       d="m 106.78566,172.51651 0.30914,-0.1795 c 0.18947,0.31911 0.32909,0.65817 0.41883,1.0072 l -0.34903,0.0898 -0.34903,0.0997 c -0.0698,-0.2892 -0.18947,-0.56842 -0.33906,-0.83767 z"
       id="path2270" />
    <path
       style="fill:#728a41;fill-opacity:1;fill-rule:evenodd;stroke:none;stroke-width:0.264583"
       d="m 107.1646,173.43396 0.34903,-0.0898 c 0.0897,0.34903 0.13962,0.70803 0.13962,1.07701 h -0.35901 -0.359 c 0,-0.29917 -0.0399,-0.59834 -0.11967,-0.88754 z"
       id="path2272" />
    <path
       style="fill:#728a41;fill-opacity:1;fill-rule:evenodd;stroke:none;stroke-width:0.264583"
       d="m 106.93524,174.42122 c 0,0 0,0 0,0 h 0.359 z"
       id="path2274" />
    <path
       style="fill:#728a41;fill-opacity:1;fill-rule:evenodd;stroke:none;stroke-width:0.264583"
       d="m 106.93524,174.42122 h 0.359 0.35901 l 0.01,15.28754 h -0.35901 -0.35901 z"
       id="path2276" />
    <path
       style="fill:#728a41;fill-opacity:1;fill-rule:evenodd;stroke:none;stroke-width:0.264583"
       d="m 107.66323,189.70876 c 0,0 0,0 0,0 v 0 h -0.35901 z"
       id="path2278" />
    <path
       style="fill:#728a41;fill-opacity:1;fill-rule:evenodd;stroke:none;stroke-width:0.264583"
       d="m 107.30422,189.70876 h 0.35901 c 0,0.36897 -0.0499,0.72797 -0.13962,1.077 l -0.34904,-0.0898 -0.34903,-0.0897 c 0.0798,-0.28919 0.11967,-0.59834 0.11967,-0.8975 z"
       id="path2280" />
    <path
       style="fill:#728a41;fill-opacity:1;fill-rule:evenodd;stroke:none;stroke-width:0.264583"
       d="m 107.17457,190.69601 0.34904,0.0898 c -0.0897,0.35901 -0.22937,0.69807 -0.41884,1.01718 l -0.30914,-0.1795 -0.30914,-0.1795 c 0.14958,-0.25928 0.26925,-0.54848 0.33905,-0.83768 z"
       id="path2282" />
    <path
       style="fill:#728a41;fill-opacity:1;fill-rule:evenodd;stroke:none;stroke-width:0.264583"
       d="m 106.79563,191.62344 0.30914,0.1795 c -0.1795,0.31911 -0.40887,0.60831 -0.66814,0.86759 l -0.24931,-0.25928 -0.24931,-0.24931 c 0.20942,-0.21939 0.39889,-0.44875 0.54848,-0.718 z"
       id="path2284" />
    <path
       style="fill:#728a41;fill-opacity:1;fill-rule:evenodd;stroke:none;stroke-width:0.264583"
       d="m 106.18732,192.41125 0.24931,0.25928 c -0.25929,0.24931 -0.54848,0.47867 -0.86759,0.65817 l -0.17951,-0.30914 -0.1795,-0.30914 c 0.26925,-0.15956 0.50859,-0.33906 0.72798,-0.54848 z"
       id="path2286" />
    <path
       style="fill:#728a41;fill-opacity:1;fill-rule:evenodd;stroke:none;stroke-width:0.264583"
       d="m 105.38953,193.01956 0.17951,0.30914 c -0.31912,0.18947 -0.65818,0.32909 -1.00721,0.41884 l -0.0897,-0.34903 -0.0997,-0.34903 c 0.2892,-0.0698 0.56842,-0.18948 0.83767,-0.33906 z"
       id="path2288" />
    <path
       style="fill:#728a41;fill-opacity:1;fill-rule:evenodd;stroke:none;stroke-width:0.264583"
       d="m 104.47208,193.39851 0.0897,0.34903 c -0.34903,0.0898 -0.70803,0.13961 -1.077,0.13961 v -0.359 -0.35901 c 0.29917,0 0.59833,-0.0399 0.88753,-0.11966 z"
       id="path2290" />
    <path
       style="fill:#728a41;fill-opacity:1;fill-rule:evenodd;stroke:none;stroke-width:0.264583"
       d="m 103.48483,193.16914 c 0,0 0,0 0,0 v 0.35901 z"
       id="path2292" />
    <path
       style="fill:#728a41;fill-opacity:1;fill-rule:evenodd;stroke:none;stroke-width:0.264583"
       d="m 103.48483,193.16914 v 0.35901 0.359 l -49.721895,0.01 v -0.359 -0.359 z"
       id="path2294" />
    <path
       style="fill:#728a41;fill-opacity:1;fill-rule:evenodd;stroke:none;stroke-width:0.264583"
       d="m 53.762935,193.89712 c 0,0 0,0 0,0 v -0.359 z"
       id="path2296" />
    <path
       style="fill:#728a41;fill-opacity:1;fill-rule:evenodd;stroke:none;stroke-width:0.264583"
       d="m 53.762935,193.53812 v 0.359 c -0.36897,0 -0.72798,-0.0499 -1.07701,-0.13961 l 0.0898,-0.34903 0.0898,-0.34903 c 0.28919,0.0798 0.59833,0.11967 0.8975,0.11967 z"
       id="path2298" />
    <path
       style="fill:#728a41;fill-opacity:1;fill-rule:evenodd;stroke:none;stroke-width:0.264583"
       d="m 52.775675,193.40848 -0.0898,0.34903 c -0.359,-0.0898 -0.69806,-0.22936 -1.01717,-0.41884 l 0.1795,-0.30914 0.1795,-0.30914 c 0.25928,0.14958 0.54848,0.26925 0.83768,0.33906 z"
       id="path2300" />
    <path
       style="fill:#728a41;fill-opacity:1;fill-rule:evenodd;stroke:none;stroke-width:0.264583"
       d="m 51.848255,193.02953 -0.1795,0.30914 c -0.31911,-0.1795 -0.60831,-0.40886 -0.86759,-0.66814 l 0.25928,-0.24931 0.24931,-0.24931 c 0.21939,0.20942 0.44875,0.39889 0.718,0.54848 z"
       id="path2302" />
    <path
       style="fill:#728a41;fill-opacity:1;fill-rule:evenodd;stroke:none;stroke-width:0.264583"
       d="m 51.060445,192.42122 -0.25928,0.24931 c -0.24931,-0.25928 -0.47867,-0.54848 -0.65817,-0.86759 l 0.30914,-0.1795 0.30914,-0.1795 c 0.15956,0.26925 0.33906,0.50858 0.54848,0.72797 z"
       id="path2304" />
    <path
       style="fill:#728a41;fill-opacity:1;fill-rule:evenodd;stroke:none;stroke-width:0.264583"
       d="m 50.452135,191.62344 -0.30914,0.1795 c -0.18948,-0.31911 -0.32909,-0.65817 -0.41884,-1.0072 l 0.34903,-0.0898 0.34903,-0.0997 c 0.0698,0.2892 0.18948,0.56842 0.33906,0.83768 z"
       id="path2306" />
    <path
       style="fill:#728a41;fill-opacity:1;fill-rule:evenodd;stroke:none;stroke-width:0.264583"
       d="m 50.073185,190.70599 -0.34903,0.0898 c -0.0898,-0.34903 -0.13961,-0.70804 -0.13961,-1.07701 h 0.359 0.359 c 0,0.29917 0.0399,0.59834 0.11967,0.88753 z"
       id="path2308" />
    <path
       style="fill:#728a41;fill-opacity:1;fill-rule:evenodd;stroke:none;stroke-width:0.264583"
       d="m 50.302545,189.71873 h -0.359 -0.359 v -15.29751 h 0.359 0.359 z"
       id="path2310" />
    <text
       xml:space="preserve"
       style="font-style:normal;font-variant:normal;font-weight:400;font-size:6.33346px;line-height:125%;font-family:Calibri;text-align:start;letter-spacing:0px;word-spacing:0px;text-anchor:start;fill:#000000;fill-opacity:1;stroke:none;stroke-width:0.264583"
       x="53.583439"
       y="184.60294"
       id="text2316"><tspan
         sodipodi:role="line"
         x="53.583439"
         y="184.60294"
         id="tspan2314"
         style="stroke-width:0.264583"><tspan
           dx="0"
           dy="0"
           style="font-style:normal;font-variant:normal;font-weight:400;font-size:6.33346px;font-family:Calibri;fill:#ffffff;stroke-width:0.264583"
           id="tspan2312">Développeur public</tspan></tspan></text>
    <path
       style="fill:#808080;fill-opacity:1;fill-rule:evenodd;stroke:none;stroke-width:0.264583"
       d="m 68.711415,102.06221 0.22936,0.26926 0.22936,0.26925 -75.7196697,64.88975 -0.22936,-0.26925 -0.22936,-0.26926 z"
       id="path2318" />
    <path
       style="fill:#808080;fill-opacity:1;fill-rule:evenodd;stroke:none;stroke-width:0.264583"
       d="m -9.2919147,169.37523 1.53574,-3.64986 2.3036,2.69252 z"
       id="path2320" />
    <path
       style="fill:#808080;fill-opacity:1;fill-rule:evenodd;stroke:none;stroke-width:0.264583"
       d="m 46.882055,100.6262 0.15955,0.31912 0.15956,0.31911 -141.137953,68.12078 -0.159554,-0.31912 -0.159557,-0.31911 z"
       id="path2322" />
    <path
       style="fill:#808080;fill-opacity:1;fill-rule:evenodd;stroke:none;stroke-width:0.264583"
       d="m -97.06809,170.5021 2.423269,-3.1313 1.535734,3.19114 z"
       id="path2324" />
    <path
       style="fill:#808080;fill-opacity:1;fill-rule:evenodd;stroke:none;stroke-width:0.264583"
       d="m 65.330805,167.65003 -0.18948,0.30914 -0.18947,0.30914 -81.19446,-48.71468 0.18947,-0.30915 0.18948,-0.30914 z"
       id="path2326" />
    <path
       style="fill:#808080;fill-opacity:1;fill-rule:evenodd;stroke:none;stroke-width:0.264583"
       d="m -18.885265,117.54919 3.94903,0.29917 -1.82493,3.04156 z"
       id="path2328" />
    <path
       style="fill:#808080;fill-opacity:1;fill-rule:evenodd;stroke:none;stroke-width:0.264583"
       d="m -35.180005,165.87496 -0.32908,0.12964 -0.32909,0.12964 -12.90415,-32.09086 0.32908,-0.12964 0.32909,-0.12964 z"
       id="path2330" />
    <path
       style="fill:#808080;fill-opacity:1;fill-rule:evenodd;stroke:none;stroke-width:0.264583"
       d="m -49.649805,130.85224 2.96177,2.62272 -3.28088,1.32631 z"
       id="path2332" />
    <path
       style="fill:#808080;fill-opacity:1;fill-rule:evenodd;stroke:none;stroke-width:0.264583"
       d="m -127.62321,167.95917 -0.359,0.01 -0.35901,0.01 -0.359,-20.78227 0.359,-0.01 0.35901,-0.01 z"
       id="path2334" />
    <path
       style="fill:#808080;fill-opacity:1;fill-rule:evenodd;stroke:none;stroke-width:0.264583"
       d="m -128.40105,143.88604 1.8349,3.51025 -3.54017,0.0598 z"
       id="path2336" />
    <path
       style="fill:#808080;fill-opacity:1;fill-rule:evenodd;stroke:none;stroke-width:0.264583"
       d="m -128.21158,115.97357 -0.359,0.01 -0.359,0.01 -0.14959,-8.74571 0.359,-0.01 0.35901,-0.01 z"
       id="path2338" />
    <path
       style="fill:#808080;fill-opacity:1;fill-rule:evenodd;stroke:none;stroke-width:0.264583"
       d="m -128.78,103.93701 1.8349,3.51025 -3.54016,0.0598 z"
       id="path2340" />
    <path
       style="fill:#808080;fill-opacity:1;fill-rule:evenodd;stroke:none;stroke-width:0.264583"
       d="m -84.632631,105.86166 -0.139612,0.32908 -0.139613,0.32909 -9.264266,-4.00886 0.139612,-0.32909 0.139613,-0.32908 z"
       id="path2342" />
    <path
       style="fill:#808080;fill-opacity:1;fill-rule:evenodd;stroke:none;stroke-width:0.264583"
       d="m -97.06809,100.87551 3.949031,-0.21939 -1.406094,3.25097 z"
       id="path2344" />
  </g>
</svg>
