<?xml version="1.0" encoding="UTF-8" standalone="no"?>
<!-- Created with Inkscape (http://www.inkscape.org/) -->

<svg
   width="241.77048mm"
   height="99.204224mm"
   viewBox="0 0 241.77048 99.204224"
   version="1.1"
   id="svg817"
   inkscape:version="1.2.1 (9c6d41e410, 2022-07-14)"
   sodipodi:docname="git_decentralise_2.svg"
   xmlns:inkscape="http://www.inkscape.org/namespaces/inkscape"
   xmlns:sodipodi="http://sodipodi.sourceforge.net/DTD/sodipodi-0.dtd"
   xmlns="http://www.w3.org/2000/svg"
   xmlns:svg="http://www.w3.org/2000/svg">
  <sodipodi:namedview
     id="namedview819"
     pagecolor="#ffffff"
     bordercolor="#666666"
     borderopacity="1.0"
     inkscape:showpageshadow="2"
     inkscape:pageopacity="0.0"
     inkscape:pagecheckerboard="0"
     inkscape:deskcolor="#d1d1d1"
     inkscape:document-units="mm"
     showgrid="false"
     inkscape:zoom="0.74564394"
     inkscape:cx="457.32283"
     inkscape:cy="187.75718"
     inkscape:window-width="1920"
     inkscape:window-height="1017"
     inkscape:window-x="-8"
     inkscape:window-y="-8"
     inkscape:window-maximized="1"
     inkscape:current-layer="layer1" />
  <defs
     id="defs814">
    <pattern
       id="EMFhbasepattern"
       patternUnits="userSpaceOnUse"
       width="6"
       height="6"
       x="0"
       y="0" />
  </defs>
  <g
     inkscape:label="Calque 1"
     inkscape:groupmode="layer"
     id="layer1"
     transform="translate(15.852982,-99.075308)">
    <path
       style="fill:#77933c;fill-opacity:1;fill-rule:evenodd;stroke:none;stroke-width:0.264583"
       d="m 80.62432,179.75836 v 0 c 0,-0.63695 0.169187,-1.26394 0.487658,-1.81132 0.318474,-0.55732 0.776277,-1.01513 1.323653,-1.3336 0.557328,-0.31847 1.18432,-0.48766 1.821267,-0.48766 l 52.796792,0.01 v 0 c 0.63694,0 1.26394,0.16919 1.81131,0.48766 0.55733,0.31847 1.01513,0.77628 1.33361,1.32365 0.31847,0.55733 0.48766,1.18432 0.48766,1.82127 v 0 14.52036 0 c 0,0.63695 -0.16919,1.26394 -0.48766,1.81131 -0.31848,0.55733 -0.77628,1.01513 -1.32366,1.33361 -0.55732,0.31847 -1.18432,0.48766 -1.82126,0.48766 H 84.246948 v 0 c -0.636948,0 -1.263942,-0.16919 -1.811317,-0.48766 -0.557327,-0.31848 -1.01513,-0.77628 -1.333604,-1.32365 -0.318473,-0.55733 -0.487661,-1.18432 -0.487661,-1.82127 z"
       id="path824" />
    <path
       style="fill:#728a41;fill-opacity:1;fill-rule:evenodd;stroke:none;stroke-width:0.264583"
       d="m 80.9826,179.75836 c 0,0 0,0 0,0 h -0.35828 z"
       id="path826" />
    <path
       style="fill:#728a41;fill-opacity:1;fill-rule:evenodd;stroke:none;stroke-width:0.264583"
       d="m 80.62432,179.75836 h -0.358283 c 0,-0.34833 0.04976,-0.69666 0.139332,-1.03504 l 0.338376,0.0995 0.348329,0.0896 c -0.06967,0.27867 -0.109474,0.55733 -0.109474,0.84595 z"
       id="path828" />
    <path
       style="fill:#728a41;fill-opacity:1;fill-rule:evenodd;stroke:none;stroke-width:0.264583"
       d="m 80.743745,178.82284 -0.338376,-0.0995 c 0.08957,-0.32842 0.218951,-0.65684 0.398089,-0.95541 l 0.30852,0.17914 0.308523,0.17914 c -0.139332,0.24881 -0.248809,0.51752 -0.328427,0.78623 z"
       id="path830" />
    <path
       style="fill:#728a41;fill-opacity:1;fill-rule:evenodd;stroke:none;stroke-width:0.264583"
       d="m 81.111978,177.94704 -0.30852,-0.17914 c 0.169191,-0.29857 0.388139,-0.57723 0.626994,-0.82603 l 0.25876,0.2488 0.248806,0.25876 c -0.199046,0.19905 -0.368234,0.42795 -0.517517,0.67676 z"
       id="path832" />
    <path
       style="fill:#728a41;fill-opacity:1;fill-rule:evenodd;stroke:none;stroke-width:0.264583"
       d="m 81.689212,177.19067 -0.25876,-0.2488 c 0.248806,-0.24881 0.517517,-0.46776 0.82604,-0.63695 l 0.179139,0.30852 0.179141,0.30852 c -0.248806,0.14928 -0.477708,0.31847 -0.676754,0.52747 z"
       id="path834" />
    <path
       style="fill:#728a41;fill-opacity:1;fill-rule:evenodd;stroke:none;stroke-width:0.264583"
       d="m 82.435631,176.61344 -0.179139,-0.30852 c 0.298566,-0.17914 0.626991,-0.30852 0.965369,-0.39809 l 0.08957,0.33837 0.09952,0.34834 c -0.278665,0.0796 -0.547376,0.18909 -0.796182,0.32842 z"
       id="path836" />
    <path
       style="fill:#728a41;fill-opacity:1;fill-rule:evenodd;stroke:none;stroke-width:0.264583"
       d="m 83.311431,176.2452 -0.08957,-0.33837 c 0.338376,-0.0896 0.686705,-0.13933 1.035037,-0.13933 v 0.35828 0.35828 c -0.288618,0 -0.577234,0.0398 -0.845944,0.10948 z"
       id="path838" />
    <path
       style="fill:#728a41;fill-opacity:1;fill-rule:evenodd;stroke:none;stroke-width:0.264583"
       d="m 84.256898,175.7675 c 0,0 0,0 0,0 v 0.35828 z"
       id="path840" />
    <path
       style="fill:#728a41;fill-opacity:1;fill-rule:evenodd;stroke:none;stroke-width:0.264583"
       d="m 84.256898,176.48406 v -0.35828 -0.35828 l 52.796792,0.01 v 0.35828 0.35828 z"
       id="path842" />
    <path
       style="fill:#728a41;fill-opacity:1;fill-rule:evenodd;stroke:none;stroke-width:0.264583"
       d="m 137.05369,176.49401 c 0,0 0,0 0,0 v -0.35828 z"
       id="path844" />
    <path
       style="fill:#728a41;fill-opacity:1;fill-rule:evenodd;stroke:none;stroke-width:0.264583"
       d="m 137.05369,176.13573 v -0.35828 c 0.34833,0 0.69666,0.0498 1.03503,0.13933 l -0.0995,0.33838 -0.0896,0.34833 c -0.27866,-0.0697 -0.55733,-0.10948 -0.84594,-0.10948 z"
       id="path846" />
    <path
       style="fill:#728a41;fill-opacity:1;fill-rule:evenodd;stroke:none;stroke-width:0.264583"
       d="m 137.9892,176.25516 0.0995,-0.33838 c 0.32843,0.0896 0.65686,0.21895 0.95542,0.39809 l -0.17914,0.30852 -0.17914,0.30852 c -0.24881,-0.13933 -0.51752,-0.2488 -0.78623,-0.32842 z"
       id="path848" />
    <path
       style="fill:#728a41;fill-opacity:1;fill-rule:evenodd;stroke:none;stroke-width:0.264583"
       d="m 138.865,176.62339 0.17914,-0.30852 c 0.29857,0.16919 0.57723,0.38814 0.82604,0.627 l -0.24881,0.25875 -0.25875,0.24881 c -0.19905,-0.19904 -0.42795,-0.36823 -0.67676,-0.51752 z"
       id="path850" />
    <path
       style="fill:#728a41;fill-opacity:1;fill-rule:evenodd;stroke:none;stroke-width:0.264583"
       d="m 139.62137,177.20062 0.24881,-0.25875 c 0.24881,0.2488 0.46776,0.51751 0.63695,0.82603 l -0.30852,0.17914 -0.30852,0.17915 c -0.14929,-0.24881 -0.31848,-0.47771 -0.52747,-0.67676 z"
       id="path852" />
    <path
       style="fill:#728a41;fill-opacity:1;fill-rule:evenodd;stroke:none;stroke-width:0.264583"
       d="m 140.19861,177.94704 0.30852,-0.17914 c 0.17914,0.29857 0.30852,0.627 0.39809,0.96537 l -0.33838,0.0896 -0.34833,0.0995 c -0.0796,-0.27866 -0.18909,-0.54737 -0.32842,-0.79618 z"
       id="path854" />
    <path
       style="fill:#728a41;fill-opacity:1;fill-rule:evenodd;stroke:none;stroke-width:0.264583"
       d="m 140.56684,178.82284 0.33838,-0.0896 c 0.0896,0.33838 0.13933,0.68671 0.13933,1.03504 h -0.35828 -0.35829 c 0,-0.28861 -0.0398,-0.57723 -0.10947,-0.84594 z"
       id="path856" />
    <path
       style="fill:#728a41;fill-opacity:1;fill-rule:evenodd;stroke:none;stroke-width:0.264583"
       d="m 140.32798,179.76831 h 0.35829 0.35828 v 14.52036 h -0.35828 -0.35829 z"
       id="path858" />
    <path
       style="fill:#728a41;fill-opacity:1;fill-rule:evenodd;stroke:none;stroke-width:0.264583"
       d="m 140.68627,194.28867 h 0.35828 c 0,0.34833 -0.0498,0.69666 -0.13933,1.03504 l -0.33838,-0.0995 -0.34833,-0.0896 c 0.0697,-0.27867 0.10947,-0.55733 0.10947,-0.84595 z"
       id="path860" />
    <path
       style="fill:#728a41;fill-opacity:1;fill-rule:evenodd;stroke:none;stroke-width:0.264583"
       d="m 140.56684,195.22418 0.33838,0.0995 c -0.0896,0.32843 -0.21895,0.65685 -0.39809,0.95542 l -0.30852,-0.17914 -0.30852,-0.17914 c 0.13933,-0.24881 0.2488,-0.51752 0.32842,-0.78623 z"
       id="path862" />
    <path
       style="fill:#728a41;fill-opacity:1;fill-rule:evenodd;stroke:none;stroke-width:0.264583"
       d="m 140.19861,196.09998 0.30852,0.17914 c -0.16919,0.29857 -0.38814,0.57723 -0.627,0.82604 l -0.25876,-0.24881 -0.2488,-0.25875 c 0.19904,-0.19905 0.36823,-0.42795 0.51752,-0.67676 z"
       id="path864" />
    <path
       style="fill:#728a41;fill-opacity:1;fill-rule:evenodd;stroke:none;stroke-width:0.264583"
       d="m 139.62137,196.85635 0.25876,0.24881 c -0.2488,0.24881 -0.51751,0.46776 -0.82603,0.63695 l -0.17915,-0.30852 -0.17914,-0.30852 c 0.24881,-0.14929 0.47771,-0.31848 0.67676,-0.52747 z"
       id="path866" />
    <path
       style="fill:#728a41;fill-opacity:1;fill-rule:evenodd;stroke:none;stroke-width:0.264583"
       d="m 138.87495,197.43359 0.17915,0.30852 c -0.29857,0.17914 -0.627,0.30852 -0.96538,0.39809 l -0.0896,-0.33838 -0.0995,-0.34833 c 0.27867,-0.0796 0.54738,-0.18909 0.79618,-0.32842 z"
       id="path868" />
    <path
       style="fill:#728a41;fill-opacity:1;fill-rule:evenodd;stroke:none;stroke-width:0.264583"
       d="m 137.99915,197.80182 0.0896,0.33838 c -0.33837,0.0896 -0.6867,0.13933 -1.03503,0.13933 v -0.35828 -0.35828 c 0.28861,0 0.57723,-0.0398 0.84594,-0.10948 z"
       id="path870" />
    <path
       style="fill:#728a41;fill-opacity:1;fill-rule:evenodd;stroke:none;stroke-width:0.264583"
       d="m 137.05369,197.56297 v 0.35828 0.35828 H 84.246948 v -0.35828 -0.35828 z"
       id="path872" />
    <path
       style="fill:#728a41;fill-opacity:1;fill-rule:evenodd;stroke:none;stroke-width:0.264583"
       d="m 84.246948,197.92125 v 0.35828 c -0.348333,0 -0.696662,-0.0498 -1.035041,-0.13933 l 0.09952,-0.33838 0.08957,-0.34833 c 0.278661,0.0697 0.557326,0.10948 0.845941,0.10948 z"
       id="path874" />
    <path
       style="fill:#728a41;fill-opacity:1;fill-rule:evenodd;stroke:none;stroke-width:0.264583"
       d="m 83.311431,197.80182 -0.09952,0.33838 c -0.328428,-0.0896 -0.656853,-0.21895 -0.955419,-0.39809 l 0.179139,-0.30852 0.179141,-0.30852 c 0.248806,0.13933 0.517517,0.2488 0.786231,0.32842 z"
       id="path876" />
    <path
       style="fill:#728a41;fill-opacity:1;fill-rule:evenodd;stroke:none;stroke-width:0.264583"
       d="m 82.435631,197.43359 -0.179139,0.30852 c -0.298569,-0.16919 -0.577234,-0.38814 -0.82604,-0.627 l 0.248806,-0.25876 0.25876,-0.2488 c 0.199046,0.19904 0.427948,0.36823 0.676754,0.51752 z"
       id="path878" />
    <path
       style="fill:#728a41;fill-opacity:1;fill-rule:evenodd;stroke:none;stroke-width:0.264583"
       d="m 81.679258,196.85635 -0.248806,0.25876 c -0.248806,-0.2488 -0.467757,-0.51751 -0.636945,-0.82603 l 0.30852,-0.17914 0.30852,-0.17915 c 0.149284,0.24881 0.318474,0.47771 0.527471,0.67676 z"
       id="path880" />
    <path
       style="fill:#728a41;fill-opacity:1;fill-rule:evenodd;stroke:none;stroke-width:0.264583"
       d="m 81.102027,196.10994 -0.30852,0.17914 c -0.179141,-0.29857 -0.30852,-0.627 -0.398092,-0.96537 l 0.338379,-0.0896 0.348329,-0.0995 c 0.07962,0.27866 0.189092,0.54737 0.328424,0.79618 z"
       id="path882" />
    <path
       style="fill:#728a41;fill-opacity:1;fill-rule:evenodd;stroke:none;stroke-width:0.264583"
       d="m 80.733794,195.23414 -0.338379,0.0896 c -0.08957,-0.33838 -0.139329,-0.68671 -0.139329,-1.03504 h 0.35828 0.358283 c 0,0.28862 0.03981,0.57723 0.109474,0.84594 z"
       id="path884" />
    <path
       style="fill:#728a41;fill-opacity:1;fill-rule:evenodd;stroke:none;stroke-width:0.264583"
       d="m 80.256086,194.28867 c 0,0 0,0 0,0 h 0.35828 z"
       id="path886" />
    <path
       style="fill:#728a41;fill-opacity:1;fill-rule:evenodd;stroke:none;stroke-width:0.264583"
       d="m 80.972649,194.28867 h -0.358283 -0.35828 l 0.01,-14.53031 h 0.358283 0.35828 z"
       id="path888" />
    <text
       xml:space="preserve"
       style="font-style:normal;font-variant:normal;font-weight:400;font-size:6.31693px;line-height:125%;font-family:Calibri;text-align:start;letter-spacing:0px;word-spacing:0px;text-anchor:start;fill:#000000;fill-opacity:1;stroke:none;stroke-width:0.264583"
       x="86.973869"
       y="189.55139"
       id="text894"><tspan
         sodipodi:role="line"
         x="86.973869"
         y="189.55139"
         id="tspan892"
         style="stroke-width:0.264583"><tspan
           dx="0"
           dy="0"
           style="font-style:normal;font-variant:normal;font-weight:400;font-size:6.31693px;font-family:Calibri;fill:#ffffff;stroke-width:0.264583"
           id="tspan890">Développeur privé</tspan></tspan></text>
    <path
       style="fill:#77933c;fill-opacity:1;fill-rule:evenodd;stroke:none;stroke-width:0.264583"
       d="m 165.49727,179.75836 v 0 c 0,-0.63695 0.16919,-1.26394 0.48766,-1.81132 0.31848,-0.55732 0.77628,-1.01513 1.32366,-1.3336 0.55733,-0.31847 1.18432,-0.48766 1.82126,-0.48766 l 52.79679,0.01 v 0 c 0.63695,0 1.26394,0.16919 1.81131,0.48766 0.55733,0.31847 1.01514,0.77628 1.33361,1.32365 0.31847,0.55733 0.48766,1.18432 0.48766,1.82127 v 0 14.52036 0 c 0,0.63695 -0.16919,1.26394 -0.48766,1.81131 -0.31847,0.55733 -0.77628,1.01513 -1.32365,1.33361 -0.55733,0.31847 -1.18432,0.48766 -1.82127,0.48766 H 169.1199 v 0 c -0.63694,0 -1.26394,-0.16919 -1.81131,-0.48766 -0.55733,-0.31848 -1.01514,-0.77628 -1.33361,-1.32365 -0.31847,-0.55733 -0.48766,-1.18432 -0.48766,-1.82127 z"
       id="path896" />
    <path
       style="fill:#728a41;fill-opacity:1;fill-rule:evenodd;stroke:none;stroke-width:0.264583"
       d="m 165.85556,179.75836 c 0,0 0,0 0,0 h -0.35829 z"
       id="path898" />
    <path
       style="fill:#728a41;fill-opacity:1;fill-rule:evenodd;stroke:none;stroke-width:0.264583"
       d="m 165.49727,179.75836 h -0.35828 c 0,-0.34833 0.0498,-0.69666 0.13934,-1.03504 l 0.33837,0.0995 0.34833,0.0896 c -0.0697,0.27867 -0.10947,0.55733 -0.10947,0.84595 z"
       id="path900" />
    <path
       style="fill:#728a41;fill-opacity:1;fill-rule:evenodd;stroke:none;stroke-width:0.264583"
       d="m 165.6167,178.82284 -0.33837,-0.0995 c 0.0896,-0.32842 0.21894,-0.65684 0.39808,-0.95541 l 0.30852,0.17914 0.30852,0.17914 c -0.13932,0.24881 -0.2488,0.51752 -0.32842,0.78623 z"
       id="path902" />
    <path
       style="fill:#728a41;fill-opacity:1;fill-rule:evenodd;stroke:none;stroke-width:0.264583"
       d="m 165.98493,177.94704 -0.30852,-0.17914 c 0.1692,-0.29857 0.38814,-0.57723 0.627,-0.82603 l 0.25876,0.2488 0.2488,0.25876 c -0.19904,0.19905 -0.36823,0.42795 -0.51752,0.67676 z"
       id="path904" />
    <path
       style="fill:#728a41;fill-opacity:1;fill-rule:evenodd;stroke:none;stroke-width:0.264583"
       d="m 166.56217,177.19067 -0.25876,-0.2488 c 0.2488,-0.24881 0.51752,-0.46776 0.82604,-0.63695 l 0.17914,0.30852 0.17914,0.30852 c -0.24881,0.14928 -0.47771,0.31847 -0.67676,0.52747 z"
       id="path906" />
    <path
       style="fill:#728a41;fill-opacity:1;fill-rule:evenodd;stroke:none;stroke-width:0.264583"
       d="m 167.30859,176.61344 -0.17914,-0.30852 c 0.29856,-0.17914 0.62699,-0.30852 0.96537,-0.39809 l 0.0896,0.33837 0.0995,0.34834 c -0.27866,0.0796 -0.54738,0.18909 -0.79618,0.32842 z"
       id="path908" />
    <path
       style="fill:#728a41;fill-opacity:1;fill-rule:evenodd;stroke:none;stroke-width:0.264583"
       d="m 168.18439,176.2452 -0.0896,-0.33837 c 0.33837,-0.0896 0.6867,-0.13933 1.03503,-0.13933 v 0.35828 0.35828 c -0.28861,0 -0.57723,0.0398 -0.84594,0.10948 z"
       id="path910" />
    <path
       style="fill:#728a41;fill-opacity:1;fill-rule:evenodd;stroke:none;stroke-width:0.264583"
       d="m 169.12985,175.7675 c 0,0 0,0 0,0 v 0.35828 z"
       id="path912" />
    <path
       style="fill:#728a41;fill-opacity:1;fill-rule:evenodd;stroke:none;stroke-width:0.264583"
       d="m 169.12985,176.48406 v -0.35828 -0.35828 l 52.79679,0.01 v 0.35828 0.35828 z"
       id="path914" />
    <path
       style="fill:#728a41;fill-opacity:1;fill-rule:evenodd;stroke:none;stroke-width:0.264583"
       d="m 221.92664,176.49401 c 0,0 0,0 0,0 v -0.35828 z"
       id="path916" />
    <path
       style="fill:#728a41;fill-opacity:1;fill-rule:evenodd;stroke:none;stroke-width:0.264583"
       d="m 221.92664,176.13573 v -0.35828 c 0.34833,0 0.69666,0.0498 1.03504,0.13933 l -0.0995,0.33838 -0.0896,0.34833 c -0.27867,-0.0697 -0.55733,-0.10948 -0.84595,-0.10948 z"
       id="path918" />
    <path
       style="fill:#728a41;fill-opacity:1;fill-rule:evenodd;stroke:none;stroke-width:0.264583"
       d="m 222.86215,176.25516 0.0995,-0.33838 c 0.32842,0.0896 0.65685,0.21895 0.95542,0.39809 l -0.17915,0.30852 -0.17913,0.30852 c -0.24881,-0.13933 -0.51752,-0.2488 -0.78623,-0.32842 z"
       id="path920" />
    <path
       style="fill:#728a41;fill-opacity:1;fill-rule:evenodd;stroke:none;stroke-width:0.264583"
       d="m 223.73795,176.62339 0.17915,-0.30852 c 0.29857,0.16919 0.57723,0.38814 0.82604,0.627 l -0.24881,0.25875 -0.25876,0.24881 c -0.19905,-0.19904 -0.42795,-0.36823 -0.67675,-0.51752 z"
       id="path922" />
    <path
       style="fill:#728a41;fill-opacity:1;fill-rule:evenodd;stroke:none;stroke-width:0.264583"
       d="m 224.49433,177.20062 0.24881,-0.25875 c 0.2488,0.2488 0.46775,0.51751 0.63694,0.82603 l -0.30852,0.17914 -0.30852,0.17915 c -0.14929,-0.24881 -0.31847,-0.47771 -0.52747,-0.67676 z"
       id="path924" />
    <path
       style="fill:#728a41;fill-opacity:1;fill-rule:evenodd;stroke:none;stroke-width:0.264583"
       d="m 225.07156,177.94704 0.30852,-0.17914 c 0.17914,0.29857 0.30852,0.627 0.39809,0.96537 l -0.33838,0.0896 -0.34833,0.0995 c -0.0796,-0.27866 -0.18909,-0.54737 -0.32842,-0.79618 z"
       id="path926" />
    <path
       style="fill:#728a41;fill-opacity:1;fill-rule:evenodd;stroke:none;stroke-width:0.264583"
       d="m 225.43979,178.82284 0.33838,-0.0896 c 0.0896,0.33838 0.13933,0.68671 0.13933,1.03504 h -0.35828 -0.35828 c 0,-0.28861 -0.0398,-0.57723 -0.10948,-0.84594 z"
       id="path928" />
    <path
       style="fill:#728a41;fill-opacity:1;fill-rule:evenodd;stroke:none;stroke-width:0.264583"
       d="m 225.20094,179.76831 h 0.35828 0.35828 v 14.52036 h -0.35828 -0.35828 z"
       id="path930" />
    <path
       style="fill:#728a41;fill-opacity:1;fill-rule:evenodd;stroke:none;stroke-width:0.264583"
       d="m 225.55922,194.28867 h 0.35828 c 0,0.34833 -0.0498,0.69666 -0.13933,1.03504 l -0.33838,-0.0995 -0.34833,-0.0896 c 0.0697,-0.27867 0.10948,-0.55733 0.10948,-0.84595 z"
       id="path932" />
    <path
       style="fill:#728a41;fill-opacity:1;fill-rule:evenodd;stroke:none;stroke-width:0.264583"
       d="m 225.43979,195.22418 0.33838,0.0995 c -0.0896,0.32843 -0.21895,0.65685 -0.39809,0.95542 l -0.30852,-0.17914 -0.30852,-0.17914 c 0.13933,-0.24881 0.24881,-0.51752 0.32842,-0.78623 z"
       id="path934" />
    <path
       style="fill:#728a41;fill-opacity:1;fill-rule:evenodd;stroke:none;stroke-width:0.264583"
       d="m 225.07156,196.09998 0.30852,0.17914 c -0.16919,0.29857 -0.38814,0.57723 -0.62699,0.82604 l -0.25876,-0.24881 -0.24881,-0.25875 c 0.19905,-0.19905 0.36823,-0.42795 0.51752,-0.67676 z"
       id="path936" />
    <path
       style="fill:#728a41;fill-opacity:1;fill-rule:evenodd;stroke:none;stroke-width:0.264583"
       d="m 224.49433,196.85635 0.25876,0.24881 c -0.24881,0.24881 -0.51752,0.46776 -0.82604,0.63695 l -0.17914,-0.30852 -0.17914,-0.30852 c 0.2488,-0.14929 0.4777,-0.31848 0.67675,-0.52747 z"
       id="path938" />
    <path
       style="fill:#728a41;fill-opacity:1;fill-rule:evenodd;stroke:none;stroke-width:0.264583"
       d="m 223.74791,197.43359 0.17914,0.30852 c -0.29857,0.17914 -0.62699,0.30852 -0.96537,0.39809 l -0.0896,-0.33838 -0.0995,-0.34833 c 0.27866,-0.0796 0.54737,-0.18909 0.79618,-0.32842 z"
       id="path940" />
    <path
       style="fill:#728a41;fill-opacity:1;fill-rule:evenodd;stroke:none;stroke-width:0.264583"
       d="m 222.87211,197.80182 0.0896,0.33838 c -0.33838,0.0896 -0.68671,0.13933 -1.03504,0.13933 v -0.35828 -0.35828 c 0.28862,0 0.57723,-0.0398 0.84595,-0.10948 z"
       id="path942" />
    <path
       style="fill:#728a41;fill-opacity:1;fill-rule:evenodd;stroke:none;stroke-width:0.264583"
       d="m 221.92664,197.56297 v 0.35828 0.35828 H 169.1199 v -0.35828 -0.35828 z"
       id="path944" />
    <path
       style="fill:#728a41;fill-opacity:1;fill-rule:evenodd;stroke:none;stroke-width:0.264583"
       d="m 169.1199,197.92125 v 0.35828 c -0.34833,0 -0.69666,-0.0498 -1.03504,-0.13933 l 0.0995,-0.33838 0.0896,-0.34833 c 0.27866,0.0697 0.55733,0.10948 0.84594,0.10948 z"
       id="path946" />
    <path
       style="fill:#728a41;fill-opacity:1;fill-rule:evenodd;stroke:none;stroke-width:0.264583"
       d="m 168.18439,197.80182 -0.0995,0.33838 c -0.32842,-0.0896 -0.65685,-0.21895 -0.95541,-0.39809 l 0.17914,-0.30852 0.17914,-0.30852 c 0.2488,0.13933 0.51752,0.2488 0.78623,0.32842 z"
       id="path948" />
    <path
       style="fill:#728a41;fill-opacity:1;fill-rule:evenodd;stroke:none;stroke-width:0.264583"
       d="m 167.30859,197.43359 -0.17914,0.30852 c -0.29857,-0.16919 -0.57724,-0.38814 -0.82604,-0.627 l 0.2488,-0.25876 0.25876,-0.2488 c 0.19905,0.19904 0.42795,0.36823 0.67676,0.51752 z"
       id="path950" />
    <path
       style="fill:#728a41;fill-opacity:1;fill-rule:evenodd;stroke:none;stroke-width:0.264583"
       d="m 166.55221,196.85635 -0.2488,0.25876 c -0.24881,-0.2488 -0.46776,-0.51751 -0.63695,-0.82603 l 0.30852,-0.17914 0.30852,-0.17915 c 0.14929,0.24881 0.31848,0.47771 0.52747,0.67676 z"
       id="path952" />
    <path
       style="fill:#728a41;fill-opacity:1;fill-rule:evenodd;stroke:none;stroke-width:0.264583"
       d="m 165.97498,196.10994 -0.30852,0.17914 c -0.17914,-0.29857 -0.30852,-0.627 -0.39809,-0.96537 l 0.33838,-0.0896 0.34833,-0.0995 c 0.0796,0.27866 0.18909,0.54737 0.32842,0.79618 z"
       id="path954" />
    <path
       style="fill:#728a41;fill-opacity:1;fill-rule:evenodd;stroke:none;stroke-width:0.264583"
       d="m 165.60675,195.23414 -0.33838,0.0896 c -0.0896,-0.33838 -0.13933,-0.68671 -0.13933,-1.03504 h 0.35828 0.35829 c 0,0.28862 0.0398,0.57723 0.10947,0.84594 z"
       id="path956" />
    <path
       style="fill:#728a41;fill-opacity:1;fill-rule:evenodd;stroke:none;stroke-width:0.264583"
       d="m 165.12904,194.28867 c 0,0 0,0 0,0 h 0.35828 z"
       id="path958" />
    <path
       style="fill:#728a41;fill-opacity:1;fill-rule:evenodd;stroke:none;stroke-width:0.264583"
       d="m 165.84561,194.28867 h -0.35829 -0.35828 l 0.01,-14.53031 h 0.35828 0.35829 z"
       id="path960" />
    <text
       xml:space="preserve"
       style="font-style:normal;font-variant:normal;font-weight:400;font-size:6.31693px;line-height:125%;font-family:Calibri;text-align:start;letter-spacing:0px;word-spacing:0px;text-anchor:start;fill:#000000;fill-opacity:1;stroke:none;stroke-width:0.264583"
       x="171.84682"
       y="189.55139"
       id="text966"><tspan
         sodipodi:role="line"
         x="171.84682"
         y="189.55139"
         id="tspan964"
         style="stroke-width:0.264583"><tspan
           dx="0"
           dy="0"
           style="font-style:normal;font-variant:normal;font-weight:400;font-size:6.31693px;font-family:Calibri;fill:#ffffff;stroke-width:0.264583"
           id="tspan962">Développeur privé</tspan></tspan></text>
    <path
       style="fill:#c3d69b;fill-opacity:1;fill-rule:evenodd;stroke:none;stroke-width:0.264583"
       d="m 80.62432,103.06617 v 0 c 0,-0.63695 0.169187,-1.26394 0.487658,-1.81131 0.318474,-0.55733 0.776277,-1.01514 1.323653,-1.333609 0.557328,-0.318472 1.18432,-0.487661 1.821267,-0.487661 l 52.796792,0.01 v 0 c 0.63694,0 1.26394,0.169189 1.81131,0.487661 0.55733,0.318479 1.01513,0.776279 1.33361,1.323659 0.31847,0.55732 0.48766,1.18432 0.48766,1.82126 v 0 14.52036 0 c 0,0.63695 -0.16919,1.26394 -0.48766,1.81131 -0.31848,0.55733 -0.77628,1.01514 -1.32366,1.33361 -0.55732,0.31847 -1.18432,0.48766 -1.82126,0.48766 H 84.246948 v 0 c -0.636948,0 -1.263942,-0.16919 -1.811317,-0.48766 -0.557327,-0.31847 -1.01513,-0.77628 -1.333604,-1.32365 -0.318473,-0.55733 -0.487661,-1.18432 -0.487661,-1.82127 z"
       id="path968" />
    <path
       style="fill:#728a41;fill-opacity:1;fill-rule:evenodd;stroke:none;stroke-width:0.264583"
       d="m 80.9826,103.06617 c 0,0 0,0 0,0 h -0.35828 z"
       id="path970" />
    <path
       style="fill:#728a41;fill-opacity:1;fill-rule:evenodd;stroke:none;stroke-width:0.264583"
       d="m 80.62432,103.06617 h -0.358283 c 0,-0.34833 0.04976,-0.69666 0.139332,-1.03504 l 0.338376,0.0995 0.348329,0.0896 c -0.06967,0.27866 -0.109474,0.55732 -0.109474,0.84594 z"
       id="path972" />
    <path
       style="fill:#728a41;fill-opacity:1;fill-rule:evenodd;stroke:none;stroke-width:0.264583"
       d="m 80.743745,102.13066 -0.338376,-0.0995 c 0.08957,-0.32842 0.218951,-0.65685 0.398089,-0.95542 l 0.30852,0.17915 0.308523,0.17914 c -0.139332,0.2488 -0.248809,0.51751 -0.328427,0.78623 z"
       id="path974" />
    <path
       style="fill:#728a41;fill-opacity:1;fill-rule:evenodd;stroke:none;stroke-width:0.264583"
       d="m 81.111978,101.25486 -0.30852,-0.17915 c 0.169191,-0.29856 0.388139,-0.57723 0.626994,-0.82603 l 0.25876,0.2488 0.248806,0.25876 c -0.199046,0.19905 -0.368234,0.42795 -0.517517,0.67676 z"
       id="path976" />
    <path
       style="fill:#728a41;fill-opacity:1;fill-rule:evenodd;stroke:none;stroke-width:0.264583"
       d="m 81.689212,100.49848 -0.25876,-0.2488 c 0.248806,-0.24881 0.517517,-0.46776 0.82604,-0.636949 l 0.179139,0.30852 0.179141,0.308519 c -0.248806,0.14929 -0.477708,0.31847 -0.676754,0.52747 z"
       id="path978" />
    <path
       style="fill:#728a41;fill-opacity:1;fill-rule:evenodd;stroke:none;stroke-width:0.264583"
       d="m 82.435631,99.921251 -0.179139,-0.30852 c 0.298566,-0.179141 0.626991,-0.30852 0.965369,-0.398091 l 0.08957,0.338377 0.09952,0.34833 c -0.278662,0.07962 -0.547373,0.189093 -0.796179,0.328423 z"
       id="path980" />
    <path
       style="fill:#728a41;fill-opacity:1;fill-rule:evenodd;stroke:none;stroke-width:0.264583"
       d="m 83.311431,99.553017 -0.08957,-0.338377 c 0.338376,-0.08957 0.686705,-0.139332 1.035037,-0.139332 v 0.358282 0.358282 c -0.288618,0 -0.577234,0.03981 -0.845944,0.109475 z"
       id="path982" />
    <path
       style="fill:#728a41;fill-opacity:1;fill-rule:evenodd;stroke:none;stroke-width:0.264583"
       d="m 84.256898,99.075308 c 0,0 0,0 0,0 v 0.358282 z"
       id="path984" />
    <path
       style="fill:#728a41;fill-opacity:1;fill-rule:evenodd;stroke:none;stroke-width:0.264583"
       d="M 84.256898,99.791872 V 99.43359 99.075308 l 52.796792,0.01 v 0.358281 0.358282 z"
       id="path986" />
    <path
       style="fill:#728a41;fill-opacity:1;fill-rule:evenodd;stroke:none;stroke-width:0.264583"
       d="m 137.05369,99.801824 c 0,0 0,0 0,0 v -0.358282 z"
       id="path988" />
    <path
       style="fill:#728a41;fill-opacity:1;fill-rule:evenodd;stroke:none;stroke-width:0.264583"
       d="m 137.05369,99.443542 v -0.358281 c 0.34833,0 0.69666,0.04976 1.03503,0.139331 l -0.0995,0.338378 -0.0896,0.348329 c -0.27866,-0.06967 -0.55733,-0.109475 -0.84594,-0.109475 z"
       id="path990" />
    <path
       style="fill:#728a41;fill-opacity:1;fill-rule:evenodd;stroke:none;stroke-width:0.264583"
       d="m 137.9892,99.56297 0.0995,-0.338378 c 0.32843,0.08957 0.65686,0.21895 0.95542,0.398091 l -0.17914,0.308521 -0.17914,0.308516 c -0.24881,-0.13933 -0.51752,-0.248803 -0.78623,-0.328421 z"
       id="path992" />
    <path
       style="fill:#728a41;fill-opacity:1;fill-rule:evenodd;stroke:none;stroke-width:0.264583"
       d="m 138.865,99.931204 0.17914,-0.308521 c 0.29857,0.169189 0.57723,0.388137 0.82604,0.626997 l -0.24881,0.25876 -0.25875,0.2488 c -0.19905,-0.19904 -0.42795,-0.36823 -0.67676,-0.51752 z"
       id="path994" />
    <path
       style="fill:#728a41;fill-opacity:1;fill-rule:evenodd;stroke:none;stroke-width:0.264583"
       d="m 139.62137,100.50844 0.24881,-0.25876 c 0.24881,0.2488 0.46776,0.51751 0.63695,0.82603 l -0.30852,0.17915 -0.30852,0.17914 c -0.14929,-0.24881 -0.31848,-0.47771 -0.52747,-0.67676 z"
       id="path996" />
    <path
       style="fill:#728a41;fill-opacity:1;fill-rule:evenodd;stroke:none;stroke-width:0.264583"
       d="m 140.19861,101.25486 0.30852,-0.17915 c 0.17914,0.29857 0.30852,0.627 0.39809,0.96537 l -0.33838,0.0896 -0.34833,0.0995 c -0.0796,-0.27867 -0.18909,-0.54738 -0.32842,-0.79618 z"
       id="path998" />
    <path
       style="fill:#728a41;fill-opacity:1;fill-rule:evenodd;stroke:none;stroke-width:0.264583"
       d="m 140.56684,102.13066 0.33838,-0.0896 c 0.0896,0.33837 0.13933,0.6867 0.13933,1.03503 h -0.35828 -0.35829 c 0,-0.28861 -0.0398,-0.57723 -0.10947,-0.84594 z"
       id="path1000" />
    <path
       style="fill:#728a41;fill-opacity:1;fill-rule:evenodd;stroke:none;stroke-width:0.264583"
       d="m 140.32798,103.07612 h 0.35829 0.35828 v 14.52036 h -0.35828 -0.35829 z"
       id="path1002" />
    <path
       style="fill:#728a41;fill-opacity:1;fill-rule:evenodd;stroke:none;stroke-width:0.264583"
       d="m 140.68627,117.59648 h 0.35828 c 0,0.34833 -0.0498,0.69666 -0.13933,1.03504 l -0.33838,-0.0995 -0.34833,-0.0896 c 0.0697,-0.27866 0.10947,-0.55733 0.10947,-0.84594 z"
       id="path1004" />
    <path
       style="fill:#728a41;fill-opacity:1;fill-rule:evenodd;stroke:none;stroke-width:0.264583"
       d="m 140.56684,118.532 0.33838,0.0995 c -0.0896,0.32842 -0.21895,0.65684 -0.39809,0.95541 l -0.30852,-0.17914 -0.30852,-0.17914 c 0.13933,-0.24881 0.2488,-0.50756 0.32842,-0.78623 z"
       id="path1006" />
    <path
       style="fill:#728a41;fill-opacity:1;fill-rule:evenodd;stroke:none;stroke-width:0.264583"
       d="m 139.89009,119.22865 c 0,0 0,0 0,0 0,0 0,0 0,0 l 0.30852,0.17914 z"
       id="path1008" />
    <path
       style="fill:#728a41;fill-opacity:1;fill-rule:evenodd;stroke:none;stroke-width:0.264583"
       d="m 140.19861,119.40779 0.30852,0.17915 c -0.16919,0.30852 -0.38814,0.58718 -0.627,0.82603 l -0.25876,-0.2488 -0.2488,-0.24881 c 0.19904,-0.209 0.36823,-0.4379 0.51752,-0.68671 z"
       id="path1010" />
    <path
       style="fill:#728a41;fill-opacity:1;fill-rule:evenodd;stroke:none;stroke-width:0.264583"
       d="m 139.62137,120.16417 0.25876,0.2488 c -0.2488,0.24881 -0.51751,0.46776 -0.82603,0.63695 l -0.17915,-0.30852 -0.17914,-0.30852 c 0.24881,-0.14929 0.47771,-0.31847 0.67676,-0.51752 z"
       id="path1012" />
    <path
       style="fill:#728a41;fill-opacity:1;fill-rule:evenodd;stroke:none;stroke-width:0.264583"
       d="m 138.87495,120.7414 0.17915,0.30852 c -0.29857,0.17914 -0.627,0.30852 -0.96538,0.39809 l -0.0896,-0.33838 -0.0995,-0.34833 c 0.27867,-0.0796 0.54738,-0.18909 0.79618,-0.32842 z"
       id="path1014" />
    <path
       style="fill:#728a41;fill-opacity:1;fill-rule:evenodd;stroke:none;stroke-width:0.264583"
       d="m 137.99915,121.10963 0.0896,0.33838 c -0.33837,0.0896 -0.6867,0.13933 -1.03503,0.13933 v -0.35828 -0.35828 c 0.28861,0 0.57723,-0.0398 0.84594,-0.10948 z"
       id="path1016" />
    <path
       style="fill:#728a41;fill-opacity:1;fill-rule:evenodd;stroke:none;stroke-width:0.264583"
       d="m 137.05369,120.87078 v 0.35828 0.35828 H 84.246948 v -0.35828 -0.35828 z"
       id="path1018" />
    <path
       style="fill:#728a41;fill-opacity:1;fill-rule:evenodd;stroke:none;stroke-width:0.264583"
       d="m 84.246948,121.22906 v 0.35828 c -0.348333,0 -0.696662,-0.0498 -1.035041,-0.13933 l 0.09952,-0.33838 0.08957,-0.34833 c 0.278661,0.0697 0.557326,0.10948 0.845941,0.10948 z"
       id="path1020" />
    <path
       style="fill:#728a41;fill-opacity:1;fill-rule:evenodd;stroke:none;stroke-width:0.264583"
       d="m 83.311431,121.10963 -0.09952,0.33838 c -0.328424,-0.0896 -0.656849,-0.21895 -0.955415,-0.39809 l 0.179139,-0.30852 0.179141,-0.30852 c 0.248806,0.13933 0.517517,0.24881 0.786231,0.32842 z"
       id="path1022" />
    <path
       style="fill:#728a41;fill-opacity:1;fill-rule:evenodd;stroke:none;stroke-width:0.264583"
       d="m 82.435631,120.7414 -0.179139,0.30852 c -0.298569,-0.16919 -0.577234,-0.38814 -0.82604,-0.62699 l 0.248806,-0.25876 0.25876,-0.24881 c 0.199046,0.19905 0.427948,0.36823 0.676754,0.51752 z"
       id="path1024" />
    <path
       style="fill:#728a41;fill-opacity:1;fill-rule:evenodd;stroke:none;stroke-width:0.264583"
       d="m 81.679258,120.16417 -0.248806,0.25876 c -0.248806,-0.24881 -0.467757,-0.52747 -0.636945,-0.82604 l 0.30852,-0.17914 0.30852,-0.17914 c 0.149284,0.2488 0.318474,0.46775 0.527471,0.67675 z"
       id="path1026" />
    <path
       style="fill:#728a41;fill-opacity:1;fill-rule:evenodd;stroke:none;stroke-width:0.264583"
       d="m 80.793507,119.59689 c 0,0 0,0 0,0 0,0 0,0 0,0 l 0.30852,-0.17914 z"
       id="path1028" />
    <path
       style="fill:#728a41;fill-opacity:1;fill-rule:evenodd;stroke:none;stroke-width:0.264583"
       d="m 81.102027,119.41775 -0.30852,0.17914 c -0.179141,-0.30852 -0.30852,-0.62699 -0.398092,-0.96537 l 0.34833,-0.0896 0.338378,-0.0995 c 0.07962,0.27866 0.189092,0.54737 0.328424,0.79618 z"
       id="path1030" />
    <path
       style="fill:#728a41;fill-opacity:1;fill-rule:evenodd;stroke:none;stroke-width:0.264583"
       d="m 80.743745,118.54195 -0.34833,0.0896 c -0.08957,-0.33838 -0.139329,-0.68671 -0.139329,-1.03504 h 0.35828 0.358283 c 0,0.28862 0.03981,0.56728 0.109474,0.84594 z"
       id="path1032" />
    <path
       style="fill:#728a41;fill-opacity:1;fill-rule:evenodd;stroke:none;stroke-width:0.264583"
       d="m 80.256086,117.59648 c 0,0 0,0 0,0 h 0.35828 z"
       id="path1034" />
    <path
       style="fill:#728a41;fill-opacity:1;fill-rule:evenodd;stroke:none;stroke-width:0.264583"
       d="m 80.972649,117.59648 h -0.358283 -0.35828 l 0.01,-14.53031 h 0.358283 0.35828 z"
       id="path1036" />
    <text
       xml:space="preserve"
       style="font-style:normal;font-variant:normal;font-weight:400;font-size:6.31693px;line-height:125%;font-family:Calibri;text-align:start;letter-spacing:0px;word-spacing:0px;text-anchor:start;fill:#000000;fill-opacity:1;stroke:none;stroke-width:0.264583"
       x="85.67012"
       y="112.8592"
       id="text1042"><tspan
         sodipodi:role="line"
         x="85.67012"
         y="112.8592"
         id="tspan1040"
         style="stroke-width:0.264583"><tspan
           dx="0"
           dy="0"
           style="font-style:normal;font-variant:normal;font-weight:400;font-size:6.31693px;font-family:Calibri;fill:#ffffff;stroke-width:0.264583"
           id="tspan1038">Développeur public</tspan></tspan></text>
    <path
       style="fill:#c3d69b;fill-opacity:1;fill-rule:evenodd;stroke:none;stroke-width:0.264583"
       d="m 165.49727,103.06617 v 0 c 0,-0.63695 0.16919,-1.26394 0.48766,-1.81131 0.31848,-0.55733 0.77628,-1.01514 1.32366,-1.333609 0.55733,-0.318472 1.18432,-0.487661 1.82126,-0.487661 l 52.79679,0.01 v 0 c 0.63695,0 1.26394,0.169189 1.81131,0.487661 0.55733,0.318479 1.01514,0.776279 1.33361,1.323659 0.31847,0.55732 0.48766,1.18432 0.48766,1.82126 v 0 14.52036 0 c 0,0.63695 -0.16919,1.26394 -0.48766,1.81131 -0.31847,0.55733 -0.77628,1.01514 -1.32365,1.33361 -0.55733,0.31847 -1.18432,0.48766 -1.82127,0.48766 H 169.1199 v 0 c -0.63694,0 -1.26394,-0.16919 -1.81131,-0.48766 -0.55733,-0.31847 -1.01514,-0.77628 -1.33361,-1.32365 -0.31847,-0.55733 -0.48766,-1.18432 -0.48766,-1.82127 z"
       id="path1044" />
    <path
       style="fill:#728a41;fill-opacity:1;fill-rule:evenodd;stroke:none;stroke-width:0.264583"
       d="m 165.85556,103.06617 c 0,0 0,0 0,0 h -0.35829 z"
       id="path1046" />
    <path
       style="fill:#728a41;fill-opacity:1;fill-rule:evenodd;stroke:none;stroke-width:0.264583"
       d="m 165.49727,103.06617 h -0.35828 c 0,-0.34833 0.0498,-0.69666 0.13934,-1.03504 l 0.33837,0.0995 0.34833,0.0896 c -0.0697,0.27866 -0.10947,0.55732 -0.10947,0.84594 z"
       id="path1048" />
    <path
       style="fill:#728a41;fill-opacity:1;fill-rule:evenodd;stroke:none;stroke-width:0.264583"
       d="m 165.6167,102.13066 -0.33837,-0.0995 c 0.0896,-0.32842 0.21894,-0.65685 0.39808,-0.95542 l 0.30852,0.17915 0.30852,0.17914 c -0.13932,0.2488 -0.2488,0.51751 -0.32842,0.78623 z"
       id="path1050" />
    <path
       style="fill:#728a41;fill-opacity:1;fill-rule:evenodd;stroke:none;stroke-width:0.264583"
       d="m 165.98493,101.25486 -0.30852,-0.17915 c 0.1692,-0.29856 0.38814,-0.57723 0.627,-0.82603 l 0.25876,0.2488 0.2488,0.25876 c -0.19904,0.19905 -0.36823,0.42795 -0.51752,0.67676 z"
       id="path1052" />
    <path
       style="fill:#728a41;fill-opacity:1;fill-rule:evenodd;stroke:none;stroke-width:0.264583"
       d="m 166.56217,100.49848 -0.25876,-0.2488 c 0.2488,-0.24881 0.51752,-0.46776 0.82604,-0.636949 l 0.17914,0.30852 0.17914,0.308519 c -0.24881,0.14929 -0.47771,0.31847 -0.67676,0.52747 z"
       id="path1054" />
    <path
       style="fill:#728a41;fill-opacity:1;fill-rule:evenodd;stroke:none;stroke-width:0.264583"
       d="m 167.30859,99.921251 -0.17914,-0.30852 c 0.29856,-0.179141 0.62699,-0.30852 0.96537,-0.398091 l 0.0896,0.338377 0.0995,0.34833 c -0.27866,0.07962 -0.54738,0.189093 -0.79618,0.328423 z"
       id="path1056" />
    <path
       style="fill:#728a41;fill-opacity:1;fill-rule:evenodd;stroke:none;stroke-width:0.264583"
       d="m 168.18439,99.553017 -0.0896,-0.338377 c 0.33837,-0.08957 0.6867,-0.139332 1.03503,-0.139332 v 0.358282 0.358282 c -0.28861,0 -0.57723,0.03981 -0.84594,0.109475 z"
       id="path1058" />
    <path
       style="fill:#728a41;fill-opacity:1;fill-rule:evenodd;stroke:none;stroke-width:0.264583"
       d="m 169.12985,99.075308 c 0,0 0,0 0,0 v 0.358282 z"
       id="path1060" />
    <path
       style="fill:#728a41;fill-opacity:1;fill-rule:evenodd;stroke:none;stroke-width:0.264583"
       d="M 169.12985,99.791872 V 99.43359 99.075308 l 52.79679,0.01 v 0.358281 0.358282 z"
       id="path1062" />
    <path
       style="fill:#728a41;fill-opacity:1;fill-rule:evenodd;stroke:none;stroke-width:0.264583"
       d="m 221.92664,99.801824 c 0,0 0,0 0,0 v -0.358282 z"
       id="path1064" />
    <path
       style="fill:#728a41;fill-opacity:1;fill-rule:evenodd;stroke:none;stroke-width:0.264583"
       d="m 221.92664,99.443542 v -0.358281 c 0.34833,0 0.69666,0.04976 1.03504,0.139331 l -0.0995,0.338378 -0.0896,0.348329 c -0.27867,-0.06967 -0.55733,-0.109475 -0.84595,-0.109475 z"
       id="path1066" />
    <path
       style="fill:#728a41;fill-opacity:1;fill-rule:evenodd;stroke:none;stroke-width:0.264583"
       d="m 222.86215,99.56297 0.0995,-0.338378 c 0.32842,0.08957 0.65685,0.21895 0.95542,0.398091 l -0.17915,0.308521 -0.17913,0.308516 c -0.24881,-0.13933 -0.51752,-0.248803 -0.78623,-0.328421 z"
       id="path1068" />
    <path
       style="fill:#728a41;fill-opacity:1;fill-rule:evenodd;stroke:none;stroke-width:0.264583"
       d="m 223.73795,99.931204 0.17915,-0.308521 c 0.29857,0.169189 0.57723,0.388137 0.82604,0.626997 l -0.24881,0.25876 -0.25876,0.2488 c -0.19905,-0.19904 -0.42795,-0.36823 -0.67675,-0.51752 z"
       id="path1070" />
    <path
       style="fill:#728a41;fill-opacity:1;fill-rule:evenodd;stroke:none;stroke-width:0.264583"
       d="m 224.49433,100.50844 0.24881,-0.25876 c 0.2488,0.2488 0.46775,0.51751 0.63694,0.82603 l -0.30852,0.17915 -0.30852,0.17914 c -0.14929,-0.24881 -0.31847,-0.47771 -0.52747,-0.67676 z"
       id="path1072" />
    <path
       style="fill:#728a41;fill-opacity:1;fill-rule:evenodd;stroke:none;stroke-width:0.264583"
       d="m 225.07156,101.25486 0.30852,-0.17915 c 0.17914,0.29857 0.30852,0.627 0.39809,0.96537 l -0.33838,0.0896 -0.34833,0.0995 c -0.0796,-0.27867 -0.18909,-0.54738 -0.32842,-0.79618 z"
       id="path1074" />
    <path
       style="fill:#728a41;fill-opacity:1;fill-rule:evenodd;stroke:none;stroke-width:0.264583"
       d="m 225.43979,102.13066 0.33838,-0.0896 c 0.0896,0.33837 0.13933,0.6867 0.13933,1.03503 h -0.35828 -0.35828 c 0,-0.28861 -0.0398,-0.57723 -0.10948,-0.84594 z"
       id="path1076" />
    <path
       style="fill:#728a41;fill-opacity:1;fill-rule:evenodd;stroke:none;stroke-width:0.264583"
       d="m 225.20094,103.07612 h 0.35828 0.35828 v 14.52036 h -0.35828 -0.35828 z"
       id="path1078" />
    <path
       style="fill:#728a41;fill-opacity:1;fill-rule:evenodd;stroke:none;stroke-width:0.264583"
       d="m 225.55922,117.59648 h 0.35828 c 0,0.34833 -0.0498,0.69666 -0.13933,1.03504 l -0.33838,-0.0995 -0.34833,-0.0896 c 0.0697,-0.27866 0.10948,-0.55733 0.10948,-0.84594 z"
       id="path1080" />
    <path
       style="fill:#728a41;fill-opacity:1;fill-rule:evenodd;stroke:none;stroke-width:0.264583"
       d="m 225.43979,118.532 0.33838,0.0995 c -0.0896,0.32842 -0.21895,0.65684 -0.39809,0.95541 l -0.30852,-0.17914 -0.30852,-0.17914 c 0.13933,-0.24881 0.24881,-0.50756 0.32842,-0.78623 z"
       id="path1082" />
    <path
       style="fill:#728a41;fill-opacity:1;fill-rule:evenodd;stroke:none;stroke-width:0.264583"
       d="m 224.76304,119.22865 c 0,0 0,0 0,0 0,0 0,0 0,0 l 0.30852,0.17914 z"
       id="path1084" />
    <path
       style="fill:#728a41;fill-opacity:1;fill-rule:evenodd;stroke:none;stroke-width:0.264583"
       d="m 225.07156,119.40779 0.30852,0.17915 c -0.16919,0.30852 -0.38814,0.58718 -0.62699,0.82603 l -0.25876,-0.2488 -0.24881,-0.24881 c 0.19905,-0.209 0.36823,-0.4379 0.51752,-0.68671 z"
       id="path1086" />
    <path
       style="fill:#728a41;fill-opacity:1;fill-rule:evenodd;stroke:none;stroke-width:0.264583"
       d="m 224.49433,120.16417 0.25876,0.2488 c -0.24881,0.24881 -0.51752,0.46776 -0.82604,0.63695 l -0.17914,-0.30852 -0.17914,-0.30852 c 0.2488,-0.14929 0.4777,-0.31847 0.67675,-0.51752 z"
       id="path1088" />
    <path
       style="fill:#728a41;fill-opacity:1;fill-rule:evenodd;stroke:none;stroke-width:0.264583"
       d="m 223.74791,120.7414 0.17914,0.30852 c -0.29857,0.17914 -0.62699,0.30852 -0.96537,0.39809 l -0.0896,-0.33838 -0.0995,-0.34833 c 0.27866,-0.0796 0.54737,-0.18909 0.79618,-0.32842 z"
       id="path1090" />
    <path
       style="fill:#728a41;fill-opacity:1;fill-rule:evenodd;stroke:none;stroke-width:0.264583"
       d="m 222.87211,121.10963 0.0896,0.33838 c -0.33838,0.0896 -0.68671,0.13933 -1.03504,0.13933 v -0.35828 -0.35828 c 0.28862,0 0.57723,-0.0398 0.84595,-0.10948 z"
       id="path1092" />
    <path
       style="fill:#728a41;fill-opacity:1;fill-rule:evenodd;stroke:none;stroke-width:0.264583"
       d="m 221.92664,120.87078 v 0.35828 0.35828 H 169.1199 v -0.35828 -0.35828 z"
       id="path1094" />
    <path
       style="fill:#728a41;fill-opacity:1;fill-rule:evenodd;stroke:none;stroke-width:0.264583"
       d="m 169.1199,121.22906 v 0.35828 c -0.34833,0 -0.69666,-0.0498 -1.03504,-0.13933 l 0.0995,-0.33838 0.0896,-0.34833 c 0.27866,0.0697 0.55733,0.10948 0.84594,0.10948 z"
       id="path1096" />
    <path
       style="fill:#728a41;fill-opacity:1;fill-rule:evenodd;stroke:none;stroke-width:0.264583"
       d="m 168.18439,121.10963 -0.0995,0.33838 c -0.32842,-0.0896 -0.65685,-0.21895 -0.95541,-0.39809 l 0.17914,-0.30852 0.17914,-0.30852 c 0.2488,0.13933 0.51752,0.24881 0.78623,0.32842 z"
       id="path1098" />
    <path
       style="fill:#728a41;fill-opacity:1;fill-rule:evenodd;stroke:none;stroke-width:0.264583"
       d="m 167.30859,120.7414 -0.17914,0.30852 c -0.29857,-0.16919 -0.57724,-0.38814 -0.82604,-0.62699 l 0.2488,-0.25876 0.25876,-0.24881 c 0.19905,0.19905 0.42795,0.36823 0.67676,0.51752 z"
       id="path1100" />
    <path
       style="fill:#728a41;fill-opacity:1;fill-rule:evenodd;stroke:none;stroke-width:0.264583"
       d="m 166.55221,120.16417 -0.2488,0.25876 c -0.24881,-0.24881 -0.46776,-0.52747 -0.63695,-0.82604 l 0.30852,-0.17914 0.30852,-0.17914 c 0.14929,0.2488 0.31848,0.46775 0.52747,0.67675 z"
       id="path1102" />
    <path
       style="fill:#728a41;fill-opacity:1;fill-rule:evenodd;stroke:none;stroke-width:0.264583"
       d="m 165.66646,119.59689 c 0,0 0,0 0,0 0,0 0,0 0,0 l 0.30852,-0.17914 z"
       id="path1104" />
    <path
       style="fill:#728a41;fill-opacity:1;fill-rule:evenodd;stroke:none;stroke-width:0.264583"
       d="m 165.97498,119.41775 -0.30852,0.17914 c -0.17914,-0.30852 -0.30852,-0.62699 -0.39809,-0.96537 l 0.34833,-0.0896 0.33838,-0.0995 c 0.0796,0.27866 0.18909,0.54737 0.32842,0.79618 z"
       id="path1106" />
    <path
       style="fill:#728a41;fill-opacity:1;fill-rule:evenodd;stroke:none;stroke-width:0.264583"
       d="m 165.6167,118.54195 -0.34833,0.0896 c -0.0896,-0.33838 -0.13933,-0.68671 -0.13933,-1.03504 h 0.35828 0.35829 c 0,0.28862 0.0398,0.56728 0.10947,0.84594 z"
       id="path1108" />
    <path
       style="fill:#728a41;fill-opacity:1;fill-rule:evenodd;stroke:none;stroke-width:0.264583"
       d="m 165.12904,117.59648 c 0,0 0,0 0,0 h 0.35828 z"
       id="path1110" />
    <path
       style="fill:#728a41;fill-opacity:1;fill-rule:evenodd;stroke:none;stroke-width:0.264583"
       d="m 165.84561,117.59648 h -0.35829 -0.35828 l 0.01,-14.53031 h 0.35828 0.35829 z"
       id="path1112" />
    <text
       xml:space="preserve"
       style="font-style:normal;font-variant:normal;font-weight:400;font-size:6.31693px;line-height:125%;font-family:Calibri;text-align:start;letter-spacing:0px;word-spacing:0px;text-anchor:start;fill:#000000;fill-opacity:1;stroke:none;stroke-width:0.264583"
       x="170.54308"
       y="112.8592"
       id="text1118"><tspan
         sodipodi:role="line"
         x="170.54308"
         y="112.8592"
         id="tspan1116"
         style="stroke-width:0.264583"><tspan
           dx="0"
           dy="0"
           style="font-style:normal;font-variant:normal;font-weight:400;font-size:6.31693px;font-family:Calibri;fill:#ffffff;stroke-width:0.264583"
           id="tspan1114">Développeur public</tspan></tspan></text>
    <path
       style="fill:#4f81bd;fill-opacity:1;fill-rule:evenodd;stroke:none;stroke-width:0.264583"
       d="m -15.484748,103.06617 v 0 c 0,-0.63695 0.169189,-1.26394 0.487661,-1.81131 0.318473,-0.55733 0.776277,-1.01514 1.323652,-1.333609 0.557327,-0.318472 1.18432,-0.487661 1.821265,-0.487661 l 52.796789,0.01 v 0 c 0.636945,0 1.263939,0.169189 1.811314,0.487661 0.557326,0.318479 1.015132,0.776279 1.333603,1.323659 0.318474,0.55732 0.487662,1.18432 0.487662,1.82126 v 0 14.52036 0 c 0,0.63695 -0.169188,1.26394 -0.487662,1.81131 -0.318471,0.55733 -0.776277,1.01514 -1.323652,1.33361 -0.557326,0.31847 -1.18432,0.48766 -1.821265,0.48766 h -52.806741 v 0 c -0.636945,0 -1.263938,-0.16919 -1.811313,-0.48766 -0.557327,-0.31847 -1.015131,-0.77628 -1.333604,-1.32365 -0.318473,-0.55733 -0.487661,-1.18432 -0.487661,-1.82127 z"
       id="path1120" />
    <path
       style="fill:#3a5f8b;fill-opacity:1;fill-rule:evenodd;stroke:none;stroke-width:0.264583"
       d="m -15.126466,103.06617 c 0,0 0,0 0,0 h -0.358282 z"
       id="path1122" />
    <path
       style="fill:#3a5f8b;fill-opacity:1;fill-rule:evenodd;stroke:none;stroke-width:0.264583"
       d="m -15.484748,103.06617 h -0.358282 c 0,-0.34833 0.04976,-0.69666 0.139332,-1.03504 l 0.338377,0.0995 0.34833,0.0896 c -0.06967,0.27866 -0.109475,0.55732 -0.109475,0.84594 z"
       id="path1124" />
    <path
       style="fill:#3a5f8b;fill-opacity:1;fill-rule:evenodd;stroke:none;stroke-width:0.264583"
       d="m -15.365321,102.13066 -0.338377,-0.0995 c 0.08957,-0.32842 0.21895,-0.65685 0.398091,-0.95542 l 0.30852,0.17915 0.308521,0.17914 c -0.139332,0.2488 -0.248807,0.51751 -0.328425,0.78623 z"
       id="path1126" />
    <path
       style="fill:#3a5f8b;fill-opacity:1;fill-rule:evenodd;stroke:none;stroke-width:0.264583"
       d="m -14.997087,101.25486 -0.30852,-0.17915 c 0.169188,-0.29856 0.388138,-0.57723 0.626993,-0.82603 l 0.258759,0.2488 0.248807,0.25876 c -0.199046,0.19905 -0.368234,0.42795 -0.517518,0.67676 z"
       id="path1128" />
    <path
       style="fill:#3a5f8b;fill-opacity:1;fill-rule:evenodd;stroke:none;stroke-width:0.264583"
       d="m -14.419855,100.49848 -0.258759,-0.2488 c 0.248807,-0.24881 0.517518,-0.46776 0.826038,-0.636949 l 0.179141,0.30852 0.179141,0.308519 c -0.248807,0.14929 -0.477709,0.31847 -0.676754,0.52747 z"
       id="path1130" />
    <path
       style="fill:#3a5f8b;fill-opacity:1;fill-rule:evenodd;stroke:none;stroke-width:0.264583"
       d="m -13.673435,99.921251 -0.179141,-0.30852 c 0.298568,-0.179141 0.626993,-0.30852 0.96537,-0.398091 l 0.08957,0.338377 0.09952,0.34833 c -0.278663,0.07962 -0.547374,0.189093 -0.796181,0.328423 z"
       id="path1132" />
    <path
       style="fill:#3a5f8b;fill-opacity:1;fill-rule:evenodd;stroke:none;stroke-width:0.264583"
       d="m -12.797635,99.553017 -0.08957,-0.338377 c 0.338377,-0.08957 0.686707,-0.139332 1.035036,-0.139332 v 0.358282 0.358282 c -0.288615,0 -0.577231,0.03981 -0.845943,0.109475 z"
       id="path1134" />
    <path
       style="fill:#3a5f8b;fill-opacity:1;fill-rule:evenodd;stroke:none;stroke-width:0.264583"
       d="m -11.85217,99.075308 c 0,0 0,0 0,0 v 0.358282 z"
       id="path1136" />
    <path
       style="fill:#3a5f8b;fill-opacity:1;fill-rule:evenodd;stroke:none;stroke-width:0.264583"
       d="M -11.85217,99.791872 V 99.43359 99.075308 l 52.796789,0.01 v 0.358281 0.358282 z"
       id="path1138" />
    <path
       style="fill:#3a5f8b;fill-opacity:1;fill-rule:evenodd;stroke:none;stroke-width:0.264583"
       d="m 40.944619,99.801824 c 0,0 0,0 0,0 v -0.358282 z"
       id="path1140" />
    <path
       style="fill:#3a5f8b;fill-opacity:1;fill-rule:evenodd;stroke:none;stroke-width:0.264583"
       d="m 40.944619,99.443542 v -0.358281 c 0.34833,0 0.696659,0.04976 1.035037,0.139331 l -0.09952,0.338378 -0.08957,0.348329 c -0.278667,-0.06967 -0.557331,-0.109475 -0.845947,-0.109475 z"
       id="path1142" />
    <path
       style="fill:#3a5f8b;fill-opacity:1;fill-rule:evenodd;stroke:none;stroke-width:0.264583"
       d="m 41.880133,99.56297 0.09952,-0.338378 c 0.328425,0.08957 0.65685,0.21895 0.955419,0.398091 l -0.179139,0.308521 -0.179141,0.308516 c -0.248807,-0.13933 -0.517517,-0.248803 -0.786228,-0.328421 z"
       id="path1144" />
    <path
       style="fill:#3a5f8b;fill-opacity:1;fill-rule:evenodd;stroke:none;stroke-width:0.264583"
       d="m 42.755933,99.931204 0.179142,-0.308521 c 0.298566,0.169189 0.57723,0.388137 0.826037,0.626997 l -0.248807,0.25876 -0.258759,0.2488 c -0.199044,-0.19904 -0.427948,-0.36823 -0.676754,-0.51752 z"
       id="path1146" />
    <path
       style="fill:#3a5f8b;fill-opacity:1;fill-rule:evenodd;stroke:none;stroke-width:0.264583"
       d="m 43.512305,100.50844 0.248807,-0.25876 c 0.248806,0.2488 0.467757,0.51751 0.636944,0.82603 l -0.30852,0.17915 -0.30852,0.17914 c -0.149283,-0.24881 -0.318471,-0.47771 -0.52747,-0.67676 z"
       id="path1148" />
    <path
       style="fill:#3a5f8b;fill-opacity:1;fill-rule:evenodd;stroke:none;stroke-width:0.264583"
       d="m 44.089536,101.25486 0.30852,-0.17915 c 0.179142,0.29857 0.308523,0.627 0.398092,0.96537 l -0.338378,0.0896 -0.348329,0.0995 c -0.07962,-0.27867 -0.189092,-0.54738 -0.328425,-0.79618 z"
       id="path1150" />
    <path
       style="fill:#3a5f8b;fill-opacity:1;fill-rule:evenodd;stroke:none;stroke-width:0.264583"
       d="m 44.45777,102.13066 0.338378,-0.0896 c 0.08957,0.33837 0.139333,0.6867 0.139333,1.03503 h -0.358283 -0.35828 c 0,-0.28861 -0.03981,-0.57723 -0.109477,-0.84594 z"
       id="path1152" />
    <path
       style="fill:#3a5f8b;fill-opacity:1;fill-rule:evenodd;stroke:none;stroke-width:0.264583"
       d="m 44.218918,103.07612 h 0.35828 0.358283 v 14.52036 h -0.358283 -0.35828 z"
       id="path1154" />
    <path
       style="fill:#3a5f8b;fill-opacity:1;fill-rule:evenodd;stroke:none;stroke-width:0.264583"
       d="m 44.577198,117.59648 h 0.358283 c 0,0.34833 -0.04976,0.69666 -0.139333,1.03504 l -0.338378,-0.0995 -0.348329,-0.0896 c 0.06967,-0.27867 0.109477,-0.55733 0.109477,-0.84595 z"
       id="path1156" />
    <path
       style="fill:#3a5f8b;fill-opacity:1;fill-rule:evenodd;stroke:none;stroke-width:0.264583"
       d="m 44.45777,118.532 0.338378,0.0995 c -0.08957,0.32842 -0.21895,0.65684 -0.398092,0.95541 l -0.30852,-0.17914 -0.30852,-0.17914 c 0.139333,-0.24881 0.248807,-0.50756 0.328425,-0.78623 z"
       id="path1158" />
    <path
       style="fill:#3a5f8b;fill-opacity:1;fill-rule:evenodd;stroke:none;stroke-width:0.264583"
       d="m 43.781016,119.22865 c 0,0 0,0 0,0 0,0 0,0 0,0 l 0.30852,0.17914 z"
       id="path1160" />
    <path
       style="fill:#3a5f8b;fill-opacity:1;fill-rule:evenodd;stroke:none;stroke-width:0.264583"
       d="m 44.089536,119.40779 0.30852,0.17915 c -0.169187,0.30852 -0.388138,0.58718 -0.626991,0.82603 l -0.25876,-0.2488 -0.248806,-0.24881 c 0.199046,-0.209 0.368234,-0.4379 0.517517,-0.68671 z"
       id="path1162" />
    <path
       style="fill:#3a5f8b;fill-opacity:1;fill-rule:evenodd;stroke:none;stroke-width:0.264583"
       d="m 43.512305,120.16417 0.25876,0.2488 c -0.248809,0.24881 -0.517519,0.46776 -0.826039,0.63695 l -0.179142,-0.30852 -0.179139,-0.30852 c 0.248807,-0.14929 0.477708,-0.31847 0.676754,-0.51752 z"
       id="path1164" />
    <path
       style="fill:#3a5f8b;fill-opacity:1;fill-rule:evenodd;stroke:none;stroke-width:0.264583"
       d="m 42.765884,120.7414 0.179142,0.30852 c -0.298567,0.17914 -0.626994,0.30852 -0.96537,0.39809 l -0.08957,-0.33838 -0.09952,-0.34833 c 0.278662,-0.0796 0.547372,-0.18909 0.796181,-0.32842 z"
       id="path1166" />
    <path
       style="fill:#3a5f8b;fill-opacity:1;fill-rule:evenodd;stroke:none;stroke-width:0.264583"
       d="m 41.890087,121.10963 0.08957,0.33838 c -0.338378,0.0896 -0.686707,0.13933 -1.035037,0.13933 v -0.35828 -0.35828 c 0.288616,0 0.577231,-0.0398 0.845945,-0.10948 z"
       id="path1168" />
    <path
       style="fill:#3a5f8b;fill-opacity:1;fill-rule:evenodd;stroke:none;stroke-width:0.264583"
       d="m 40.944619,120.87078 v 0.35828 0.35828 h -52.806741 v -0.35828 -0.35828 z"
       id="path1170" />
    <path
       style="fill:#3a5f8b;fill-opacity:1;fill-rule:evenodd;stroke:none;stroke-width:0.264583"
       d="m -11.862122,121.22906 v 0.35828 c -0.348329,0 -0.696659,-0.0498 -1.035036,-0.13933 l 0.09952,-0.33838 0.08957,-0.34833 c 0.278664,0.0697 0.557327,0.10948 0.845943,0.10948 z"
       id="path1172" />
    <path
       style="fill:#3a5f8b;fill-opacity:1;fill-rule:evenodd;stroke:none;stroke-width:0.264583"
       d="m -12.797635,121.10963 -0.09952,0.33838 c -0.328425,-0.0896 -0.65685,-0.21895 -0.955418,-0.39809 l 0.179141,-0.30852 0.179141,-0.30852 c 0.248807,0.13933 0.517518,0.24881 0.786229,0.32842 z"
       id="path1174" />
    <path
       style="fill:#3a5f8b;fill-opacity:1;fill-rule:evenodd;stroke:none;stroke-width:0.264583"
       d="m -13.673435,120.7414 -0.179141,0.30852 c -0.298568,-0.16919 -0.577231,-0.38814 -0.826038,-0.62699 l 0.248807,-0.25876 0.258759,-0.24881 c 0.199045,0.19905 0.427947,0.36823 0.676754,0.51752 z"
       id="path1176" />
    <path
       style="fill:#3a5f8b;fill-opacity:1;fill-rule:evenodd;stroke:none;stroke-width:0.264583"
       d="m -14.429807,120.16417 -0.248807,0.25876 c -0.248807,-0.24881 -0.467757,-0.52747 -0.636945,-0.82604 l 0.30852,-0.17914 0.30852,-0.17914 c 0.149284,0.2488 0.318473,0.46775 0.527471,0.67675 z"
       id="path1178" />
    <path
       style="fill:#3a5f8b;fill-opacity:1;fill-rule:evenodd;stroke:none;stroke-width:0.264583"
       d="m -15.315559,119.59689 c 0,0 0,0 0,0 0,0 0,0 0,0 l 0.30852,-0.17914 z"
       id="path1180" />
    <path
       style="fill:#3a5f8b;fill-opacity:1;fill-rule:evenodd;stroke:none;stroke-width:0.264583"
       d="m -15.007039,119.41775 -0.30852,0.17914 c -0.179141,-0.30852 -0.308521,-0.62699 -0.398091,-0.96537 l 0.348329,-0.0896 0.338377,-0.0995 c 0.07962,0.27866 0.189094,0.54737 0.328425,0.79618 z"
       id="path1182" />
    <path
       style="fill:#3a5f8b;fill-opacity:1;fill-rule:evenodd;stroke:none;stroke-width:0.264583"
       d="m -15.365321,118.54195 -0.348329,0.0896 c -0.08957,-0.33838 -0.139332,-0.68671 -0.139332,-1.03504 h 0.358282 0.358281 c 0,0.28862 0.03981,0.56728 0.109475,0.84594 z"
       id="path1184" />
    <path
       style="fill:#3a5f8b;fill-opacity:1;fill-rule:evenodd;stroke:none;stroke-width:0.264583"
       d="m -15.852982,117.59648 c 0,0 0,0 0,0 h 0.358282 z"
       id="path1186" />
    <path
       style="fill:#3a5f8b;fill-opacity:1;fill-rule:evenodd;stroke:none;stroke-width:0.264583"
       d="m -15.136419,117.59648 h -0.358281 -0.358282 l 0.01,-14.53031 h 0.358282 0.358282 z"
       id="path1188" />
    <text
       xml:space="preserve"
       style="font-style:normal;font-variant:normal;font-weight:400;font-size:6.31693px;line-height:125%;font-family:Calibri;text-align:start;letter-spacing:0px;word-spacing:0px;text-anchor:start;fill:#000000;fill-opacity:1;stroke:none;stroke-width:0.264583"
       x="-10.289663"
       y="112.8592"
       id="text1194"><tspan
         sodipodi:role="line"
         x="-10.289663"
         y="112.8592"
         id="tspan1192"
         style="stroke-width:0.264583"><tspan
           dx="0"
           dy="0"
           style="font-style:normal;font-variant:normal;font-weight:400;font-size:6.31693px;font-family:Calibri;fill:#ffffff;stroke-width:0.264583"
           id="tspan1190">Dépôt de référence</tspan></tspan></text>
    <path
       style="fill:#c0504d;fill-opacity:1;fill-rule:evenodd;stroke:none;stroke-width:0.264583"
       d="m -15.484748,179.75836 v 0 c 0,-0.63695 0.169189,-1.26394 0.487661,-1.81132 0.318473,-0.55732 0.776277,-1.01513 1.323652,-1.3336 0.557327,-0.31847 1.18432,-0.48766 1.821265,-0.48766 l 52.796789,0.01 v 0 c 0.636945,0 1.263939,0.16919 1.811314,0.48766 0.557326,0.31847 1.015132,0.77628 1.333603,1.32365 0.318474,0.55733 0.487662,1.18432 0.487662,1.82127 v 0 14.52036 0 c 0,0.63695 -0.169188,1.26394 -0.487662,1.81131 -0.318471,0.55733 -0.776277,1.01513 -1.323652,1.33361 -0.557326,0.31847 -1.18432,0.48766 -1.821265,0.48766 h -52.806741 v 0 c -0.636945,0 -1.263938,-0.16919 -1.811313,-0.48766 -0.557327,-0.31853 -1.015131,-0.77633 -1.333604,-1.3237 -0.318473,-0.55733 -0.487661,-1.18432 -0.487661,-1.82127 z"
       id="path1196" />
    <path
       style="fill:#8e3b38;fill-opacity:1;fill-rule:evenodd;stroke:none;stroke-width:0.264583"
       d="m -15.126466,179.75836 c 0,0 0,0 0,0 h -0.358282 z"
       id="path1198" />
    <path
       style="fill:#8e3b38;fill-opacity:1;fill-rule:evenodd;stroke:none;stroke-width:0.264583"
       d="m -15.484748,179.75836 h -0.358282 c 0,-0.34833 0.04976,-0.69666 0.139332,-1.03504 l 0.338377,0.0995 0.34833,0.0896 c -0.06967,0.27867 -0.109475,0.55733 -0.109475,0.84595 z"
       id="path1200" />
    <path
       style="fill:#8e3b38;fill-opacity:1;fill-rule:evenodd;stroke:none;stroke-width:0.264583"
       d="m -15.365321,178.82284 -0.338377,-0.0995 c 0.08957,-0.32842 0.21895,-0.65684 0.398091,-0.95541 l 0.30852,0.17914 0.308521,0.17914 c -0.139332,0.24881 -0.248807,0.51752 -0.328425,0.78623 z"
       id="path1202" />
    <path
       style="fill:#8e3b38;fill-opacity:1;fill-rule:evenodd;stroke:none;stroke-width:0.264583"
       d="m -14.997087,177.94704 -0.30852,-0.17914 c 0.169188,-0.29857 0.388138,-0.57723 0.626993,-0.82603 l 0.258759,0.2488 0.248807,0.25876 c -0.199046,0.19905 -0.368234,0.42795 -0.517518,0.67676 z"
       id="path1204" />
    <path
       style="fill:#8e3b38;fill-opacity:1;fill-rule:evenodd;stroke:none;stroke-width:0.264583"
       d="m -14.419855,177.19067 -0.258759,-0.2488 c 0.248807,-0.24881 0.517518,-0.46776 0.826038,-0.63695 l 0.179141,0.30852 0.179141,0.30852 c -0.248807,0.14928 -0.477709,0.31847 -0.676754,0.52747 z"
       id="path1206" />
    <path
       style="fill:#8e3b38;fill-opacity:1;fill-rule:evenodd;stroke:none;stroke-width:0.264583"
       d="m -13.673435,176.61344 -0.179141,-0.30852 c 0.298568,-0.17914 0.626993,-0.30852 0.96537,-0.39809 l 0.08957,0.33837 0.09952,0.34834 c -0.278663,0.0796 -0.547375,0.18909 -0.796181,0.32842 z"
       id="path1208" />
    <path
       style="fill:#8e3b38;fill-opacity:1;fill-rule:evenodd;stroke:none;stroke-width:0.264583"
       d="m -12.797635,176.2452 -0.08957,-0.33837 c 0.338377,-0.0896 0.686707,-0.13933 1.035036,-0.13933 v 0.35828 0.35828 c -0.288616,0 -0.577232,0.0398 -0.845943,0.10948 z"
       id="path1210" />
    <path
       style="fill:#8e3b38;fill-opacity:1;fill-rule:evenodd;stroke:none;stroke-width:0.264583"
       d="m -11.85217,175.7675 c 0,0 0,0 0,0 v 0.35828 z"
       id="path1212" />
    <path
       style="fill:#8e3b38;fill-opacity:1;fill-rule:evenodd;stroke:none;stroke-width:0.264583"
       d="m -11.85217,176.48406 v -0.35828 -0.35828 l 52.796789,0.01 v 0.35828 0.35828 z"
       id="path1214" />
    <path
       style="fill:#8e3b38;fill-opacity:1;fill-rule:evenodd;stroke:none;stroke-width:0.264583"
       d="m 40.944619,176.49401 c 0,0 0,0 0,0 v -0.35828 z"
       id="path1216" />
    <path
       style="fill:#8e3b38;fill-opacity:1;fill-rule:evenodd;stroke:none;stroke-width:0.264583"
       d="m 40.944619,176.13573 v -0.35828 c 0.34833,0 0.696659,0.0498 1.035037,0.13933 l -0.09952,0.33838 -0.08957,0.34833 c -0.278665,-0.0697 -0.557329,-0.10948 -0.845945,-0.10948 z"
       id="path1218" />
    <path
       style="fill:#8e3b38;fill-opacity:1;fill-rule:evenodd;stroke:none;stroke-width:0.264583"
       d="m 41.880133,176.25516 0.09952,-0.33838 c 0.328425,0.0896 0.65685,0.21895 0.955419,0.39809 l -0.179142,0.30852 -0.179141,0.30852 c -0.248807,-0.13933 -0.517517,-0.2488 -0.786228,-0.32842 z"
       id="path1220" />
    <path
       style="fill:#8e3b38;fill-opacity:1;fill-rule:evenodd;stroke:none;stroke-width:0.264583"
       d="m 42.755933,176.62339 0.179142,-0.30852 c 0.298566,0.16919 0.57723,0.38814 0.826037,0.627 l -0.248807,0.25875 -0.258759,0.24881 c -0.199044,-0.19904 -0.427948,-0.36823 -0.676754,-0.51752 z"
       id="path1222" />
    <path
       style="fill:#8e3b38;fill-opacity:1;fill-rule:evenodd;stroke:none;stroke-width:0.264583"
       d="m 43.512305,177.20062 0.248807,-0.25875 c 0.248806,0.2488 0.467757,0.51751 0.636944,0.82603 l -0.30852,0.17914 -0.30852,0.17915 c -0.149283,-0.24881 -0.318471,-0.47771 -0.52747,-0.67676 z"
       id="path1224" />
    <path
       style="fill:#8e3b38;fill-opacity:1;fill-rule:evenodd;stroke:none;stroke-width:0.264583"
       d="m 44.089536,177.94704 0.30852,-0.17914 c 0.179142,0.29857 0.308523,0.627 0.398092,0.96537 l -0.338378,0.0896 -0.348329,0.0995 c -0.07962,-0.27866 -0.189092,-0.54737 -0.328425,-0.79618 z"
       id="path1226" />
    <path
       style="fill:#8e3b38;fill-opacity:1;fill-rule:evenodd;stroke:none;stroke-width:0.264583"
       d="m 44.45777,178.82284 0.338378,-0.0896 c 0.08957,0.33838 0.139333,0.68671 0.139333,1.03504 h -0.358283 -0.35828 c 0,-0.28861 -0.03981,-0.57723 -0.109477,-0.84594 z"
       id="path1228" />
    <path
       style="fill:#8e3b38;fill-opacity:1;fill-rule:evenodd;stroke:none;stroke-width:0.264583"
       d="m 44.218918,179.76831 h 0.35828 0.358283 v 14.52036 h -0.358283 -0.35828 z"
       id="path1230" />
    <path
       style="fill:#8e3b38;fill-opacity:1;fill-rule:evenodd;stroke:none;stroke-width:0.264583"
       d="m 44.577198,194.28867 h 0.358283 c 0,0.34833 -0.04976,0.69666 -0.139333,1.03504 l -0.338378,-0.0995 -0.348329,-0.0896 c 0.06967,-0.27867 0.109477,-0.55733 0.109477,-0.84595 z"
       id="path1232" />
    <path
       style="fill:#8e3b38;fill-opacity:1;fill-rule:evenodd;stroke:none;stroke-width:0.264583"
       d="m 44.45777,195.22418 0.338378,0.0995 c -0.08957,0.32843 -0.21895,0.65685 -0.398092,0.95542 l -0.30852,-0.17914 -0.30852,-0.17914 c 0.139333,-0.24881 0.248807,-0.51752 0.328425,-0.78623 z"
       id="path1234" />
    <path
       style="fill:#8e3b38;fill-opacity:1;fill-rule:evenodd;stroke:none;stroke-width:0.264583"
       d="m 44.089536,196.09998 0.30852,0.17914 c -0.169187,0.29857 -0.388138,0.57723 -0.626991,0.82604 l -0.25876,-0.24881 -0.248806,-0.25875 c 0.199046,-0.19905 0.368234,-0.42795 0.517517,-0.67676 z"
       id="path1236" />
    <path
       style="fill:#8e3b38;fill-opacity:1;fill-rule:evenodd;stroke:none;stroke-width:0.264583"
       d="m 43.512305,196.85635 0.25876,0.24881 c -0.248809,0.24881 -0.517519,0.46776 -0.826039,0.63695 l -0.179142,-0.30852 -0.179139,-0.30852 c 0.248807,-0.14929 0.477708,-0.31848 0.676754,-0.52747 z"
       id="path1238" />
    <path
       style="fill:#8e3b38;fill-opacity:1;fill-rule:evenodd;stroke:none;stroke-width:0.264583"
       d="m 42.765884,197.43359 0.179142,0.30852 c -0.298567,0.17914 -0.626994,0.30852 -0.96537,0.39809 l -0.08957,-0.33838 -0.09952,-0.34833 c 0.278662,-0.0796 0.547372,-0.18909 0.796181,-0.32842 z"
       id="path1240" />
    <path
       style="fill:#8e3b38;fill-opacity:1;fill-rule:evenodd;stroke:none;stroke-width:0.264583"
       d="m 41.890087,197.80182 0.08957,0.33838 c -0.338378,0.0896 -0.686707,0.13933 -1.035037,0.13933 v -0.35828 -0.35828 c 0.288616,0 0.577231,-0.0398 0.845945,-0.10948 z"
       id="path1242" />
    <path
       style="fill:#8e3b38;fill-opacity:1;fill-rule:evenodd;stroke:none;stroke-width:0.264583"
       d="m 40.944619,197.56297 v 0.35828 0.35828 h -52.806741 v -0.35828 -0.35828 z"
       id="path1244" />
    <path
       style="fill:#8e3b38;fill-opacity:1;fill-rule:evenodd;stroke:none;stroke-width:0.264583"
       d="m -11.862122,197.92125 v 0.35828 c -0.348329,0 -0.696659,-0.0498 -1.035036,-0.13933 l 0.09952,-0.33838 0.08957,-0.34833 c 0.278664,0.0697 0.557327,0.10948 0.845943,0.10948 z"
       id="path1246" />
    <path
       style="fill:#8e3b38;fill-opacity:1;fill-rule:evenodd;stroke:none;stroke-width:0.264583"
       d="m -12.797635,197.80182 -0.09952,0.33838 c -0.328425,-0.0896 -0.65685,-0.21895 -0.955418,-0.39809 l 0.179141,-0.30852 0.179141,-0.30852 c 0.248807,0.13933 0.517518,0.2488 0.786229,0.32842 z"
       id="path1248" />
    <path
       style="fill:#8e3b38;fill-opacity:1;fill-rule:evenodd;stroke:none;stroke-width:0.264583"
       d="m -13.673435,197.43359 -0.179141,0.30852 c -0.298568,-0.16919 -0.577231,-0.38814 -0.826038,-0.627 l 0.248807,-0.25876 0.258759,-0.2488 c 0.199045,0.19904 0.427947,0.36823 0.676754,0.51752 z"
       id="path1250" />
    <path
       style="fill:#8e3b38;fill-opacity:1;fill-rule:evenodd;stroke:none;stroke-width:0.264583"
       d="m -14.429807,196.85635 -0.248807,0.25876 c -0.248807,-0.2488 -0.467757,-0.51751 -0.636945,-0.82603 l 0.30852,-0.17914 0.30852,-0.17915 c 0.149284,0.24881 0.318473,0.47771 0.527471,0.67676 z"
       id="path1252" />
    <path
       style="fill:#8e3b38;fill-opacity:1;fill-rule:evenodd;stroke:none;stroke-width:0.264583"
       d="m -15.007039,196.10994 -0.30852,0.17914 c -0.179141,-0.29857 -0.308521,-0.627 -0.398091,-0.96537 l 0.338377,-0.0896 0.348329,-0.0995 c 0.07962,0.27866 0.189094,0.54737 0.328425,0.79618 z"
       id="path1254" />
    <path
       style="fill:#8e3b38;fill-opacity:1;fill-rule:evenodd;stroke:none;stroke-width:0.264583"
       d="m -15.375273,195.23414 -0.338377,0.0896 c -0.08957,-0.33838 -0.139332,-0.68671 -0.139332,-1.03504 h 0.358282 0.358281 c 0,0.28862 0.03981,0.57723 0.109475,0.84594 z"
       id="path1256" />
    <path
       style="fill:#8e3b38;fill-opacity:1;fill-rule:evenodd;stroke:none;stroke-width:0.264583"
       d="m -15.852982,194.28867 c 0,0 0,0 0,0 h 0.358282 z"
       id="path1258" />
    <path
       style="fill:#8e3b38;fill-opacity:1;fill-rule:evenodd;stroke:none;stroke-width:0.264583"
       d="m -15.136419,194.28867 h -0.358281 -0.358282 l 0.01,-14.53031 h 0.358282 0.358282 z"
       id="path1260" />
    <text
       xml:space="preserve"
       style="font-style:normal;font-variant:normal;font-weight:400;font-size:6.31693px;line-height:125%;font-family:Calibri;text-align:start;letter-spacing:0px;word-spacing:0px;text-anchor:start;fill:#000000;fill-opacity:1;stroke:none;stroke-width:0.264583"
       x="-5.6120973"
       y="185.75957"
       id="text1266"><tspan
         sodipodi:role="line"
         x="-5.6120973"
         y="185.75957"
         id="tspan1264"
         style="stroke-width:0.264583"><tspan
           dx="0"
           dy="0"
           style="font-style:normal;font-variant:normal;font-weight:400;font-size:6.31693px;font-family:Calibri;fill:#ffffff;stroke-width:0.264583"
           id="tspan1262">Responsable de </tspan></tspan></text>
    <text
       xml:space="preserve"
       style="font-style:normal;font-variant:normal;font-weight:400;font-size:6.31693px;line-height:125%;font-family:Calibri;text-align:start;letter-spacing:0px;word-spacing:0px;text-anchor:start;fill:#000000;fill-opacity:1;stroke:none;stroke-width:0.264583"
       x="-0.91462553"
       y="193.3432"
       id="text1272"><tspan
         sodipodi:role="line"
         x="-0.91462553"
         y="193.3432"
         id="tspan1270"
         style="stroke-width:0.264583"><tspan
           dx="0"
           dy="0"
           style="font-style:normal;font-variant:normal;font-weight:400;font-size:6.31693px;font-family:Calibri;fill:#ffffff;stroke-width:0.264583"
           id="tspan1268">l'intégration</tspan></tspan></text>
    <path
       style="fill:#000000;fill-opacity:1;fill-rule:evenodd;stroke:none;stroke-width:0.264583"
       d="m 195.93132,176.12578 h -0.35829 -0.35828 l -0.0299,-51.61247 h 0.35829 0.35828 z"
       id="path1274" />
    <path
       style="fill:#000000;fill-opacity:1;fill-rule:evenodd;stroke:none;stroke-width:0.264583"
       d="m 195.54318,121.21911 1.7715,3.53305 h -3.53306 z"
       id="path1276" />
    <path
       style="fill:#000000;fill-opacity:1;fill-rule:evenodd;stroke:none;stroke-width:0.264583"
       d="m 14.929386,176.12578 h -0.35828 -0.358283 l -0.02986,-51.61247 h 0.35828 0.358283 z"
       id="path1278" />
    <path
       style="fill:#000000;fill-opacity:1;fill-rule:evenodd;stroke:none;stroke-width:0.264583"
       d="m 14.541248,121.21911 1.771504,3.53305 h -3.533055 z"
       id="path1280" />
    <path
       style="fill:#808080;fill-opacity:1;fill-rule:evenodd;stroke:none;stroke-width:0.264583"
       d="m 27.489152,124.44364 0.218951,-0.27866 0.218948,-0.27866 58.987107,46.915 -0.21896,0.27866 -0.21895,0.27866 z"
       id="path1282" />
    <path
       style="fill:#808080;fill-opacity:1;fill-rule:evenodd;stroke:none;stroke-width:0.264583"
       d="m 89.272838,173.13015 -3.86148,-0.81609 2.19945,-2.76673 z"
       id="path1284" />
    <path
       style="fill:#808080;fill-opacity:1;fill-rule:evenodd;stroke:none;stroke-width:0.264583"
       d="m 37.04333,124.39388 0.119428,-0.33838 0.119428,-0.33837 133.867974,47.96994 -0.11942,0.33837 -0.11943,0.33838 z"
       id="path1286" />
    <path
       style="fill:#808080;fill-opacity:1;fill-rule:evenodd;stroke:none;stroke-width:0.264583"
       d="m 174.13584,173.1401 -3.92119,0.46775 1.19427,-3.32405 z"
       id="path1288" />
    <path
       style="fill:#808080;fill-opacity:1;fill-rule:evenodd;stroke:none;stroke-width:0.264583"
       d="m 95.403438,123.75694 0.19904,0.29856 0.19905,0.29857 -69.068748,47.22352 -0.199046,-0.29857 -0.199046,-0.29857 z"
       id="path1290" />
    <path
       style="fill:#808080;fill-opacity:1;fill-rule:evenodd;stroke:none;stroke-width:0.264583"
       d="m 23.806811,173.1401 1.92079,-3.45344 1.990453,2.91602 z"
       id="path1292" />
    <path
       style="fill:#808080;fill-opacity:1;fill-rule:evenodd;stroke:none;stroke-width:0.264583"
       d="m 180.35601,123.71713 0.11943,0.33837 0.11943,0.33838 -139.520869,48.00975 -0.119428,-0.33838 -0.119428,-0.33837 z"
       id="path1294" />
    <path
       style="fill:#808080;fill-opacity:1;fill-rule:evenodd;stroke:none;stroke-width:0.264583"
       d="m 37.839512,173.1401 2.766732,-2.8165 1.144511,3.33402 z"
       id="path1296" />
    <path
       style="fill:#000000;fill-opacity:1;fill-rule:evenodd;stroke:none;stroke-width:0.264583"
       d="m 111.05836,176.12578 h -0.35828 -0.35828 l -0.0299,-51.61247 h 0.35828 0.35828 z"
       id="path1298" />
    <path
       style="fill:#000000;fill-opacity:1;fill-rule:evenodd;stroke:none;stroke-width:0.264583"
       d="m 110.67022,121.21911 1.77151,3.53305 h -3.53306 z"
       id="path1300" />
  </g>
</svg>
