<?xml version="1.0" encoding="UTF-8" standalone="no"?>
<!-- Created with Inkscape (http://www.inkscape.org/) -->

<svg
   width="216.08107mm"
   height="101.81186mm"
   viewBox="0 0 216.08107 101.81186"
   version="1.1"
   id="svg5"
   inkscape:version="1.2.1 (9c6d41e410, 2022-07-14)"
   sodipodi:docname="git_decentralise.svg"
   xmlns:inkscape="http://www.inkscape.org/namespaces/inkscape"
   xmlns:sodipodi="http://sodipodi.sourceforge.net/DTD/sodipodi-0.dtd"
   xmlns="http://www.w3.org/2000/svg"
   xmlns:svg="http://www.w3.org/2000/svg">
  <sodipodi:namedview
     id="namedview7"
     pagecolor="#ffffff"
     bordercolor="#666666"
     borderopacity="1.0"
     inkscape:showpageshadow="2"
     inkscape:pageopacity="0.0"
     inkscape:pagecheckerboard="0"
     inkscape:deskcolor="#d1d1d1"
     inkscape:document-units="mm"
     showgrid="false"
     inkscape:zoom="0.74564394"
     inkscape:cx="579.365"
     inkscape:cy="451.95834"
     inkscape:window-width="1920"
     inkscape:window-height="1017"
     inkscape:window-x="-8"
     inkscape:window-y="-8"
     inkscape:window-maximized="1"
     inkscape:current-layer="layer1" />
  <defs
     id="defs2">
    <pattern
       id="EMFhbasepattern"
       patternUnits="userSpaceOnUse"
       width="6"
       height="6"
       x="0"
       y="0" />
  </defs>
  <g
     inkscape:label="Calque 1"
     inkscape:groupmode="layer"
     id="layer1"
     transform="translate(48.427637,-28.93278)">
    <path
       style="fill:#9bbb59;fill-opacity:1;fill-rule:evenodd;stroke:none;stroke-width:0.264583"
       d="m -48.068864,39.745802 v 0 c 0,-0.647785 0.169421,-1.275639 0.48833,-1.83373 0.328876,-0.558091 0.787308,-1.026489 1.345399,-1.345399 0.558092,-0.318909 1.195911,-0.48833 1.833729,-0.48833 H 3.2954812 v 0 c 0.647785,0 1.275636,0.169421 1.833727,0.48833 0.558093,0.328875 1.02649,0.787308 1.345401,1.345399 0.318907,0.558091 0.488328,1.195911 0.488328,1.83373 v 0 l 0.01,14.679797 v 0 c 0,0.647785 -0.169421,1.275638 -0.488331,1.833729 -0.328875,0.558091 -0.787308,1.02649 -1.345399,1.345401 -0.558091,0.318907 -1.195908,0.488328 -1.833729,0.488328 l -47.7068512,0.01 v 0 c -0.647784,0 -1.275637,-0.169421 -1.833729,-0.488331 -0.558091,-0.328875 -1.026489,-0.787308 -1.345399,-1.345398 -0.318909,-0.558091 -0.48833,-1.195911 -0.48833,-1.83373 z"
       id="path12" />
    <path
       style="fill:#728a41;fill-opacity:1;fill-rule:evenodd;stroke:none;stroke-width:0.264583"
       d="m -48.068864,39.745802 h -0.358773 c 0,-0.358774 0.04983,-0.707581 0.139523,-1.046422 l 0.338841,0.09966 0.348807,0.08969 c -0.06976,0.279046 -0.109625,0.568058 -0.109625,0.85707 z"
       id="path14" />
    <path
       style="fill:#728a41;fill-opacity:1;fill-rule:evenodd;stroke:none;stroke-width:0.264583"
       d="m -47.949273,38.799039 -0.338841,-0.09966 c 0.08969,-0.338842 0.21925,-0.657751 0.398637,-0.966694 l 0.308943,0.179386 0.308944,0.179387 c -0.139523,0.249148 -0.259114,0.518227 -0.328876,0.797273 z"
       id="path16" />
    <path
       style="fill:#728a41;fill-opacity:1;fill-rule:evenodd;stroke:none;stroke-width:0.264583"
       d="m -47.580534,37.912072 -0.308943,-0.179386 c 0.179386,-0.308944 0.388671,-0.58799 0.637819,-0.837138 l 0.259113,0.249148 0.249148,0.259114 c -0.199318,0.199319 -0.378704,0.438501 -0.528193,0.687649 z"
       id="path18" />
    <path
       style="fill:#728a41;fill-opacity:1;fill-rule:evenodd;stroke:none;stroke-width:0.264583"
       d="m -46.992545,37.144696 -0.259113,-0.249148 c 0.249148,-0.249147 0.528193,-0.468398 0.837137,-0.637818 l 0.179386,0.308943 0.179387,0.308944 c -0.249148,0.149488 -0.478364,0.318909 -0.687649,0.528193 z"
       id="path20" />
    <path
       style="fill:#728a41;fill-opacity:1;fill-rule:evenodd;stroke:none;stroke-width:0.264583"
       d="m -46.235135,36.566673 -0.179386,-0.308943 c 0.308943,-0.179387 0.637818,-0.308944 0.97666,-0.398637 l 0.08969,0.348807 0.08969,0.338841 c -0.279046,0.07973 -0.548125,0.189353 -0.797273,0.328876 z"
       id="path22" />
    <path
       style="fill:#728a41;fill-opacity:1;fill-rule:evenodd;stroke:none;stroke-width:0.264583"
       d="m -45.348168,36.2079 -0.08969,-0.348807 c 0.338841,-0.08969 0.687648,-0.139523 1.036455,-0.139523 v 0.358773 0.358773 c -0.289011,0 -0.578023,0.03986 -0.857069,0.109625 z"
       id="path24" />
    <path
       style="fill:#728a41;fill-opacity:1;fill-rule:evenodd;stroke:none;stroke-width:0.264583"
       d="M -44.401406,36.437116 V 36.078343 35.71957 H 3.2954812 v 0.358773 0.358773 z"
       id="path26" />
    <path
       style="fill:#728a41;fill-opacity:1;fill-rule:evenodd;stroke:none;stroke-width:0.264583"
       d="M 3.2954812,36.078343 V 35.71957 c 0.358772,0 0.707578,0.04983 1.046419,0.139523 l -0.09966,0.348807 -0.08969,0.338841 c -0.279047,-0.06976 -0.568059,-0.109625 -0.857069,-0.109625 z"
       id="path28" />
    <path
       style="fill:#728a41;fill-opacity:1;fill-rule:evenodd;stroke:none;stroke-width:0.264583"
       d="m 4.2422422,36.2079 0.09966,-0.348807 c 0.338841,0.08969 0.657752,0.21925 0.966695,0.398637 l -0.179389,0.308943 -0.179385,0.308944 c -0.249148,-0.139523 -0.518229,-0.249148 -0.797275,-0.328876 z"
       id="path30" />
    <path
       style="fill:#728a41;fill-opacity:1;fill-rule:evenodd;stroke:none;stroke-width:0.264583"
       d="m 5.3085952,36.25773 c 0,0 0,0 0,0 0,0 0,0 0,0 l -0.179387,0.308943 z"
       id="path32" />
    <path
       style="fill:#728a41;fill-opacity:1;fill-rule:evenodd;stroke:none;stroke-width:0.264583"
       d="m 5.1292082,36.566673 0.179387,-0.308943 c 0.308943,0.179386 0.587989,0.398636 0.837136,0.637818 l -0.249147,0.259114 -0.259115,0.249148 c -0.209282,-0.199318 -0.438499,-0.378705 -0.687646,-0.528193 z"
       id="path34" />
    <path
       style="fill:#728a41;fill-opacity:1;fill-rule:evenodd;stroke:none;stroke-width:0.264583"
       d="m 5.8965842,37.154662 0.249147,-0.259114 c 0.249151,0.249148 0.4684,0.528194 0.637821,0.837138 l -0.308943,0.179386 -0.308944,0.179387 c -0.149489,-0.249148 -0.31891,-0.478364 -0.528196,-0.687649 z"
       id="path36" />
    <path
       style="fill:#728a41;fill-opacity:1;fill-rule:evenodd;stroke:none;stroke-width:0.264583"
       d="m 6.4746092,37.912072 0.308943,-0.179386 c 0.179385,0.308943 0.308943,0.637818 0.398637,0.97666 l -0.338841,0.08969 -0.348808,0.08969 C 6.4148132,38.60968 6.3051882,38.340601 6.1656652,38.091453 Z"
       id="path38" />
    <path
       style="fill:#728a41;fill-opacity:1;fill-rule:evenodd;stroke:none;stroke-width:0.264583"
       d="m 6.8433482,38.799039 0.338841,-0.08969 c 0.08969,0.338841 0.139523,0.687648 0.139523,1.036456 h -0.358775 -0.358773 c 0,-0.289012 -0.03986,-0.578024 -0.109624,-0.85707 z"
       id="path40" />
    <path
       style="fill:#728a41;fill-opacity:1;fill-rule:evenodd;stroke:none;stroke-width:0.264583"
       d="m 6.6041642,39.745802 c 0,0 0,0 0,0 h 0.358773 z"
       id="path42" />
    <path
       style="fill:#728a41;fill-opacity:1;fill-rule:evenodd;stroke:none;stroke-width:0.264583"
       d="m 6.6041642,39.745802 h 0.358773 0.358775 l 0.01,14.679797 h -0.358772 -0.358773 z"
       id="path44" />
    <path
       style="fill:#728a41;fill-opacity:1;fill-rule:evenodd;stroke:none;stroke-width:0.264583"
       d="m 7.3316762,54.425599 c 0,0 0,0 0,0 v 0 h -0.358772 z"
       id="path46" />
    <path
       style="fill:#728a41;fill-opacity:1;fill-rule:evenodd;stroke:none;stroke-width:0.264583"
       d="m 6.9729042,54.425599 h 0.358772 c 0,0.358773 -0.04983,0.707581 -0.139523,1.046421 l -0.338841,-0.09966 -0.348806,-0.08969 c 0.06976,-0.279045 0.109625,-0.568057 0.109625,-0.857069 z"
       id="path48" />
    <path
       style="fill:#728a41;fill-opacity:1;fill-rule:evenodd;stroke:none;stroke-width:0.264583"
       d="m 6.8533122,55.372362 0.338841,0.09966 c -0.08969,0.338842 -0.219249,0.657752 -0.398637,0.966695 l -0.308943,-0.179389 -0.308944,-0.179385 c 0.139523,-0.24915 0.259115,-0.518229 0.328877,-0.797275 z"
       id="path50" />
    <path
       style="fill:#728a41;fill-opacity:1;fill-rule:evenodd;stroke:none;stroke-width:0.264583"
       d="m 6.4845732,56.259328 0.308943,0.179387 c -0.179385,0.308944 -0.38867,0.587989 -0.637818,0.837137 L 5.8965842,57.026704 5.6474362,56.76759 c 0.199319,-0.199319 0.378706,-0.4385 0.528193,-0.687647 z"
       id="path52" />
    <path
       style="fill:#728a41;fill-opacity:1;fill-rule:evenodd;stroke:none;stroke-width:0.264583"
       d="m 5.8965842,57.026704 0.259114,0.249148 c -0.249147,0.249147 -0.528193,0.468399 -0.837136,0.63782 l -0.179388,-0.308943 -0.179387,-0.308946 c 0.24915,-0.149487 0.478364,-0.318908 0.687649,-0.528193 z"
       id="path54" />
    <path
       style="fill:#728a41;fill-opacity:1;fill-rule:evenodd;stroke:none;stroke-width:0.264583"
       d="m 5.1391742,57.604729 0.179388,0.308943 c -0.308943,0.179385 -0.637821,0.308943 -0.976662,0.398634 l -0.08969,-0.338841 -0.08969,-0.348805 c 0.279046,-0.07973 0.548124,-0.189352 0.797272,-0.328877 z"
       id="path56" />
    <path
       style="fill:#728a41;fill-opacity:1;fill-rule:evenodd;stroke:none;stroke-width:0.264583"
       d="m 4.2522092,57.973465 0.08969,0.338841 c -0.338841,0.08969 -0.687647,0.139523 -1.036455,0.139523 v -0.358772 -0.358773 c 0.289013,0 0.578025,-0.03986 0.85707,-0.109624 z"
       id="path58" />
    <path
       style="fill:#728a41;fill-opacity:1;fill-rule:evenodd;stroke:none;stroke-width:0.264583"
       d="m 3.3054452,57.734284 c 0,0 0,0 0,0 v 0.358773 z"
       id="path60" />
    <path
       style="fill:#728a41;fill-opacity:1;fill-rule:evenodd;stroke:none;stroke-width:0.264583"
       d="m 3.3054452,57.734284 v 0.358773 0.358772 l -47.7068512,0.01 v -0.358772 -0.358773 z"
       id="path62" />
    <path
       style="fill:#728a41;fill-opacity:1;fill-rule:evenodd;stroke:none;stroke-width:0.264583"
       d="m -44.401406,58.461796 c 0,0 0,0 0,0 v -0.358772 z"
       id="path64" />
    <path
       style="fill:#728a41;fill-opacity:1;fill-rule:evenodd;stroke:none;stroke-width:0.264583"
       d="m -44.401406,58.103024 v 0.358772 c -0.358773,0 -0.70758,-0.04983 -1.046421,-0.139523 l 0.09966,-0.338841 0.08969,-0.348808 c 0.279046,0.06976 0.568057,0.109627 0.857069,0.109627 z"
       id="path66" />
    <path
       style="fill:#728a41;fill-opacity:1;fill-rule:evenodd;stroke:none;stroke-width:0.264583"
       d="m -45.348168,57.983432 -0.09966,0.338841 c -0.338841,-0.08969 -0.657751,-0.219249 -0.966694,-0.398637 l 0.179386,-0.308943 0.179387,-0.308944 c 0.249148,0.139523 0.518227,0.259115 0.797273,0.328875 z"
       id="path68" />
    <path
       style="fill:#728a41;fill-opacity:1;fill-rule:evenodd;stroke:none;stroke-width:0.264583"
       d="m -46.235135,57.614693 -0.179386,0.308943 c -0.308944,-0.179385 -0.587989,-0.38867 -0.837137,-0.637818 l 0.249148,-0.259114 0.259113,-0.249148 c 0.199319,0.199319 0.438501,0.378704 0.687649,0.528193 z"
       id="path70" />
    <path
       style="fill:#728a41;fill-opacity:1;fill-rule:evenodd;stroke:none;stroke-width:0.264583"
       d="m -47.00251,57.026704 -0.249148,0.259114 c -0.249148,-0.249147 -0.468399,-0.528193 -0.637819,-0.837136 l 0.308943,-0.179387 0.308944,-0.179388 c 0.149489,0.249148 0.318909,0.478364 0.528193,0.687649 z"
       id="path72" />
    <path
       style="fill:#728a41;fill-opacity:1;fill-rule:evenodd;stroke:none;stroke-width:0.264583"
       d="m -47.580534,56.269295 -0.308943,0.179387 c -0.179387,-0.308943 -0.308944,-0.63782 -0.398637,-0.976662 l 0.348807,-0.08969 0.338841,-0.08969 c 0.07973,0.279047 0.189353,0.548125 0.328876,0.797273 z"
       id="path74" />
    <path
       style="fill:#728a41;fill-opacity:1;fill-rule:evenodd;stroke:none;stroke-width:0.264583"
       d="m -47.939307,55.382328 -0.348807,0.08969 c -0.08969,-0.33884 -0.139523,-0.687648 -0.139523,-1.036455 h 0.358773 0.358773 c 0,0.289012 0.03986,0.578024 0.109625,0.857069 z"
       id="path76" />
    <path
       style="fill:#728a41;fill-opacity:1;fill-rule:evenodd;stroke:none;stroke-width:0.264583"
       d="m -47.710091,54.435565 h -0.358773 -0.358773 V 39.745802 h 0.358773 0.358773 z"
       id="path78" />
    <text
       xml:space="preserve"
       style="font-style:normal;font-variant:normal;font-weight:400;font-size:6.33346px;line-height:125%;font-family:Calibri;text-align:start;letter-spacing:0px;word-spacing:0px;text-anchor:start;fill:#000000;fill-opacity:1;stroke:none;stroke-width:0.264583"
       x="-37.086422"
       y="49.622028"
       id="text84"><tspan
         sodipodi:role="line"
         x="-37.086422"
         y="49.622028"
         id="tspan82"
         style="stroke-width:0.264583"><tspan
           dx="0"
           dy="0"
           style="font-style:normal;font-variant:normal;font-weight:400;font-size:6.33346px;font-family:Calibri;fill:#ffffff;stroke-width:0.264583"
           id="tspan80">Développeur</tspan></tspan></text>
    <path
       style="fill:#9bbb59;fill-opacity:1;fill-rule:evenodd;stroke:none;stroke-width:0.264583"
       d="m 31.728246,112.02861 v 0 c 0,-0.64779 0.169418,-1.27564 0.488329,-1.83373 0.328877,-0.55809 0.787307,-1.02649 1.345398,-1.3454 0.558093,-0.31891 1.195911,-0.48833 1.833729,-0.48833 h 47.696891 v 0 c 0.64778,0 1.27563,0.16942 1.83373,0.48833 0.55809,0.32887 1.02648,0.78731 1.34539,1.3454 0.31891,0.55809 0.48833,1.19591 0.48833,1.83373 v 0 l 0.01,14.67979 v 0 c 0,0.64779 -0.16942,1.27564 -0.48833,1.83373 -0.32888,0.5581 -0.78731,1.0265 -1.3454,1.3454 -0.55809,0.31891 -1.19591,0.48833 -1.83373,0.48833 l -47.706851,0.01 v 0 c -0.647785,0 -1.275636,-0.16942 -1.833729,-0.48833 -0.558091,-0.32887 -1.026488,-0.78731 -1.345398,-1.3454 -0.318911,-0.55809 -0.488329,-1.19591 -0.488329,-1.83373 z"
       id="path86" />
    <path
       style="fill:#728a41;fill-opacity:1;fill-rule:evenodd;stroke:none;stroke-width:0.264583"
       d="m 31.728246,112.02861 h -0.358775 c 0,-0.35878 0.04983,-0.70758 0.139523,-1.04642 l 0.338841,0.0997 0.348808,0.0897 c -0.06976,0.27904 -0.109624,0.56805 -0.109624,0.85706 z"
       id="path88" />
    <path
       style="fill:#728a41;fill-opacity:1;fill-rule:evenodd;stroke:none;stroke-width:0.264583"
       d="m 31.847835,111.08185 -0.338841,-0.0997 c 0.08969,-0.33885 0.219252,-0.65775 0.398637,-0.9667 l 0.308944,0.17939 0.308943,0.17939 c -0.139523,0.24914 -0.259114,0.51822 -0.328875,0.79727 z"
       id="path90" />
    <path
       style="fill:#728a41;fill-opacity:1;fill-rule:evenodd;stroke:none;stroke-width:0.264583"
       d="m 32.216575,110.19488 -0.308944,-0.17939 c 0.179388,-0.30894 0.38867,-0.58799 0.637821,-0.83714 l 0.259111,0.24915 0.249148,0.25912 c -0.199316,0.19931 -0.378704,0.4385 -0.528193,0.68765 z"
       id="path92" />
    <path
       style="fill:#728a41;fill-opacity:1;fill-rule:evenodd;stroke:none;stroke-width:0.264583"
       d="m 32.804563,109.4275 -0.259111,-0.24915 c 0.249147,-0.24914 0.528193,-0.46839 0.837136,-0.63781 l 0.179385,0.30894 0.179387,0.30894 c -0.249147,0.14949 -0.478364,0.31891 -0.687649,0.5282 z"
       id="path94" />
    <path
       style="fill:#728a41;fill-opacity:1;fill-rule:evenodd;stroke:none;stroke-width:0.264583"
       d="m 33.561973,108.84948 -0.179385,-0.30894 c 0.308943,-0.17939 0.637818,-0.30895 0.976659,-0.39864 l 0.08969,0.34881 0.08969,0.33884 c -0.279046,0.0797 -0.548127,0.18935 -0.797275,0.32887 z"
       id="path96" />
    <path
       style="fill:#728a41;fill-opacity:1;fill-rule:evenodd;stroke:none;stroke-width:0.264583"
       d="m 34.448941,108.49071 -0.08969,-0.34881 c 0.338841,-0.0897 0.68765,-0.13952 1.036455,-0.13952 v 0.35877 0.35877 c -0.28901,0 -0.578022,0.0399 -0.857067,0.10963 z"
       id="path98" />
    <path
       style="fill:#728a41;fill-opacity:1;fill-rule:evenodd;stroke:none;stroke-width:0.264583"
       d="m 35.395702,108.71992 v -0.35877 -0.35877 h 47.696891 v 0.35877 0.35877 z"
       id="path100" />
    <path
       style="fill:#728a41;fill-opacity:1;fill-rule:evenodd;stroke:none;stroke-width:0.264583"
       d="m 83.092593,108.36115 v -0.35877 c 0.35877,0 0.70758,0.0498 1.04642,0.13952 l -0.0997,0.33884 -0.0897,0.34881 c -0.27904,-0.0698 -0.56805,-0.10963 -0.85706,-0.10963 z"
       id="path102" />
    <path
       style="fill:#728a41;fill-opacity:1;fill-rule:evenodd;stroke:none;stroke-width:0.264583"
       d="m 84.039353,108.48074 0.0997,-0.33884 c 0.33884,0.0897 0.65775,0.21925 0.96669,0.39864 l -0.17938,0.30894 -0.17939,0.30894 c -0.24915,-0.13952 -0.51823,-0.25911 -0.79728,-0.32887 z"
       id="path104" />
    <path
       style="fill:#728a41;fill-opacity:1;fill-rule:evenodd;stroke:none;stroke-width:0.264583"
       d="m 84.926323,108.84948 0.17938,-0.30894 c 0.30894,0.17938 0.58799,0.38867 0.83714,0.63781 l -0.24915,0.25912 -0.25911,0.24915 c -0.19932,-0.19932 -0.4385,-0.37871 -0.68765,-0.5282 z"
       id="path106" />
    <path
       style="fill:#728a41;fill-opacity:1;fill-rule:evenodd;stroke:none;stroke-width:0.264583"
       d="m 85.693693,109.43747 0.24915,-0.25912 c 0.24915,0.24915 0.4684,0.5282 0.63782,0.83714 l -0.30895,0.17939 -0.30894,0.17939 c -0.14949,-0.24915 -0.31891,-0.47837 -0.52819,-0.68765 z"
       id="path108" />
    <path
       style="fill:#728a41;fill-opacity:1;fill-rule:evenodd;stroke:none;stroke-width:0.264583"
       d="m 86.271713,110.19488 0.30895,-0.17939 c 0.17938,0.30895 0.30894,0.63782 0.39863,0.97666 l -0.33884,0.0897 -0.34881,0.0897 c -0.0797,-0.27905 -0.18935,-0.54812 -0.32887,-0.79727 z"
       id="path110" />
    <path
       style="fill:#728a41;fill-opacity:1;fill-rule:evenodd;stroke:none;stroke-width:0.264583"
       d="m 86.640453,111.08185 0.33884,-0.0897 c 0.0897,0.33884 0.13953,0.68764 0.13953,1.03645 h -0.35878 -0.35877 c 0,-0.28901 -0.0399,-0.57802 -0.10963,-0.85707 z"
       id="path112" />
    <path
       style="fill:#728a41;fill-opacity:1;fill-rule:evenodd;stroke:none;stroke-width:0.264583"
       d="m 86.401273,112.02861 c 0,0 0,0 0,0 h 0.35877 z"
       id="path114" />
    <path
       style="fill:#728a41;fill-opacity:1;fill-rule:evenodd;stroke:none;stroke-width:0.264583"
       d="m 86.401273,112.02861 h 0.35877 0.35878 l 0.01,14.67979 h -0.35877 -0.35877 z"
       id="path116" />
    <path
       style="fill:#728a41;fill-opacity:1;fill-rule:evenodd;stroke:none;stroke-width:0.264583"
       d="m 87.128783,126.7084 c 0,0 0,0 0,0 v 0 h -0.35877 z"
       id="path118" />
    <path
       style="fill:#728a41;fill-opacity:1;fill-rule:evenodd;stroke:none;stroke-width:0.264583"
       d="m 86.770013,126.7084 h 0.35877 c 0,0.35878 -0.0498,0.70759 -0.13952,1.04643 l -0.33884,-0.0997 -0.34881,-0.0897 c 0.0698,-0.27905 0.10963,-0.56806 0.10963,-0.85707 z"
       id="path120" />
    <path
       style="fill:#728a41;fill-opacity:1;fill-rule:evenodd;stroke:none;stroke-width:0.264583"
       d="m 86.650423,127.65517 0.33884,0.0997 c -0.0897,0.33884 -0.21925,0.65775 -0.39864,0.96669 l -0.30894,-0.17938 -0.30894,-0.17939 c 0.13952,-0.24915 0.25911,-0.51823 0.32887,-0.79727 z"
       id="path122" />
    <path
       style="fill:#728a41;fill-opacity:1;fill-rule:evenodd;stroke:none;stroke-width:0.264583"
       d="m 86.281683,128.54213 0.30894,0.17939 c -0.17938,0.30895 -0.38867,0.58799 -0.63782,0.83714 l -0.25911,-0.24915 -0.24915,-0.25911 c 0.19932,-0.19932 0.37871,-0.4385 0.5282,-0.68765 z"
       id="path124" />
    <path
       style="fill:#728a41;fill-opacity:1;fill-rule:evenodd;stroke:none;stroke-width:0.264583"
       d="m 85.693693,129.30951 0.25911,0.24915 c -0.24914,0.24915 -0.52819,0.4684 -0.83713,0.63782 l -0.17939,-0.30895 -0.17939,-0.30894 c 0.24915,-0.14949 0.47837,-0.31891 0.68765,-0.52819 z"
       id="path126" />
    <path
       style="fill:#728a41;fill-opacity:1;fill-rule:evenodd;stroke:none;stroke-width:0.264583"
       d="m 84.936283,129.88753 0.17939,0.30895 c -0.30895,0.17938 -0.63782,0.30894 -0.97666,0.39863 l -0.0897,-0.33884 -0.0897,-0.3488 c 0.27905,-0.0797 0.54813,-0.18936 0.79727,-0.32888 z"
       id="path128" />
    <path
       style="fill:#728a41;fill-opacity:1;fill-rule:evenodd;stroke:none;stroke-width:0.264583"
       d="m 84.049313,130.25627 0.0897,0.33884 c -0.33884,0.0897 -0.68765,0.13953 -1.03646,0.13953 v -0.35878 -0.35877 c 0.28901,0 0.57803,-0.0399 0.85707,-0.10962 z"
       id="path130" />
    <path
       style="fill:#728a41;fill-opacity:1;fill-rule:evenodd;stroke:none;stroke-width:0.264583"
       d="m 83.102553,130.01709 c 0,0 0,0 0,0 v 0.35877 z"
       id="path132" />
    <path
       style="fill:#728a41;fill-opacity:1;fill-rule:evenodd;stroke:none;stroke-width:0.264583"
       d="m 83.102553,130.01709 v 0.35877 0.35878 l -47.706851,0.01 v -0.35877 -0.35877 z"
       id="path134" />
    <path
       style="fill:#728a41;fill-opacity:1;fill-rule:evenodd;stroke:none;stroke-width:0.264583"
       d="m 35.395702,130.7446 c 0,0 0,0 0,0 v -0.35877 z"
       id="path136" />
    <path
       style="fill:#728a41;fill-opacity:1;fill-rule:evenodd;stroke:none;stroke-width:0.264583"
       d="m 35.395702,130.38583 v 0.35877 c -0.358772,0 -0.70758,-0.0498 -1.046422,-0.13952 l 0.09966,-0.33884 0.08969,-0.34881 c 0.279045,0.0698 0.568057,0.10963 0.857067,0.10963 z"
       id="path138" />
    <path
       style="fill:#728a41;fill-opacity:1;fill-rule:evenodd;stroke:none;stroke-width:0.264583"
       d="m 34.448941,130.26624 -0.09966,0.33884 c -0.338838,-0.0897 -0.657749,-0.21925 -0.966692,-0.39864 l 0.179385,-0.30894 0.179387,-0.30894 c 0.249148,0.13952 0.518229,0.24914 0.797275,0.32887 z"
       id="path140" />
    <path
       style="fill:#728a41;fill-opacity:1;fill-rule:evenodd;stroke:none;stroke-width:0.264583"
       d="m 33.382588,130.20644 c 0,0 0,0 0,0 0,0 0,0 0,0 l 0.179385,-0.30894 z"
       id="path142" />
    <path
       style="fill:#728a41;fill-opacity:1;fill-rule:evenodd;stroke:none;stroke-width:0.264583"
       d="m 33.561973,129.8975 -0.179385,0.30894 c -0.308943,-0.17938 -0.587989,-0.39863 -0.837136,-0.63781 l 0.259111,-0.25912 0.249148,-0.24915 c 0.209285,0.19932 0.438502,0.37871 0.687649,0.5282 z"
       id="path144" />
    <path
       style="fill:#728a41;fill-opacity:1;fill-rule:evenodd;stroke:none;stroke-width:0.264583"
       d="m 32.804563,129.30951 -0.259111,0.25912 c -0.249151,-0.24915 -0.4684,-0.5282 -0.637821,-0.83714 l 0.308944,-0.17939 0.308943,-0.17939 c 0.149489,0.24915 0.31891,0.47837 0.528193,0.68765 z"
       id="path146" />
    <path
       style="fill:#728a41;fill-opacity:1;fill-rule:evenodd;stroke:none;stroke-width:0.264583"
       d="m 32.216575,128.5521 -0.308944,0.17939 c -0.179385,-0.30895 -0.308943,-0.63782 -0.398637,-0.97666 l 0.348808,-0.0897 0.338841,-0.0897 c 0.07973,0.27905 0.189352,0.54812 0.328875,0.79727 z"
       id="path148" />
    <path
       style="fill:#728a41;fill-opacity:1;fill-rule:evenodd;stroke:none;stroke-width:0.264583"
       d="m 31.857802,127.66513 -0.348808,0.0897 c -0.08969,-0.33883 -0.139523,-0.68764 -0.139523,-1.03645 h 0.358775 0.358773 c 0,0.28901 0.03986,0.57802 0.109624,0.85707 z"
       id="path150" />
    <path
       style="fill:#728a41;fill-opacity:1;fill-rule:evenodd;stroke:none;stroke-width:0.264583"
       d="m 32.087019,126.71837 h -0.358773 -0.358775 v -14.68976 h 0.358775 0.358773 z"
       id="path152" />
    <text
       xml:space="preserve"
       style="font-style:normal;font-variant:normal;font-weight:400;font-size:6.33346px;line-height:125%;font-family:Calibri;text-align:start;letter-spacing:0px;word-spacing:0px;text-anchor:start;fill:#000000;fill-opacity:1;stroke:none;stroke-width:0.264583"
       x="42.710686"
       y="121.90483"
       id="text158"><tspan
         sodipodi:role="line"
         x="42.710686"
         y="121.90483"
         id="tspan156"
         style="stroke-width:0.264583"><tspan
           dx="0"
           dy="0"
           style="font-style:normal;font-variant:normal;font-weight:400;font-size:6.33346px;font-family:Calibri;fill:#ffffff;stroke-width:0.264583"
           id="tspan154">Développeur</tspan></tspan></text>
    <path
       style="fill:#9bbb59;fill-opacity:1;fill-rule:evenodd;stroke:none;stroke-width:0.264583"
       d="m 112.25286,39.755767 v 0 c 0,-0.647784 0.16942,-1.275637 0.48833,-1.833729 0.32888,-0.558091 0.78731,-1.02649 1.3454,-1.345399 0.55809,-0.318909 1.19591,-0.48833 1.83373,-0.48833 h 47.69689 v 0 c 0.64778,0 1.27563,0.169421 1.83373,0.48833 0.55809,0.328875 1.02649,0.787308 1.34539,1.345399 0.31891,0.558092 0.48833,1.195911 0.48833,1.833729 v 0 l 0.01,14.679798 v 0 c 0,0.647785 -0.16942,1.275639 -0.48833,1.83373 -0.32887,0.55809 -0.78731,1.026488 -1.3454,1.345398 -0.55809,0.31891 -1.19591,0.488331 -1.83373,0.488331 l -47.70685,0.01 v 0 c -0.64778,0 -1.27564,-0.169421 -1.83373,-0.488328 -0.55809,-0.328877 -1.02649,-0.787308 -1.3454,-1.345399 -0.31891,-0.558093 -0.48833,-1.195911 -0.48833,-1.83373 z"
       id="path160" />
    <path
       style="fill:#728a41;fill-opacity:1;fill-rule:evenodd;stroke:none;stroke-width:0.264583"
       d="m 112.25286,39.755767 h -0.35877 c 0,-0.358773 0.0498,-0.70758 0.13952,-1.046421 l 0.33884,0.09966 0.34881,0.08969 c -0.0698,0.279046 -0.10962,0.568058 -0.10962,0.857069 z"
       id="path162" />
    <path
       style="fill:#728a41;fill-opacity:1;fill-rule:evenodd;stroke:none;stroke-width:0.264583"
       d="m 112.37245,38.809005 -0.33884,-0.09966 c 0.0897,-0.338842 0.21925,-0.657751 0.39864,-0.966694 l 0.30894,0.179386 0.30895,0.179387 c -0.13953,0.249148 -0.25912,0.518227 -0.32888,0.797273 z"
       id="path164" />
    <path
       style="fill:#728a41;fill-opacity:1;fill-rule:evenodd;stroke:none;stroke-width:0.264583"
       d="m 112.74119,37.922038 -0.30894,-0.179386 c 0.17939,-0.308944 0.38867,-0.58799 0.63782,-0.837138 l 0.25911,0.249148 0.24915,0.259114 c -0.19932,0.199319 -0.37871,0.438501 -0.52819,0.687649 z"
       id="path166" />
    <path
       style="fill:#728a41;fill-opacity:1;fill-rule:evenodd;stroke:none;stroke-width:0.264583"
       d="m 113.32918,37.154662 -0.25911,-0.249148 c 0.24915,-0.249148 0.52819,-0.468398 0.83713,-0.637818 l 0.17939,0.308943 0.17939,0.308944 c -0.24915,0.149488 -0.47837,0.318909 -0.68765,0.528193 z"
       id="path168" />
    <path
       style="fill:#728a41;fill-opacity:1;fill-rule:evenodd;stroke:none;stroke-width:0.264583"
       d="m 114.08659,36.576639 -0.17939,-0.308943 c 0.30895,-0.179387 0.63783,-0.308944 0.97667,-0.398637 l 0.0897,0.348807 0.0897,0.338841 c -0.27904,0.07973 -0.54812,0.189353 -0.79727,0.328876 z"
       id="path170" />
    <path
       style="fill:#728a41;fill-opacity:1;fill-rule:evenodd;stroke:none;stroke-width:0.264583"
       d="m 114.97356,36.217866 -0.0897,-0.348807 c 0.33884,-0.08969 0.68764,-0.139523 1.03645,-0.139523 v 0.358773 0.358773 c -0.28901,0 -0.57802,0.03986 -0.85707,0.109625 z"
       id="path172" />
    <path
       style="fill:#728a41;fill-opacity:1;fill-rule:evenodd;stroke:none;stroke-width:0.264583"
       d="m 115.92032,36.447082 v -0.358773 -0.358773 h 47.69689 v 0.358773 0.358773 z"
       id="path174" />
    <path
       style="fill:#728a41;fill-opacity:1;fill-rule:evenodd;stroke:none;stroke-width:0.264583"
       d="m 163.61721,36.088309 v -0.358773 c 0.35877,0 0.70758,0.04983 1.04642,0.139523 l -0.0997,0.338841 -0.0897,0.348807 c -0.27905,-0.06976 -0.56806,-0.109625 -0.85707,-0.109625 z"
       id="path176" />
    <path
       style="fill:#728a41;fill-opacity:1;fill-rule:evenodd;stroke:none;stroke-width:0.264583"
       d="m 164.56397,36.2079 0.0997,-0.338841 c 0.33884,0.08969 0.65775,0.21925 0.96669,0.398637 l -0.17938,0.308943 -0.17939,0.308944 c -0.24919,-0.139523 -0.51827,-0.259114 -0.79731,-0.328876 z"
       id="path178" />
    <path
       style="fill:#728a41;fill-opacity:1;fill-rule:evenodd;stroke:none;stroke-width:0.264583"
       d="m 165.45094,36.576639 0.17938,-0.308943 c 0.30895,0.179386 0.58799,0.38867 0.83714,0.637818 l -0.24915,0.259114 -0.25911,0.249148 c -0.19932,-0.199318 -0.4385,-0.378705 -0.68765,-0.528193 z"
       id="path180" />
    <path
       style="fill:#728a41;fill-opacity:1;fill-rule:evenodd;stroke:none;stroke-width:0.264583"
       d="m 166.21831,37.164628 0.24915,-0.259114 c 0.24915,0.249148 0.4684,0.528194 0.63782,0.837138 l -0.30895,0.179386 -0.30894,0.179387 c -0.14949,-0.249148 -0.31891,-0.478364 -0.52819,-0.687649 z"
       id="path182" />
    <path
       style="fill:#728a41;fill-opacity:1;fill-rule:evenodd;stroke:none;stroke-width:0.264583"
       d="m 166.79633,37.922038 0.30895,-0.179386 c 0.17938,0.308943 0.30894,0.637818 0.39863,0.97666 l -0.33884,0.08969 -0.3488,0.08969 c -0.0797,-0.279046 -0.18936,-0.548126 -0.32888,-0.797274 z"
       id="path184" />
    <path
       style="fill:#728a41;fill-opacity:1;fill-rule:evenodd;stroke:none;stroke-width:0.264583"
       d="m 167.16507,38.809005 0.33884,-0.08969 c 0.0897,0.338841 0.13953,0.687648 0.13953,1.036455 h -0.35878 -0.35877 c 0,-0.289011 -0.0399,-0.578023 -0.10962,-0.857069 z"
       id="path186" />
    <path
       style="fill:#728a41;fill-opacity:1;fill-rule:evenodd;stroke:none;stroke-width:0.264583"
       d="m 166.92589,39.755767 c 0,0 0,0 0,0 h 0.35877 z"
       id="path188" />
    <path
       style="fill:#728a41;fill-opacity:1;fill-rule:evenodd;stroke:none;stroke-width:0.264583"
       d="m 166.92589,39.755767 h 0.35877 0.35878 l 0.01,14.679798 h -0.35877 -0.35877 z"
       id="path190" />
    <path
       style="fill:#728a41;fill-opacity:1;fill-rule:evenodd;stroke:none;stroke-width:0.264583"
       d="m 167.6534,54.435565 c 0,0 0,0 0,0 v 0 h -0.35877 z"
       id="path192" />
    <path
       style="fill:#728a41;fill-opacity:1;fill-rule:evenodd;stroke:none;stroke-width:0.264583"
       d="m 167.29463,54.435565 h 0.35877 c 0,0.358773 -0.0498,0.707581 -0.13952,1.046422 l -0.33884,-0.09966 -0.34881,-0.08969 c 0.0698,-0.279045 0.10963,-0.568057 0.10963,-0.857069 z"
       id="path194" />
    <path
       style="fill:#728a41;fill-opacity:1;fill-rule:evenodd;stroke:none;stroke-width:0.264583"
       d="m 167.17504,55.382328 0.33884,0.09966 c -0.0897,0.338841 -0.21925,0.657752 -0.39864,0.966695 l -0.30894,-0.179387 -0.30894,-0.179388 c 0.13952,-0.249148 0.25911,-0.518226 0.32887,-0.797273 z"
       id="path196" />
    <path
       style="fill:#728a41;fill-opacity:1;fill-rule:evenodd;stroke:none;stroke-width:0.264583"
       d="m 166.8063,56.269295 0.30894,0.179387 c -0.17938,0.308943 -0.38867,0.587989 -0.63781,0.837136 l -0.25912,-0.249147 -0.24915,-0.259115 c 0.19932,-0.199318 0.37871,-0.438501 0.5282,-0.687649 z"
       id="path198" />
    <path
       style="fill:#728a41;fill-opacity:1;fill-rule:evenodd;stroke:none;stroke-width:0.264583"
       d="m 166.21831,57.036671 0.25912,0.249147 c -0.24915,0.249148 -0.5282,0.468398 -0.83714,0.637818 l -0.17939,-0.308943 -0.17939,-0.308944 c 0.24915,-0.149489 0.47837,-0.31891 0.68765,-0.528193 z"
       id="path200" />
    <path
       style="fill:#728a41;fill-opacity:1;fill-rule:evenodd;stroke:none;stroke-width:0.264583"
       d="m 165.4609,57.614693 0.17939,0.308943 c -0.30895,0.179388 -0.63782,0.308944 -0.97666,0.398637 l -0.0897,-0.338841 -0.0897,-0.348808 c 0.27905,-0.07973 0.54813,-0.189352 0.79727,-0.328875 z"
       id="path202" />
    <path
       style="fill:#728a41;fill-opacity:1;fill-rule:evenodd;stroke:none;stroke-width:0.264583"
       d="m 164.57393,57.983432 0.0897,0.338841 c -0.33884,0.08969 -0.68765,0.139523 -1.03646,0.139523 v -0.358772 -0.358773 c 0.28902,0 0.57803,-0.03986 0.85707,-0.109627 z"
       id="path204" />
    <path
       style="fill:#728a41;fill-opacity:1;fill-rule:evenodd;stroke:none;stroke-width:0.264583"
       d="m 163.62717,57.744251 c 0,0 0,0 0,0 v 0.358773 z"
       id="path206" />
    <path
       style="fill:#728a41;fill-opacity:1;fill-rule:evenodd;stroke:none;stroke-width:0.264583"
       d="m 163.62717,57.744251 v 0.358773 0.358772 l -47.70685,0.01 v -0.358775 -0.358772 z"
       id="path208" />
    <path
       style="fill:#728a41;fill-opacity:1;fill-rule:evenodd;stroke:none;stroke-width:0.264583"
       d="m 115.92032,58.471763 c 0,0 0,0 0,0 v -0.358775 z"
       id="path210" />
    <path
       style="fill:#728a41;fill-opacity:1;fill-rule:evenodd;stroke:none;stroke-width:0.264583"
       d="m 115.92032,58.112988 v 0.358775 c -0.35877,0 -0.70758,-0.04983 -1.04642,-0.139523 l 0.0997,-0.338841 0.0897,-0.348808 c 0.27905,0.06976 0.56806,0.109625 0.85707,0.109625 z"
       id="path212" />
    <path
       style="fill:#728a41;fill-opacity:1;fill-rule:evenodd;stroke:none;stroke-width:0.264583"
       d="m 114.97356,57.993399 -0.0997,0.338841 c -0.33884,-0.08969 -0.65775,-0.219252 -0.9667,-0.398637 l 0.17939,-0.308943 0.17939,-0.308944 c 0.24915,0.139523 0.51823,0.259115 0.79727,0.328875 z"
       id="path214" />
    <path
       style="fill:#728a41;fill-opacity:1;fill-rule:evenodd;stroke:none;stroke-width:0.264583"
       d="m 114.08659,57.62466 -0.17939,0.308943 c -0.30894,-0.179387 -0.58798,-0.38867 -0.83713,-0.63782 l 0.24915,-0.259112 0.25911,-0.249148 c 0.19932,0.199316 0.4385,0.378704 0.68765,0.528193 z"
       id="path216" />
    <path
       style="fill:#728a41;fill-opacity:1;fill-rule:evenodd;stroke:none;stroke-width:0.264583"
       d="m 113.31922,57.036671 -0.24915,0.259112 c -0.24915,-0.249148 -0.4684,-0.528193 -0.63782,-0.837137 l 0.30894,-0.179385 0.30895,-0.179387 c 0.14948,0.249147 0.31891,0.478364 0.52819,0.687649 z"
       id="path218" />
    <path
       style="fill:#728a41;fill-opacity:1;fill-rule:evenodd;stroke:none;stroke-width:0.264583"
       d="m 112.74119,56.279261 -0.30894,0.179385 c -0.17939,-0.308943 -0.30894,-0.637818 -0.39864,-0.976659 l 0.34881,-0.08969 0.33884,-0.08969 c 0.0797,0.279045 0.18935,0.548126 0.32888,0.797274 z"
       id="path220" />
    <path
       style="fill:#728a41;fill-opacity:1;fill-rule:evenodd;stroke:none;stroke-width:0.264583"
       d="m 112.38242,55.392293 -0.34881,0.08969 c -0.0897,-0.338841 -0.13952,-0.687649 -0.13952,-1.036456 h 0.35877 0.35878 c 0,0.289012 0.0399,0.578023 0.10962,0.857069 z"
       id="path222" />
    <path
       style="fill:#728a41;fill-opacity:1;fill-rule:evenodd;stroke:none;stroke-width:0.264583"
       d="m 112.61164,54.445531 h -0.35878 -0.35877 V 39.755767 h 0.35877 0.35878 z"
       id="path224" />
    <text
       xml:space="preserve"
       style="font-style:normal;font-variant:normal;font-weight:400;font-size:6.33346px;line-height:125%;font-family:Calibri;text-align:start;letter-spacing:0px;word-spacing:0px;text-anchor:start;fill:#000000;fill-opacity:1;stroke:none;stroke-width:0.264583"
       x="123.23531"
       y="49.631992"
       id="text230"><tspan
         sodipodi:role="line"
         x="123.23531"
         y="49.631992"
         id="tspan228"
         style="stroke-width:0.264583"><tspan
           dx="0"
           dy="0"
           style="font-style:normal;font-variant:normal;font-weight:400;font-size:6.33346px;font-family:Calibri;fill:#ffffff;stroke-width:0.264583"
           id="tspan226">Développeur</tspan></tspan></text>
    <path
       style="fill:#1f497d;fill-opacity:1;fill-rule:evenodd;stroke:none;stroke-width:0.264583"
       d="m -17.822301,34.722978 -0.109625,-0.338841 c 1.195909,-0.368739 2.680832,-0.727512 4.444799,-1.076319 l 0.06976,0.348807 0.06976,0.348807 c -1.734069,0.348807 -3.199059,0.697614 -4.365072,1.056387 z"
       id="path232" />
    <path
       style="fill:#1f497d;fill-opacity:1;fill-rule:evenodd;stroke:none;stroke-width:0.264583"
       d="m -13.417364,33.656625 -0.06976,-0.348807 c 1.754002,-0.348807 3.7870502,-0.687649 6.0891762,-1.016524 l 0.04983,0.358773 0.04983,0.358773 c -2.292159,0.31891 -4.3052762,0.657751 -6.0493112,0.996592 z"
       id="path234" />
    <path
       style="fill:#1f497d;fill-opacity:1;fill-rule:evenodd;stroke:none;stroke-width:0.264583"
       d="m -7.3481218,32.650067 -0.049829,-0.358773 c 4.584322,-0.637818 10.244963,-1.235774 16.852368,-1.73407 l 0.0299,0.358773 0.01993,0.358773 c -6.587471,0.498296 -12.228181,1.086285 -16.802539,1.73407 z"
       id="path236" />
    <path
       style="fill:#1f497d;fill-opacity:1;fill-rule:evenodd;stroke:none;stroke-width:0.264583"
       d="m 9.4843152,30.915997 -0.0299,-0.358773 C 22.669225,29.570598 39.700981,28.93278 59.752403,28.93278 v 0.358773 0.358773 c -20.021524,0 -37.05328,0.627853 -50.2481568,1.624444 z"
       id="path238" />
    <path
       style="fill:#1f497d;fill-opacity:1;fill-rule:evenodd;stroke:none;stroke-width:0.264583"
       d="M 59.752403,29.291553 V 28.93278 c 20.05143,0 37.10312,0.597955 50.327887,1.544717 l -0.0299,0.358773 -0.0199,0.348807 C 96.815663,30.248281 79.773943,29.650326 59.752403,29.650326 Z"
       id="path240" />
    <path
       style="fill:#1f497d;fill-opacity:1;fill-rule:evenodd;stroke:none;stroke-width:0.264583"
       d="m 110.05039,30.83627 0.0299,-0.358773 c 6.61737,0.468398 12.27801,1.02649 16.86234,1.634411 l -0.0498,0.358773 -0.0399,0.358773 c -4.58432,-0.617887 -10.22503,-1.166013 -16.82247,-1.644377 z"
       id="path242" />
    <path
       style="fill:#1f497d;fill-opacity:1;fill-rule:evenodd;stroke:none;stroke-width:0.264583"
       d="m 126.8928,32.470681 0.0498,-0.358773 c 2.30212,0.308943 4.33517,0.627852 6.08917,0.956728 l -0.0698,0.358773 -0.0598,0.348807 c -1.74404,-0.328875 -3.76712,-0.647785 -6.04932,-0.946762 z"
       id="path244" />
    <path
       style="fill:#1f497d;fill-opacity:1;fill-rule:evenodd;stroke:none;stroke-width:0.264583"
       d="m 132.96204,33.427409 0.0698,-0.358773 c 1.76397,0.328875 3.23893,0.677682 4.42487,1.016524 l -0.0997,0.348807 -0.0997,0.348807 c -1.16601,-0.348807 -2.62103,-0.677683 -4.3551,-1.006558 z"
       id="path246" />
    <path
       style="fill:#1f497d;fill-opacity:1;fill-rule:evenodd;stroke:none;stroke-width:0.264583"
       d="m -20.393509,36.287627 2.162604,-3.308685 1.7839,3.059537 z"
       id="path248" />
    <path
       style="fill:#1f497d;fill-opacity:1;fill-rule:evenodd;stroke:none;stroke-width:0.264583"
       d="m 139.89832,35.898957 -3.95647,-0.159455 1.71414,-3.099401 z"
       id="path250" />
    <path
       style="fill:#1f497d;fill-opacity:1;fill-rule:evenodd;stroke:none;stroke-width:0.264583"
       d="m 90.078693,119.1941 -0.0299,-0.35877 c 3.13926,-0.28901 6.23866,-0.95673 9.25833,-1.94335 l 0.10963,0.33884 0.10963,0.3488 c -3.06951,0.9966 -6.21874,1.67428 -9.4178,1.97326 z"
       id="path252" />
    <path
       style="fill:#1f497d;fill-opacity:1;fill-rule:evenodd;stroke:none;stroke-width:0.264583"
       d="m 99.416763,117.23082 -0.10963,-0.33884 c 3.019677,-0.98663 5.959617,-2.30213 8.789937,-3.90664 l 0.17939,0.30894 0.17939,0.31891 c -2.87019,1.62444 -5.85996,2.95988 -8.929457,3.96643 z"
       id="path254" />
    <path
       style="fill:#1f497d;fill-opacity:1;fill-rule:evenodd;stroke:none;stroke-width:0.264583"
       d="m 108.27646,113.29428 -0.17939,-0.30894 c 5.67061,-3.20903 10.88279,-7.5741 15.35748,-12.78628 l 0.27905,0.23918 0.26908,0.22922 c -4.53449,5.27197 -9.80646,9.68687 -15.54683,12.94573 z"
       id="path256" />
    <path
       style="fill:#1f497d;fill-opacity:1;fill-rule:evenodd;stroke:none;stroke-width:0.264583"
       d="m 123.7336,100.43824 -0.27905,-0.23918 c 4.48467,-5.212172 8.23185,-11.261484 10.97248,-17.848958 l 0.32888,0.129558 0.32887,0.139523 c -2.76056,6.657234 -6.55757,12.776306 -11.0821,18.048277 z"
       id="path258" />
    <path
       style="fill:#1f497d;fill-opacity:1;fill-rule:evenodd;stroke:none;stroke-width:0.264583"
       d="m 134.75591,82.47966 -0.32888,-0.129558 c 2.73066,-6.587472 4.45477,-13.713103 4.89327,-21.04802 l 0.35877,0.01993 0.35877,0.01993 c -0.4385,7.424608 -2.18253,14.620002 -4.95306,21.277236 z"
       id="path260" />
    <path
       style="fill:#1f497d;fill-opacity:1;fill-rule:evenodd;stroke:none;stroke-width:0.264583"
       d="m 86.789943,119.35356 3.44821,-1.94336 0.17939,3.52794 z"
       id="path262" />
    <path
       style="fill:#1f497d;fill-opacity:1;fill-rule:evenodd;stroke:none;stroke-width:0.264583"
       d="m 139.77873,58.112988 1.65434,3.597698 -3.5379,-0.119591 z"
       id="path264" />
    <path
       style="fill:#1f497d;fill-opacity:1;fill-rule:evenodd;stroke:none;stroke-width:0.264583"
       d="m 28.459425,119.21403 -0.0299,0.35878 c -3.159194,-0.30895 -6.268562,-0.97666 -9.288235,-1.98322 l 0.109624,-0.34881 0.109625,-0.33884 c 2.979812,0.99659 6.039348,1.65435 9.128781,1.95332 z"
       id="path266" />
    <path
       style="fill:#1f497d;fill-opacity:1;fill-rule:evenodd;stroke:none;stroke-width:0.264583"
       d="m 19.250914,117.24078 -0.109624,0.34881 c -3.029638,-1.00656 -5.979552,-2.34199 -8.809871,-3.9764 l 0.179384,-0.30894 0.179388,-0.30895 c 2.790457,1.60451 5.690539,2.92001 8.670348,3.90664 z"
       id="path268" />
    <path
       style="fill:#1f497d;fill-opacity:1;fill-rule:evenodd;stroke:none;stroke-width:0.264583"
       d="m 10.510803,113.30425 -0.179384,0.30894 C 4.6807412,110.3643 -0.53143377,105.93943 -4.9961638,100.66746 l 0.269079,-0.22922 0.279045,-0.22921 c 4.41490403,5.20221 9.54735,9.56728 15.1382308,12.78627 z"
       id="path270" />
    <path
       style="fill:#1f497d;fill-opacity:1;fill-rule:evenodd;stroke:none;stroke-width:0.264583"
       d="m -4.7270848,100.43824 -0.269079,0.22922 C -9.4608958,95.405456 -13.198115,89.276417 -15.928776,82.619183 l 0.328874,-0.129558 0.338842,-0.139523 c 2.700763,6.587474 6.3881522,12.646752 10.8130202,17.858928 z"
       id="path272" />
    <path
       style="fill:#1f497d;fill-opacity:1;fill-rule:evenodd;stroke:none;stroke-width:0.264583"
       d="m -15.599902,82.489625 -0.328874,0.129558 c -2.730662,-6.657234 -4.444802,-13.852628 -4.883301,-21.277236 l 0.358772,-0.01993 0.358775,-0.01993 c 0.428533,7.344884 2.132706,14.460548 4.83347,21.04802 z"
       id="path274" />
    <path
       style="fill:#1f497d;fill-opacity:1;fill-rule:evenodd;stroke:none;stroke-width:0.264583"
       d="m 31.748177,119.37349 -3.627593,1.58458 0.189351,-3.5379 z"
       id="path276" />
    <path
       style="fill:#1f497d;fill-opacity:1;fill-rule:evenodd;stroke:none;stroke-width:0.264583"
       d="m -20.542998,58.112988 1.88356,3.478107 -3.537902,0.109624 z"
       id="path278" />
    <path
       style="fill:#4f6228;fill-opacity:1;fill-rule:evenodd;stroke:none;stroke-width:0.264583"
       d="m 45.760259,105.03253 -0.358775,0.0199 C 45.042712,98.405198 43.806938,92.007079 41.853618,86.107254 l 0.348808,-0.109625 0.338841,-0.109625 c 1.963285,5.949654 3.218992,12.40757 3.577765,19.124596 z"
       id="path280" />
    <path
       style="fill:#4f6228;fill-opacity:1;fill-rule:evenodd;stroke:none;stroke-width:0.264583"
       d="m 42.202426,85.997629 -0.348808,0.109625 C 39.910264,80.217396 37.269296,74.825833 34.100133,70.171752 l 0.298979,-0.199319 0.298976,-0.199318 c 3.199062,4.703913 5.869927,10.155269 7.843179,16.114889 z"
       id="path282" />
    <path
       style="fill:#4f6228;fill-opacity:1;fill-rule:evenodd;stroke:none;stroke-width:0.264583"
       d="m 34.399112,69.972433 -0.298979,0.199319 C 30.940936,65.537598 27.263514,61.630959 23.247247,58.72091 l 0.209286,-0.289012 0.219249,-0.298976 c 4.076063,2.969842 7.813281,6.926312 11.022306,11.640193 z"
       id="path284" />
    <path
       style="fill:#4f6228;fill-opacity:1;fill-rule:evenodd;stroke:none;stroke-width:0.264583"
       d="M 23.456533,58.431898 23.247247,58.72091 C 21.2441,57.265887 19.161221,56.060009 17.018551,55.123214 l 0.139522,-0.328876 0.149487,-0.328875 c 2.192502,0.956728 4.315243,2.182535 6.368222,3.667459 z"
       id="path286" />
    <path
       style="fill:#4f6228;fill-opacity:1;fill-rule:evenodd;stroke:none;stroke-width:0.264583"
       d="m 17.158073,54.794338 -0.139522,0.328876 C 14.875878,54.196383 12.67341,53.538633 10.431077,53.189826 l 0.0598,-0.358774 0.0598,-0.358773 c 2.292162,0.368739 4.554424,1.036456 6.756892,1.993184 z"
       id="path288" />
    <path
       style="fill:#4f6228;fill-opacity:1;fill-rule:evenodd;stroke:none;stroke-width:0.264583"
       d="m 45.84995,108.34122 -1.873591,-3.48807 3.5379,-0.0997 z"
       id="path290" />
    <path
       style="fill:#4f6228;fill-opacity:1;fill-rule:evenodd;stroke:none;stroke-width:0.264583"
       d="M 7.2918142,52.581905 10.969236,51.116915 10.67026,54.64485 Z"
       id="path292" />
    <path
       style="fill:#4f6228;fill-opacity:1;fill-rule:evenodd;stroke:none;stroke-width:0.264583"
       d="m 108.94418,45.386511 v 0.358773 c -12.547087,-0.01 -24.835067,-0.0299 -33.993747,-0.0598 l 0.01,-0.358773 v -0.358773 c 9.14871,0.0299 21.44665,0.05979 33.983777,0.05979 z"
       id="path294" />
    <path
       style="fill:#4f6228;fill-opacity:1;fill-rule:evenodd;stroke:none;stroke-width:0.264583"
       d="m 74.960403,45.326716 -0.01,0.358773 c -2.28219,-0.01 -4.37504,-0.01993 -6.2287,-0.0299 v -0.358773 -0.358773 c 1.85366,0.01 3.94651,0.01993 6.23867,0.0299 z"
       id="path296" />
    <path
       style="fill:#4f6228;fill-opacity:1;fill-rule:evenodd;stroke:none;stroke-width:0.264583"
       d="m 68.721733,45.296818 v 0.358773 c -1.85366,-0.01 -3.46814,-0.01993 -4.78364,-0.0299 V 45.26692 44.908147 c 1.32547,0.01 2.93995,0.01993 4.78364,0.0299 z"
       id="path298" />
    <path
       style="fill:#4f6228;fill-opacity:1;fill-rule:evenodd;stroke:none;stroke-width:0.264583"
       d="m 63.938093,45.26692 v 0.358773 c -0.66772,0 -1.25571,-0.01 -1.77393,-0.01993 l 0.01,-0.358772 v -0.358774 c 0.50826,0.01 1.10622,0.01993 1.76397,0.01993 z"
       id="path300" />
    <path
       style="fill:#4f6228;fill-opacity:1;fill-rule:evenodd;stroke:none;stroke-width:0.264583"
       d="m 62.174123,45.246989 -0.01,0.358772 c -0.50827,0 -0.94677,-0.01 -1.30554,-0.01 l 0.01,-0.358773 v -0.358774 c 0.35877,0 0.7873,0.01 1.30553,0.01 z"
       id="path302" />
    <path
       style="fill:#4f6228;fill-opacity:1;fill-rule:evenodd;stroke:none;stroke-width:0.264583"
       d="m 60.868593,45.237023 -0.01,0.358773 c -0.17939,-0.01 -0.32887,-0.01 -0.4684,-0.01 l 0.01,-0.358773 0.01,-0.358773 c 0.12955,0 0.28901,0 0.45843,0.01 z"
       id="path304" />
    <path
       style="fill:#4f6228;fill-opacity:1;fill-rule:evenodd;stroke:none;stroke-width:0.264583"
       d="m 60.400193,45.227057 -0.01,0.358773 c -0.13952,-0.01 -0.24915,-0.01 -0.33884,-0.01 l 0.01,-0.358773 0.01,-0.358773 c 0.0897,0 0.19932,0 0.33885,0.01 z"
       id="path306" />
    <path
       style="fill:#4f6228;fill-opacity:1;fill-rule:evenodd;stroke:none;stroke-width:0.264583"
       d="m 60.061353,45.217091 -0.01,0.358773 c -0.0498,0 -0.0897,0 -0.12955,-0.01 l 0.0199,-0.358773 0.01,-0.358773 c 0.0399,0.01 0.0797,0.01 0.11959,0.01 z"
       id="path308" />
    <path
       style="fill:#4f6228;fill-opacity:1;fill-rule:evenodd;stroke:none;stroke-width:0.264583"
       d="m 59.941763,45.207125 -0.0199,0.358773 c -0.0399,0 -0.0698,0 -0.0897,0 l 0.0199,-0.358773 0.0199,-0.358773 c 0.0299,0 0.0498,0 0.0797,0 z"
       id="path310" />
    <path
       style="fill:#4f6228;fill-opacity:1;fill-rule:evenodd;stroke:none;stroke-width:0.264583"
       d="m 59.852063,45.207125 -0.0199,0.358773 c -0.0399,0 -0.0598,-0.01 -0.0797,-0.01 l 0.0498,-0.358773 0.0399,-0.348807 c 0.01,0 0.0199,0 0.0299,0 z"
       id="path312" />
    <path
       style="fill:#4f6228;fill-opacity:1;fill-rule:evenodd;stroke:none;stroke-width:0.264583"
       d="m 59.802233,45.197159 -0.0498,0.358773 c -0.30894,-0.03986 -0.32887,-0.318909 -0.32887,-0.358773 h 0.35877 z"
       id="path314" />
    <path
       style="fill:#4f6228;fill-opacity:1;fill-rule:evenodd;stroke:none;stroke-width:0.264583"
       d="m 59.782303,45.197159 h -0.0199 v 0 l 0.0498,-0.358773 c 0.30894,0.03986 0.32887,0.318909 0.32887,0.358773 z"
       id="path316" />
    <path
       style="fill:#4f6228;fill-opacity:1;fill-rule:evenodd;stroke:none;stroke-width:0.264583"
       d="m 59.762373,45.197159 -0.0399,0.348807 c -0.01,0 -0.0199,0 -0.0299,0 l 0.0199,-0.358773 0.0199,-0.358773 c 0.0299,0 0.0598,0.01 0.0797,0.01 z"
       id="path318" />
    <path
       style="fill:#4f6228;fill-opacity:1;fill-rule:evenodd;stroke:none;stroke-width:0.264583"
       d="m 59.712543,45.187193 -0.0199,0.358773 c -0.0199,0 -0.0498,0 -0.0797,0 l 0.01,-0.358773 0.0199,-0.358773 c 0.0299,0 0.0698,0 0.0897,0 z"
       id="path320" />
    <path
       style="fill:#4f6228;fill-opacity:1;fill-rule:evenodd;stroke:none;stroke-width:0.264583"
       d="m 59.622853,45.187193 -0.01,0.358773 c -0.0399,0 -0.0698,-0.01 -0.11959,-0.01 l 0.01,-0.358773 0.01,-0.358773 c 0.0498,0 0.0897,0.01 0.12956,0.01 z"
       id="path322" />
    <path
       style="fill:#4f6228;fill-opacity:1;fill-rule:evenodd;stroke:none;stroke-width:0.264583"
       d="m 59.503263,45.177227 -0.01,0.358773 c -0.0897,0 -0.19932,0 -0.33884,-0.01 l 0.01,-0.358773 0.01,-0.358773 c 0.13953,0.01 0.24915,0.01 0.33884,0.01 z"
       id="path324" />
    <path
       style="fill:#4f6228;fill-opacity:1;fill-rule:evenodd;stroke:none;stroke-width:0.264583"
       d="m 59.164423,45.167261 -0.01,0.358773 c -0.12956,0 -0.28901,0 -0.45843,0 v -0.358773 l 0.01,-0.358773 c 0.17939,0 0.32888,0 0.4684,0 z"
       id="path326" />
    <path
       style="fill:#4f6228;fill-opacity:1;fill-rule:evenodd;stroke:none;stroke-width:0.264583"
       d="m 58.696023,45.167261 v 0.358773 c -0.35878,-0.01 -0.79728,-0.01 -1.30554,-0.01993 v -0.358773 l 0.01,-0.358773 c 0.50826,0.01 0.94676,0.01 1.30553,0.01993 z"
       id="path328" />
    <path
       style="fill:#4f6228;fill-opacity:1;fill-rule:evenodd;stroke:none;stroke-width:0.264583"
       d="m 57.390483,45.147329 v 0.358773 c -0.51823,-0.01 -1.10622,-0.01 -1.77393,-0.01993 l 0.01,-0.358774 v -0.358773 c 0.66772,0.01 1.25571,0.01 1.77394,0.01993 z"
       id="path330" />
    <path
       style="fill:#4f6228;fill-opacity:1;fill-rule:evenodd;stroke:none;stroke-width:0.264583"
       d="m 55.626513,45.127397 -0.01,0.358774 c -1.32547,-0.01 -2.92998,-0.01993 -4.783641,-0.0299 V 45.0975 44.738727 c 1.853661,0.01 3.468141,0.01993 4.793601,0.0299 z"
       id="path332" />
    <path
       style="fill:#4f6228;fill-opacity:1;fill-rule:evenodd;stroke:none;stroke-width:0.264583"
       d="m 50.832912,45.0975 v 0.358773 c -1.853663,-0.01 -3.956471,-0.01993 -6.248633,-0.0299 l 0.01,-0.348807 v -0.358773 c 2.292162,0 4.385003,0.01 6.238666,0.01993 z"
       id="path334" />
    <path
       style="fill:#4f6228;fill-opacity:1;fill-rule:evenodd;stroke:none;stroke-width:0.264583"
       d="m 44.594246,45.077568 -0.01,0.348807 c -9.158679,-0.0299 -21.466588,-0.0598 -34.01368,-0.0598 v -0.358773 -0.358773 c 12.557059,0.01 24.855001,0.0299 34.023647,0.06976 z"
       id="path336" />
    <path
       style="fill:#4f6228;fill-opacity:1;fill-rule:evenodd;stroke:none;stroke-width:0.264583"
       d="m 112.25286,45.386511 -3.5379,1.763968 v -3.537901 z"
       id="path338" />
    <path
       style="fill:#4f6228;fill-opacity:1;fill-rule:evenodd;stroke:none;stroke-width:0.264583"
       d="M 7.3017782,45.007806 10.839681,43.243839 V 46.78174 Z"
       id="path340" />
    <path
       style="fill:#4f6228;fill-opacity:1;fill-rule:evenodd;stroke:none;stroke-width:0.264583"
       d="m 73.355883,105.52086 -0.35877,-0.0199 c 0.35877,-6.717027 1.61448,-13.174943 3.57776,-19.124596 l 0.33885,0.109627 0.3488,0.109625 c -1.95332,5.899822 -3.18909,12.297942 -3.54786,18.945204 z"
       id="path342" />
    <path
       style="fill:#4f6228;fill-opacity:1;fill-rule:evenodd;stroke:none;stroke-width:0.264583"
       d="m 76.913723,86.48596 -0.33885,-0.109627 c 1.96329,-5.959618 4.64412,-11.410977 7.84318,-16.11489 l 0.29898,0.199318 0.28901,0.199319 c -3.15919,4.654084 -5.81013,10.045647 -7.74352,15.935505 z"
       id="path344" />
    <path
       style="fill:#4f6228;fill-opacity:1;fill-rule:evenodd;stroke:none;stroke-width:0.264583"
       d="m 84.717033,70.460761 -0.29898,-0.199318 c 3.20903,-4.713878 6.93628,-8.670348 11.01234,-11.640193 l 0.20929,0.298979 0.21925,0.289012 c -4.01627,2.910047 -7.69369,6.816688 -10.85289,11.450839 z"
       id="path346" />
    <path
       style="fill:#4f6228;fill-opacity:1;fill-rule:evenodd;stroke:none;stroke-width:0.264583"
       d="m 95.639683,58.920229 -0.20929,-0.298979 c 2.04301,-1.484921 4.17572,-2.710728 6.368217,-3.667457 l 0.13953,0.328875 0.13952,0.328875 c -2.142667,0.92683 -4.225547,2.142673 -6.218727,3.597698 z"
       id="path348" />
    <path
       style="fill:#4f6228;fill-opacity:1;fill-rule:evenodd;stroke:none;stroke-width:0.264583"
       d="m 101.93814,55.282668 -0.13953,-0.328875 c 2.19251,-0.956728 4.45477,-1.624445 6.74693,-1.993184 l 0.0598,0.358773 0.0598,0.358774 c -2.24233,0.348807 -4.4448,1.006557 -6.58747,1.933387 z"
       id="path350" />
    <path
       style="fill:#4f6228;fill-opacity:1;fill-rule:evenodd;stroke:none;stroke-width:0.264583"
       d="m 73.266193,108.82955 -1.66431,-3.58773 3.5379,0.0997 z"
       id="path352" />
    <path
       style="fill:#4f6228;fill-opacity:1;fill-rule:evenodd;stroke:none;stroke-width:0.264583"
       d="m 111.8044,53.070234 -3.37845,2.062946 -0.29898,-3.527936 z"
       id="path354" />
  </g>
</svg>
