<?xml version="1.0" encoding="UTF-8"?>
<!DOCTYPE svg PUBLIC "-//W3C//DTD SVG 1.1//EN" "http://www.w3.org/Graphics/SVG/1.1/DTD/svg11.dtd">
<svg xmlns="http://www.w3.org/2000/svg" version="1.1" width="300px" viewBox="0 0 1201 84" style="shape-rendering:geometricPrecision; text-rendering:geometricPrecision; image-rendering:optimizeQuality; fill-rule:evenodd; clip-rule:evenodd" xmlns:xlink="http://www.w3.org/1999/xlink">
<g><path style="opacity:1" fill="#fdfefe" d="M -0.5,-0.5 C 399.833,-0.5 800.167,-0.5 1200.5,-0.5C 1200.5,9.83333 1200.5,20.1667 1200.5,30.5C 1191.24,28.4392 1183.74,31.1059 1178,38.5C 1174.44,47.6919 1176.6,55.1919 1184.5,61C 1189.74,62.339 1195.07,62.839 1200.5,62.5C 1200.5,69.5 1200.5,76.5 1200.5,83.5C 800.167,83.5 399.833,83.5 -0.5,83.5C -0.5,55.5 -0.5,27.5 -0.5,-0.5 Z"/></g>
<g><path style="opacity:1" fill="#387cbd" d="M 26.5,30.5 C 42.1702,30.3334 57.8369,30.5001 73.5,31C 84.2193,35.6223 87.386,43.4557 83,54.5C 81.0931,58.0388 78.2597,60.5388 74.5,62C 58.5,62.6667 42.5,62.6667 26.5,62C 15.9016,56.5385 13.0683,48.3718 18,37.5C 20.4412,34.5464 23.2745,32.2131 26.5,30.5 Z"/></g>
<g><path style="opacity:1" fill="#387dbd" d="M 114.5,30.5 C 121.175,30.3337 127.842,30.5004 134.5,31C 145.417,36.3382 148.25,44.5048 143,55.5C 140.512,59.3251 137.012,61.4918 132.5,62C 126.5,62.6667 120.5,62.6667 114.5,62C 103.902,56.5385 101.068,48.3718 106,37.5C 108.441,34.5464 111.275,32.2131 114.5,30.5 Z"/></g>
<g><path style="opacity:1" fill="#387cbd" d="M 175.5,30.5 C 210.835,30.3333 246.168,30.5 281.5,31C 294.318,35.78 297.485,44.28 291,56.5C 288.9,59.4668 286.066,61.3002 282.5,62C 246.5,62.6667 210.5,62.6667 174.5,62C 163.695,55.92 161.195,47.42 167,36.5C 169.671,34.0976 172.505,32.0976 175.5,30.5 Z"/></g>
<g><path style="opacity:1" fill="#397dbd" d="M 472.5,30.5 C 478.842,30.3338 485.175,30.5005 491.5,31C 500.336,34.4993 504.169,40.9993 503,50.5C 501.141,56.3595 497.307,60.1928 491.5,62C 484.833,62.6667 478.167,62.6667 471.5,62C 462.752,57.455 459.585,50.2883 462,40.5C 464.106,35.5573 467.606,32.224 472.5,30.5 Z"/></g>
<g><path style="opacity:1" fill="#387cbd" d="M 532.5,30.5 C 568.168,30.3333 603.835,30.5 639.5,31C 649.689,34.2164 653.523,41.0497 651,51.5C 649.095,57.0704 645.261,60.5704 639.5,62C 603.833,62.6667 568.167,62.6667 532.5,62C 521.752,56.5837 518.919,48.4171 524,37.5C 526.441,34.5464 529.275,32.2131 532.5,30.5 Z"/></g>
<g><path style="opacity:1" fill="#387cbd" d="M 681.5,30.5 C 717.168,30.3333 752.835,30.5 788.5,31C 797.361,34.5291 801.194,41.0291 800,50.5C 798.058,56.7764 793.891,60.6097 787.5,62C 752.167,62.6667 716.833,62.6667 681.5,62C 671.929,58.0134 668.429,50.8467 671,40.5C 673.106,35.5573 676.606,32.224 681.5,30.5 Z"/></g>
<g><path style="opacity:1" fill="#397dbd" d="M 831.5,30.5 C 838.563,30.2122 845.563,30.7122 852.5,32C 862.018,40.0279 863.018,49.0279 855.5,59C 853.5,60 851.5,61 849.5,62C 842.833,62.6667 836.167,62.6667 829.5,62C 820.581,57.9963 817.081,51.163 819,41.5C 821.537,35.7851 825.704,32.1184 831.5,30.5 Z"/></g>
<g><path style="opacity:1" fill="#387cbd" d="M 890.5,30.5 C 926.168,30.3333 961.835,30.5 997.5,31C 1009.15,35.8095 1012.32,43.9762 1007,55.5C 1004.18,58.8249 1000.68,60.9916 996.5,62C 961.167,62.6667 925.833,62.6667 890.5,62C 879.602,56.6936 876.769,48.5269 882,37.5C 884.439,34.5492 887.272,32.2158 890.5,30.5 Z"/></g>
<g><path style="opacity:1" fill="#377cbe" d="M 1146.5,61.5 C 1110.56,61.4454 1074.56,61.4454 1038.5,61.5C 1032.74,59.5723 1029.24,55.5723 1028,49.5C 1027.11,40.4508 1030.94,34.2841 1039.5,31C 1075.17,30.3333 1110.83,30.3333 1146.5,31C 1155.93,34.6991 1159.43,41.5324 1157,51.5C 1155.61,57.0579 1152.11,60.3912 1146.5,61.5 Z"/></g>
<g><path style="opacity:1" fill="#387dbd" d="M 1200.5,30.5 C 1200.5,41.1667 1200.5,51.8333 1200.5,62.5C 1195.07,62.839 1189.74,62.339 1184.5,61C 1176.6,55.1919 1174.44,47.6919 1178,38.5C 1183.74,31.1059 1191.24,28.4392 1200.5,30.5 Z"/></g>
<g><path style="opacity:1" fill="#377cbd" d="M 433.5,60.5 C 396.857,61.4746 360.191,61.8079 323.5,61.5C 316.179,59.0009 312.512,53.8342 312.5,46C 312.819,40.0336 315.485,35.3669 320.5,32C 339.437,30.8517 358.437,30.3517 377.5,30.5C 395.5,30.6667 413.5,30.8333 431.5,31C 442.737,36.209 445.571,44.3757 440,55.5C 438.223,57.7899 436.056,59.4566 433.5,60.5 Z"/></g>
<g><path style="opacity:1" fill="#4a79a3" d="M 433.5,60.5 C 433.082,61.2216 432.416,61.7216 431.5,62C 395.331,62.831 359.331,62.6643 323.5,61.5C 360.191,61.8079 396.857,61.4746 433.5,60.5 Z"/></g>
<g><path style="opacity:1" fill="#4a79a3" d="M 1146.5,61.5 C 1110.5,62.8333 1074.5,62.8333 1038.5,61.5C 1074.56,61.4454 1110.56,61.4454 1146.5,61.5 Z"/></g>
</svg>
