<?xml version="1.0" encoding="UTF-8"?>
<svg xmlns="http://www.w3.org/2000/svg" xmlns:xlink="http://www.w3.org/1999/xlink" fill="none" preserveAspectRatio="xMidYMid meet" height="120px" viewBox="0 0 155 197" version="1.1">
<g id="surface1">
<path style=" fill:rgb(21.176471%,49.019608%,74.509804%);fill-opacity:1;" d="M 106.140625 -0.0390625 C 107.496094 -0.0390625 108.851562 -0.0390625 110.207031 -0.0390625 C 110.765625 0.09375 111.324219 0.265625 111.882812 0.476562 C 114.292969 1.960938 115.023438 4.046875 114.074219 6.726562 C 113.304688 8.269531 112.070312 9.1875 110.367188 9.472656 C 98.53125 9.183594 88.453125 13.191406 80.132812 21.492188 C 79.640625 21.804688 79.109375 22.042969 78.535156 22.207031 C 76.21875 22.660156 74.421875 21.90625 73.152344 19.9375 C 72.199219 17.988281 72.382812 16.15625 73.710938 14.445312 C 82.660156 5.554688 93.46875 0.726562 106.140625 -0.0390625 Z M 106.140625 -0.0390625 "/>
<path style=" fill:rgb(1.568627%,28.235294%,47.058824%);fill-opacity:1;" d="M 125.683594 6.25 C 128.710938 6.078125 130.558594 7.457031 131.226562 10.386719 C 131.398438 12.738281 130.429688 14.425781 128.316406 15.441406 C 125.511719 16.304688 123.421875 15.441406 122.054688 12.855469 C 121.292969 10.601562 121.808594 8.703125 123.609375 7.164062 C 124.253906 6.742188 124.945312 6.4375 125.683594 6.25 Z M 125.683594 6.25 "/>
<path style=" fill:rgb(21.568627%,49.019608%,74.509804%);fill-opacity:1;" d="M 112.28125 16.199219 C 119.148438 17.183594 125.132812 20.007812 130.230469 24.675781 C 134.613281 28.789062 137.710938 33.710938 139.523438 39.441406 C 139.628906 41.203125 138.871094 42.4375 137.25 43.140625 C 135.453125 43.5625 134.085938 42.992188 133.140625 41.429688 C 130.289062 32.984375 124.691406 27.160156 116.351562 23.957031 C 114.855469 23.480469 113.339844 23.082031 111.800781 22.765625 C 110.066406 22.023438 109.308594 20.710938 109.527344 18.824219 C 109.945312 17.417969 110.863281 16.542969 112.28125 16.199219 Z M 112.28125 16.199219 "/>
<path style=" fill:rgb(1.960784%,28.235294%,47.058824%);fill-opacity:1;" d="M 96.328125 17.550781 C 98.328125 17.492188 99.589844 18.421875 100.117188 20.335938 C 100.261719 22.34375 99.371094 23.628906 97.445312 24.195312 C 95.359375 24.371094 94.042969 23.457031 93.496094 21.449219 C 93.386719 19.371094 94.328125 18.074219 96.328125 17.550781 Z M 96.328125 17.550781 "/>
<path style=" fill:rgb(21.176471%,49.019608%,74.509804%);fill-opacity:1;" d="M 154.960938 47 C 154.960938 48.382812 154.960938 49.761719 154.960938 51.140625 C 154.652344 58.523438 152.804688 65.503906 149.414062 72.074219 C 149.140625 72.480469 148.835938 72.867188 148.5 73.226562 C 146.59375 74.714844 144.601562 74.847656 142.515625 73.625 C 140.707031 72.183594 140.109375 70.339844 140.71875 68.09375 C 141.292969 66.9375 141.851562 65.769531 142.394531 64.59375 C 144.109375 60.378906 145.105469 56.003906 145.386719 51.457031 C 145.613281 48.082031 145.371094 44.738281 144.667969 41.429688 C 144.605469 41.28125 144.523438 41.148438 144.429688 41.03125 C 143.347656 36.402344 141.5 32.105469 138.886719 28.136719 C 138.753906 27.828125 138.648438 27.507812 138.566406 27.183594 C 138.21875 24.203125 139.480469 22.277344 142.355469 21.410156 C 144.289062 21.179688 145.871094 21.800781 147.101562 23.28125 C 151.742188 30.503906 154.363281 38.414062 154.960938 47 Z M 154.960938 47 "/>
<path style=" fill:rgb(1.568627%,28.235294%,47.058824%);fill-opacity:1;" d="M 67.609375 25.667969 C 70.492188 25.480469 72.339844 26.753906 73.152344 29.492188 C 73.460938 32.070312 72.4375 33.886719 70.082031 34.941406 C 67.378906 35.65625 65.371094 34.792969 64.058594 32.355469 C 63.214844 30.054688 63.734375 28.132812 65.613281 26.585938 C 66.226562 26.148438 66.890625 25.84375 67.609375 25.667969 Z M 67.609375 25.667969 "/>
<path style=" fill:rgb(21.568627%,49.019608%,74.509804%);fill-opacity:1;" d="M 85.316406 25.511719 C 87.328125 25.539062 88.21875 26.546875 87.988281 28.535156 C 87.523438 29.292969 86.964844 29.980469 86.316406 30.605469 C 83.109375 34.324219 80.980469 38.59375 79.933594 43.417969 C 79.121094 44.867188 77.964844 45.222656 76.464844 44.496094 C 75.832031 43.992188 75.488281 43.34375 75.425781 42.542969 C 76.746094 36.101562 79.722656 30.570312 84.359375 25.949219 C 84.660156 25.746094 84.980469 25.601562 85.316406 25.511719 Z M 85.316406 25.511719 "/>
<path style=" fill:rgb(3.529412%,28.235294%,46.666667%);fill-opacity:1;" d="M 102.308594 33.789062 C 103.703125 33.683594 104.332031 34.320312 104.183594 35.699219 C 103.707031 36.578125 103 36.828125 102.070312 36.453125 C 101.0625 35.472656 101.140625 34.582031 102.308594 33.789062 Z M 102.308594 33.789062 "/>
<path style=" fill:rgb(21.568627%,49.019608%,74.509804%);fill-opacity:1;" d="M 88.429688 36.652344 C 90.125 36.554688 91.082031 37.335938 91.300781 39.003906 C 91.316406 39.351562 91.25 39.679688 91.101562 39.996094 C 88.800781 44.328125 88.214844 48.890625 89.347656 53.6875 C 89.789062 55.4375 90.480469 57.082031 91.421875 58.621094 C 92.019531 60.175781 91.578125 61.332031 90.105469 62.085938 C 88.933594 62.386719 87.988281 62.054688 87.273438 61.089844 C 83.855469 55.078125 83.113281 48.738281 85.039062 42.066406 C 85.523438 40.570312 86.132812 39.136719 86.875 37.769531 C 87.273438 37.21875 87.792969 36.847656 88.429688 36.652344 Z M 88.429688 36.652344 "/>
<path style=" fill:rgb(21.960784%,49.019608%,74.509804%);fill-opacity:1;" d="M 124.167969 47.480469 C 124.257812 49.253906 124.121094 51.003906 123.769531 52.730469 C 123.601562 52.882812 123.496094 53.070312 123.449219 53.289062 C 123.324219 53.335938 123.203125 53.363281 123.089844 53.367188 C 123.050781 53.472656 123.039062 53.578125 123.050781 53.6875 C 121.878906 54.015625 121.210938 53.566406 121.054688 52.335938 C 121.980469 47.925781 121.035156 43.972656 118.222656 40.472656 C 117.609375 39.886719 117.027344 39.277344 116.46875 38.644531 C 116.121094 37.1875 116.695312 36.507812 118.183594 36.613281 C 118.574219 36.789062 118.921875 37.03125 119.222656 37.332031 C 122.078125 40.121094 123.726562 43.503906 124.167969 47.480469 Z M 124.167969 47.480469 "/>
<path style=" fill:rgb(2.745098%,28.235294%,47.058824%);fill-opacity:1;" d="M 127.757812 40.714844 C 129.859375 40.886719 130.699219 42.003906 130.269531 44.054688 C 129.527344 45.425781 128.425781 45.835938 126.960938 45.289062 C 125.832031 44.589844 125.445312 43.597656 125.804688 42.304688 C 126.191406 41.441406 126.84375 40.910156 127.757812 40.714844 Z M 127.757812 40.714844 "/>
<path style=" fill:rgb(30.980392%,50.588235%,70.196078%);fill-opacity:1;" d="M 144.429688 41.03125 C 144.523438 41.148438 144.605469 41.28125 144.667969 41.429688 C 145.371094 44.738281 145.613281 48.082031 145.386719 51.457031 C 145.554688 47.9375 145.238281 44.460938 144.429688 41.03125 Z M 144.429688 41.03125 "/>
<path style=" fill:rgb(0.784314%,0.784314%,0.784314%);fill-opacity:1;" d="M 19.902344 56.472656 C 19.902344 56.738281 19.902344 57.003906 19.902344 57.269531 C 17.484375 57.269531 15.0625 57.269531 12.644531 57.269531 C 12.410156 56.09375 11.691406 55.417969 10.488281 55.238281 C 9.363281 55.078125 8.417969 55.410156 7.660156 56.234375 C 7.035156 57.976562 7.636719 59.054688 9.453125 59.457031 C 12.574219 59.371094 15.285156 60.351562 17.589844 62.402344 C 19.320312 64.183594 20.105469 66.320312 19.945312 68.8125 C 19.25 72.261719 17.242188 74.582031 13.921875 75.773438 C 10.921875 76.679688 7.96875 76.546875 5.066406 75.378906 C 2.113281 73.984375 0.410156 71.691406 -0.0390625 68.492188 C -0.0390625 68.332031 -0.0390625 68.175781 -0.0390625 68.015625 C 2.40625 68.015625 4.851562 68.015625 7.300781 68.015625 C 7.457031 69.140625 8.09375 69.816406 9.214844 70.042969 C 10.046875 70.171875 10.84375 70.066406 11.605469 69.726562 C 12.617188 68.980469 12.839844 68.039062 12.285156 66.902344 C 11.996094 66.53125 11.636719 66.253906 11.207031 66.066406 C 10.230469 65.902344 9.246094 65.796875 8.257812 65.746094 C 4.820312 65.195312 2.28125 63.40625 0.636719 60.375 C 0.113281 59.125 -0.0859375 57.824219 0.0390625 56.472656 C 0.171875 55.464844 0.480469 54.507812 0.957031 53.609375 C 2.742188 50.851562 5.28125 49.300781 8.574219 48.953125 C 11.648438 48.628906 14.414062 49.375 16.871094 51.179688 C 18.574219 52.550781 19.585938 54.3125 19.902344 56.472656 Z M 19.902344 56.472656 "/>
<path style=" fill:rgb(1.176471%,1.176471%,1.176471%);fill-opacity:1;" d="M 24.53125 48.910156 C 26.976562 48.910156 29.421875 48.910156 31.871094 48.910156 C 31.855469 54.667969 31.871094 60.425781 31.910156 66.183594 C 32.410156 67.957031 33.578125 68.910156 35.417969 69.050781 C 37.226562 68.917969 38.398438 67.988281 38.929688 66.261719 C 39.046875 60.480469 39.085938 54.699219 39.050781 48.910156 C 41.46875 48.910156 43.890625 48.910156 46.308594 48.910156 C 46.320312 54.695312 46.308594 60.480469 46.269531 66.261719 C 45.921875 70.152344 44.074219 73.085938 40.722656 75.058594 C 35.984375 77.335938 31.648438 76.753906 27.722656 73.308594 C 25.855469 71.363281 24.804688 69.042969 24.570312 66.34375 C 24.53125 60.53125 24.515625 54.722656 24.53125 48.910156 Z M 24.53125 48.910156 "/>
<path style=" fill:rgb(0.784314%,0.784314%,0.784314%);fill-opacity:1;" d="M 52.132812 48.910156 C 56.386719 48.898438 60.640625 48.910156 64.894531 48.953125 C 69.363281 49.667969 72.277344 52.175781 73.632812 56.472656 C 74.53125 61.054688 73.109375 64.730469 69.363281 67.496094 C 67.964844 68.367188 66.449219 68.898438 64.816406 69.089844 C 63.007812 69.128906 61.199219 69.140625 59.390625 69.128906 C 59.390625 71.542969 59.390625 73.957031 59.390625 76.371094 C 56.972656 76.371094 54.550781 76.371094 52.132812 76.371094 C 52.132812 67.21875 52.132812 58.066406 52.132812 48.910156 Z M 52.132812 48.910156 "/>
<path style=" fill:rgb(34.117647%,53.333333%,72.941176%);fill-opacity:1;" d="M 124.167969 47.480469 C 124.386719 49.285156 124.292969 51.089844 123.886719 52.890625 C 123.722656 53.28125 123.445312 53.546875 123.050781 53.6875 C 123.039062 53.578125 123.050781 53.472656 123.089844 53.367188 C 123.203125 53.363281 123.324219 53.335938 123.449219 53.289062 C 123.496094 53.070312 123.601562 52.882812 123.769531 52.730469 C 124.121094 51.003906 124.257812 49.253906 124.167969 47.480469 Z M 124.167969 47.480469 "/>
<path style=" fill:rgb(1.960784%,28.235294%,47.058824%);fill-opacity:1;" d="M 136.292969 52.652344 C 137.601562 52.503906 138.703125 52.902344 139.605469 53.847656 C 140.777344 55.667969 140.550781 57.296875 138.925781 58.742188 C 137.222656 59.703125 135.691406 59.476562 134.339844 58.066406 C 133.53125 56.835938 133.453125 55.5625 134.097656 54.246094 C 134.628906 53.429688 135.363281 52.898438 136.292969 52.652344 Z M 136.292969 52.652344 "/>
<path style=" fill:rgb(99.215686%,99.215686%,99.215686%);fill-opacity:1;" d="M 64.257812 55.039062 C 66.421875 55.382812 67.617188 56.644531 67.847656 58.820312 C 67.753906 60.921875 66.6875 62.25 64.65625 62.800781 C 62.929688 62.839844 61.199219 62.855469 59.472656 62.839844 C 59.472656 60.242188 59.472656 57.640625 59.472656 55.039062 C 61.066406 55.039062 62.664062 55.039062 64.257812 55.039062 Z M 64.257812 55.039062 "/>
<path style=" fill:rgb(57.254902%,57.254902%,57.254902%);fill-opacity:1;" d="M 64.257812 55.039062 C 62.664062 55.039062 61.066406 55.039062 59.472656 55.039062 C 59.472656 57.640625 59.472656 60.242188 59.472656 62.839844 C 59.390625 60.226562 59.363281 57.601562 59.390625 54.960938 C 61.027344 54.933594 62.648438 54.960938 64.257812 55.039062 Z M 64.257812 55.039062 "/>
<path style=" fill:rgb(12.941176%,12.941176%,12.941176%);fill-opacity:1;" d="M 19.902344 56.472656 C 19.980469 56.75 20.007812 57.039062 19.984375 57.347656 C 17.523438 57.375 15.078125 57.347656 12.644531 57.269531 C 15.0625 57.269531 17.484375 57.269531 19.902344 57.269531 C 19.902344 57.003906 19.902344 56.738281 19.902344 56.472656 Z M 19.902344 56.472656 "/>
<path style=" fill:rgb(98.431373%,98.431373%,98.431373%);fill-opacity:1;" d="M -0.0390625 56.472656 C -0.0117188 56.472656 0.0117188 56.472656 0.0390625 56.472656 C -0.0859375 57.824219 0.113281 59.125 0.636719 60.375 C 2.28125 63.40625 4.820312 65.195312 8.257812 65.746094 C 9.246094 65.796875 10.230469 65.902344 11.207031 66.066406 C 11.636719 66.253906 11.996094 66.53125 12.285156 66.902344 C 12.839844 68.039062 12.617188 68.980469 11.605469 69.726562 C 10.84375 70.066406 10.046875 70.171875 9.214844 70.042969 C 8.09375 69.816406 7.457031 69.140625 7.300781 68.015625 C 4.851562 68.015625 2.40625 68.015625 -0.0390625 68.015625 C -0.0390625 64.167969 -0.0390625 60.320312 -0.0390625 56.472656 Z M -0.0390625 56.472656 "/>
<path style=" fill:rgb(22.352941%,49.019608%,74.509804%);fill-opacity:1;" d="M 96.964844 58.304688 C 97.382812 58.265625 97.78125 58.332031 98.160156 58.503906 C 102.125 62.265625 106.765625 63.445312 112.082031 62.046875 C 113.226562 62.179688 113.703125 62.816406 113.519531 63.957031 C 113.3125 64.398438 112.980469 64.703125 112.519531 64.871094 C 106.375 66.425781 100.988281 65.058594 96.367188 60.773438 C 95.675781 59.730469 95.875 58.910156 96.964844 58.304688 Z M 96.964844 58.304688 "/>
<path style=" fill:rgb(2.745098%,28.235294%,47.058824%);fill-opacity:1;" d="M 123.289062 61.167969 C 125.207031 61.078125 126.175781 61.980469 126.203125 63.875 C 125.835938 65.355469 124.894531 66.03125 123.371094 65.90625 C 121.90625 65.441406 121.28125 64.449219 121.496094 62.921875 C 121.824219 62.050781 122.421875 61.464844 123.289062 61.167969 Z M 123.289062 61.167969 "/>
<path style=" fill:rgb(21.176471%,49.019608%,74.509804%);fill-opacity:1;" d="M 112.679688 82.660156 C 109.789062 82.9375 106.890625 83.042969 103.984375 82.980469 C 102.085938 82.851562 100.222656 82.519531 98.402344 81.984375 C 96.625 80.957031 96.050781 79.457031 96.683594 77.488281 C 97.316406 76.277344 98.3125 75.640625 99.675781 75.578125 C 101.214844 75.855469 102.753906 76.105469 104.304688 76.332031 C 111.710938 77 118.332031 75.089844 124.167969 70.601562 C 125.28125 69.648438 126.34375 68.640625 127.359375 67.578125 C 129.242188 66.363281 130.90625 66.617188 132.34375 68.332031 C 133.027344 69.550781 133.027344 70.769531 132.34375 71.996094 C 127.039062 77.832031 120.484375 81.386719 112.679688 82.660156 Z M 112.679688 82.660156 "/>
<path style=" fill:rgb(1.960784%,28.235294%,47.058824%);fill-opacity:1;" d="M 85 67.617188 C 86.242188 67.476562 87.320312 67.824219 88.230469 68.652344 C 89.15625 69.851562 89.316406 71.152344 88.707031 72.550781 C 87.585938 74.21875 86.082031 74.683594 84.199219 73.945312 C 82.777344 73.078125 82.203125 71.816406 82.484375 70.164062 C 82.71875 69.371094 83.15625 68.71875 83.800781 68.214844 C 84.207031 68.003906 84.605469 67.804688 85 67.617188 Z M 85 67.617188 "/>
<path style=" fill:rgb(21.176471%,49.019608%,74.509804%);fill-opacity:1;" d="M 75.503906 75.578125 C 76.582031 75.5625 77.59375 75.8125 78.535156 76.332031 C 87.035156 84.722656 97.296875 88.730469 109.328125 88.351562 C 111.300781 88.859375 112.566406 90.09375 113.117188 92.050781 C 113.410156 95.074219 112.09375 96.96875 109.171875 97.742188 C 94.769531 98.261719 82.46875 93.5 72.273438 83.457031 C 71.03125 81.71875 70.871094 79.890625 71.796875 77.964844 C 72.683594 76.613281 73.921875 75.816406 75.503906 75.578125 Z M 75.503906 75.578125 "/>
<path style=" fill:rgb(1.568627%,28.235294%,47.058824%);fill-opacity:1;" d="M 129.113281 81.546875 C 131.886719 81.332031 133.734375 82.523438 134.65625 85.128906 C 135.078125 87.617188 134.1875 89.460938 131.984375 90.660156 C 129.125 91.636719 126.984375 90.800781 125.5625 88.152344 C 124.730469 85.628906 125.410156 83.625 127.597656 82.144531 C 128.085938 81.871094 128.589844 81.671875 129.113281 81.546875 Z M 129.113281 81.546875 "/>
<path style=" fill:rgb(30.196078%,49.803922%,69.411765%);fill-opacity:1;" d="M 112.679688 82.660156 C 112.515625 82.761719 112.328125 82.828125 112.121094 82.859375 C 109.402344 83.167969 106.6875 83.207031 103.984375 82.980469 C 106.890625 83.042969 109.789062 82.9375 112.679688 82.660156 Z M 112.679688 82.660156 "/>
<path style=" fill:rgb(0.784314%,0.784314%,0.784314%);fill-opacity:1;" d="M -0.0390625 89.425781 C 2.59375 89.414062 5.226562 89.425781 7.859375 89.464844 C 9.574219 89.738281 11.113281 90.402344 12.484375 91.457031 C 15.65625 94.359375 16.546875 97.847656 15.15625 101.921875 C 13.691406 105.1875 11.179688 107.058594 7.617188 107.535156 C 5.066406 107.574219 2.511719 107.585938 -0.0390625 107.574219 C -0.0390625 101.523438 -0.0390625 95.476562 -0.0390625 89.425781 Z M -0.0390625 89.425781 "/>
<path style=" fill:rgb(0.784314%,0.784314%,0.784314%);fill-opacity:1;" d="M 23.890625 93.40625 C 23.8125 94.375 23.785156 95.355469 23.8125 96.351562 C 25.753906 96.351562 27.695312 96.351562 29.636719 96.351562 C 29.636719 97.679688 29.636719 99.003906 29.636719 100.332031 C 27.695312 100.332031 25.753906 100.332031 23.8125 100.332031 C 23.8125 101.445312 23.8125 102.558594 23.8125 103.671875 C 25.992188 103.671875 28.171875 103.671875 30.355469 103.671875 C 30.355469 104.972656 30.355469 106.273438 30.355469 107.574219 C 26.605469 107.574219 22.855469 107.574219 19.105469 107.574219 C 19.105469 101.523438 19.105469 95.476562 19.105469 89.425781 C 22.855469 89.425781 26.605469 89.425781 30.355469 89.425781 C 30.355469 90.753906 30.355469 92.078125 30.355469 93.40625 C 28.199219 93.40625 26.046875 93.40625 23.890625 93.40625 Z M 23.890625 93.40625 "/>
<path style=" fill:rgb(98.823529%,98.823529%,98.823529%);fill-opacity:1;" d="M 4.746094 94.28125 C 5.597656 94.269531 6.449219 94.28125 7.300781 94.320312 C 9.136719 94.695312 10.34375 95.769531 10.929688 97.542969 C 11.292969 100.148438 10.242188 101.886719 7.777344 102.757812 C 6.769531 102.867188 5.761719 102.90625 4.746094 102.878906 C 4.746094 100.011719 4.746094 97.148438 4.746094 94.28125 Z M 4.746094 94.28125 "/>
<path style=" fill:rgb(56.470588%,56.470588%,56.470588%);fill-opacity:1;" d="M 23.890625 93.40625 C 23.890625 94.359375 23.890625 95.316406 23.890625 96.269531 C 25.820312 96.246094 27.734375 96.269531 29.636719 96.351562 C 27.695312 96.351562 25.753906 96.351562 23.8125 96.351562 C 23.785156 95.355469 23.8125 94.375 23.890625 93.40625 Z M 23.890625 93.40625 "/>
<path style=" fill:rgb(68.235294%,68.235294%,68.235294%);fill-opacity:1;" d="M 21.738281 120.628906 C 24.144531 120.523438 26.566406 120.523438 28.996094 120.628906 C 28.988281 120.675781 28.960938 120.703125 28.917969 120.707031 C 26.539062 120.628906 24.144531 120.601562 21.738281 120.628906 Z M 21.738281 120.628906 "/>
<path style=" fill:rgb(0.784314%,0.784314%,0.784314%);fill-opacity:1;" d="M -0.0390625 120.707031 C -0.0390625 120.679688 -0.0390625 120.652344 -0.0390625 120.628906 C 2.425781 120.601562 4.886719 120.628906 7.339844 120.707031 C 9.699219 125.863281 12.078125 131.011719 14.480469 136.148438 C 16.921875 130.980469 19.339844 125.808594 21.738281 120.628906 C 24.144531 120.601562 26.539062 120.628906 28.917969 120.707031 C 24.652344 129.828125 20.410156 138.957031 16.195312 148.089844 C 15.070312 148.191406 13.9375 148.191406 12.804688 148.089844 C 8.519531 138.953125 4.238281 129.824219 -0.0390625 120.707031 Z M -0.0390625 120.707031 "/>
<path style=" fill:rgb(0.784314%,0.784314%,0.784314%);fill-opacity:1;" d="M 39.6875 120.707031 C 39.6875 129.835938 39.6875 138.960938 39.6875 148.089844 C 37.292969 148.089844 34.902344 148.089844 32.507812 148.089844 C 32.507812 138.960938 32.507812 129.835938 32.507812 120.707031 C 34.902344 120.707031 37.292969 120.707031 39.6875 120.707031 Z M 39.6875 120.707031 "/>
<path style=" fill:rgb(0.784314%,0.784314%,0.784314%);fill-opacity:1;" d="M 45.589844 120.628906 C 46.574219 120.613281 47.558594 120.628906 48.542969 120.667969 C 52.8125 124.941406 57.09375 129.199219 61.386719 133.441406 C 61.410156 133.503906 61.449219 133.558594 61.503906 133.601562 C 61.546875 129.304688 61.558594 125.003906 61.546875 120.707031 C 63.9375 120.707031 66.332031 120.707031 68.726562 120.707031 C 68.726562 129.835938 68.726562 138.960938 68.726562 148.089844 C 67.742188 148.089844 66.757812 148.089844 65.773438 148.089844 C 61.464844 143.839844 57.183594 139.570312 52.929688 135.273438 C 52.925781 135.230469 52.898438 135.203125 52.851562 135.195312 C 52.769531 139.492188 52.742188 143.789062 52.769531 148.089844 C 50.378906 148.089844 47.984375 148.089844 45.589844 148.089844 C 45.589844 138.933594 45.589844 129.78125 45.589844 120.628906 Z M 45.589844 120.628906 "/>
<path style=" fill:rgb(24.705882%,24.705882%,24.705882%);fill-opacity:1;" d="M 61.546875 120.707031 C 61.546875 120.679688 61.546875 120.652344 61.546875 120.628906 C 63.964844 120.628906 66.386719 120.628906 68.804688 120.628906 C 68.804688 129.808594 68.804688 138.988281 68.804688 148.167969 C 67.78125 148.195312 66.769531 148.167969 65.773438 148.089844 C 66.757812 148.089844 67.742188 148.089844 68.726562 148.089844 C 68.726562 138.960938 68.726562 129.835938 68.726562 120.707031 C 66.332031 120.707031 63.9375 120.707031 61.546875 120.707031 Z M 61.546875 120.707031 "/>
<path style=" fill:rgb(1.176471%,1.176471%,1.176471%);fill-opacity:1;" d="M 85.714844 120.628906 C 89.53125 120.398438 92.9375 121.445312 95.925781 123.773438 C 96.226562 124.070312 96.519531 124.359375 96.804688 124.648438 C 95.171875 126.371094 93.496094 128.054688 91.78125 129.703125 C 89.636719 127.96875 87.246094 127.53125 84.601562 128.386719 C 82.058594 129.558594 80.753906 131.550781 80.691406 134.359375 C 80.753906 137.417969 82.21875 139.488281 85.078125 140.566406 C 87.605469 141.234375 89.835938 140.714844 91.78125 139.015625 C 93.507812 140.6875 95.210938 142.382812 96.886719 144.109375 C 92.9375 147.792969 88.339844 148.945312 83.085938 147.570312 C 77.449219 145.554688 74.21875 141.589844 73.390625 135.671875 C 73.117188 129.742188 75.523438 125.273438 80.609375 122.257812 C 82.238281 121.445312 83.9375 120.898438 85.714844 120.628906 Z M 85.714844 120.628906 "/>
<path style=" fill:rgb(0.784314%,0.784314%,0.784314%);fill-opacity:1;" d="M 101.671875 120.628906 C 104.089844 120.628906 106.511719 120.628906 108.929688 120.628906 C 108.929688 129.808594 108.929688 138.988281 108.929688 148.167969 C 106.511719 148.167969 104.089844 148.167969 101.671875 148.167969 C 101.671875 138.988281 101.671875 129.808594 101.671875 120.628906 Z M 101.671875 120.628906 "/>
<path style=" fill:rgb(71.372549%,71.372549%,71.372549%);fill-opacity:1;" d="M 61.546875 120.628906 C 61.546875 120.652344 61.546875 120.679688 61.546875 120.707031 C 61.558594 125.003906 61.546875 129.304688 61.503906 133.601562 C 61.449219 133.558594 61.410156 133.503906 61.386719 133.441406 C 61.4375 129.171875 61.492188 124.898438 61.546875 120.628906 Z M 61.546875 120.628906 "/>
<path style=" fill:rgb(18.823529%,18.823529%,18.823529%);fill-opacity:1;" d="M 39.6875 120.707031 C 37.292969 120.707031 34.902344 120.707031 32.507812 120.707031 C 32.507812 129.835938 32.507812 138.960938 32.507812 148.089844 C 34.902344 148.089844 37.292969 148.089844 39.6875 148.089844 C 37.28125 148.167969 34.863281 148.195312 32.429688 148.167969 C 32.429688 138.988281 32.429688 129.808594 32.429688 120.628906 C 34.863281 120.601562 37.28125 120.628906 39.6875 120.707031 Z M 39.6875 120.707031 "/>
<path style=" fill:rgb(52.156863%,52.156863%,52.156863%);fill-opacity:1;" d="M 52.929688 135.273438 C 52.875 139.570312 52.824219 143.871094 52.769531 148.167969 C 52.769531 148.140625 52.769531 148.113281 52.769531 148.089844 C 52.742188 143.789062 52.769531 139.492188 52.851562 135.195312 C 52.898438 135.203125 52.925781 135.230469 52.929688 135.273438 Z M 52.929688 135.273438 "/>
<path style=" fill:rgb(27.45098%,27.45098%,27.45098%);fill-opacity:1;" d="M 45.589844 120.628906 C 45.589844 129.78125 45.589844 138.933594 45.589844 148.089844 C 47.984375 148.089844 50.378906 148.089844 52.769531 148.089844 C 52.769531 148.113281 52.769531 148.140625 52.769531 148.167969 C 50.351562 148.167969 47.929688 148.167969 45.511719 148.167969 C 45.484375 138.972656 45.511719 129.792969 45.589844 120.628906 Z M 45.589844 120.628906 "/>
<path style=" fill:rgb(6.27451%,6.27451%,6.27451%);fill-opacity:1;" d="M 60.746094 159.152344 C 60.941406 159.152344 61.128906 159.195312 61.304688 159.273438 C 61.453125 159.359375 61.519531 159.480469 61.503906 159.628906 C 61.144531 159.988281 60.789062 160.347656 60.429688 160.703125 C 60.222656 160.804688 60.011719 160.828125 59.789062 160.785156 C 59.710938 160.699219 59.695312 160.605469 59.75 160.503906 C 60.046875 160.015625 60.378906 159.566406 60.746094 159.152344 Z M 60.746094 159.152344 "/>
<path style=" fill:rgb(21.568627%,49.019608%,74.509804%);fill-opacity:1;" d="M 10.730469 159.46875 C 11.207031 159.421875 11.65625 159.488281 12.085938 159.667969 C 14.320312 161.15625 16.554688 162.640625 18.785156 164.125 C 19.652344 165.078125 19.628906 166.003906 18.707031 166.914062 C 16.421875 168.398438 14.132812 169.882812 11.847656 171.371094 C 10.492188 171.609375 9.722656 171.054688 9.53125 169.699219 C 9.5625 169.164062 9.777344 168.714844 10.171875 168.34375 C 11.632812 167.429688 13.070312 166.476562 14.480469 165.480469 C 13.042969 164.523438 11.605469 163.570312 10.171875 162.613281 C 9.46875 161.894531 9.347656 161.085938 9.8125 160.1875 C 10.085938 159.898438 10.394531 159.660156 10.730469 159.46875 Z M 10.730469 159.46875 "/>
<path style=" fill:rgb(2.745098%,2.745098%,2.745098%);fill-opacity:1;" d="M 49.738281 161.378906 C 51.039062 161.179688 52.234375 161.429688 53.328125 162.136719 C 53.679688 162.53125 53.613281 162.835938 53.128906 163.050781 C 52.738281 162.796875 52.324219 162.570312 51.894531 162.375 C 49.671875 161.808594 48.25 162.617188 47.625 164.804688 C 47.367188 166.636719 48.070312 167.921875 49.738281 168.664062 C 50.890625 168.929688 51.957031 168.730469 52.929688 168.066406 C 53.007812 167.378906 53.035156 166.6875 53.007812 165.996094 C 52.238281 166.011719 51.464844 165.996094 50.695312 165.957031 C 50.378906 165.71875 50.378906 165.480469 50.695312 165.242188 C 51.679688 165.1875 52.664062 165.1875 53.648438 165.242188 C 53.722656 165.269531 53.789062 165.308594 53.847656 165.359375 C 53.898438 166.367188 53.898438 167.375 53.847656 168.386719 C 52.585938 169.457031 51.136719 169.816406 49.5 169.460938 C 47.8125 168.917969 46.867188 167.761719 46.667969 165.996094 C 46.519531 163.660156 47.542969 162.121094 49.738281 161.378906 Z M 49.738281 161.378906 "/>
<path style=" fill:rgb(7.058824%,7.058824%,7.058824%);fill-opacity:1;" d="M 32.746094 161.378906 C 33.007812 161.363281 33.207031 161.46875 33.34375 161.699219 C 33.398438 164.191406 33.398438 166.6875 33.34375 169.179688 C 33.09375 169.570312 32.800781 169.597656 32.46875 169.261719 C 32.414062 166.738281 32.414062 164.21875 32.46875 161.699219 C 32.523438 161.550781 32.617188 161.445312 32.746094 161.378906 Z M 32.746094 161.378906 "/>
<path style=" fill:rgb(1.960784%,1.960784%,1.960784%);fill-opacity:1;" d="M 37.851562 163.132812 C 37.828125 163.070312 37.789062 163.015625 37.734375 162.972656 C 37.691406 165.042969 37.679688 167.113281 37.691406 169.179688 C 37.453125 169.566406 37.175781 169.59375 36.855469 169.261719 C 36.800781 166.738281 36.800781 164.21875 36.855469 161.699219 C 37.195312 161.386719 37.539062 161.386719 37.890625 161.699219 C 39.449219 163.691406 41.003906 165.679688 42.558594 167.667969 C 42.582031 167.730469 42.621094 167.785156 42.679688 167.828125 C 42.71875 165.8125 42.730469 163.796875 42.71875 161.777344 C 42.949219 161.28125 43.226562 161.253906 43.554688 161.699219 C 43.609375 164.21875 43.609375 166.738281 43.554688 169.261719 C 43.21875 169.582031 42.902344 169.554688 42.597656 169.179688 C 41.035156 167.144531 39.453125 165.128906 37.851562 163.132812 Z M 37.851562 163.132812 "/>
<path style=" fill:rgb(3.137255%,3.137255%,3.137255%);fill-opacity:1;" d="M 72.074219 161.378906 C 72.28125 161.386719 72.457031 161.464844 72.59375 161.621094 C 72.660156 164.195312 72.648438 166.769531 72.554688 169.339844 C 72.257812 169.558594 71.976562 169.53125 71.714844 169.261719 C 70.097656 167.140625 68.449219 165.046875 66.769531 162.972656 C 66.742188 165.09375 66.71875 167.21875 66.691406 169.339844 C 66.363281 169.585938 66.097656 169.535156 65.894531 169.179688 C 65.839844 166.6875 65.839844 164.191406 65.894531 161.699219 C 66.28125 161.371094 66.65625 161.398438 67.011719 161.777344 C 68.578125 163.796875 70.148438 165.8125 71.714844 167.828125 C 71.742188 165.757812 71.769531 163.6875 71.796875 161.621094 C 71.886719 161.527344 71.980469 161.449219 72.074219 161.378906 Z M 72.074219 161.378906 "/>
<path style=" fill:rgb(1.176471%,1.176471%,1.176471%);fill-opacity:1;" d="M 76.464844 161.378906 C 76.671875 161.386719 76.84375 161.464844 76.980469 161.621094 C 77.035156 164.167969 77.035156 166.714844 76.980469 169.261719 C 76.746094 169.546875 76.480469 169.574219 76.183594 169.339844 C 76.128906 166.765625 76.128906 164.191406 76.183594 161.621094 C 76.273438 161.527344 76.367188 161.449219 76.464844 161.378906 Z M 76.464844 161.378906 "/>
<path style=" fill:rgb(1.960784%,1.960784%,1.960784%);fill-opacity:1;" d="M 99.039062 161.378906 C 99.277344 161.359375 99.476562 161.441406 99.636719 161.621094 C 99.691406 164.167969 99.691406 166.714844 99.636719 169.261719 C 99.394531 169.539062 99.128906 169.566406 98.839844 169.339844 C 98.785156 166.765625 98.785156 164.191406 98.839844 161.621094 C 98.921875 161.550781 98.988281 161.472656 99.039062 161.378906 Z M 99.039062 161.378906 "/>
<path style=" fill:rgb(4.313725%,4.313725%,4.313725%);fill-opacity:1;" d="M 58.035156 162.335938 C 57.957031 163.222656 57.929688 164.125 57.957031 165.042969 C 59.339844 165.042969 60.722656 165.042969 62.105469 165.042969 C 62.484375 165.253906 62.511719 165.507812 62.183594 165.796875 C 60.800781 165.839844 59.417969 165.851562 58.035156 165.839844 C 58.035156 166.765625 58.035156 167.695312 58.035156 168.625 C 59.605469 168.609375 61.171875 168.625 62.742188 168.664062 C 63.066406 168.960938 63.039062 169.226562 62.664062 169.460938 C 60.90625 169.511719 59.152344 169.511719 57.398438 169.460938 C 57.324219 169.429688 57.257812 169.390625 57.199219 169.339844 C 57.105469 168.058594 57.066406 166.773438 57.078125 165.480469 C 57.066406 164.1875 57.105469 162.898438 57.199219 161.621094 C 57.238281 161.578125 57.277344 161.539062 57.316406 161.5 C 59.097656 161.445312 60.878906 161.445312 62.664062 161.5 C 63 161.804688 62.972656 162.070312 62.582031 162.296875 C 61.066406 162.335938 59.550781 162.347656 58.035156 162.335938 Z M 58.035156 162.335938 "/>
<path style=" fill:rgb(3.921569%,3.921569%,3.921569%);fill-opacity:1;" d="M 80.769531 161.460938 C 82.554688 161.445312 84.335938 161.460938 86.117188 161.5 C 86.441406 161.796875 86.414062 162.0625 86.035156 162.296875 C 84.492188 162.335938 82.953125 162.347656 81.410156 162.335938 C 81.410156 163.238281 81.410156 164.140625 81.410156 165.042969 C 82.820312 165.027344 84.226562 165.042969 85.636719 165.082031 C 85.871094 165.359375 85.84375 165.597656 85.558594 165.796875 C 84.175781 165.839844 82.792969 165.851562 81.410156 165.839844 C 81.410156 166.765625 81.410156 167.695312 81.410156 168.625 C 82.976562 168.609375 84.546875 168.625 86.117188 168.664062 C 86.429688 168.914062 86.429688 169.179688 86.117188 169.460938 C 84.359375 169.511719 82.605469 169.511719 80.851562 169.460938 C 80.738281 169.421875 80.644531 169.355469 80.570312 169.261719 C 80.519531 166.738281 80.519531 164.21875 80.570312 161.699219 C 80.652344 161.628906 80.722656 161.550781 80.769531 161.460938 Z M 80.769531 161.460938 "/>
<path style=" fill:rgb(3.137255%,3.137255%,3.137255%);fill-opacity:1;" d="M 89.546875 161.460938 C 90.933594 161.429688 92.316406 161.46875 93.695312 161.578125 C 95.148438 161.96875 95.773438 162.914062 95.570312 164.40625 C 95.453125 165.027344 95.121094 165.488281 94.570312 165.796875 C 94.238281 165.980469 93.894531 166.125 93.535156 166.234375 C 94.296875 167.132812 94.988281 168.074219 95.609375 169.0625 C 95.527344 169.460938 95.289062 169.59375 94.890625 169.460938 C 94.105469 168.476562 93.332031 167.480469 92.578125 166.476562 C 91.78125 166.394531 90.984375 166.367188 90.183594 166.394531 C 90.199219 167.351562 90.183594 168.304688 90.144531 169.261719 C 89.875 169.578125 89.609375 169.578125 89.347656 169.261719 C 89.292969 166.738281 89.292969 164.21875 89.347656 161.699219 C 89.429688 161.628906 89.496094 161.550781 89.546875 161.460938 Z M 89.546875 161.460938 "/>
<path style=" fill:rgb(5.098039%,5.098039%,5.098039%);fill-opacity:1;" d="M 104.144531 162.335938 C 104.066406 163.222656 104.039062 164.125 104.066406 165.042969 C 105.421875 165.042969 106.777344 165.042969 108.132812 165.042969 C 108.433594 165.148438 108.527344 165.359375 108.414062 165.679688 C 108.371094 165.71875 108.332031 165.757812 108.292969 165.796875 C 106.882812 165.839844 105.472656 165.851562 104.066406 165.839844 C 104.066406 166.765625 104.066406 167.695312 104.066406 168.625 C 105.660156 168.609375 107.253906 168.625 108.851562 168.664062 C 109.097656 168.992188 109.042969 169.257812 108.691406 169.460938 C 106.960938 169.511719 105.234375 169.511719 103.507812 169.460938 C 103.390625 169.421875 103.296875 169.355469 103.226562 169.261719 C 103.136719 168.007812 103.09375 166.746094 103.105469 165.480469 C 103.121094 164.273438 103.132812 163.066406 103.148438 161.859375 C 103.191406 161.699219 103.285156 161.582031 103.425781 161.5 C 105.179688 161.445312 106.9375 161.445312 108.691406 161.5 C 109.117188 161.765625 109.117188 162.03125 108.691406 162.296875 C 107.175781 162.335938 105.660156 162.347656 104.144531 162.335938 Z M 104.144531 162.335938 "/>
<path style=" fill:rgb(59.607843%,59.607843%,59.607843%);fill-opacity:1;" d="M 42.71875 161.777344 C 42.730469 163.796875 42.71875 165.8125 42.679688 167.828125 C 42.621094 167.785156 42.582031 167.730469 42.558594 167.667969 C 42.613281 165.707031 42.664062 163.742188 42.71875 161.777344 Z M 42.71875 161.777344 "/>
<path style=" fill:rgb(98.431373%,98.431373%,98.431373%);fill-opacity:1;" d="M 90.183594 162.335938 C 91.25 162.324219 92.3125 162.335938 93.375 162.375 C 94.75 162.867188 95.054688 163.730469 94.292969 164.960938 C 93.984375 165.242188 93.628906 165.414062 93.214844 165.480469 C 92.207031 165.519531 91.195312 165.535156 90.183594 165.519531 C 90.183594 164.457031 90.183594 163.398438 90.183594 162.335938 Z M 90.183594 162.335938 "/>
<path style=" fill:rgb(71.764706%,71.764706%,71.764706%);fill-opacity:1;" d="M 37.851562 163.132812 C 37.800781 165.148438 37.746094 167.164062 37.691406 169.179688 C 37.679688 167.113281 37.691406 165.042969 37.734375 162.972656 C 37.789062 163.015625 37.828125 163.070312 37.851562 163.132812 Z M 37.851562 163.132812 "/>
<path style=" fill:rgb(61.960784%,61.960784%,61.960784%);fill-opacity:1;" d="M 58.035156 162.335938 C 58.035156 163.210938 58.035156 164.085938 58.035156 164.960938 C 59.40625 164.9375 60.761719 164.960938 62.105469 165.042969 C 60.722656 165.042969 59.339844 165.042969 57.957031 165.042969 C 57.929688 164.125 57.957031 163.222656 58.035156 162.335938 Z M 58.035156 162.335938 "/>
<path style=" fill:rgb(70.588235%,70.588235%,70.588235%);fill-opacity:1;" d="M 104.144531 162.335938 C 104.144531 163.210938 104.144531 164.085938 104.144531 164.960938 C 105.488281 164.9375 106.816406 164.960938 108.132812 165.042969 C 106.777344 165.042969 105.421875 165.042969 104.066406 165.042969 C 104.039062 164.125 104.066406 163.222656 104.144531 162.335938 Z M 104.144531 162.335938 "/>
<path style=" fill:rgb(3.529412%,3.529412%,3.529412%);fill-opacity:1;" d="M 99.917969 172.84375 C 100.21875 172.789062 100.445312 172.894531 100.59375 173.160156 C 100.808594 173.480469 101.019531 173.796875 101.234375 174.117188 C 101.289062 174.246094 101.277344 174.363281 101.191406 174.472656 C 100.996094 174.53125 100.808594 174.503906 100.632812 174.394531 C 100.273438 174.035156 99.917969 173.679688 99.558594 173.320312 C 99.503906 173.242188 99.503906 173.160156 99.558594 173.082031 C 99.6875 173.011719 99.808594 172.929688 99.917969 172.84375 Z M 99.917969 172.84375 "/>
<path style=" fill:rgb(3.921569%,3.921569%,3.921569%);fill-opacity:1;" d="M 53.089844 175.070312 C 53.84375 175.03125 54.589844 175.097656 55.324219 175.269531 C 55.730469 175.425781 56.089844 175.652344 56.398438 175.945312 C 56.527344 176.316406 56.40625 176.554688 56.039062 176.664062 C 55.613281 176.398438 55.160156 176.171875 54.683594 175.988281 C 53.898438 175.761719 53.15625 175.84375 52.449219 176.226562 C 52.074219 176.617188 51.957031 177.082031 52.09375 177.617188 C 52.207031 177.8125 52.355469 177.988281 52.53125 178.136719 C 53.550781 178.539062 54.585938 178.882812 55.640625 179.171875 C 56.570312 179.65625 56.929688 180.410156 56.71875 181.4375 C 56.507812 182.234375 56.015625 182.777344 55.242188 183.070312 C 53.621094 183.46875 52.171875 183.136719 50.894531 182.074219 C 50.769531 181.707031 50.890625 181.46875 51.253906 181.359375 C 51.785156 181.703125 52.34375 182.007812 52.929688 182.273438 C 53.511719 182.390625 54.09375 182.417969 54.683594 182.355469 C 55.550781 182.152344 55.9375 181.609375 55.839844 180.722656 C 55.667969 180.339844 55.390625 180.058594 55.003906 179.886719 C 54.019531 179.664062 53.0625 179.371094 52.132812 179.011719 C 51.132812 178.324219 50.851562 177.410156 51.292969 176.265625 C 51.738281 175.621094 52.335938 175.222656 53.089844 175.070312 Z M 53.089844 175.070312 "/>
<path style=" fill:rgb(3.529412%,3.529412%,3.529412%);fill-opacity:1;" d="M 66.011719 175.070312 C 67.050781 174.945312 68.035156 175.117188 68.964844 175.589844 C 69.160156 175.703125 69.332031 175.851562 69.484375 176.027344 C 69.515625 176.351562 69.371094 176.566406 69.042969 176.664062 C 68.617188 176.398438 68.164062 176.171875 67.6875 175.988281 C 66.902344 175.765625 66.160156 175.84375 65.453125 176.226562 C 64.898438 176.890625 64.925781 177.527344 65.535156 178.136719 C 66.617188 178.53125 67.707031 178.902344 68.804688 179.25 C 69.675781 179.804688 69.980469 180.589844 69.722656 181.597656 C 69.472656 182.324219 68.980469 182.816406 68.246094 183.070312 C 66.582031 183.523438 65.132812 183.167969 63.898438 181.996094 C 63.796875 181.660156 63.917969 181.445312 64.257812 181.359375 C 64.792969 181.707031 65.351562 182.011719 65.933594 182.273438 C 66.792969 182.5 67.617188 182.417969 68.40625 182.035156 C 69.066406 181.34375 69.039062 180.679688 68.324219 180.046875 C 67.328125 179.695312 66.316406 179.375 65.292969 179.089844 C 64.121094 178.40625 63.8125 177.4375 64.378906 176.1875 C 64.785156 175.605469 65.332031 175.234375 66.011719 175.070312 Z M 66.011719 175.070312 "/>
<path style=" fill:rgb(3.529412%,3.529412%,3.529412%);fill-opacity:1;" d="M 83.003906 175.070312 C 84.238281 174.917969 85.371094 175.179688 86.394531 175.867188 C 86.597656 176.257812 86.492188 176.523438 86.074219 176.664062 C 85.640625 176.425781 85.203125 176.203125 84.757812 175.988281 C 84.015625 175.78125 83.296875 175.832031 82.605469 176.144531 C 81.9375 176.734375 81.882812 177.371094 82.445312 178.054688 C 82.617188 178.183594 82.804688 178.289062 83.003906 178.375 C 83.773438 178.597656 84.542969 178.808594 85.316406 179.011719 C 86.773438 179.660156 87.160156 180.707031 86.472656 182.15625 C 86.019531 182.742188 85.417969 183.101562 84.679688 183.230469 C 83.425781 183.347656 82.28125 183.054688 81.25 182.355469 C 80.703125 181.957031 80.726562 181.625 81.328125 181.359375 C 81.820312 181.726562 82.351562 182.03125 82.925781 182.273438 C 83.742188 182.480469 84.542969 182.425781 85.316406 182.117188 C 85.960938 181.546875 86.039062 180.910156 85.558594 180.207031 C 85.261719 180.003906 84.941406 179.84375 84.601562 179.726562 C 83.597656 179.609375 82.664062 179.292969 81.808594 178.773438 C 81.324219 178.367188 81.109375 177.851562 81.167969 177.21875 C 81.109375 176.589844 81.324219 176.070312 81.808594 175.667969 C 82.1875 175.40625 82.585938 175.207031 83.003906 175.070312 Z M 83.003906 175.070312 "/>
<path style=" fill:rgb(3.921569%,3.921569%,3.921569%);fill-opacity:1;" d="M 128.316406 175.070312 C 129.40625 174.945312 130.445312 175.117188 131.425781 175.589844 C 131.625 175.703125 131.796875 175.851562 131.945312 176.027344 C 132.007812 176.375 131.863281 176.589844 131.507812 176.664062 C 131.078125 176.398438 130.628906 176.171875 130.152344 175.988281 C 129.320312 175.742188 128.546875 175.851562 127.835938 176.304688 C 127.371094 176.964844 127.421875 177.574219 127.996094 178.136719 C 128.296875 178.3125 128.617188 178.445312 128.953125 178.535156 C 129.859375 178.679688 130.710938 178.972656 131.507812 179.410156 C 132.542969 180.421875 132.570312 181.46875 131.585938 182.554688 C 130.535156 183.289062 129.390625 183.460938 128.15625 183.070312 C 127.453125 182.875 126.855469 182.515625 126.359375 181.996094 C 126.261719 181.660156 126.378906 181.445312 126.71875 181.359375 C 127.253906 181.707031 127.8125 182.011719 128.394531 182.273438 C 129.214844 182.476562 130.011719 182.421875 130.789062 182.117188 C 131.527344 181.414062 131.527344 180.726562 130.789062 180.046875 C 129.785156 179.707031 128.773438 179.390625 127.757812 179.089844 C 126.566406 178.398438 126.261719 177.433594 126.839844 176.1875 C 127.226562 175.667969 127.71875 175.296875 128.316406 175.070312 Z M 128.316406 175.070312 "/>
<path style=" fill:rgb(2.745098%,2.745098%,2.745098%);fill-opacity:1;" d="M 32.667969 175.152344 C 33.894531 175.117188 35.117188 175.160156 36.335938 175.269531 C 38.621094 175.9375 39.644531 177.464844 39.40625 179.847656 C 39.007812 181.679688 37.878906 182.753906 36.019531 183.070312 C 34.902344 183.125 33.785156 183.125 32.667969 183.070312 C 32.601562 183.003906 32.535156 182.9375 32.46875 182.871094 C 32.414062 180.378906 32.414062 177.882812 32.46875 175.390625 C 32.550781 175.320312 32.617188 175.242188 32.667969 175.152344 Z M 32.667969 175.152344 "/>
<path style=" fill:rgb(3.529412%,3.529412%,3.529412%);fill-opacity:1;" d="M 42.71875 175.152344 C 44.527344 175.136719 46.335938 175.152344 48.144531 175.191406 C 48.355469 175.429688 48.355469 175.667969 48.144531 175.90625 C 46.574219 175.945312 45.003906 175.960938 43.4375 175.945312 C 43.4375 176.847656 43.4375 177.75 43.4375 178.652344 C 44.820312 178.640625 46.203125 178.652344 47.585938 178.691406 C 47.902344 178.960938 47.902344 179.226562 47.585938 179.488281 C 46.203125 179.527344 44.820312 179.542969 43.4375 179.527344 C 43.4375 180.457031 43.4375 181.386719 43.4375 182.316406 C 45.03125 182.300781 46.628906 182.316406 48.222656 182.355469 C 48.4375 182.59375 48.4375 182.832031 48.222656 183.070312 C 46.386719 183.125 44.554688 183.125 42.71875 183.070312 C 42.652344 183.003906 42.585938 182.9375 42.519531 182.871094 C 42.464844 180.378906 42.464844 177.882812 42.519531 175.390625 C 42.601562 175.320312 42.667969 175.242188 42.71875 175.152344 Z M 42.71875 175.152344 "/>
<path style=" fill:rgb(3.137255%,3.137255%,3.137255%);fill-opacity:1;" d="M 72.074219 175.070312 C 72.34375 175.035156 72.570312 175.117188 72.753906 175.308594 C 73.632812 176.582031 74.507812 177.855469 75.386719 179.128906 C 76.261719 177.882812 77.140625 176.636719 78.019531 175.390625 C 78.320312 174.96875 78.613281 174.96875 78.894531 175.390625 C 78.945312 175.558594 78.921875 175.71875 78.816406 175.867188 C 77.832031 177.21875 76.847656 178.574219 75.863281 179.925781 C 75.839844 180.933594 75.8125 181.941406 75.785156 182.953125 C 75.503906 183.265625 75.238281 183.265625 74.988281 182.953125 C 74.960938 181.96875 74.933594 180.988281 74.90625 180.007812 C 73.835938 178.550781 72.808594 177.066406 71.835938 175.550781 C 71.875 175.367188 71.953125 175.207031 72.074219 175.070312 Z M 72.074219 175.070312 "/>
<path style=" fill:rgb(1.568627%,1.568627%,1.568627%);fill-opacity:1;" d="M 91.78125 182.953125 C 91.78125 180.617188 91.78125 178.28125 91.78125 175.945312 C 90.929688 175.945312 90.078125 175.945312 89.226562 175.945312 C 89 175.792969 88.933594 175.582031 89.027344 175.308594 C 89.085938 175.261719 89.152344 175.21875 89.226562 175.191406 C 91.195312 175.136719 93.160156 175.136719 95.128906 175.191406 C 95.414062 175.390625 95.441406 175.632812 95.210938 175.90625 C 94.359375 175.945312 93.507812 175.960938 92.65625 175.945312 C 92.671875 178.253906 92.65625 180.5625 92.617188 182.871094 C 92.527344 183.078125 92.367188 183.183594 92.136719 183.191406 C 91.964844 183.1875 91.84375 183.109375 91.78125 182.953125 Z M 91.78125 182.953125 "/>
<path style=" fill:rgb(0.784314%,0.784314%,0.784314%);fill-opacity:1;" d="M 103.746094 175.945312 C 102.175781 175.945312 100.609375 175.945312 99.039062 175.945312 C 99.039062 176.875 99.039062 177.804688 99.039062 178.734375 C 100.421875 178.734375 101.804688 178.734375 103.1875 178.734375 C 103.578125 178.933594 103.601562 179.1875 103.265625 179.488281 C 101.882812 179.527344 100.5 179.542969 99.117188 179.527344 C 99.039062 180.441406 99.011719 181.371094 99.039062 182.316406 C 100.609375 182.316406 102.175781 182.316406 103.746094 182.316406 C 104.128906 182.53125 104.15625 182.78125 103.824219 183.070312 C 101.988281 183.136719 100.152344 183.125 98.320312 183.03125 C 98.265625 182.988281 98.226562 182.9375 98.203125 182.871094 C 98.148438 180.378906 98.148438 177.882812 98.203125 175.390625 C 98.265625 175.324219 98.335938 175.257812 98.402344 175.191406 C 100.183594 175.136719 101.964844 175.136719 103.746094 175.191406 C 104.0625 175.449219 104.0625 175.699219 103.746094 175.945312 Z M 103.746094 175.945312 "/>
<path style=" fill:rgb(2.352941%,2.352941%,2.352941%);fill-opacity:1;" d="M 113.71875 182.871094 C 113.730469 180.855469 113.71875 178.839844 113.675781 176.824219 C 113.621094 176.867188 113.578125 176.917969 113.558594 176.980469 C 112.792969 178.160156 112.007812 179.324219 111.203125 180.484375 C 110.910156 180.90625 110.621094 180.90625 110.328125 180.484375 C 109.554688 179.328125 108.769531 178.1875 107.972656 177.0625 C 107.949219 177 107.910156 176.945312 107.855469 176.902344 C 107.8125 178.890625 107.800781 180.882812 107.8125 182.871094 C 107.570312 183.257812 107.292969 183.285156 106.976562 182.953125 C 106.921875 180.429688 106.921875 177.910156 106.976562 175.390625 C 107.066406 175.191406 107.226562 175.113281 107.453125 175.152344 C 107.640625 175.136719 107.800781 175.1875 107.933594 175.308594 C 108.855469 176.757812 109.800781 178.1875 110.765625 179.609375 C 111.703125 178.242188 112.621094 176.863281 113.519531 175.46875 C 113.820312 175.117188 114.164062 175.0625 114.554688 175.308594 C 114.609375 177.855469 114.609375 180.402344 114.554688 182.953125 C 114.238281 183.285156 113.960938 183.257812 113.71875 182.871094 Z M 113.71875 182.871094 "/>
<path style=" fill:rgb(1.960784%,1.960784%,1.960784%);fill-opacity:1;" d="M 118.265625 175.152344 C 120.046875 175.136719 121.828125 175.152344 123.609375 175.191406 C 123.894531 175.398438 123.921875 175.640625 123.6875 175.90625 C 122.09375 175.945312 120.496094 175.960938 118.902344 175.945312 C 118.902344 176.847656 118.902344 177.75 118.902344 178.652344 C 120.257812 178.640625 121.613281 178.652344 122.972656 178.691406 C 123.265625 178.828125 123.359375 179.050781 123.25 179.371094 C 123.191406 179.417969 123.125 179.460938 123.050781 179.488281 C 121.667969 179.527344 120.285156 179.542969 118.902344 179.527344 C 118.902344 180.457031 118.902344 181.386719 118.902344 182.316406 C 120.496094 182.300781 122.09375 182.316406 123.6875 182.355469 C 123.902344 182.59375 123.902344 182.832031 123.6875 183.070312 C 121.855469 183.125 120.019531 183.125 118.183594 183.070312 C 118.144531 183.03125 118.105469 182.992188 118.066406 182.953125 C 118.011719 180.402344 118.011719 177.855469 118.066406 175.308594 C 118.144531 175.265625 118.210938 175.210938 118.265625 175.152344 Z M 118.265625 175.152344 "/>
<path style=" fill:rgb(45.882353%,45.882353%,45.882353%);fill-opacity:1;" d="M 35.539062 176.027344 C 34.820312 176.027344 34.101562 176.027344 33.386719 176.027344 C 33.386719 178.097656 33.386719 180.164062 33.386719 182.234375 C 34.15625 182.234375 34.925781 182.234375 35.699219 182.234375 C 34.914062 182.3125 34.117188 182.339844 33.304688 182.316406 C 33.304688 180.191406 33.304688 178.070312 33.304688 175.945312 C 34.066406 175.921875 34.808594 175.949219 35.539062 176.027344 Z M 35.539062 176.027344 "/>
<path style=" fill:rgb(99.215686%,99.215686%,99.215686%);fill-opacity:1;" d="M 35.539062 176.027344 C 37.425781 176.210938 38.410156 177.246094 38.492188 179.128906 C 38.429688 180.945312 37.496094 181.980469 35.699219 182.234375 C 34.925781 182.234375 34.15625 182.234375 33.386719 182.234375 C 33.386719 180.164062 33.386719 178.097656 33.386719 176.027344 C 34.101562 176.027344 34.820312 176.027344 35.539062 176.027344 Z M 35.539062 176.027344 "/>
<path style=" fill:rgb(56.078431%,56.078431%,56.078431%);fill-opacity:1;" d="M 103.746094 175.945312 C 102.21875 176.027344 100.675781 176.050781 99.117188 176.027344 C 99.117188 176.902344 99.117188 177.777344 99.117188 178.652344 C 100.488281 178.625 101.84375 178.652344 103.1875 178.734375 C 101.804688 178.734375 100.421875 178.734375 99.039062 178.734375 C 99.039062 177.804688 99.039062 176.875 99.039062 175.945312 C 100.609375 175.945312 102.175781 175.945312 103.746094 175.945312 Z M 103.746094 175.945312 "/>
<path style=" fill:rgb(39.215686%,39.215686%,39.215686%);fill-opacity:1;" d="M 89.226562 175.945312 C 90.078125 175.945312 90.929688 175.945312 91.78125 175.945312 C 91.78125 178.28125 91.78125 180.617188 91.78125 182.953125 C 91.699219 180.65625 91.671875 178.347656 91.699219 176.027344 C 90.859375 176.050781 90.035156 176.027344 89.226562 175.945312 Z M 89.226562 175.945312 "/>
<path style=" fill:rgb(65.882353%,65.882353%,65.882353%);fill-opacity:1;" d="M 113.71875 182.871094 C 113.664062 180.90625 113.609375 178.945312 113.558594 176.980469 C 113.578125 176.917969 113.621094 176.867188 113.675781 176.824219 C 113.71875 178.839844 113.730469 180.855469 113.71875 182.871094 Z M 113.71875 182.871094 "/>
<path style=" fill:rgb(75.686275%,75.686275%,75.686275%);fill-opacity:1;" d="M 107.972656 177.0625 C 107.921875 178.996094 107.867188 180.933594 107.8125 182.871094 C 107.800781 180.882812 107.8125 178.890625 107.855469 176.902344 C 107.910156 176.945312 107.949219 177 107.972656 177.0625 Z M 107.972656 177.0625 "/>
<path style=" fill:rgb(69.803922%,69.803922%,69.803922%);fill-opacity:1;" d="M 99.117188 179.527344 C 99.117188 180.429688 99.117188 181.332031 99.117188 182.234375 C 100.675781 182.207031 102.21875 182.234375 103.746094 182.316406 C 102.175781 182.316406 100.609375 182.316406 99.039062 182.316406 C 99.011719 181.371094 99.039062 180.441406 99.117188 179.527344 Z M 99.117188 179.527344 "/>
<path style=" fill:rgb(5.098039%,5.098039%,5.098039%);fill-opacity:1;" d="M 42.640625 188.761719 C 42.945312 188.710938 43.171875 188.816406 43.316406 189.082031 C 43.371094 189.503906 43.371094 189.929688 43.316406 190.355469 C 43.140625 191.042969 42.703125 191.375 42 191.347656 C 41.917969 191.265625 41.90625 191.171875 41.960938 191.070312 C 42.1875 190.929688 42.402344 190.769531 42.597656 190.59375 C 42.648438 190.460938 42.6875 190.328125 42.71875 190.195312 C 42.480469 189.980469 42.320312 189.71875 42.238281 189.398438 C 42.257812 189.105469 42.390625 188.890625 42.640625 188.761719 Z M 42.640625 188.761719 "/>
<path style=" fill:rgb(1.176471%,1.176471%,1.176471%);fill-opacity:1;" d="M 46.789062 188.761719 C 47.039062 188.71875 47.238281 188.796875 47.386719 189 C 47.4375 191.546875 47.4375 194.09375 47.386719 196.640625 C 47.121094 196.960938 46.855469 196.960938 46.585938 196.640625 C 46.535156 194.09375 46.535156 191.546875 46.585938 189 C 46.671875 188.929688 46.738281 188.851562 46.789062 188.761719 Z M 46.789062 188.761719 "/>
<path style=" fill:rgb(3.137255%,3.137255%,3.137255%);fill-opacity:1;" d="M 56.679688 195.050781 C 56.703125 195.113281 56.742188 195.167969 56.796875 195.210938 C 56.839844 193.167969 56.851562 191.125 56.839844 189.082031 C 56.992188 188.757812 57.230469 188.691406 57.554688 188.882812 C 57.605469 188.941406 57.644531 189.007812 57.675781 189.082031 C 57.730469 191.574219 57.730469 194.070312 57.675781 196.5625 C 57.363281 196.976562 57.046875 196.976562 56.71875 196.5625 C 55.128906 194.46875 53.503906 192.398438 51.851562 190.355469 C 51.828125 192.421875 51.800781 194.492188 51.773438 196.5625 C 51.539062 196.9375 51.273438 196.964844 50.976562 196.640625 C 50.921875 194.09375 50.921875 191.546875 50.976562 189 C 51.289062 188.6875 51.609375 188.6875 51.933594 189 C 53.496094 191.035156 55.078125 193.054688 56.679688 195.050781 Z M 56.679688 195.050781 "/>
<path style=" fill:rgb(3.529412%,3.529412%,3.529412%);fill-opacity:1;" d="M 73.351562 196.960938 C 73.140625 196.960938 72.925781 196.960938 72.714844 196.960938 C 71.636719 196.800781 70.746094 196.296875 70.042969 195.449219 C 68.984375 193.808594 68.933594 192.136719 69.882812 190.433594 C 71.007812 188.964844 72.484375 188.417969 74.308594 188.800781 C 76.25 189.398438 77.261719 190.714844 77.339844 192.742188 C 77.203125 195.292969 75.875 196.699219 73.351562 196.960938 Z M 73.351562 196.960938 "/>
<path style=" fill:rgb(3.921569%,3.921569%,3.921569%);fill-opacity:1;" d="M 103.824219 188.761719 C 104.066406 188.75 104.304688 188.761719 104.542969 188.800781 C 105.753906 191.230469 106.910156 193.683594 108.011719 196.164062 C 108.089844 196.78125 107.847656 196.964844 107.296875 196.722656 C 106.996094 196.082031 106.691406 195.445312 106.378906 194.8125 C 104.890625 194.730469 103.402344 194.707031 101.910156 194.730469 C 101.679688 195.492188 101.332031 196.195312 100.875 196.839844 C 100.410156 196.855469 100.238281 196.628906 100.355469 196.164062 C 101.46875 193.675781 102.625 191.210938 103.824219 188.761719 Z M 103.824219 188.761719 "/>
<path style=" fill:rgb(1.176471%,1.176471%,1.176471%);fill-opacity:1;" d="M 118.824219 188.761719 C 119.074219 188.71875 119.273438 188.796875 119.421875 189 C 119.472656 191.546875 119.472656 194.09375 119.421875 196.640625 C 119.15625 196.960938 118.890625 196.960938 118.625 196.640625 C 118.570312 194.09375 118.570312 191.546875 118.625 189 C 118.707031 188.929688 118.773438 188.851562 118.824219 188.761719 Z M 118.824219 188.761719 "/>
<path style=" fill:rgb(3.529412%,3.529412%,3.529412%);fill-opacity:1;" d="M 127.039062 196.960938 C 126.746094 196.960938 126.453125 196.960938 126.160156 196.960938 C 123.597656 196.375 122.414062 194.757812 122.613281 192.105469 C 123.414062 189.347656 125.234375 188.273438 128.078125 188.882812 C 129.554688 189.507812 130.445312 190.609375 130.75 192.183594 C 130.867188 194.847656 129.628906 196.441406 127.039062 196.960938 Z M 127.039062 196.960938 "/>
<path style=" fill:rgb(5.490196%,5.490196%,5.490196%);fill-opacity:1;" d="M 134.140625 188.761719 C 134.453125 188.726562 134.703125 188.832031 134.898438 189.082031 C 136.464844 191.097656 138.035156 193.113281 139.605469 195.128906 C 139.628906 193.085938 139.65625 191.042969 139.683594 189 C 139.976562 188.683594 140.269531 188.683594 140.5625 189 C 140.613281 191.519531 140.613281 194.042969 140.5625 196.5625 C 140.257812 196.980469 139.9375 196.980469 139.605469 196.5625 C 138.011719 194.46875 136.390625 192.398438 134.738281 190.355469 C 134.710938 192.421875 134.683594 194.492188 134.65625 196.5625 C 134.433594 196.953125 134.167969 196.976562 133.859375 196.640625 C 133.804688 194.09375 133.804688 191.546875 133.859375 189 C 133.953125 188.910156 134.042969 188.832031 134.140625 188.761719 Z M 134.140625 188.761719 "/>
<path style=" fill:rgb(4.705882%,4.705882%,4.705882%);fill-opacity:1;" d="M 32.667969 188.839844 C 33.921875 188.808594 35.171875 188.847656 36.417969 188.960938 C 38.65625 189.628906 39.652344 191.128906 39.40625 193.457031 C 39.078125 195.1875 38.054688 196.261719 36.335938 196.679688 C 35.117188 196.804688 33.894531 196.832031 32.667969 196.761719 C 32.628906 196.722656 32.585938 196.679688 32.546875 196.640625 C 32.414062 194.128906 32.390625 191.605469 32.46875 189.082031 C 32.550781 189.011719 32.617188 188.929688 32.667969 188.839844 Z M 32.667969 188.839844 "/>
<path style=" fill:rgb(2.352941%,2.352941%,2.352941%);fill-opacity:1;" d="M 61.304688 188.839844 C 63.132812 188.816406 64.953125 188.84375 66.769531 188.921875 C 66.953125 189.191406 66.914062 189.414062 66.652344 189.597656 C 65.109375 189.636719 63.566406 189.652344 62.023438 189.636719 C 62.023438 190.59375 62.023438 191.546875 62.023438 192.503906 C 63.40625 192.488281 64.789062 192.503906 66.171875 192.542969 C 66.386719 192.78125 66.386719 193.019531 66.171875 193.257812 C 64.789062 193.296875 63.40625 193.3125 62.023438 193.296875 C 62.039062 194.386719 62.023438 195.476562 61.984375 196.5625 C 61.683594 196.984375 61.390625 196.984375 61.105469 196.5625 C 61.054688 194.070312 61.054688 191.574219 61.105469 189.082031 C 61.191406 189.011719 61.257812 188.929688 61.304688 188.839844 Z M 61.304688 188.839844 "/>
<path style=" fill:rgb(2.745098%,2.745098%,2.745098%);fill-opacity:1;" d="M 83.640625 193.777344 C 82.859375 193.699219 82.0625 193.671875 81.25 193.695312 C 81.25 194.625 81.25 195.554688 81.25 196.484375 C 81.136719 196.875 80.898438 196.96875 80.53125 196.761719 C 80.480469 196.703125 80.441406 196.636719 80.410156 196.5625 C 80.359375 194.070312 80.359375 191.574219 80.410156 189.082031 C 80.476562 189.015625 80.546875 188.949219 80.609375 188.882812 C 81.96875 188.828125 83.324219 188.828125 84.679688 188.882812 C 86.621094 189.484375 87.167969 190.71875 86.316406 192.582031 C 85.84375 193.082031 85.269531 193.414062 84.601562 193.578125 C 85.308594 194.417969 85.984375 195.277344 86.632812 196.164062 C 86.738281 196.667969 86.539062 196.894531 86.035156 196.839844 C 85.222656 195.828125 84.421875 194.808594 83.640625 193.777344 Z M 83.640625 193.777344 "/>
<path style=" fill:rgb(1.960784%,1.960784%,1.960784%);fill-opacity:1;" d="M 96.566406 196.484375 C 96.59375 194.492188 96.566406 192.503906 96.484375 190.511719 C 96.4375 190.523438 96.410156 190.550781 96.40625 190.59375 C 95.617188 191.824219 94.804688 193.042969 93.972656 194.253906 C 93.683594 194.480469 93.417969 194.453125 93.175781 194.175781 C 92.402344 193.019531 91.617188 191.878906 90.820312 190.75 C 90.78125 190.675781 90.742188 190.59375 90.703125 190.511719 C 90.664062 192.503906 90.648438 194.492188 90.664062 196.484375 C 90.464844 196.9375 90.1875 196.992188 89.824219 196.640625 C 89.773438 194.09375 89.773438 191.546875 89.824219 189 C 90.097656 188.722656 90.386719 188.699219 90.703125 188.921875 C 91.652344 190.371094 92.625 191.804688 93.613281 193.21875 C 94.597656 191.84375 95.539062 190.4375 96.445312 189 C 96.71875 188.722656 97.007812 188.699219 97.324219 188.921875 C 97.457031 191.460938 97.480469 194.007812 97.402344 196.5625 C 97.074219 197.007812 96.796875 196.980469 96.566406 196.484375 Z M 96.566406 196.484375 "/>
<path style=" fill:rgb(3.529412%,3.529412%,3.529412%);fill-opacity:1;" d="M 109.488281 188.839844 C 111.511719 188.828125 113.53125 188.839844 115.550781 188.882812 C 115.765625 189.121094 115.765625 189.359375 115.550781 189.597656 C 114.703125 189.636719 113.851562 189.652344 113 189.636719 C 113.011719 191.945312 113 194.253906 112.960938 196.5625 C 112.667969 196.988281 112.375 196.988281 112.082031 196.5625 C 112.042969 194.253906 112.027344 191.945312 112.042969 189.636719 C 111.191406 189.652344 110.339844 189.636719 109.488281 189.597656 C 109.28125 189.339844 109.28125 189.089844 109.488281 188.839844 Z M 109.488281 188.839844 "/>
<path style=" fill:rgb(36.862745%,36.862745%,36.862745%);fill-opacity:1;" d="M 56.839844 189.082031 C 56.851562 191.125 56.839844 193.167969 56.796875 195.210938 C 56.742188 195.167969 56.703125 195.113281 56.679688 195.050781 C 56.730469 193.058594 56.785156 191.070312 56.839844 189.082031 Z M 56.839844 189.082031 "/>
<path style=" fill:rgb(98.823529%,98.823529%,98.823529%);fill-opacity:1;" d="M 72.472656 189.558594 C 75.191406 189.441406 76.480469 190.742188 76.34375 193.457031 C 75.839844 195.414062 74.574219 196.277344 72.554688 196.042969 C 71.375 195.714844 70.617188 194.960938 70.28125 193.777344 C 69.835938 191.746094 70.566406 190.339844 72.472656 189.558594 Z M 72.472656 189.558594 "/>
<path style=" fill:rgb(98.431373%,98.431373%,98.431373%);fill-opacity:1;" d="M 125.921875 189.558594 C 127.96875 189.335938 129.257812 190.210938 129.792969 192.183594 C 129.996094 193.996094 129.261719 195.257812 127.597656 195.964844 C 125.613281 196.347656 124.296875 195.59375 123.648438 193.695312 C 123.339844 192.398438 123.644531 191.269531 124.566406 190.3125 C 124.976562 189.976562 125.429688 189.726562 125.921875 189.558594 Z M 125.921875 189.558594 "/>
<path style=" fill:rgb(98.823529%,98.823529%,98.823529%);fill-opacity:1;" d="M 33.386719 189.636719 C 34.292969 189.621094 35.195312 189.660156 36.097656 189.757812 C 37.960938 190.328125 38.746094 191.589844 38.449219 193.539062 C 38.128906 194.867188 37.292969 195.648438 35.9375 195.886719 C 35.085938 195.925781 34.238281 195.9375 33.386719 195.925781 C 33.386719 193.828125 33.386719 191.734375 33.386719 189.636719 Z M 33.386719 189.636719 "/>
<path style=" fill:rgb(55.294118%,55.294118%,55.294118%);fill-opacity:1;" d="M 84.042969 189.71875 C 83.136719 189.71875 82.234375 189.71875 81.328125 189.71875 C 81.328125 190.75 81.328125 191.785156 81.328125 192.820312 C 82.3125 192.820312 83.296875 192.820312 84.28125 192.820312 C 83.285156 192.902344 82.273438 192.925781 81.25 192.902344 C 81.25 191.8125 81.25 190.726562 81.25 189.636719 C 82.195312 189.609375 83.125 189.636719 84.042969 189.71875 Z M 84.042969 189.71875 "/>
<path style=" fill:rgb(98.823529%,98.823529%,98.823529%);fill-opacity:1;" d="M 84.042969 189.71875 C 85.421875 189.808594 85.96875 190.523438 85.675781 191.867188 C 85.375 192.417969 84.910156 192.734375 84.28125 192.820312 C 83.296875 192.820312 82.3125 192.820312 81.328125 192.820312 C 81.328125 191.785156 81.328125 190.75 81.328125 189.71875 C 82.234375 189.71875 83.136719 189.71875 84.042969 189.71875 Z M 84.042969 189.71875 "/>
<path style=" fill:rgb(97.647059%,97.647059%,97.647059%);fill-opacity:1;" d="M 104.066406 189.875 C 104.136719 189.867188 104.1875 189.890625 104.222656 189.957031 C 104.792969 191.238281 105.378906 192.511719 105.980469 193.777344 C 104.78125 193.882812 103.585938 193.882812 102.390625 193.777344 C 102.972656 192.484375 103.53125 191.183594 104.066406 189.875 Z M 104.066406 189.875 "/>
<path style=" fill:rgb(30.196078%,30.196078%,30.196078%);fill-opacity:1;" d="M 96.40625 190.59375 C 96.410156 190.550781 96.4375 190.523438 96.484375 190.511719 C 96.566406 192.503906 96.59375 194.492188 96.566406 196.484375 C 96.511719 194.519531 96.460938 192.554688 96.40625 190.59375 Z M 96.40625 190.59375 "/>
<path style=" fill:rgb(74.117647%,74.117647%,74.117647%);fill-opacity:1;" d="M 90.820312 190.75 C 90.769531 192.660156 90.714844 194.574219 90.664062 196.484375 C 90.648438 194.492188 90.664062 192.503906 90.703125 190.511719 C 90.742188 190.59375 90.78125 190.675781 90.820312 190.75 Z M 90.820312 190.75 "/>
<path style=" fill:rgb(50.588235%,50.588235%,50.588235%);fill-opacity:1;" d="M 83.640625 193.777344 C 82.871094 193.777344 82.101562 193.777344 81.328125 193.777344 C 81.355469 194.691406 81.328125 195.59375 81.25 196.484375 C 81.25 195.554688 81.25 194.625 81.25 193.695312 C 82.0625 193.671875 82.859375 193.699219 83.640625 193.777344 Z M 83.640625 193.777344 "/>
</g>
</svg>
